<?xml version="1.0" encoding="UTF-8"?>
<!DOCTYPE svg PUBLIC "-//W3C//DTD SVG 1.1//EN" "http://www.w3.org/Graphics/SVG/1.1/DTD/svg11.dtd">
<svg xmlns="http://www.w3.org/2000/svg" version="1.1" width="1594px" height="443px" style="shape-rendering:geometricPrecision; text-rendering:geometricPrecision; image-rendering:optimizeQuality; fill-rule:evenodd; clip-rule:evenodd" xmlns:xlink="http://www.w3.org/1999/xlink">
<g><path style="opacity:1" fill="#f70032" d="M -0.5,-0.5 C 530.833,-0.5 1062.17,-0.5 1593.5,-0.5C 1593.5,147.167 1593.5,294.833 1593.5,442.5C 1062.17,442.5 530.833,442.5 -0.5,442.5C -0.5,294.833 -0.5,147.167 -0.5,-0.5 Z"/></g>
<g><path style="opacity:1" fill="#fbe3ed" d="M 1018.5,189.5 C 870.5,189.5 722.5,189.5 574.5,189.5C 574.5,185.833 574.5,182.167 574.5,178.5C 722.5,178.5 870.5,178.5 1018.5,178.5C 1018.5,182.167 1018.5,185.833 1018.5,189.5 Z"/></g>
<g><path style="opacity:1" fill="#fefefe" d="M 575.5,179.5 C 722.833,179.5 870.167,179.5 1017.5,179.5C 1017.5,182.5 1017.5,185.5 1017.5,188.5C 870.167,188.5 722.833,188.5 575.5,188.5C 575.5,185.5 575.5,182.5 575.5,179.5 Z"/></g>
<g><path style="opacity:1" fill="#f3153c" d="M 685.5,243.5 C 685.828,231.322 685.495,219.322 684.5,207.5C 682.715,203.378 679.715,200.711 675.5,199.5C 676.833,199.5 678.167,199.5 679.5,199.5C 679.5,196.833 679.5,194.167 679.5,191.5C 681.199,191.34 682.866,191.506 684.5,192C 683.919,192.893 683.585,193.893 683.5,195C 684.971,197.444 686.305,199.944 687.5,202.5C 686.948,216.159 686.281,229.826 685.5,243.5 Z"/></g>
<g><path style="opacity:1" fill="#f11a3c" d="M 574.5,189.5 C 722.5,189.5 870.5,189.5 1018.5,189.5C 934.668,190.499 850.668,190.833 766.5,190.5C 766.215,192.288 766.548,193.955 767.5,195.5C 769.163,194.125 770.497,194.458 771.5,196.5C 772.251,195.624 772.751,194.624 773,193.5C 773.833,195 775,196.167 776.5,197C 779.992,196.93 782.992,197.763 785.5,199.5C 782.167,199.5 778.833,199.5 775.5,199.5C 774.504,213.99 774.171,228.657 774.5,243.5C 772.843,229.523 771.843,215.19 771.5,200.5C 770.833,204.5 770.167,208.5 769.5,212.5C 766.999,214.256 764.166,214.59 761,213.5C 758.659,213.83 756.492,214.496 754.5,215.5C 754.916,213.248 756.249,211.748 758.5,211C 761.146,210.503 763.813,210.336 766.5,210.5C 766.5,206.833 766.5,203.167 766.5,199.5C 763.813,199.336 761.146,199.503 758.5,200C 756.291,201.873 754.458,204.04 753,206.5C 752.505,204.527 752.338,202.527 752.5,200.5C 749.167,200.5 745.833,200.5 742.5,200.5C 741.504,214.657 741.171,228.99 741.5,243.5C 740.669,229.006 740.169,214.339 740,199.5C 737.906,208.43 737.406,217.43 738.5,226.5C 738.291,227.994 737.624,229.161 736.5,230C 737.333,232.081 737.333,234.248 736.5,236.5C 735.041,236.433 733.708,236.766 732.5,237.5C 732.893,235.716 733.559,234.05 734.5,232.5C 735.043,232.44 735.376,232.107 735.5,231.5C 731.351,230.191 727.351,230.191 723.5,231.5C 719.657,235.337 714.99,236.504 709.5,235C 706.8,233.143 705.134,230.643 704.5,227.5C 714.626,225.842 724.96,224.842 735.5,224.5C 735.566,205.078 725.899,196.911 706.5,200C 694.721,205.392 690.221,214.559 693,227.5C 693.895,230.951 695.062,234.284 696.5,237.5C 695.312,236.316 694.145,236.316 693,237.5C 692.667,235.167 692.333,232.833 692,230.5C 690.997,232.935 690.497,232.602 690.5,229.5C 690.66,216.955 690.66,204.455 690.5,192C 700.161,191.5 709.828,191.334 719.5,191.5C 719.5,192.5 719.5,193.5 719.5,194.5C 720.5,194.5 721.5,194.5 722.5,194.5C 722.64,196.124 721.973,197.29 720.5,198C 721.891,199.02 723.391,199.853 725,200.5C 726.405,197.381 726.905,194.048 726.5,190.5C 675.664,190.832 624.997,190.499 574.5,189.5 Z"/></g>
<g><path style="opacity:1" fill="#f5173a" d="M 993.5,198.5 C 988.443,200.026 984.277,203.026 981,207.5C 978.882,215.839 981.715,221.672 989.5,225C 994.833,226.333 1000.17,227.667 1005.5,229C 1008.46,232.763 1007.46,235.096 1002.5,236C 996.333,238.087 992.333,236.087 990.5,230C 986.848,229.501 983.182,229.335 979.5,229.5C 979.655,233.636 980.989,237.302 983.5,240.5C 980.577,238.899 977.91,239.232 975.5,241.5C 975.833,242.167 976.167,242.833 976.5,243.5C 971.348,244.814 966.348,244.814 961.5,243.5C 965.884,243.826 970.217,243.492 974.5,242.5C 973.855,241.354 973.022,240.354 972,239.5C 971.667,228.5 971.333,217.5 971,206.5C 969.125,203.813 966.625,201.979 963.5,201C 958.246,199.729 952.913,199.229 947.5,199.5C 951.261,198.016 955.261,197.016 959.5,196.5C 960.452,194.955 960.785,193.288 960.5,191.5C 962.167,191.5 963.833,191.5 965.5,191.5C 965.183,194.572 965.516,197.572 966.5,200.5C 968.409,199.652 970.409,199.318 972.5,199.5C 972.5,196.833 972.5,194.167 972.5,191.5C 982.167,191.5 991.833,191.5 1001.5,191.5C 1001.7,193.638 1002.7,195.305 1004.5,196.5C 1002.24,197.647 999.902,197.814 997.5,197C 1001.38,195.935 1001.38,195.101 997.5,194.5C 995.519,194.437 993.852,195.104 992.5,196.5C 991.105,195.185 990.105,195.519 989.5,197.5C 990.689,198.429 992.022,198.762 993.5,198.5 Z"/></g>
<g><path style="opacity:1" fill="#ea6e82" d="M 599.5,199.5 C 594.009,199.15 588.676,199.816 583.5,201.5C 584.347,200.034 585.68,199.2 587.5,199C 591.689,198.188 595.689,198.355 599.5,199.5 Z"/></g>
<g><path style="opacity:1" fill="#e84a63" d="M 807.5,199.5 C 811.981,198.352 816.648,198.185 821.5,199C 823.32,199.2 824.653,200.034 825.5,201.5C 819.654,199.767 813.654,199.1 807.5,199.5 Z"/></g>
<g><path style="opacity:1" fill="#fdf3f6" d="M 599.5,199.5 C 605.818,199.9 610.318,202.9 613,208.5C 613.189,219.576 613.689,230.576 614.5,241.5C 611.038,242.482 607.371,242.815 603.5,242.5C 603.737,241.209 603.404,240.209 602.5,239.5C 600.566,240.11 598.899,241.11 597.5,242.5C 593.326,244.064 588.993,244.731 584.5,244.5C 578.075,242.69 574.742,238.357 574.5,231.5C 574.394,225.613 577.061,221.613 582.5,219.5C 585.152,219.59 587.485,218.924 589.5,217.5C 593.741,217.815 597.574,216.815 601,214.5C 601.825,212.299 601.325,210.466 599.5,209C 596.167,208.333 592.833,208.333 589.5,209C 588.219,210.409 587.219,211.909 586.5,213.5C 583.167,213.5 579.833,213.5 576.5,213.5C 576.5,211.833 576.5,210.167 576.5,208.5C 577.855,205.145 580.189,202.811 583.5,201.5C 588.676,199.816 594.009,199.15 599.5,199.5 Z"/></g>
<g><path style="opacity:1" fill="#fbcfdf" d="M 652.5,200.5 C 647.77,200.283 643.103,200.617 638.5,201.5C 638.611,200.883 638.944,200.383 639.5,200C 644.02,199.186 648.354,199.353 652.5,200.5 Z"/></g>
<g><path style="opacity:1" fill="#fef7f9" d="M 735.5,224.5 C 724.833,224.5 714.167,224.5 703.5,224.5C 703.263,225.791 703.596,226.791 704.5,227.5C 705.134,230.643 706.8,233.143 709.5,235C 714.99,236.504 719.657,235.337 723.5,231.5C 727.371,231.185 731.038,231.518 734.5,232.5C 733.559,234.05 732.893,235.716 732.5,237.5C 730.445,239.555 728.112,241.221 725.5,242.5C 720.324,244.184 714.991,244.85 709.5,244.5C 704.44,243.47 700.106,241.137 696.5,237.5C 695.062,234.284 693.895,230.951 693,227.5C 690.221,214.559 694.721,205.392 706.5,200C 725.899,196.911 735.566,205.078 735.5,224.5 Z"/></g>
<g><path style="opacity:1" fill="#fefbfc" d="M 754.5,215.5 C 753.833,215.5 753.5,215.833 753.5,216.5C 752.507,224.984 752.174,233.651 752.5,242.5C 749.167,242.5 745.833,242.5 742.5,242.5C 742.5,228.5 742.5,214.5 742.5,200.5C 745.833,200.5 749.167,200.5 752.5,200.5C 752.338,202.527 752.505,204.527 753,206.5C 754.458,204.04 756.291,201.873 758.5,200C 761.146,199.503 763.813,199.336 766.5,199.5C 766.5,203.167 766.5,206.833 766.5,210.5C 763.813,210.336 761.146,210.503 758.5,211C 756.249,211.748 754.916,213.248 754.5,215.5 Z"/></g>
<g><path style="opacity:1" fill="#fdf6f8" d="M 807.5,199.5 C 813.654,199.1 819.654,199.767 825.5,201.5C 827.473,202.806 829.139,204.473 830.5,206.5C 830.427,208.027 831.094,209.027 832.5,209.5C 832.5,210.5 832.5,211.5 832.5,212.5C 832.5,213.5 832.5,214.5 832.5,215.5C 828.833,215.5 825.167,215.5 821.5,215.5C 821.727,213.067 820.727,211.401 818.5,210.5C 813.499,207.258 809.332,208.258 806,213.5C 805.333,218.5 805.333,223.5 806,228.5C 807.465,234.653 811.298,236.82 817.5,235C 819.734,233.362 821.067,231.195 821.5,228.5C 825.649,227.92 829.316,228.586 832.5,230.5C 830.969,235.345 828.302,239.345 824.5,242.5C 805.08,249.134 794.747,242.301 793.5,222C 792.503,210.803 797.17,203.303 807.5,199.5 Z"/></g>
<g><path style="opacity:1" fill="#fef7f8" d="M 864.5,199.5 C 865.93,200.537 867.597,201.204 869.5,201.5C 870.167,201.5 870.833,201.5 871.5,201.5C 873.134,202.972 874.634,204.638 876,206.5C 876.333,217.5 876.667,228.5 877,239.5C 878.481,240.471 879.315,241.804 879.5,243.5C 875.167,243.5 870.833,243.5 866.5,243.5C 866.785,241.712 866.452,240.045 865.5,238.5C 862.916,241.28 859.916,243.28 856.5,244.5C 851.6,244.967 846.933,244.301 842.5,242.5C 838.686,237.882 837.52,232.549 839,226.5C 840.736,223.261 843.236,220.927 846.5,219.5C 850.49,219.001 854.49,218.501 858.5,218C 859.416,217.722 860.082,217.222 860.5,216.5C 864.533,216.309 866.033,214.309 865,210.5C 861.405,208.544 857.572,208.044 853.5,209C 851.859,210.129 850.859,211.629 850.5,213.5C 847.167,213.5 843.833,213.5 840.5,213.5C 840.5,212.167 840.5,210.833 840.5,209.5C 841.524,205.638 843.857,202.805 847.5,201C 853.072,199.649 858.738,199.149 864.5,199.5 Z"/></g>
<g><path style="opacity:1" fill="#fefcfc" d="M 925.5,207.5 C 925.5,219.167 925.5,230.833 925.5,242.5C 922.167,242.5 918.833,242.5 915.5,242.5C 915.827,232.652 915.494,222.986 914.5,213.5C 914.262,211.596 913.262,210.262 911.5,209.5C 911.167,209.5 910.833,209.5 910.5,209.5C 905.566,207.393 901.9,208.726 899.5,213.5C 898.596,214.209 898.263,215.209 898.5,216.5C 897.507,224.984 897.174,233.651 897.5,242.5C 894.167,242.5 890.833,242.5 887.5,242.5C 887.5,228.5 887.5,214.5 887.5,200.5C 890.833,200.5 894.167,200.5 897.5,200.5C 897.215,202.288 897.548,203.955 898.5,205.5C 899.107,205.376 899.44,205.043 899.5,204.5C 900.625,202.871 901.959,201.371 903.5,200C 909.724,198.939 915.724,199.606 921.5,202C 923.464,203.451 924.797,205.284 925.5,207.5 Z"/></g>
<g><path style="opacity:1" fill="#fdf7f8" d="M 947.5,199.5 C 952.913,199.229 958.246,199.729 963.5,201C 966.625,201.979 969.125,203.813 971,206.5C 971.333,217.5 971.667,228.5 972,239.5C 973.022,240.354 973.855,241.354 974.5,242.5C 970.217,243.492 965.884,243.826 961.5,243.5C 961.5,242.833 961.5,242.167 961.5,241.5C 961.719,240.325 961.386,239.325 960.5,238.5C 959.893,238.624 959.56,238.957 959.5,239.5C 954.009,244.118 947.676,245.618 940.5,244C 936.835,242.332 934.668,239.499 934,235.5C 931.451,227.624 933.951,222.291 941.5,219.5C 944.152,219.59 946.485,218.924 948.5,217.5C 952.686,217.567 956.519,216.567 960,214.5C 960.825,212.299 960.325,210.466 958.5,209C 955.167,208.333 951.833,208.333 948.5,209C 946.859,210.129 945.859,211.629 945.5,213.5C 942.167,213.5 938.833,213.5 935.5,213.5C 935.5,211.833 935.5,210.167 935.5,208.5C 937.815,203.178 941.815,200.178 947.5,199.5 Z"/></g>
<g><path style="opacity:1" fill="#fef6f8" d="M 993.5,198.5 C 999.853,197.901 1005.85,199.068 1011.5,202C 1014.02,203.558 1015.69,205.725 1016.5,208.5C 1016.5,209.833 1016.5,211.167 1016.5,212.5C 1013.17,212.5 1009.83,212.5 1006.5,212.5C 1003.51,207.743 999.175,206.243 993.5,208C 990.598,210.864 990.932,213.031 994.5,214.5C 996.515,215.924 998.848,216.59 1001.5,216.5C 1007.41,217.192 1012.58,219.525 1017,223.5C 1021,233.675 1017.83,240.509 1007.5,244C 1002.85,244.499 998.179,244.666 993.5,244.5C 991.485,243.076 989.152,242.41 986.5,242.5C 985.5,241.833 984.5,241.167 983.5,240.5C 980.989,237.302 979.655,233.636 979.5,229.5C 983.182,229.335 986.848,229.501 990.5,230C 992.333,236.087 996.333,238.087 1002.5,236C 1007.46,235.096 1008.46,232.763 1005.5,229C 1000.17,227.667 994.833,226.333 989.5,225C 981.715,221.672 978.882,215.839 981,207.5C 984.277,203.026 988.443,200.026 993.5,198.5 Z"/></g>
<g><path style="opacity:1" fill="#fefcfc" d="M 675.5,199.5 C 679.715,200.711 682.715,203.378 684.5,207.5C 684.5,219.167 684.5,230.833 684.5,242.5C 681.167,242.5 677.833,242.5 674.5,242.5C 674.827,232.652 674.494,222.986 673.5,213.5C 671.188,208.527 667.521,207.36 662.5,210C 661.117,211.271 660.117,212.771 659.5,214.5C 658.506,223.652 658.173,232.985 658.5,242.5C 655.5,242.5 652.5,242.5 649.5,242.5C 649.827,232.652 649.494,222.986 648.5,213.5C 645.439,209.434 641.439,208.434 636.5,210.5C 635.295,211.577 634.628,212.91 634.5,214.5C 633.506,223.652 633.173,232.985 633.5,242.5C 630.167,242.5 626.833,242.5 623.5,242.5C 623.5,228.5 623.5,214.5 623.5,200.5C 626.833,200.5 630.167,200.5 633.5,200.5C 633.215,202.288 633.548,203.955 634.5,205.5C 635.107,205.376 635.44,205.043 635.5,204.5C 636.167,203.167 637.167,202.167 638.5,201.5C 643.103,200.617 647.77,200.283 652.5,200.5C 655.089,201.419 657.089,203.086 658.5,205.5C 662.94,200.351 668.607,198.351 675.5,199.5 Z"/></g>
<g><path style="opacity:1" fill="#f5c1ce" d="M 742.5,200.5 C 742.5,214.5 742.5,228.5 742.5,242.5C 745.833,242.5 749.167,242.5 752.5,242.5C 752.174,233.651 752.507,224.984 753.5,216.5C 753.5,225.5 753.5,234.5 753.5,243.5C 749.5,243.5 745.5,243.5 741.5,243.5C 741.171,228.99 741.504,214.657 742.5,200.5 Z"/></g>
<g><path style="opacity:1" fill="#f3b6c5" d="M 775.5,199.5 C 775.5,213.833 775.5,228.167 775.5,242.5C 778.833,242.5 782.167,242.5 785.5,242.5C 785.5,228.167 785.5,213.833 785.5,199.5C 786.496,213.99 786.829,228.657 786.5,243.5C 782.5,243.5 778.5,243.5 774.5,243.5C 774.171,228.657 774.504,213.99 775.5,199.5 Z"/></g>
<g><path style="opacity:1" fill="#fefefd" d="M 775.5,199.5 C 778.833,199.5 782.167,199.5 785.5,199.5C 785.5,213.833 785.5,228.167 785.5,242.5C 782.167,242.5 778.833,242.5 775.5,242.5C 775.5,228.167 775.5,213.833 775.5,199.5 Z"/></g>
<g><path style="opacity:1" fill="#e47c9a" d="M 633.5,200.5 C 634.167,201.833 634.833,203.167 635.5,204.5C 635.44,205.043 635.107,205.376 634.5,205.5C 633.548,203.955 633.215,202.288 633.5,200.5 Z"/></g>
<g><path style="opacity:1" fill="#f18ca3" d="M 633.5,200.5 C 630.167,200.5 626.833,200.5 623.5,200.5C 623.5,214.5 623.5,228.5 623.5,242.5C 623.5,242.833 623.5,243.167 623.5,243.5C 622.504,229.01 622.171,214.343 622.5,199.5C 626.371,199.185 630.038,199.518 633.5,200.5 Z"/></g>
<g><path style="opacity:1" fill="#ec6782" d="M 830.5,206.5 C 831.906,206.973 832.573,207.973 832.5,209.5C 831.094,209.027 830.427,208.027 830.5,206.5 Z"/></g>
<g><path style="opacity:1" fill="#ec7694" d="M 899.5,204.5 C 899.44,205.043 899.107,205.376 898.5,205.5C 897.548,203.955 897.215,202.288 897.5,200.5C 894.167,200.5 890.833,200.5 887.5,200.5C 887.5,214.5 887.5,228.5 887.5,242.5C 887.5,242.833 887.5,243.167 887.5,243.5C 886.504,229.01 886.171,214.343 886.5,199.5C 890.5,199.5 894.5,199.5 898.5,199.5C 898.216,201.415 898.549,203.081 899.5,204.5 Z"/></g>
<g><path style="opacity:1" fill="#f50f36" d="M 871.5,201.5 C 870.833,201.5 870.167,201.5 869.5,201.5C 868.365,199.787 866.698,199.12 864.5,199.5C 858.738,199.149 853.072,199.649 847.5,201C 843.857,202.805 841.524,205.638 840.5,209.5C 839.549,210.919 839.216,212.585 839.5,214.5C 843.371,214.815 847.038,214.482 850.5,213.5C 850.859,211.629 851.859,210.129 853.5,209C 857.572,208.044 861.405,208.544 865,210.5C 866.033,214.309 864.533,216.309 860.5,216.5C 855.55,216.77 850.883,217.77 846.5,219.5C 843.236,220.927 840.736,223.261 839,226.5C 837.52,232.549 838.686,237.882 842.5,242.5C 841.504,242.414 840.671,242.748 840,243.5C 839.438,238.903 838.272,238.57 836.5,242.5C 835.333,242.833 834.167,243.167 833,243.5C 830.183,242.969 827.35,242.636 824.5,242.5C 828.302,239.345 830.969,235.345 832.5,230.5C 833.404,229.791 833.737,228.791 833.5,227.5C 829.298,227.183 825.298,227.517 821.5,228.5C 821.067,231.195 819.734,233.362 817.5,235C 811.298,236.82 807.465,234.653 806,228.5C 805.333,223.5 805.333,218.5 806,213.5C 809.332,208.258 813.499,207.258 818.5,210.5C 819.63,212.315 820.296,214.315 820.5,216.5C 824.833,216.5 829.167,216.5 833.5,216.5C 833.768,214.901 833.434,213.568 832.5,212.5C 832.5,211.5 832.5,210.5 832.5,209.5C 832.573,207.973 831.906,206.973 830.5,206.5C 829.139,204.473 827.473,202.806 825.5,201.5C 827.46,200.862 829.293,200.862 831,201.5C 832.687,198.376 832.854,195.209 831.5,192C 841.161,191.5 850.828,191.334 860.5,191.5C 861.048,195.836 859.881,196.836 857,194.5C 855.333,195.833 853.667,195.833 852,194.5C 850.566,194.93 849.399,195.764 848.5,197C 853.167,197.667 857.833,197.667 862.5,197C 862.043,196.586 861.709,196.086 861.5,195.5C 863.045,194.548 864.712,194.215 866.5,194.5C 866.5,193.5 866.5,192.5 866.5,191.5C 868.167,191.5 869.833,191.5 871.5,191.5C 871.172,194.982 871.172,198.315 871.5,201.5 Z"/></g>
<g><path style="opacity:1" fill="#ed7088" d="M 864.5,199.5 C 866.698,199.12 868.365,199.787 869.5,201.5C 867.597,201.204 865.93,200.537 864.5,199.5 Z"/></g>
<g><path style="opacity:1" fill="#e83652" d="M 910.5,209.5 C 906.094,208.929 902.428,210.262 899.5,213.5C 901.9,208.726 905.566,207.393 910.5,209.5 Z"/></g>
<g><path style="opacity:1" fill="#f9aec4" d="M 1016.5,208.5 C 1017.45,209.919 1017.78,211.585 1017.5,213.5C 1013.63,213.815 1009.96,213.482 1006.5,212.5C 1009.83,212.5 1013.17,212.5 1016.5,212.5C 1016.5,211.167 1016.5,209.833 1016.5,208.5 Z"/></g>
<g><path style="opacity:1" fill="#ed8ea4" d="M 576.5,208.5 C 576.5,210.167 576.5,211.833 576.5,213.5C 579.833,213.5 583.167,213.5 586.5,213.5C 583.038,214.482 579.371,214.815 575.5,214.5C 575.205,212.265 575.539,210.265 576.5,208.5 Z"/></g>
<g><path style="opacity:1" fill="#f50834" d="M 720.5,210.5 C 721.63,212.315 722.296,214.315 722.5,216.5C 716.833,216.5 711.167,216.5 705.5,216.5C 705.5,215.5 705.5,214.5 705.5,213.5C 709.423,208.041 714.423,207.041 720.5,210.5 Z"/></g>
<g><path style="opacity:1" fill="#ee98ad" d="M 840.5,209.5 C 840.5,210.833 840.5,212.167 840.5,213.5C 843.833,213.5 847.167,213.5 850.5,213.5C 847.038,214.482 843.371,214.815 839.5,214.5C 839.216,212.585 839.549,210.919 840.5,209.5 Z"/></g>
<g><path style="opacity:1" fill="#ee97af" d="M 935.5,208.5 C 935.5,210.167 935.5,211.833 935.5,213.5C 938.833,213.5 942.167,213.5 945.5,213.5C 942.038,214.482 938.371,214.815 934.5,214.5C 934.205,212.265 934.539,210.265 935.5,208.5 Z"/></g>
<g><path style="opacity:1" fill="#eb4a6a" d="M 818.5,210.5 C 820.727,211.401 821.727,213.067 821.5,215.5C 825.167,215.5 828.833,215.5 832.5,215.5C 832.5,214.5 832.5,213.5 832.5,212.5C 833.434,213.568 833.768,214.901 833.5,216.5C 829.167,216.5 824.833,216.5 820.5,216.5C 820.296,214.315 819.63,212.315 818.5,210.5 Z"/></g>
<g><path style="opacity:1" fill="#eb607a" d="M 994.5,214.5 C 997.152,214.41 999.485,215.076 1001.5,216.5C 998.848,216.59 996.515,215.924 994.5,214.5 Z"/></g>
<g><path style="opacity:1" fill="#f7c3d1" d="M 634.5,214.5 C 634.5,224.167 634.5,233.833 634.5,243.5C 630.833,243.5 627.167,243.5 623.5,243.5C 623.5,243.167 623.5,242.833 623.5,242.5C 626.833,242.5 630.167,242.5 633.5,242.5C 633.173,232.985 633.506,223.652 634.5,214.5 Z"/></g>
<g><path style="opacity:1" fill="#ec4265" d="M 720.5,210.5 C 723.092,212.036 724.092,214.369 723.5,217.5C 717.167,217.5 710.833,217.5 704.5,217.5C 704.232,215.901 704.566,214.568 705.5,213.5C 705.5,214.5 705.5,215.5 705.5,216.5C 711.167,216.5 716.833,216.5 722.5,216.5C 722.296,214.315 721.63,212.315 720.5,210.5 Z"/></g>
<g><path style="opacity:1" fill="#f1b8c9" d="M 925.5,207.5 C 926.495,219.322 926.828,231.322 926.5,243.5C 922.5,243.5 918.5,243.5 914.5,243.5C 914.5,233.5 914.5,223.5 914.5,213.5C 915.494,222.986 915.827,232.652 915.5,242.5C 918.833,242.5 922.167,242.5 925.5,242.5C 925.5,230.833 925.5,219.167 925.5,207.5 Z"/></g>
<g><path style="opacity:1" fill="#f7aec0" d="M 589.5,217.5 C 587.485,218.924 585.152,219.59 582.5,219.5C 584.515,218.076 586.848,217.41 589.5,217.5 Z"/></g>
<g><path style="opacity:1" fill="#f7bac8" d="M 860.5,216.5 C 860.082,217.222 859.416,217.722 858.5,218C 854.49,218.501 850.49,219.001 846.5,219.5C 850.883,217.77 855.55,216.77 860.5,216.5 Z"/></g>
<g><path style="opacity:1" fill="#f7b6c6" d="M 948.5,217.5 C 946.485,218.924 944.152,219.59 941.5,219.5C 943.515,218.076 945.848,217.41 948.5,217.5 Z"/></g>
<g><path style="opacity:1" fill="#e12f53" d="M 911.5,209.5 C 913.262,210.262 914.262,211.596 914.5,213.5C 914.5,223.5 914.5,233.5 914.5,243.5C 913.67,233.341 913.17,223.008 913,212.5C 911.961,211.756 911.461,210.756 911.5,209.5 Z"/></g>
<g><path style="opacity:1" fill="#fcddea" d="M 648.5,213.5 C 649.494,222.986 649.827,232.652 649.5,242.5C 652.5,242.5 655.5,242.5 658.5,242.5C 658.173,232.985 658.506,223.652 659.5,214.5C 659.5,224.167 659.5,233.833 659.5,243.5C 655.833,243.5 652.167,243.5 648.5,243.5C 648.5,233.5 648.5,223.5 648.5,213.5 Z"/></g>
<g><path style="opacity:1" fill="#f3bdcb" d="M 898.5,216.5 C 898.5,225.5 898.5,234.5 898.5,243.5C 894.833,243.5 891.167,243.5 887.5,243.5C 887.5,243.167 887.5,242.833 887.5,242.5C 890.833,242.5 894.167,242.5 897.5,242.5C 897.174,233.651 897.507,224.984 898.5,216.5 Z"/></g>
<g><path style="opacity:1" fill="#f9b9cc" d="M 684.5,207.5 C 685.495,219.322 685.828,231.322 685.5,243.5C 681.5,243.5 677.5,243.5 673.5,243.5C 673.5,233.5 673.5,223.5 673.5,213.5C 674.494,222.986 674.827,232.652 674.5,242.5C 677.833,242.5 681.167,242.5 684.5,242.5C 684.5,230.833 684.5,219.167 684.5,207.5 Z"/></g>
<g><path style="opacity:1" fill="#f2163b" d="M 597.5,223.5 C 598.833,223.5 600.167,223.5 601.5,223.5C 601.773,234.425 596.94,238.092 587,234.5C 586.333,232.167 586.333,229.833 587,227.5C 590.284,225.384 593.784,224.051 597.5,223.5 Z"/></g>
<g><path style="opacity:1" fill="#f87b9f" d="M 735.5,224.5 C 724.96,224.842 714.626,225.842 704.5,227.5C 703.596,226.791 703.263,225.791 703.5,224.5C 714.167,224.5 724.833,224.5 735.5,224.5 Z"/></g>
<g><path style="opacity:1" fill="#e3617d" d="M 958.5,223.5 C 958.56,222.957 958.893,222.624 959.5,222.5C 960.803,225.645 960.803,228.645 959.5,231.5C 959.806,228.615 959.473,225.948 958.5,223.5 Z"/></g>
<g><path style="opacity:1" fill="#f3183b" d="M 863.5,222.5 C 867.009,232.196 863.342,236.696 852.5,236C 848.5,232.667 848.5,229.333 852.5,226C 856.475,225.386 860.141,224.219 863.5,222.5 Z"/></g>
<g><path style="opacity:1" fill="#f41538" d="M 958.5,223.5 C 959.473,225.948 959.806,228.615 959.5,231.5C 956.717,236.03 952.717,237.53 947.5,236C 943.5,232.667 943.5,229.333 947.5,226C 951.031,224.594 954.698,223.76 958.5,223.5 Z"/></g>
<g><path style="opacity:1" fill="#f1a7bc" d="M 821.5,228.5 C 825.298,227.517 829.298,227.183 833.5,227.5C 833.737,228.791 833.404,229.791 832.5,230.5C 829.316,228.586 825.649,227.92 821.5,228.5 Z"/></g>
<g><path style="opacity:1" fill="#f59fb4" d="M 723.5,231.5 C 727.351,230.191 731.351,230.191 735.5,231.5C 735.376,232.107 735.043,232.44 734.5,232.5C 731.038,231.518 727.371,231.185 723.5,231.5 Z"/></g>
<g><path style="opacity:1" fill="#ee91aa" d="M 959.5,239.5 C 959.56,238.957 959.893,238.624 960.5,238.5C 961.386,239.325 961.719,240.325 961.5,241.5C 960.833,240.833 960.167,240.167 959.5,239.5 Z"/></g>
<g><path style="opacity:1" fill="#ec3048" d="M 879.5,243.5 C 875.019,244.648 870.352,244.815 865.5,244C 863.983,242.221 863.149,242.721 863,245.5C 860.959,244.577 858.792,244.244 856.5,244.5C 859.916,243.28 862.916,241.28 865.5,238.5C 866.452,240.045 866.785,241.712 866.5,243.5C 870.833,243.5 875.167,243.5 879.5,243.5 Z"/></g>
<g><path style="opacity:1" fill="#f5c5d3" d="M 602.5,239.5 C 603.404,240.209 603.737,241.209 603.5,242.5C 607.371,242.815 611.038,242.482 614.5,241.5C 615.043,241.56 615.376,241.893 615.5,242.5C 611.217,243.492 606.884,243.826 602.5,243.5C 602.5,242.167 602.5,240.833 602.5,239.5 Z"/></g>
<g><path style="opacity:1" fill="#f6b4c5" d="M 986.5,242.5 C 989.152,242.41 991.485,243.076 993.5,244.5C 990.848,244.59 988.515,243.924 986.5,242.5 Z"/></g>
<g><path style="opacity:1" fill="#e93651" d="M 597.5,242.5 C 596.942,243.79 595.942,244.623 594.5,245C 590.973,245.808 587.64,245.641 584.5,244.5C 588.993,244.731 593.326,244.064 597.5,242.5 Z"/></g>
<g><path style="opacity:1" fill="#ea4661" d="M 725.5,242.5 C 724.942,243.79 723.942,244.623 722.5,245C 717.98,245.814 713.646,245.647 709.5,244.5C 714.991,244.85 720.324,244.184 725.5,242.5 Z"/></g>
<g><path style="opacity:1" fill="#e98ba2" d="M 574.5,252.5 C 722.5,252.5 870.5,252.5 1018.5,252.5C 1018.5,256.5 1018.5,260.5 1018.5,264.5C 870.5,264.5 722.5,264.5 574.5,264.5C 574.5,260.5 574.5,256.5 574.5,252.5 Z"/></g>
<g><path style="opacity:1" fill="#fefefe" d="M 1016.5,253.5 C 1016.5,256.5 1016.5,259.5 1016.5,262.5C 869.5,262.5 722.5,262.5 575.5,262.5C 575.5,259.5 575.5,256.5 575.5,253.5C 722.5,253.5 869.5,253.5 1016.5,253.5 Z"/></g>
<g><path style="opacity:1" fill="#fef4fc" d="M 1016.5,253.5 C 1017.48,256.625 1017.81,259.958 1017.5,263.5C 869.999,263.833 722.666,263.5 575.5,262.5C 722.5,262.5 869.5,262.5 1016.5,262.5C 1016.5,259.5 1016.5,256.5 1016.5,253.5 Z"/></g>
</svg>
