<?xml version="1.0" encoding="UTF-8"?>
<!DOCTYPE svg PUBLIC "-//W3C//DTD SVG 1.1//EN" "http://www.w3.org/Graphics/SVG/1.1/DTD/svg11.dtd">
<svg xmlns="http://www.w3.org/2000/svg" version="1.1" width="1594px" height="443px" style="shape-rendering:geometricPrecision; text-rendering:geometricPrecision; image-rendering:optimizeQuality; fill-rule:evenodd; clip-rule:evenodd" xmlns:xlink="http://www.w3.org/1999/xlink">
<g><path style="opacity:1" fill="#2dab65" d="M -0.5,-0.5 C 530.833,-0.5 1062.17,-0.5 1593.5,-0.5C 1593.5,147.167 1593.5,294.833 1593.5,442.5C 1062.17,442.5 530.833,442.5 -0.5,442.5C -0.5,294.833 -0.5,147.167 -0.5,-0.5 Z"/></g>
<g><path style="opacity:1" fill="#38ab6c" d="M 945.5,159.5 C 944.167,159.5 942.833,159.5 941.5,159.5C 939.708,159.634 938.042,159.301 936.5,158.5C 934.485,157.076 932.152,156.41 929.5,156.5C 928.866,155.053 927.699,154.387 926,154.5C 924.93,154.528 924.097,154.861 923.5,155.5C 921.755,157.033 920.755,159.033 920.5,161.5C 920.5,162.167 920.5,162.833 920.5,163.5C 919.539,165.265 919.205,167.265 919.5,169.5C 919.5,169.833 919.5,170.167 919.5,170.5C 918.5,170.5 917.5,170.5 916.5,170.5C 917.661,165.904 918.661,161.237 919.5,156.5C 921.518,154.65 923.351,152.65 925,150.5C 928.915,152.931 932.915,152.931 937,150.5C 938.5,151 940,151.5 941.5,152C 942.833,152.667 942.833,153.333 941.5,154C 939.048,154.29 936.715,154.956 934.5,156C 938.254,157.309 941.921,158.475 945.5,159.5 Z"/></g>
<g><path style="opacity:1" fill="#7dc5a0" d="M 923.5,155.5 C 924.097,154.861 924.93,154.528 926,154.5C 927.699,154.387 928.866,155.053 929.5,156.5C 927.565,155.85 925.565,155.517 923.5,155.5 Z"/></g>
<g><path style="opacity:1" fill="#57b37f" d="M 748.5,157.5 C 748.5,157.167 748.5,156.833 748.5,156.5C 752.9,156.238 755.567,158.238 756.5,162.5C 755.5,161.833 754.5,161.167 753.5,160.5C 753.5,159.833 753.167,159.5 752.5,159.5C 751.486,158.326 750.153,157.66 748.5,157.5 Z"/></g>
<g><path style="opacity:1" fill="#82c89f" d="M 929.5,156.5 C 932.152,156.41 934.485,157.076 936.5,158.5C 936.167,158.5 935.833,158.5 935.5,158.5C 934.5,158.5 933.5,158.5 932.5,158.5C 931.5,157.833 930.5,157.167 929.5,156.5 Z"/></g>
<g><path style="opacity:1" fill="#fcfdfc" d="M 631.5,157.5 C 637.833,157.5 644.167,157.5 650.5,157.5C 650.171,170.677 650.505,183.677 651.5,196.5C 654.358,196.972 656.358,195.972 657.5,193.5C 661.382,191.81 665.382,190.31 669.5,189C 673.152,188.501 676.818,188.335 680.5,188.5C 681.552,190.256 683.219,190.923 685.5,190.5C 685.973,191.906 686.973,192.573 688.5,192.5C 689.167,192.5 689.833,192.5 690.5,192.5C 691.08,194.749 692.413,196.415 694.5,197.5C 694.557,198.609 694.89,199.609 695.5,200.5C 696.544,205.02 698.044,209.353 700,213.5C 700.667,220.5 700.667,227.5 700,234.5C 698.198,239.095 696.698,243.762 695.5,248.5C 692.833,251.833 689.833,254.833 686.5,257.5C 683.206,257.259 680.206,258.092 677.5,260C 673.179,260.499 668.846,260.666 664.5,260.5C 662.565,259.85 660.565,259.517 658.5,259.5C 657.415,257.413 655.749,256.08 653.5,255.5C 652.5,255.167 651.833,254.5 651.5,253.5C 651.189,252.522 650.522,251.855 649.5,251.5C 648.571,252.689 648.238,254.022 648.5,255.5C 647.566,256.568 647.232,257.901 647.5,259.5C 642.167,259.5 636.833,259.5 631.5,259.5C 631.5,225.5 631.5,191.5 631.5,157.5 Z"/></g>
<g><path style="opacity:1" fill="#8cc9a5" d="M 923.5,155.5 C 923.245,157.967 922.245,159.967 920.5,161.5C 920.755,159.033 921.755,157.033 923.5,155.5 Z"/></g>
<g><path style="opacity:1" fill="#e9f7ef" d="M 923.5,155.5 C 925.565,155.517 927.565,155.85 929.5,156.5C 930.5,157.167 931.5,157.833 932.5,158.5C 929.635,158.055 927.135,158.722 925,160.5C 924.667,160.167 924.333,159.833 924,159.5C 923.576,162.025 922.41,164.025 920.5,165.5C 920.5,164.833 920.5,164.167 920.5,163.5C 920.5,162.833 920.5,162.167 920.5,161.5C 922.245,159.967 923.245,157.967 923.5,155.5 Z"/></g>
<g><path style="opacity:1" fill="#8ecda8" d="M 748.5,156.5 C 748.5,156.833 748.5,157.167 748.5,157.5C 746.585,157.216 744.919,157.549 743.5,158.5C 742.448,158.351 741.448,158.517 740.5,159C 738.963,160.707 737.296,162.207 735.5,163.5C 737.954,157.994 742.287,155.66 748.5,156.5 Z"/></g>
<g><path style="opacity:1" fill="#b7e3c9" d="M 743.5,158.5 C 744.919,157.549 746.585,157.216 748.5,157.5C 750.153,157.66 751.486,158.326 752.5,159.5C 751.5,159.5 750.5,159.5 749.5,159.5C 747.735,158.539 745.735,158.205 743.5,158.5 Z"/></g>
<g><path style="opacity:1" fill="#fdfdfd" d="M 932.5,158.5 C 933.5,158.5 934.5,158.5 935.5,158.5C 935.804,159.15 936.137,159.817 936.5,160.5C 941.655,161.328 946.488,162.994 951,165.5C 956.956,165.416 963.123,165.416 969.5,165.5C 970.5,165.5 971.5,165.5 972.5,165.5C 977.349,166.166 982.349,166.833 987.5,167.5C 986.328,169.823 986.328,172.156 987.5,174.5C 985.564,177.456 983.564,180.456 981.5,183.5C 977.272,187.736 974.272,192.736 972.5,198.5C 971.094,198.973 970.427,199.973 970.5,201.5C 969.094,201.973 968.427,202.973 968.5,204.5C 968.5,204.833 968.5,205.167 968.5,205.5C 967.094,205.973 966.427,206.973 966.5,208.5C 966.5,208.833 966.5,209.167 966.5,209.5C 964.983,209.511 963.816,210.177 963,211.5C 961.86,214.102 961.027,216.769 960.5,219.5C 960.5,220.167 960.5,220.833 960.5,221.5C 960.167,221.5 959.833,221.5 959.5,221.5C 955.991,223.343 954.657,226.343 955.5,230.5C 952.54,233.1 951.206,236.433 951.5,240.5C 951.5,241.167 951.5,241.833 951.5,242.5C 949.787,243.635 949.12,245.302 949.5,247.5C 948.883,247.611 948.383,247.944 948,248.5C 947.339,251.946 946.505,255.279 945.5,258.5C 940.807,260.36 935.807,261.026 930.5,260.5C 927.375,259.521 924.042,259.187 920.5,259.5C 920.5,252.5 920.5,245.5 920.5,238.5C 920.368,235.43 920.701,232.43 921.5,229.5C 923.238,224.783 923.904,219.783 923.5,214.5C 923.5,214.167 923.5,213.833 923.5,213.5C 926.539,207.003 928.206,200.003 928.5,192.5C 931.781,188.175 933.447,183.175 933.5,177.5C 937.068,176.031 937.402,173.864 934.5,171C 929.916,169.637 925.249,168.803 920.5,168.5C 920.5,167.5 920.5,166.5 920.5,165.5C 922.41,164.025 923.576,162.025 924,159.5C 924.333,159.833 924.667,160.167 925,160.5C 927.135,158.722 929.635,158.055 932.5,158.5 Z"/></g>
<g><path style="opacity:1" fill="#4ab074" d="M 630.5,155.5 C 630.5,155.833 630.5,156.167 630.5,156.5C 629.502,190.996 629.168,225.663 629.5,260.5C 628.833,243.17 628.5,225.67 628.5,208C 628.5,190.154 629.167,172.654 630.5,155.5 Z"/></g>
<g><path style="opacity:1" fill="#f9fbfa" d="M 749.5,159.5 C 750.5,159.5 751.5,159.5 752.5,159.5C 753.167,159.5 753.5,159.833 753.5,160.5C 756.112,166.103 756.112,171.77 753.5,177.5C 752.167,177.5 751.5,178.167 751.5,179.5C 751.167,179.5 750.833,179.5 750.5,179.5C 746.766,179.677 743.099,179.344 739.5,178.5C 739.167,177.833 738.833,177.167 738.5,176.5C 737,172.874 736.667,169.208 737.5,165.5C 739.637,164.262 740.971,162.429 741.5,160C 744.146,159.503 746.813,159.336 749.5,159.5 Z"/></g>
<g><path style="opacity:1" fill="#c6ead4" d="M 706.5,156.5 C 706.168,191.004 706.502,225.337 707.5,259.5C 713.833,259.5 720.167,259.5 726.5,259.5C 726.5,225.5 726.5,191.5 726.5,157.5C 725.167,157.5 723.833,157.5 722.5,157.5C 722.5,157.167 722.5,156.833 722.5,156.5C 724.167,156.5 725.833,156.5 727.5,156.5C 727.5,191.167 727.5,225.833 727.5,260.5C 720.265,261.811 712.932,261.811 705.5,260.5C 705.168,225.663 705.502,190.996 706.5,156.5 Z"/></g>
<g><path style="opacity:1" fill="#fdfdfd" d="M 722.5,157.5 C 723.833,157.5 725.167,157.5 726.5,157.5C 726.5,191.5 726.5,225.5 726.5,259.5C 720.167,259.5 713.833,259.5 707.5,259.5C 707.5,225.5 707.5,191.5 707.5,157.5C 712.5,157.5 717.5,157.5 722.5,157.5 Z"/></g>
<g><path style="opacity:1" fill="#89cba5" d="M 941.5,159.5 C 942.833,159.5 944.167,159.5 945.5,159.5C 946.995,159.989 948.329,160.655 949.5,161.5C 946.572,161.435 943.905,160.768 941.5,159.5 Z"/></g>
<g><path style="opacity:1" fill="#8ecda7" d="M 951.5,161.5 C 954.167,161.5 956.833,161.5 959.5,161.5C 963.786,162.743 968.119,163.743 972.5,164.5C 971.5,164.5 970.5,164.5 969.5,164.5C 963.233,164.344 957.233,163.344 951.5,161.5 Z"/></g>
<g><path style="opacity:1" fill="#45af77" d="M 959.5,161.5 C 971.956,162.761 984.29,163.761 996.5,164.5C 988.5,164.5 980.5,164.5 972.5,164.5C 968.119,163.743 963.786,162.743 959.5,161.5 Z"/></g>
<g><path style="opacity:1" fill="#ecf9f0" d="M 935.5,158.5 C 935.833,158.5 936.167,158.5 936.5,158.5C 938.042,159.301 939.708,159.634 941.5,159.5C 943.905,160.768 946.572,161.435 949.5,161.5C 950.167,161.5 950.833,161.5 951.5,161.5C 957.233,163.344 963.233,164.344 969.5,164.5C 969.5,164.833 969.5,165.167 969.5,165.5C 963.123,165.416 956.956,165.416 951,165.5C 946.488,162.994 941.655,161.328 936.5,160.5C 936.137,159.817 935.804,159.15 935.5,158.5 Z"/></g>
<g><path style="opacity:1" fill="#eef9f3" d="M 972.5,165.5 C 979.863,165.169 987.197,165.503 994.5,166.5C 992.115,169.212 989.782,171.878 987.5,174.5C 986.328,172.156 986.328,169.823 987.5,167.5C 982.349,166.833 977.349,166.166 972.5,165.5 Z"/></g>
<g><path style="opacity:1" fill="#eefaf0" d="M 706.5,156.5 C 711.833,156.5 717.167,156.5 722.5,156.5C 722.5,156.833 722.5,157.167 722.5,157.5C 717.5,157.5 712.5,157.5 707.5,157.5C 707.5,191.5 707.5,225.5 707.5,259.5C 706.502,225.337 706.168,191.004 706.5,156.5 Z"/></g>
<g><path style="opacity:1" fill="#8fd1ac" d="M 706.5,156.5 C 713.313,155.509 720.313,155.175 727.5,155.5C 727.833,155.5 728.167,155.5 728.5,155.5C 728.832,190.671 728.498,225.671 727.5,260.5C 727.5,225.833 727.5,191.167 727.5,156.5C 725.833,156.5 724.167,156.5 722.5,156.5C 717.167,156.5 711.833,156.5 706.5,156.5 Z"/></g>
<g><path style="opacity:1" fill="#cfeeda" d="M 753.5,160.5 C 754.5,161.167 755.5,161.833 756.5,162.5C 757.423,166.064 757.756,169.731 757.5,173.5C 756.094,173.973 755.427,174.973 755.5,176.5C 754.833,176.833 754.167,177.167 753.5,177.5C 756.112,171.77 756.112,166.103 753.5,160.5 Z"/></g>
<g><path style="opacity:1" fill="#cfefdd" d="M 630.5,155.5 C 637.5,155.5 644.5,155.5 651.5,155.5C 651.5,155.833 651.5,156.167 651.5,156.5C 644.646,156.176 637.979,156.509 631.5,157.5C 631.5,191.5 631.5,225.5 631.5,259.5C 636.833,259.5 642.167,259.5 647.5,259.5C 647.232,257.901 647.566,256.568 648.5,255.5C 648.784,257.415 648.451,259.081 647.5,260.5C 641.833,260.5 636.167,260.5 630.5,260.5C 630.5,225.833 630.5,191.167 630.5,156.5C 630.5,156.167 630.5,155.833 630.5,155.5 Z"/></g>
<g><path style="opacity:1" fill="#e4f6ec" d="M 743.5,158.5 C 745.735,158.205 747.735,158.539 749.5,159.5C 746.813,159.336 744.146,159.503 741.5,160C 740.971,162.429 739.637,164.262 737.5,165.5C 736.667,169.208 737,172.874 738.5,176.5C 737.833,176.167 737.167,175.833 736.5,175.5C 734.78,172.111 734.113,168.444 734.5,164.5C 734.5,163.833 734.833,163.5 735.5,163.5C 737.296,162.207 738.963,160.707 740.5,159C 741.448,158.517 742.448,158.351 743.5,158.5 Z"/></g>
<g><path style="opacity:1" fill="#d0f0dc" d="M 920.5,163.5 C 920.5,164.167 920.5,164.833 920.5,165.5C 920.5,166.5 920.5,167.5 920.5,168.5C 925.249,168.803 929.916,169.637 934.5,171C 937.402,173.864 937.068,176.031 933.5,177.5C 935.614,173.167 934.281,171.167 929.5,171.5C 929.167,171.5 928.833,171.5 928.5,171.5C 925.829,169.882 922.829,169.215 919.5,169.5C 919.205,167.265 919.539,165.265 920.5,163.5 Z"/></g>
<g><path style="opacity:1" fill="#87c9a4" d="M 919.5,170.5 C 919.5,170.167 919.5,169.833 919.5,169.5C 922.829,169.215 925.829,169.882 928.5,171.5C 925.518,171.037 922.518,170.704 919.5,170.5 Z"/></g>
<g><path style="opacity:1" fill="#68b98a" d="M 734.5,164.5 C 734.113,168.444 734.78,172.111 736.5,175.5C 735.542,175.047 734.708,174.381 734,173.5C 733.195,170.304 733.362,167.304 734.5,164.5 Z"/></g>
<g><path style="opacity:1" fill="#9ed7b7" d="M 969.5,165.5 C 969.5,165.167 969.5,164.833 969.5,164.5C 970.5,164.5 971.5,164.5 972.5,164.5C 980.5,164.5 988.5,164.5 996.5,164.5C 996.649,165.552 996.483,166.552 996,167.5C 993.242,169.751 991.075,172.418 989.5,175.5C 986.884,178.455 984.218,181.455 981.5,184.5C 981.5,184.167 981.5,183.833 981.5,183.5C 983.564,180.456 985.564,177.456 987.5,174.5C 989.782,171.878 992.115,169.212 994.5,166.5C 987.197,165.503 979.863,165.169 972.5,165.5C 971.5,165.5 970.5,165.5 969.5,165.5 Z"/></g>
<g><path style="opacity:1" fill="#e8f7ef" d="M 631.5,157.5 C 637.979,156.509 644.646,156.176 651.5,156.5C 651.5,169.833 651.5,183.167 651.5,196.5C 650.505,183.677 650.171,170.677 650.5,157.5C 644.167,157.5 637.833,157.5 631.5,157.5 Z"/></g>
<g><path style="opacity:1" fill="#8dcfa8" d="M 630.5,156.5 C 630.5,191.167 630.5,225.833 630.5,260.5C 636.167,260.5 641.833,260.5 647.5,260.5C 642.025,261.489 636.358,261.822 630.5,261.5C 629.833,261.5 629.5,261.167 629.5,260.5C 629.168,225.663 629.502,190.996 630.5,156.5 Z"/></g>
<g><path style="opacity:1" fill="#54b280" d="M 727.5,155.5 C 720.313,155.175 713.313,155.509 706.5,156.5C 705.502,190.996 705.168,225.663 705.5,260.5C 704.539,258.735 704.205,256.735 704.5,254.5C 704.5,223.167 704.5,191.833 704.5,160.5C 704.261,158.533 704.594,156.699 705.5,155C 713.012,154.178 720.345,154.345 727.5,155.5 Z"/></g>
<g><path style="opacity:1" fill="#67b88b" d="M 929.5,171.5 C 934.281,171.167 935.614,173.167 933.5,177.5C 933.167,177.5 932.833,177.5 932.5,177.5C 932.972,174.642 931.972,172.642 929.5,171.5 Z"/></g>
<g><path style="opacity:1" fill="#6abb91" d="M 757.5,173.5 C 757.573,175.027 756.906,176.027 755.5,176.5C 755.427,174.973 756.094,173.973 757.5,173.5 Z"/></g>
<g><path style="opacity:1" fill="#7fc8a0" d="M 736.5,175.5 C 737.167,175.833 737.833,176.167 738.5,176.5C 738.833,177.167 739.167,177.833 739.5,178.5C 737.5,178.5 736.5,177.5 736.5,175.5 Z"/></g>
<g><path style="opacity:1" fill="#3ba76b" d="M 728.5,155.5 C 729.664,190.664 729.831,225.998 729,261.5C 725.082,262.151 721.082,262.484 717,262.5C 712.771,262.49 708.938,261.823 705.5,260.5C 712.932,261.811 720.265,261.811 727.5,260.5C 728.498,225.671 728.832,190.671 728.5,155.5 Z"/></g>
<g><path style="opacity:1" fill="#6fb990" d="M 755.5,176.5 C 754.965,178.446 753.632,179.446 751.5,179.5C 751.5,178.167 752.167,177.5 753.5,177.5C 754.167,177.167 754.833,176.833 755.5,176.5 Z"/></g>
<g><path style="opacity:1" fill="#7fc499" d="M 739.5,178.5 C 743.099,179.344 746.766,179.677 750.5,179.5C 747.36,180.641 744.027,180.808 740.5,180C 739.944,179.617 739.611,179.117 739.5,178.5 Z"/></g>
<g><path style="opacity:1" fill="#5ab280" d="M 651.5,156.5 C 651.5,156.167 651.5,155.833 651.5,155.5C 653.479,167.12 654.146,179.12 653.5,191.5C 654.5,191.5 655.5,191.5 656.5,191.5C 655.952,193.532 654.619,194.532 652.5,194.5C 652.829,181.656 652.495,168.989 651.5,156.5 Z"/></g>
<g><path style="opacity:1" fill="#54b17d" d="M 931.5,179.5 C 930.85,181.435 930.517,183.435 930.5,185.5C 929.094,185.973 928.427,186.973 928.5,188.5C 928.167,188.5 927.833,188.5 927.5,188.5C 926.929,184.513 928.262,181.513 931.5,179.5 Z"/></g>
<g><path style="opacity:1" fill="#aadabe" d="M 651.5,156.5 C 652.495,168.989 652.829,181.656 652.5,194.5C 654.619,194.532 655.952,193.532 656.5,191.5C 657.391,190.89 658.391,190.557 659.5,190.5C 658.833,191.5 658.167,192.5 657.5,193.5C 656.358,195.972 654.358,196.972 651.5,196.5C 651.5,183.167 651.5,169.833 651.5,156.5 Z"/></g>
<g><path style="opacity:1" fill="#e4f6e8" d="M 932.5,177.5 C 932.833,177.5 933.167,177.5 933.5,177.5C 933.447,183.175 931.781,188.175 928.5,192.5C 928.5,191.167 928.5,189.833 928.5,188.5C 929.906,188.027 930.573,187.027 930.5,185.5C 930.517,183.435 930.85,181.435 931.5,179.5C 932.338,179.158 932.672,178.492 932.5,177.5 Z"/></g>
<g><path style="opacity:1" fill="#3eab6f" d="M 800.5,186.5 C 806.437,185.656 812.437,185.49 818.5,186C 821.531,188.183 823.531,191.016 824.5,194.5C 823.5,194.167 822.833,193.5 822.5,192.5C 820.434,190.801 818.1,189.468 815.5,188.5C 813.708,188.634 812.042,188.301 810.5,187.5C 807.375,186.521 804.042,186.187 800.5,186.5 Z"/></g>
<g><path style="opacity:1" fill="#51b079" d="M 878.5,188.5 C 877.833,188.5 877.167,188.5 876.5,188.5C 875.833,188.5 875.167,188.5 874.5,188.5C 873.5,188.5 872.5,188.5 871.5,188.5C 866.833,187.167 862.167,187.167 857.5,188.5C 856.5,188.5 855.5,188.5 854.5,188.5C 854.953,187.542 855.619,186.708 856.5,186C 863.027,185.266 869.527,185.433 876,186.5C 877.376,186.684 878.209,187.351 878.5,188.5 Z"/></g>
<g><path style="opacity:1" fill="#88cda5" d="M 680.5,187.5 C 675.13,187.392 669.797,187.725 664.5,188.5C 664.918,187.778 665.584,187.278 666.5,187C 671.352,186.185 676.019,186.352 680.5,187.5 Z"/></g>
<g><path style="opacity:1" fill="#8dcea8" d="M 800.5,186.5 C 804.042,186.187 807.375,186.521 810.5,187.5C 806.958,187.187 803.625,187.521 800.5,188.5C 800.167,188.5 799.833,188.5 799.5,188.5C 798.5,188.5 797.5,188.5 796.5,188.5C 797.671,187.655 799.005,186.989 800.5,186.5 Z"/></g>
<g><path style="opacity:1" fill="#3eab6e" d="M 989.5,175.5 C 988.465,177.205 988.465,178.872 989.5,180.5C 982.88,185.64 978.38,192.307 976,200.5C 973.982,201.223 972.148,202.223 970.5,203.5C 970.5,202.833 970.5,202.167 970.5,201.5C 971.906,201.027 972.573,200.027 972.5,198.5C 975.466,193.856 978.466,189.189 981.5,184.5C 984.218,181.455 986.884,178.455 989.5,175.5 Z"/></g>
<g><path style="opacity:1" fill="#d6f2df" d="M 800.5,188.5 C 803.625,187.521 806.958,187.187 810.5,187.5C 812.042,188.301 813.708,188.634 815.5,188.5C 815.833,189.167 816.167,189.833 816.5,190.5C 811.304,188.913 805.97,188.246 800.5,188.5 Z"/></g>
<g><path style="opacity:1" fill="#a4d9bb" d="M 930.5,185.5 C 930.573,187.027 929.906,188.027 928.5,188.5C 928.427,186.973 929.094,185.973 930.5,185.5 Z"/></g>
<g><path style="opacity:1" fill="#62b98b" d="M 680.5,188.5 C 680.5,188.167 680.5,187.833 680.5,187.5C 683.428,187.565 686.095,188.232 688.5,189.5C 689.167,190.5 689.833,191.5 690.5,192.5C 689.833,192.5 689.167,192.5 688.5,192.5C 688.027,191.094 687.027,190.427 685.5,190.5C 684.22,189.069 682.553,188.402 680.5,188.5 Z"/></g>
<g><path style="opacity:1" fill="#3eac70" d="M 704.5,160.5 C 704.5,191.833 704.5,223.167 704.5,254.5C 703.587,250.893 702.253,247.56 700.5,244.5C 700.993,242.194 701.326,239.861 701.5,237.5C 702.738,229.117 702.738,220.783 701.5,212.5C 701.5,211.167 701.5,209.833 701.5,208.5C 703.162,192.693 704.162,176.693 704.5,160.5 Z"/></g>
<g><path style="opacity:1" fill="#fcfdfc" d="M 799.5,188.5 C 799.833,188.5 800.167,188.5 800.5,188.5C 805.97,188.246 811.304,188.913 816.5,190.5C 817.391,191.11 818.391,191.443 819.5,191.5C 817.181,195.855 818.514,197.855 823.5,197.5C 823.5,199.167 823.5,200.833 823.5,202.5C 825.664,202.721 827.33,203.721 828.5,205.5C 828.833,205.5 829.167,205.5 829.5,205.5C 829.5,206.833 829.5,208.167 829.5,209.5C 829.5,226.167 829.5,242.833 829.5,259.5C 823.167,259.5 816.833,259.5 810.5,259.5C 810.667,244.163 810.5,228.83 810,213.5C 809.623,212.058 808.79,211.058 807.5,210.5C 806.833,207.833 805.167,206.167 802.5,205.5C 801.833,205.5 801.167,205.5 800.5,205.5C 799.551,204.848 798.385,204.514 797,204.5C 794.992,204.307 793.492,204.974 792.5,206.5C 790.596,206.738 789.262,207.738 788.5,209.5C 786.926,209.937 785.759,210.937 785,212.5C 784.5,228.163 784.333,243.83 784.5,259.5C 778.167,259.5 771.833,259.5 765.5,259.5C 765.333,236.831 765.5,214.164 766,191.5C 771.072,190.529 776.238,190.195 781.5,190.5C 781.833,190.5 782.167,190.5 782.5,190.5C 782.5,192.5 782.5,194.5 782.5,196.5C 782.843,198.225 783.843,198.725 785.5,198C 787.37,195.96 789.37,194.127 791.5,192.5C 793.482,192.005 795.482,191.505 797.5,191C 798.756,190.583 799.423,189.75 799.5,188.5 Z"/></g>
<g><path style="opacity:1" fill="#fbfdfc" d="M 871.5,188.5 C 872.5,188.5 873.5,188.5 874.5,188.5C 877.133,191.16 879.8,193.827 882.5,196.5C 883.958,197.782 885.292,197.782 886.5,196.5C 887.461,194.735 887.795,192.735 887.5,190.5C 892.833,190.5 898.167,190.5 903.5,190.5C 903.725,216.845 903.392,243.179 902.5,269.5C 905.167,269.5 907.833,269.5 910.5,269.5C 914.397,270.055 918.063,271.055 921.5,272.5C 928.719,275.449 935.386,279.449 941.5,284.5C 942.299,287.43 942.632,290.43 942.5,293.5C 942.5,294.167 942.167,294.5 941.5,294.5C 938.547,295.817 935.547,296.817 932.5,297.5C 926.69,298.49 920.69,298.823 914.5,298.5C 913.167,298.167 911.833,297.833 910.5,297.5C 906.997,294.186 902.663,292.519 897.5,292.5C 896.167,290.5 894.5,288.833 892.5,287.5C 892.38,286.414 891.713,285.747 890.5,285.5C 889.584,285.543 888.917,285.876 888.5,286.5C 888.167,286.5 887.833,286.5 887.5,286.5C 886.391,286.557 885.391,286.89 884.5,287.5C 880.426,287.379 876.759,288.379 873.5,290.5C 865.821,290.404 858.154,290.07 850.5,289.5C 848.164,288.031 845.664,286.698 843,285.5C 842.612,282.151 842.779,278.817 843.5,275.5C 844.404,274.791 844.737,273.791 844.5,272.5C 847.127,273.092 849.794,273.425 852.5,273.5C 854.117,274.038 855.784,274.371 857.5,274.5C 862.985,275.652 868.651,275.818 874.5,275C 877.409,273.594 879.409,271.428 880.5,268.5C 880.5,268.167 880.5,267.833 880.5,267.5C 881.5,267.5 882.5,267.5 883.5,267.5C 884.354,261.879 884.687,256.212 884.5,250.5C 882.5,250.5 880.5,250.5 878.5,250.5C 878.5,251.833 878.5,253.167 878.5,254.5C 877.5,254.833 876.833,255.5 876.5,256.5C 874.973,256.427 873.973,257.094 873.5,258.5C 867.824,258.666 862.157,258.499 856.5,258C 854.091,256.293 851.425,255.46 848.5,255.5C 847.508,255.672 846.842,255.338 846.5,254.5C 845.167,252.5 843.5,250.833 841.5,249.5C 841.167,248.833 840.833,248.167 840.5,247.5C 840.573,245.973 839.906,244.973 838.5,244.5C 837.662,244.158 837.328,243.492 837.5,242.5C 836.962,240.883 836.629,239.216 836.5,237.5C 835.835,230.52 835.502,223.52 835.5,216.5C 835.5,215.5 835.5,214.5 835.5,213.5C 838.38,209.972 840.38,205.972 841.5,201.5C 842.11,200.609 842.443,199.609 842.5,198.5C 845.92,195.741 849.586,193.408 853.5,191.5C 859.272,189.225 865.272,188.225 871.5,188.5 Z"/></g>
<g><path style="opacity:1" fill="#9ed6b5" d="M 904.5,258.5 C 904.5,235.5 904.5,212.5 904.5,189.5C 898.5,189.5 892.5,189.5 886.5,189.5C 886.5,191.833 886.5,194.167 886.5,196.5C 885.209,196.737 884.209,196.404 883.5,195.5C 885.048,195.179 885.715,194.179 885.5,192.5C 885.5,191.167 885.5,189.833 885.5,188.5C 892.167,188.5 898.833,188.5 905.5,188.5C 905.831,212.006 905.498,235.339 904.5,258.5 Z"/></g>
<g><path style="opacity:1" fill="#98d3b3" d="M 664.5,188.5 C 663.07,189.537 661.403,190.204 659.5,190.5C 660.635,188.787 662.302,188.12 664.5,188.5 Z"/></g>
<g><path style="opacity:1" fill="#e3f6e8" d="M 680.5,187.5 C 680.5,187.833 680.5,188.167 680.5,188.5C 676.818,188.335 673.152,188.501 669.5,189C 665.382,190.31 661.382,191.81 657.5,193.5C 658.167,192.5 658.833,191.5 659.5,190.5C 661.403,190.204 663.07,189.537 664.5,188.5C 669.797,187.725 675.13,187.392 680.5,187.5 Z"/></g>
<g><path style="opacity:1" fill="#dcf2e3" d="M 680.5,188.5 C 682.553,188.402 684.22,189.069 685.5,190.5C 683.219,190.923 681.552,190.256 680.5,188.5 Z"/></g>
<g><path style="opacity:1" fill="#9bd3b1" d="M 795.5,188.5 C 795.027,189.906 794.027,190.573 792.5,190.5C 792.973,189.094 793.973,188.427 795.5,188.5 Z"/></g>
<g><path style="opacity:1" fill="#dff4e9" d="M 871.5,188.5 C 865.272,188.225 859.272,189.225 853.5,191.5C 854.59,190.143 855.924,189.143 857.5,188.5C 862.167,187.167 866.833,187.167 871.5,188.5 Z"/></g>
<g><path style="opacity:1" fill="#6cbf93" d="M 876.5,188.5 C 877.167,188.5 877.833,188.5 878.5,188.5C 878.833,189.167 879.167,189.833 879.5,190.5C 877.973,190.573 876.973,189.906 876.5,188.5 Z"/></g>
<g><path style="opacity:1" fill="#e6f7ee" d="M 795.5,188.5 C 795.833,188.5 796.167,188.5 796.5,188.5C 797.5,188.5 798.5,188.5 799.5,188.5C 799.423,189.75 798.756,190.583 797.5,191C 795.482,191.505 793.482,192.005 791.5,192.5C 791.833,191.833 792.167,191.167 792.5,190.5C 794.027,190.573 795.027,189.906 795.5,188.5 Z"/></g>
<g><path style="opacity:1" fill="#80c59d" d="M 815.5,188.5 C 818.1,189.468 820.434,190.801 822.5,192.5C 822.167,192.5 821.833,192.5 821.5,192.5C 820.833,192.167 820.167,191.833 819.5,191.5C 818.391,191.443 817.391,191.11 816.5,190.5C 816.167,189.833 815.833,189.167 815.5,188.5 Z"/></g>
<g><path style="opacity:1" fill="#6fbd91" d="M 879.5,190.5 C 880.167,190.5 880.833,190.5 881.5,190.5C 882.11,191.391 882.443,192.391 882.5,193.5C 881.167,192.833 880.167,191.833 879.5,190.5 Z"/></g>
<g><path style="opacity:1" fill="#cdf2dc" d="M 685.5,190.5 C 687.027,190.427 688.027,191.094 688.5,192.5C 686.973,192.573 685.973,191.906 685.5,190.5 Z"/></g>
<g><path style="opacity:1" fill="#b8e6cb" d="M 763.5,188.5 C 769.833,188.5 776.167,188.5 782.5,188.5C 782.5,189.167 782.5,189.833 782.5,190.5C 782.167,190.5 781.833,190.5 781.5,190.5C 776.025,189.511 770.358,189.178 764.5,189.5C 764.5,191.833 764.5,194.167 764.5,196.5C 764.167,196.5 763.833,196.5 763.5,196.5C 763.5,193.833 763.5,191.167 763.5,188.5 Z"/></g>
<g><path style="opacity:1" fill="#80c59e" d="M 782.5,188.5 C 783.302,189.952 783.802,191.618 784,193.5C 784.671,194.252 785.504,194.586 786.5,194.5C 785.713,196.104 784.38,196.771 782.5,196.5C 782.5,194.5 782.5,192.5 782.5,190.5C 782.5,189.833 782.5,189.167 782.5,188.5 Z"/></g>
<g><path style="opacity:1" fill="#d1eedc" d="M 874.5,188.5 C 875.167,188.5 875.833,188.5 876.5,188.5C 876.973,189.906 877.973,190.573 879.5,190.5C 880.167,191.833 881.167,192.833 882.5,193.5C 882.833,194.167 883.167,194.833 883.5,195.5C 884.209,196.404 885.209,196.737 886.5,196.5C 885.292,197.782 883.958,197.782 882.5,196.5C 879.8,193.827 877.133,191.16 874.5,188.5 Z"/></g>
<g><path style="opacity:1" fill="#4eb177" d="M 853.5,188.5 C 849.925,190.729 846.592,193.395 843.5,196.5C 843.5,195.167 843.5,193.833 843.5,192.5C 846.852,191.165 850.185,189.831 853.5,188.5 Z"/></g>
<g><path style="opacity:1" fill="#a6d9bd" d="M 690.5,192.5 C 692.587,193.585 693.92,195.251 694.5,197.5C 692.413,196.415 691.08,194.749 690.5,192.5 Z"/></g>
<g><path style="opacity:1" fill="#bde4cb" d="M 792.5,190.5 C 792.167,191.167 791.833,191.833 791.5,192.5C 789.37,194.127 787.37,195.96 785.5,198C 783.843,198.725 782.843,198.225 782.5,196.5C 784.38,196.771 785.713,196.104 786.5,194.5C 788.246,192.748 790.246,191.415 792.5,190.5 Z"/></g>
<g><path style="opacity:1" fill="#a9ddbe" d="M 821.5,192.5 C 821.833,192.5 822.167,192.5 822.5,192.5C 822.833,193.5 823.5,194.167 824.5,194.5C 825.6,195.605 826.267,196.938 826.5,198.5C 824.086,197.089 822.419,195.089 821.5,192.5 Z"/></g>
<g><path style="opacity:1" fill="#70b891" d="M 885.5,192.5 C 885.715,194.179 885.048,195.179 883.5,195.5C 883.167,194.833 882.833,194.167 882.5,193.5C 883.609,193.443 884.609,193.11 885.5,192.5 Z"/></g>
<g><path style="opacity:1" fill="#89c8a2" d="M 927.5,188.5 C 927.833,188.5 928.167,188.5 928.5,188.5C 928.5,189.833 928.5,191.167 928.5,192.5C 927.833,193.167 927.167,193.833 926.5,194.5C 926.517,192.435 926.85,190.435 927.5,188.5 Z"/></g>
<g><path style="opacity:1" fill="#bee6cd" d="M 853.5,188.5 C 853.833,188.5 854.167,188.5 854.5,188.5C 855.5,188.5 856.5,188.5 857.5,188.5C 855.924,189.143 854.59,190.143 853.5,191.5C 849.586,193.408 845.92,195.741 842.5,198.5C 842.328,197.508 842.662,196.842 843.5,196.5C 846.592,193.395 849.925,190.729 853.5,188.5 Z"/></g>
<g><path style="opacity:1" fill="#bfe7d0" d="M 981.5,183.5 C 981.5,183.833 981.5,184.167 981.5,184.5C 978.466,189.189 975.466,193.856 972.5,198.5C 974.272,192.736 977.272,187.736 981.5,183.5 Z"/></g>
<g><path style="opacity:1" fill="#3faa71" d="M 688.5,189.5 C 690.801,190.06 693.134,190.56 695.5,191C 694.833,191.333 694.167,191.667 693.5,192C 694.573,194.657 696.24,196.823 698.5,198.5C 699.246,199.736 699.579,201.07 699.5,202.5C 699.167,202.5 698.833,202.5 698.5,202.5C 697.92,200.251 696.587,198.585 694.5,197.5C 693.92,195.251 692.587,193.585 690.5,192.5C 689.833,191.5 689.167,190.5 688.5,189.5 Z"/></g>
<g><path style="opacity:1" fill="#a9dfc3" d="M 694.5,197.5 C 696.587,198.585 697.92,200.251 698.5,202.5C 697.5,201.833 696.5,201.167 695.5,200.5C 694.89,199.609 694.557,198.609 694.5,197.5 Z"/></g>
<g><path style="opacity:1" fill="#ecfaf2" d="M 819.5,191.5 C 820.167,191.833 820.833,192.167 821.5,192.5C 822.419,195.089 824.086,197.089 826.5,198.5C 826.427,200.027 827.094,201.027 828.5,201.5C 828.5,202.833 828.5,204.167 828.5,205.5C 827.33,203.721 825.664,202.721 823.5,202.5C 823.5,200.833 823.5,199.167 823.5,197.5C 818.514,197.855 817.181,195.855 819.5,191.5 Z"/></g>
<g><path style="opacity:1" fill="#daf1e2" d="M 928.5,192.5 C 928.206,200.003 926.539,207.003 923.5,213.5C 923.5,212.167 923.5,210.833 923.5,209.5C 923.5,208.167 923.5,206.833 923.5,205.5C 925.258,202.146 926.258,198.479 926.5,194.5C 927.167,193.833 927.833,193.167 928.5,192.5 Z"/></g>
<g><path style="opacity:1" fill="#86caa3" d="M 826.5,198.5 C 827.906,198.973 828.573,199.973 828.5,201.5C 827.094,201.027 826.427,200.027 826.5,198.5 Z"/></g>
<g><path style="opacity:1" fill="#aadcc0" d="M 972.5,198.5 C 972.573,200.027 971.906,201.027 970.5,201.5C 970.427,199.973 971.094,198.973 972.5,198.5 Z"/></g>
<g><path style="opacity:1" fill="#e7f7ee" d="M 673.5,205.5 C 672.833,205.5 672.167,205.5 671.5,205.5C 670.833,205.5 670.167,205.5 669.5,205.5C 666.375,204.521 663.042,204.187 659.5,204.5C 661.634,202.967 664.134,202.3 667,202.5C 668.833,202.833 670.667,203.167 672.5,203.5C 672.863,204.183 673.196,204.85 673.5,205.5 Z"/></g>
<g><path style="opacity:1" fill="#83c8a3" d="M 842.5,198.5 C 842.443,199.609 842.11,200.609 841.5,201.5C 839.806,202.527 838.473,203.861 837.5,205.5C 837.969,202.357 839.636,200.023 842.5,198.5 Z"/></g>
<g><path style="opacity:1" fill="#9fd5b4" d="M 757.5,188.5 C 757.831,212.672 757.498,236.672 756.5,260.5C 756.5,236.833 756.5,213.167 756.5,189.5C 749.5,189.5 742.5,189.5 735.5,189.5C 735.5,213.167 735.5,236.833 735.5,260.5C 735.167,260.5 734.833,260.5 734.5,260.5C 734.5,236.5 734.5,212.5 734.5,188.5C 742.167,188.5 749.833,188.5 757.5,188.5 Z"/></g>
<g><path style="opacity:1" fill="#e2f6e8" d="M 756.5,260.5 C 749.5,260.5 742.5,260.5 735.5,260.5C 735.5,236.833 735.5,213.167 735.5,189.5C 742.5,189.5 749.5,189.5 756.5,189.5C 756.5,213.167 756.5,236.833 756.5,260.5 Z"/></g>
<g><path style="opacity:1" fill="#fcfdfc" d="M 736.5,190.5 C 742.833,190.5 749.167,190.5 755.5,190.5C 755.833,213.176 755.5,235.843 754.5,258.5C 748.561,259.457 742.561,259.79 736.5,259.5C 736.5,236.5 736.5,213.5 736.5,190.5 Z"/></g>
<g><path style="opacity:1" fill="#c0e6ce" d="M 970.5,201.5 C 970.5,202.167 970.5,202.833 970.5,203.5C 969.833,203.833 969.167,204.167 968.5,204.5C 968.427,202.973 969.094,201.973 970.5,201.5 Z"/></g>
<g><path style="opacity:1" fill="#bce6cf" d="M 800.5,205.5 C 798.265,205.205 796.265,205.539 794.5,206.5C 793.833,206.5 793.167,206.5 792.5,206.5C 793.492,204.974 794.992,204.307 797,204.5C 798.385,204.514 799.551,204.848 800.5,205.5 Z"/></g>
<g><path style="opacity:1" fill="#80c29e" d="M 877.5,205.5 C 877.833,206.167 878.167,206.833 878.5,207.5C 873.604,205.429 868.604,205.096 863.5,206.5C 865.307,204.555 867.64,203.555 870.5,203.5C 872.932,203.886 875.266,204.553 877.5,205.5 Z"/></g>
<g><path style="opacity:1" fill="#afdfc4" d="M 659.5,204.5 C 663.042,204.187 666.375,204.521 669.5,205.5C 665.958,205.187 662.625,205.521 659.5,206.5C 657.856,206.81 656.856,207.81 656.5,209.5C 656.167,209.5 655.833,209.5 655.5,209.5C 655.731,206.937 657.065,205.27 659.5,204.5 Z"/></g>
<g><path style="opacity:1" fill="#adddc0" d="M 698.5,202.5 C 698.833,202.5 699.167,202.5 699.5,202.5C 699.595,204.786 700.262,206.786 701.5,208.5C 701.5,209.833 701.5,211.167 701.5,212.5C 699.723,209.495 698.723,206.162 698.5,202.5 Z"/></g>
<g><path style="opacity:1" fill="#73c094" d="M 970.5,203.5 C 970.573,205.027 969.906,206.027 968.5,206.5C 968.5,206.167 968.5,205.833 968.5,205.5C 968.5,205.167 968.5,204.833 968.5,204.5C 969.167,204.167 969.833,203.833 970.5,203.5 Z"/></g>
<g><path style="opacity:1" fill="#a0d5b8" d="M 671.5,205.5 C 672.167,205.5 672.833,205.5 673.5,205.5C 677.953,209.073 680.286,213.739 680.5,219.5C 680.167,219.5 679.833,219.5 679.5,219.5C 678.958,215.502 677.291,212.168 674.5,209.5C 673.5,208.167 672.5,206.833 671.5,205.5 Z"/></g>
<g><path style="opacity:1" fill="#73bb93" d="M 794.5,206.5 C 796.265,205.539 798.265,205.205 800.5,205.5C 801.167,205.5 801.833,205.5 802.5,205.5C 803.5,206.833 804.5,208.167 805.5,209.5C 803.641,209.539 802.308,208.706 801.5,207C 799.19,206.503 796.857,206.337 794.5,206.5 Z"/></g>
<g><path style="opacity:1" fill="#c6e5d3" d="M 802.5,205.5 C 805.167,206.167 806.833,207.833 807.5,210.5C 807.167,210.5 806.833,210.5 806.5,210.5C 806.5,209.833 806.167,209.5 805.5,209.5C 804.5,208.167 803.5,206.833 802.5,205.5 Z"/></g>
<g><path style="opacity:1" fill="#48b076" d="M 923.5,205.5 C 923.5,206.833 923.5,208.167 923.5,209.5C 921.864,213.21 921.198,217.21 921.5,221.5C 921.5,222.167 921.5,222.833 921.5,223.5C 920.833,225.833 920.167,228.167 919.5,230.5C 919.833,224.5 920.167,218.5 920.5,212.5C 920.98,209.922 921.98,207.588 923.5,205.5 Z"/></g>
<g><path style="opacity:1" fill="#9fd3b6" d="M 792.5,206.5 C 791.833,207.5 791.167,208.5 790.5,209.5C 789.833,209.833 789.167,210.167 788.5,210.5C 788.5,210.167 788.5,209.833 788.5,209.5C 789.262,207.738 790.596,206.738 792.5,206.5 Z"/></g>
<g><path style="opacity:1" fill="#b3e1c6" d="M 968.5,205.5 C 968.5,205.833 968.5,206.167 968.5,206.5C 968.5,206.833 968.5,207.167 968.5,207.5C 967.833,207.833 967.167,208.167 966.5,208.5C 966.427,206.973 967.094,205.973 968.5,205.5 Z"/></g>
<g><path style="opacity:1" fill="#5ab284" d="M 659.5,206.5 C 659.144,208.19 658.144,209.19 656.5,209.5C 656.856,207.81 657.856,206.81 659.5,206.5 Z"/></g>
<g><path style="opacity:1" fill="#41ad70" d="M 763.5,188.5 C 763.5,191.167 763.5,193.833 763.5,196.5C 763.5,218.167 763.5,239.833 763.5,261.5C 771.019,261.825 778.352,261.492 785.5,260.5C 785.833,260.5 786.167,260.5 786.5,260.5C 781.106,262.459 775.273,263.459 769,263.5C 765.708,263.974 763.041,262.974 761,260.5C 761.293,236.874 761.626,213.207 762,189.5C 762.383,188.944 762.883,188.611 763.5,188.5 Z"/></g>
<g><path style="opacity:1" fill="#def2e6" d="M 841.5,201.5 C 840.38,205.972 838.38,209.972 835.5,213.5C 835.5,213.167 835.5,212.833 835.5,212.5C 835.878,210.079 836.545,207.746 837.5,205.5C 838.473,203.861 839.806,202.527 841.5,201.5 Z"/></g>
<g><path style="opacity:1" fill="#9bd5b6" d="M 863.5,206.5 C 862.5,208.167 861.167,209.5 859.5,210.5C 859.833,208.167 861.167,206.833 863.5,206.5 Z"/></g>
<g><path style="opacity:1" fill="#d4f1de" d="M 877.5,205.5 C 878.496,205.414 879.329,205.748 880,206.5C 881.438,207.9 882.271,209.567 882.5,211.5C 881.833,210.833 881.167,210.167 880.5,209.5C 879.5,209.167 878.833,208.5 878.5,207.5C 878.167,206.833 877.833,206.167 877.5,205.5 Z"/></g>
<g><path style="opacity:1" fill="#d8f2e1" d="M 904.5,258.5 C 903.532,261.445 903.366,264.445 904,267.5C 906.041,268.423 908.208,268.756 910.5,268.5C 910.5,268.833 910.5,269.167 910.5,269.5C 907.833,269.5 905.167,269.5 902.5,269.5C 903.392,243.179 903.725,216.845 903.5,190.5C 898.167,190.5 892.833,190.5 887.5,190.5C 887.795,192.735 887.461,194.735 886.5,196.5C 886.5,194.167 886.5,191.833 886.5,189.5C 892.5,189.5 898.5,189.5 904.5,189.5C 904.5,212.5 904.5,235.5 904.5,258.5 Z"/></g>
<g><path style="opacity:1" fill="#9cd2b2" d="M 763.5,196.5 C 763.833,196.5 764.167,196.5 764.5,196.5C 764.5,217.833 764.5,239.167 764.5,260.5C 771.5,260.5 778.5,260.5 785.5,260.5C 778.352,261.492 771.019,261.825 763.5,261.5C 763.5,239.833 763.5,218.167 763.5,196.5 Z"/></g>
<g><path style="opacity:1" fill="#2fab65" d="M 878.5,207.5 C 878.833,208.5 879.5,209.167 880.5,209.5C 881.801,218.507 881.801,227.507 880.5,236.5C 880.167,237.167 879.833,237.833 879.5,238.5C 877.284,238.275 875.617,239.108 874.5,241C 870.779,241.678 867.112,241.511 863.5,240.5C 862.167,239.5 860.833,238.5 859.5,237.5C 858.833,235.167 858.167,232.833 857.5,230.5C 857.129,223.681 857.795,217.014 859.5,210.5C 861.167,209.5 862.5,208.167 863.5,206.5C 868.604,205.096 873.604,205.429 878.5,207.5 Z"/></g>
<g><path style="opacity:1" fill="#dff3e6" d="M 695.5,200.5 C 696.5,201.167 697.5,201.833 698.5,202.5C 698.723,206.162 699.723,209.495 701.5,212.5C 702.738,220.783 702.738,229.117 701.5,237.5C 700.129,239.936 699.129,242.603 698.5,245.5C 697.094,245.973 696.427,246.973 696.5,248.5C 696.167,248.5 695.833,248.5 695.5,248.5C 696.698,243.762 698.198,239.095 700,234.5C 700.667,227.5 700.667,220.5 700,213.5C 698.044,209.353 696.544,205.02 695.5,200.5 Z"/></g>
<g><path style="opacity:1" fill="#57b27f" d="M 968.5,207.5 C 968.408,209.848 967.408,211.514 965.5,212.5C 965.557,211.391 965.89,210.391 966.5,209.5C 966.5,209.167 966.5,208.833 966.5,208.5C 967.167,208.167 967.833,207.833 968.5,207.5 Z"/></g>
<g><path style="opacity:1" fill="#2fab66" d="M 669.5,205.5 C 670.167,205.5 670.833,205.5 671.5,205.5C 672.5,206.833 673.5,208.167 674.5,209.5C 676.873,215.233 678.206,221.233 678.5,227.5C 678.599,230.237 678.265,232.904 677.5,235.5C 677.5,236.167 677.5,236.833 677.5,237.5C 676.094,237.973 675.427,238.973 675.5,240.5C 673.596,240.738 672.262,241.738 671.5,243.5C 667.6,244.43 663.6,244.763 659.5,244.5C 659.5,244.167 659.5,243.833 659.5,243.5C 658.167,241.833 656.833,240.167 655.5,238.5C 653.455,231.733 652.955,224.733 654,217.5C 654.275,214.588 655.109,211.921 656.5,209.5C 658.144,209.19 659.144,208.19 659.5,206.5C 662.625,205.521 665.958,205.187 669.5,205.5 Z"/></g>
<g><path style="opacity:1" fill="#3dab71" d="M 674.5,209.5 C 677.291,212.168 678.958,215.502 679.5,219.5C 679.806,222.385 679.473,225.052 678.5,227.5C 678.206,221.233 676.873,215.233 674.5,209.5 Z"/></g>
<g><path style="opacity:1" fill="#78c197" d="M 859.5,210.5 C 857.795,217.014 857.129,223.681 857.5,230.5C 857.167,230.5 856.833,230.5 856.5,230.5C 856.334,225.156 856.501,219.823 857,214.5C 857.608,212.934 858.442,211.6 859.5,210.5 Z"/></g>
<g><path style="opacity:1" fill="#77c299" d="M 806.5,210.5 C 806.833,210.5 807.167,210.5 807.5,210.5C 808.038,212.117 808.371,213.784 808.5,215.5C 808.5,215.833 808.5,216.167 808.5,216.5C 806.926,214.898 806.259,212.898 806.5,210.5 Z"/></g>
<g><path style="opacity:1" fill="#8bcba7" d="M 923.5,209.5 C 923.5,210.833 923.5,212.167 923.5,213.5C 923.5,213.833 923.5,214.167 923.5,214.5C 922.833,216.833 922.167,219.167 921.5,221.5C 921.198,217.21 921.864,213.21 923.5,209.5 Z"/></g>
<g><path style="opacity:1" fill="#d5efde" d="M 966.5,209.5 C 965.89,210.391 965.557,211.391 965.5,212.5C 963.621,213.895 962.621,215.895 962.5,218.5C 961.833,218.833 961.167,219.167 960.5,219.5C 961.027,216.769 961.86,214.102 963,211.5C 963.816,210.177 964.983,209.511 966.5,209.5 Z"/></g>
<g><path style="opacity:1" fill="#56b381" d="M 965.5,212.5 C 965.66,214.199 965.494,215.866 965,217.5C 964.329,218.252 963.496,218.586 962.5,218.5C 962.621,215.895 963.621,213.895 965.5,212.5 Z"/></g>
<g><path style="opacity:1" fill="#60b785" d="M 655.5,209.5 C 655.833,209.5 656.167,209.5 656.5,209.5C 655.109,211.921 654.275,214.588 654,217.5C 652.955,224.733 653.455,231.733 655.5,238.5C 655.167,238.5 654.833,238.5 654.5,238.5C 653.058,237.18 652.392,235.514 652.5,233.5C 652.236,226.11 652.57,218.777 653.5,211.5C 654.5,211.167 655.167,210.5 655.5,209.5 Z"/></g>
<g><path style="opacity:1" fill="#65bc8d" d="M 880.5,209.5 C 881.167,210.167 881.833,210.833 882.5,211.5C 882.666,219.174 882.5,226.841 882,234.5C 881.722,235.416 881.222,236.082 880.5,236.5C 881.801,227.507 881.801,218.507 880.5,209.5 Z"/></g>
<g><path style="opacity:1" fill="#4db076" d="M 790.5,209.5 C 789.826,212.526 788.993,215.526 788,218.5C 787.831,232.006 787.331,245.34 786.5,258.5C 786.333,243.163 786.5,227.83 787,212.5C 787.278,211.584 787.778,210.918 788.5,210.5C 789.167,210.167 789.833,209.833 790.5,209.5 Z"/></g>
<g><path style="opacity:1" fill="#e5f7eb" d="M 923.5,214.5 C 923.904,219.783 923.238,224.783 921.5,229.5C 921.5,227.5 921.5,225.5 921.5,223.5C 921.5,222.833 921.5,222.167 921.5,221.5C 922.167,219.167 922.833,216.833 923.5,214.5 Z"/></g>
<g><path style="opacity:1" fill="#8acaa4" d="M 962.5,218.5 C 962.5,219.167 962.5,219.833 962.5,220.5C 961.833,220.833 961.167,221.167 960.5,221.5C 960.5,220.833 960.5,220.167 960.5,219.5C 961.167,219.167 961.833,218.833 962.5,218.5 Z"/></g>
<g><path style="opacity:1" fill="#dbf2e4" d="M 829.5,209.5 C 830.497,226.325 830.83,243.325 830.5,260.5C 823.5,260.5 816.5,260.5 809.5,260.5C 809.829,245.324 809.496,230.324 808.5,215.5C 808.371,213.784 808.038,212.117 807.5,210.5C 808.79,211.058 809.623,212.058 810,213.5C 810.5,228.83 810.667,244.163 810.5,259.5C 816.833,259.5 823.167,259.5 829.5,259.5C 829.5,242.833 829.5,226.167 829.5,209.5 Z"/></g>
<g><path style="opacity:1" fill="#bee5cd" d="M 882.5,211.5 C 883.657,219.656 883.823,227.99 883,236.5C 879.611,243.226 874.445,245.56 867.5,243.5C 872.487,244.001 876.487,242.335 879.5,238.5C 879.833,237.833 880.167,237.167 880.5,236.5C 881.222,236.082 881.722,235.416 882,234.5C 882.5,226.841 882.666,219.174 882.5,211.5 Z"/></g>
<g><path style="opacity:1" fill="#e9f9ee" d="M 959.5,221.5 C 959.5,222.167 959.5,222.833 959.5,223.5C 958.094,223.973 957.427,224.973 957.5,226.5C 957.011,227.995 956.345,229.329 955.5,230.5C 954.657,226.343 955.991,223.343 959.5,221.5 Z"/></g>
<g><path style="opacity:1" fill="#e1f7ea" d="M 835.5,216.5 C 835.502,223.52 835.835,230.52 836.5,237.5C 836.167,237.5 835.833,237.5 835.5,237.5C 835.768,235.901 835.434,234.568 834.5,233.5C 834.178,227.642 834.511,221.975 835.5,216.5 Z"/></g>
<g><path style="opacity:1" fill="#3ea96e" d="M 913.5,268.5 C 912.5,268.5 911.5,268.5 910.5,268.5C 908.208,268.756 906.041,268.423 904,267.5C 903.366,264.445 903.532,261.445 904.5,258.5C 905.498,235.339 905.831,212.006 905.5,188.5C 898.833,188.5 892.167,188.5 885.5,188.5C 885.5,189.833 885.5,191.167 885.5,192.5C 884.609,193.11 883.609,193.443 882.5,193.5C 882.443,192.391 882.11,191.391 881.5,190.5C 883.912,190.306 884.912,188.973 884.5,186.5C 891.833,186.5 899.167,186.5 906.5,186.5C 906.779,213.185 906.446,239.852 905.5,266.5C 908.373,266.802 911.039,267.469 913.5,268.5 Z"/></g>
<g><path style="opacity:1" fill="#63b787" d="M 962.5,220.5 C 961.89,222.434 960.89,224.101 959.5,225.5C 959.5,224.833 959.5,224.167 959.5,223.5C 959.5,222.833 959.5,222.167 959.5,221.5C 959.833,221.5 960.167,221.5 960.5,221.5C 961.167,221.167 961.833,220.833 962.5,220.5 Z"/></g>
<g><path style="opacity:1" fill="#49ae75" d="M 831.5,210.5 C 832.222,211.551 833.222,212.218 834.5,212.5C 833.223,219.629 833.223,226.629 834.5,233.5C 835.434,234.568 835.768,235.901 835.5,237.5C 835.12,239.698 835.787,241.365 837.5,242.5C 837.328,243.492 837.662,244.158 838.5,244.5C 838.5,245.167 838.5,245.833 838.5,246.5C 836.769,244.861 834.935,243.194 833,241.5C 832.814,248.414 832.314,255.247 831.5,262C 823.988,262.822 816.655,262.655 809.5,261.5C 816.687,261.825 823.687,261.491 830.5,260.5C 831.497,244.008 831.83,227.342 831.5,210.5 Z"/></g>
<g><path style="opacity:1" fill="#b8e0c7" d="M 959.5,223.5 C 959.5,224.167 959.5,224.833 959.5,225.5C 958.833,225.833 958.167,226.167 957.5,226.5C 957.427,224.973 958.094,223.973 959.5,223.5 Z"/></g>
<g><path style="opacity:1" fill="#aedcbf" d="M 653.5,211.5 C 652.57,218.777 652.236,226.11 652.5,233.5C 651.509,227.021 651.176,220.354 651.5,213.5C 651.833,212.5 652.5,211.833 653.5,211.5 Z"/></g>
<g><path style="opacity:1" fill="#88cca4" d="M 834.5,212.5 C 834.833,212.5 835.167,212.5 835.5,212.5C 835.5,212.833 835.5,213.167 835.5,213.5C 835.5,214.5 835.5,215.5 835.5,216.5C 834.511,221.975 834.178,227.642 834.5,233.5C 833.223,226.629 833.223,219.629 834.5,212.5 Z"/></g>
<g><path style="opacity:1" fill="#7dc59e" d="M 959.5,225.5 C 958.202,229.088 956.536,232.421 954.5,235.5C 955.038,233.883 955.371,232.216 955.5,230.5C 956.345,229.329 957.011,227.995 957.5,226.5C 958.167,226.167 958.833,225.833 959.5,225.5 Z"/></g>
<g><path style="opacity:1" fill="#94d2ae" d="M 829.5,205.5 C 830.537,206.93 831.204,208.597 831.5,210.5C 831.83,227.342 831.497,244.008 830.5,260.5C 830.83,243.325 830.497,226.325 829.5,209.5C 829.5,208.167 829.5,206.833 829.5,205.5 Z"/></g>
<g><path style="opacity:1" fill="#d3eedd" d="M 781.5,190.5 C 776.238,190.195 771.072,190.529 766,191.5C 765.5,214.164 765.333,236.831 765.5,259.5C 771.833,259.5 778.167,259.5 784.5,259.5C 784.333,243.83 784.5,228.163 785,212.5C 785.759,210.937 786.926,209.937 788.5,209.5C 788.5,209.833 788.5,210.167 788.5,210.5C 787.778,210.918 787.278,211.584 787,212.5C 786.5,227.83 786.333,243.163 786.5,258.5C 786.5,259.167 786.5,259.833 786.5,260.5C 786.167,260.5 785.833,260.5 785.5,260.5C 778.5,260.5 771.5,260.5 764.5,260.5C 764.5,239.167 764.5,217.833 764.5,196.5C 764.5,194.167 764.5,191.833 764.5,189.5C 770.358,189.178 776.025,189.511 781.5,190.5 Z"/></g>
<g><path style="opacity:1" fill="#abd8bc" d="M 856.5,230.5 C 856.833,230.5 857.167,230.5 857.5,230.5C 858.167,232.833 858.833,235.167 859.5,237.5C 857.182,235.815 856.182,233.481 856.5,230.5 Z"/></g>
<g><path style="opacity:1" fill="#6fbc91" d="M 679.5,219.5 C 679.833,219.5 680.167,219.5 680.5,219.5C 680.587,224.537 680.254,229.537 679.5,234.5C 678.833,234.833 678.167,235.167 677.5,235.5C 678.265,232.904 678.599,230.237 678.5,227.5C 679.473,225.052 679.806,222.385 679.5,219.5 Z"/></g>
<g><path style="opacity:1" fill="#a5d8bb" d="M 679.5,234.5 C 679.573,236.027 678.906,237.027 677.5,237.5C 677.5,236.833 677.5,236.167 677.5,235.5C 678.167,235.167 678.833,234.833 679.5,234.5 Z"/></g>
<g><path style="opacity:1" fill="#dbf1e2" d="M 955.5,230.5 C 955.371,232.216 955.038,233.883 954.5,235.5C 954.5,235.833 954.5,236.167 954.5,236.5C 953.5,237.833 952.5,239.167 951.5,240.5C 951.206,236.433 952.54,233.1 955.5,230.5 Z"/></g>
<g><path style="opacity:1" fill="#91cda9" d="M 921.5,223.5 C 921.5,225.5 921.5,227.5 921.5,229.5C 920.701,232.43 920.368,235.43 920.5,238.5C 919.508,245.648 919.175,252.981 919.5,260.5C 918.288,250.652 918.288,240.652 919.5,230.5C 920.167,228.167 920.833,225.833 921.5,223.5 Z"/></g>
<g><path style="opacity:1" fill="#96d2b0" d="M 677.5,237.5 C 677.573,239.027 676.906,240.027 675.5,240.5C 675.427,238.973 676.094,237.973 677.5,237.5 Z"/></g>
<g><path style="opacity:1" fill="#9fd8b9" d="M 859.5,237.5 C 860.833,238.5 862.167,239.5 863.5,240.5C 863.833,241.167 864.167,241.833 864.5,242.5C 861.833,241.833 860.167,240.167 859.5,237.5 Z"/></g>
<g><path style="opacity:1" fill="#a1d7b7" d="M 654.5,238.5 C 654.833,238.5 655.167,238.5 655.5,238.5C 656.833,240.167 658.167,241.833 659.5,243.5C 656.833,242.833 655.167,241.167 654.5,238.5 Z"/></g>
<g><path style="opacity:1" fill="#5fb885" d="M 954.5,236.5 C 954.585,239.649 953.585,242.316 951.5,244.5C 951.5,243.833 951.5,243.167 951.5,242.5C 951.5,241.833 951.5,241.167 951.5,240.5C 952.5,239.167 953.5,237.833 954.5,236.5 Z"/></g>
<g><path style="opacity:1" fill="#e7f7ec" d="M 651.5,213.5 C 651.176,220.354 651.509,227.021 652.5,233.5C 652.392,235.514 653.058,237.18 654.5,238.5C 655.167,241.167 656.833,242.833 659.5,243.5C 659.5,243.833 659.5,244.167 659.5,244.5C 657.097,244.607 655.264,243.607 654,241.5C 653.439,239.275 652.439,237.275 651,235.5C 650.178,227.988 650.345,220.655 651.5,213.5 Z"/></g>
<g><path style="opacity:1" fill="#86c8a2" d="M 835.5,237.5 C 835.833,237.5 836.167,237.5 836.5,237.5C 836.629,239.216 836.962,240.883 837.5,242.5C 835.787,241.365 835.12,239.698 835.5,237.5 Z"/></g>
<g><path style="opacity:1" fill="#98d4b3" d="M 675.5,240.5 C 674.833,241.833 673.833,242.833 672.5,243.5C 672.167,243.5 671.833,243.5 671.5,243.5C 672.262,241.738 673.596,240.738 675.5,240.5 Z"/></g>
<g><path style="opacity:1" fill="#50ae7a" d="M 879.5,238.5 C 876.487,242.335 872.487,244.001 867.5,243.5C 866.209,243.737 865.209,243.404 864.5,242.5C 864.167,241.833 863.833,241.167 863.5,240.5C 867.112,241.511 870.779,241.678 874.5,241C 875.617,239.108 877.284,238.275 879.5,238.5 Z"/></g>
<g><path style="opacity:1" fill="#5eb383" d="M 701.5,237.5 C 701.326,239.861 700.993,242.194 700.5,244.5C 699.833,244.833 699.167,245.167 698.5,245.5C 699.129,242.603 700.129,239.936 701.5,237.5 Z"/></g>
<g><path style="opacity:1" fill="#b5e7c9" d="M 951.5,242.5 C 951.5,243.167 951.5,243.833 951.5,244.5C 950.833,245.5 950.167,246.5 949.5,247.5C 949.12,245.302 949.787,243.635 951.5,242.5 Z"/></g>
<g><path style="opacity:1" fill="#e9f8ed" d="M 671.5,243.5 C 671.833,243.5 672.167,243.5 672.5,243.5C 672.53,244.497 672.03,245.164 671,245.5C 666.732,247.155 662.898,246.821 659.5,244.5C 663.6,244.763 667.6,244.43 671.5,243.5 Z"/></g>
<g><path style="opacity:1" fill="#59b47f" d="M 757.5,188.5 C 758.663,212.663 758.83,236.997 758,261.5C 754.082,262.151 750.082,262.484 746,262.5C 741.771,262.49 737.938,261.823 734.5,260.5C 734.833,260.5 735.167,260.5 735.5,260.5C 742.5,260.5 749.5,260.5 756.5,260.5C 757.498,236.672 757.831,212.672 757.5,188.5 Z"/></g>
<g><path style="opacity:1" fill="#ade0c1" d="M 838.5,244.5 C 839.906,244.973 840.573,245.973 840.5,247.5C 839.833,247.167 839.167,246.833 838.5,246.5C 838.5,245.833 838.5,245.167 838.5,244.5 Z"/></g>
<g><path style="opacity:1" fill="#c3e8d0" d="M 920.5,238.5 C 920.5,245.5 920.5,252.5 920.5,259.5C 924.042,259.187 927.375,259.521 930.5,260.5C 930.5,260.833 930.5,261.167 930.5,261.5C 927.167,261.5 923.833,261.5 920.5,261.5C 919.833,261.5 919.5,261.167 919.5,260.5C 919.175,252.981 919.508,245.648 920.5,238.5 Z"/></g>
<g><path style="opacity:1" fill="#6fbe91" d="M 698.5,245.5 C 698.573,247.027 697.906,248.027 696.5,248.5C 696.427,246.973 697.094,245.973 698.5,245.5 Z"/></g>
<g><path style="opacity:1" fill="#55b17c" d="M 951.5,244.5 C 951.59,247.152 950.924,249.485 949.5,251.5C 949.5,250.167 949.5,248.833 949.5,247.5C 950.167,246.5 950.833,245.5 951.5,244.5 Z"/></g>
<g><path style="opacity:1" fill="#8ecca5" d="M 841.5,249.5 C 843.5,250.833 845.167,252.5 846.5,254.5C 846.167,254.5 845.833,254.5 845.5,254.5C 843.413,253.415 842.08,251.749 841.5,249.5 Z"/></g>
<g><path style="opacity:1" fill="#afddc3" d="M 949.5,247.5 C 949.5,248.833 949.5,250.167 949.5,251.5C 947.723,254.505 946.723,257.838 946.5,261.5C 946.167,261.5 945.833,261.5 945.5,261.5C 945.5,260.5 945.5,259.5 945.5,258.5C 946.505,255.279 947.339,251.946 948,248.5C 948.383,247.944 948.883,247.611 949.5,247.5 Z"/></g>
<g><path style="opacity:1" fill="#a0d1b6" d="M 651.5,253.5 C 650.167,253.5 649.5,254.167 649.5,255.5C 649.167,255.5 648.833,255.5 648.5,255.5C 648.238,254.022 648.571,252.689 649.5,251.5C 650.522,251.855 651.189,252.522 651.5,253.5 Z"/></g>
<g><path style="opacity:1" fill="#90cdac" d="M 695.5,248.5 C 695.833,248.5 696.167,248.5 696.5,248.5C 694.438,252.895 691.104,255.895 686.5,257.5C 689.833,254.833 692.833,251.833 695.5,248.5 Z"/></g>
<g><path style="opacity:1" fill="#6dba8f" d="M 651.5,253.5 C 651.833,254.5 652.5,255.167 653.5,255.5C 653.833,256.167 654.167,256.833 654.5,257.5C 652.833,256.833 651.167,256.167 649.5,255.5C 649.5,254.167 650.167,253.5 651.5,253.5 Z"/></g>
<g><path style="opacity:1" fill="#ccecda" d="M 653.5,255.5 C 655.749,256.08 657.415,257.413 658.5,259.5C 656.938,259.267 655.605,258.6 654.5,257.5C 654.167,256.833 653.833,256.167 653.5,255.5 Z"/></g>
<g><path style="opacity:1" fill="#a6d9be" d="M 878.5,254.5 C 878.833,254.5 879.167,254.5 879.5,254.5C 879.5,254.833 879.5,255.167 879.5,255.5C 878.609,256.11 877.609,256.443 876.5,256.5C 876.833,255.5 877.5,254.833 878.5,254.5 Z"/></g>
<g><path style="opacity:1" fill="#a5d8bb" d="M 880.5,253.5 C 881.209,252.596 882.209,252.263 883.5,252.5C 883.81,255.713 883.477,258.713 882.5,261.5C 883.036,258.302 882.369,255.635 880.5,253.5 Z"/></g>
<g><path style="opacity:1" fill="#c9e9d4" d="M 848.5,255.5 C 851.425,255.46 854.091,256.293 856.5,258C 862.157,258.499 867.824,258.666 873.5,258.5C 873.158,259.338 872.492,259.672 871.5,259.5C 866.187,260.735 860.853,260.735 855.5,259.5C 852.848,258.525 850.514,257.192 848.5,255.5 Z"/></g>
<g><path style="opacity:1" fill="#52b37b" d="M 845.5,254.5 C 845.833,254.5 846.167,254.5 846.5,254.5C 846.842,255.338 847.508,255.672 848.5,255.5C 850.514,257.192 852.848,258.525 855.5,259.5C 860.853,260.735 866.187,260.735 871.5,259.5C 871.389,260.117 871.056,260.617 870.5,261C 862.012,262.478 854.012,261.311 846.5,257.5C 845.873,256.583 845.539,255.583 845.5,254.5 Z"/></g>
<g><path style="opacity:1" fill="#97d4b0" d="M 876.5,256.5 C 876.027,257.906 875.027,258.573 873.5,258.5C 873.973,257.094 874.973,256.427 876.5,256.5 Z"/></g>
<g><path style="opacity:1" fill="#dbf2e3" d="M 686.5,257.5 C 686.5,257.833 686.5,258.167 686.5,258.5C 684.181,258.992 682.181,259.992 680.5,261.5C 678.833,261.5 677.167,261.5 675.5,261.5C 671.629,261.815 667.962,261.482 664.5,260.5C 668.846,260.666 673.179,260.499 677.5,260C 680.206,258.092 683.206,257.259 686.5,257.5 Z"/></g>
<g><path style="opacity:1" fill="#68ba8d" d="M 880.5,253.5 C 882.369,255.635 883.036,258.302 882.5,261.5C 882.34,263.153 881.674,264.486 880.5,265.5C 881.412,261.869 881.579,258.203 881,254.5C 880.617,255.056 880.117,255.389 879.5,255.5C 879.5,255.167 879.5,254.833 879.5,254.5C 879.5,253.833 879.833,253.5 880.5,253.5 Z"/></g>
<g><path style="opacity:1" fill="#54b37e" d="M 686.5,258.5 C 685.393,260.969 683.393,261.969 680.5,261.5C 682.181,259.992 684.181,258.992 686.5,258.5 Z"/></g>
<g><path style="opacity:1" fill="#92cea9" d="M 808.5,215.5 C 809.496,230.324 809.829,245.324 809.5,260.5C 816.5,260.5 823.5,260.5 830.5,260.5C 823.687,261.491 816.687,261.825 809.5,261.5C 808.504,246.676 808.171,231.676 808.5,216.5C 808.5,216.167 808.5,215.833 808.5,215.5 Z"/></g>
<g><path style="opacity:1" fill="#d5f0de" d="M 945.5,258.5 C 945.5,259.5 945.5,260.5 945.5,261.5C 940.5,261.5 935.5,261.5 930.5,261.5C 930.5,261.167 930.5,260.833 930.5,260.5C 935.807,261.026 940.807,260.36 945.5,258.5 Z"/></g>
<g><path style="opacity:1" fill="#52b279" d="M 648.5,255.5 C 648.833,255.5 649.167,255.5 649.5,255.5C 649.756,257.792 649.423,259.959 648.5,262C 642.319,262.819 636.319,262.653 630.5,261.5C 636.358,261.822 642.025,261.489 647.5,260.5C 648.451,259.081 648.784,257.415 648.5,255.5 Z"/></g>
<g><path style="opacity:1" fill="#b7e2c9" d="M 658.5,259.5 C 660.565,259.517 662.565,259.85 664.5,260.5C 667.962,261.482 671.629,261.815 675.5,261.5C 671.689,262.645 667.689,262.812 663.5,262C 661.509,261.626 659.842,260.793 658.5,259.5 Z"/></g>
<g><path style="opacity:1" fill="#59b382" d="M 654.5,257.5 C 655.605,258.6 656.938,259.267 658.5,259.5C 659.842,260.793 661.509,261.626 663.5,262C 667.689,262.812 671.689,262.645 675.5,261.5C 677.167,261.5 678.833,261.5 680.5,261.5C 677.572,262.82 674.239,263.486 670.5,263.5C 665.112,263.993 660.112,262.993 655.5,260.5C 654.873,259.583 654.539,258.583 654.5,257.5 Z"/></g>
<g><path style="opacity:1" fill="#54b37d" d="M 920.5,261.5 C 923.833,261.5 927.167,261.5 930.5,261.5C 935.5,261.5 940.5,261.5 945.5,261.5C 945.833,261.5 946.167,261.5 946.5,261.5C 945.952,264.084 944.285,265.084 941.5,264.5C 934.52,263.335 927.52,262.335 920.5,261.5 Z"/></g>
<g><path style="opacity:1" fill="#30a967" d="M 920.5,212.5 C 920.167,218.5 919.833,224.5 919.5,230.5C 918.288,240.652 918.288,250.652 919.5,260.5C 919.5,261.167 919.833,261.5 920.5,261.5C 927.52,262.335 934.52,263.335 941.5,264.5C 938.729,264.421 936.063,264.921 933.5,266C 935.569,266.324 935.902,267.158 934.5,268.5C 932.726,269.187 931.059,270.02 929.5,271C 932.225,272.089 934.225,273.922 935.5,276.5C 934.833,276.5 934.167,276.5 933.5,276.5C 932.738,274.738 931.404,273.738 929.5,273.5C 928.5,273.5 927.5,273.5 926.5,273.5C 925.41,272.143 924.076,271.143 922.5,270.5C 921.5,269.833 920.5,269.167 919.5,268.5C 920.117,268.389 920.617,268.056 921,267.5C 923.621,268.991 926.455,269.658 929.5,269.5C 929.5,268.5 929.5,267.5 929.5,266.5C 925.36,266.311 921.36,265.644 917.5,264.5C 917.523,254.603 917.357,244.603 917,234.5C 916.333,233.833 915.667,233.167 915,232.5C 914.623,242.247 913.79,242.58 912.5,233.5C 913.142,228.028 912.142,222.695 909.5,217.5C 909.43,215.334 910.096,215.001 911.5,216.5C 914.601,215.273 917.601,213.94 920.5,212.5 Z"/></g>
<g><path style="opacity:1" fill="#e9f7ed" d="M 880.5,267.5 C 880.5,266.833 880.5,266.167 880.5,265.5C 881.674,264.486 882.34,263.153 882.5,261.5C 883.477,258.713 883.81,255.713 883.5,252.5C 882.209,252.263 881.209,252.596 880.5,253.5C 879.833,253.5 879.5,253.833 879.5,254.5C 879.167,254.5 878.833,254.5 878.5,254.5C 878.5,253.167 878.5,251.833 878.5,250.5C 880.5,250.5 882.5,250.5 884.5,250.5C 884.687,256.212 884.354,261.879 883.5,267.5C 882.5,267.5 881.5,267.5 880.5,267.5 Z"/></g>
<g><path style="opacity:1" fill="#92cfae" d="M 880.5,265.5 C 880.5,266.167 880.5,266.833 880.5,267.5C 880.5,267.833 880.5,268.167 880.5,268.5C 879.078,269.925 877.411,270.925 875.5,271.5C 877.196,269.475 878.863,267.475 880.5,265.5 Z"/></g>
<g><path style="opacity:1" fill="#55b382" d="M 914.5,268.5 C 916.167,268.5 917.833,268.5 919.5,268.5C 920.5,269.167 921.5,269.833 922.5,270.5C 919.572,270.435 916.905,269.768 914.5,268.5 Z"/></g>
<g><path style="opacity:1" fill="#96d3ad" d="M 847.5,269.5 C 847.5,269.833 847.5,270.167 847.5,270.5C 846.041,270.433 844.708,270.766 843.5,271.5C 844.183,269.824 845.517,269.157 847.5,269.5 Z"/></g>
<g><path style="opacity:1" fill="#aadcc0" d="M 910.5,269.5 C 910.5,269.167 910.5,268.833 910.5,268.5C 911.5,268.5 912.5,268.5 913.5,268.5C 913.833,268.5 914.167,268.5 914.5,268.5C 916.905,269.768 919.572,270.435 922.5,270.5C 924.076,271.143 925.41,272.143 926.5,273.5C 924.883,272.962 923.216,272.629 921.5,272.5C 918.063,271.055 914.397,270.055 910.5,269.5 Z"/></g>
<g><path style="opacity:1" fill="#dcf4e5" d="M 847.5,270.5 C 849.072,271.687 850.739,272.687 852.5,273.5C 849.794,273.425 847.127,273.092 844.5,272.5C 844.737,273.791 844.404,274.791 843.5,275.5C 843.5,274.167 843.5,272.833 843.5,271.5C 844.708,270.766 846.041,270.433 847.5,270.5 Z"/></g>
<g><path style="opacity:1" fill="#7fc39c" d="M 874.5,271.5 C 874.027,272.906 873.027,273.573 871.5,273.5C 871.973,272.094 872.973,271.427 874.5,271.5 Z"/></g>
<g><path style="opacity:1" fill="#82c69e" d="M 847.5,270.5 C 850.647,270.737 853.647,271.57 856.5,273C 860.821,273.499 865.154,273.666 869.5,273.5C 865.702,274.483 861.702,274.817 857.5,274.5C 855.784,274.371 854.117,274.038 852.5,273.5C 850.739,272.687 849.072,271.687 847.5,270.5 Z"/></g>
<g><path style="opacity:1" fill="#d9f2e4" d="M 880.5,268.5 C 879.409,271.428 877.409,273.594 874.5,275C 868.651,275.818 862.985,275.652 857.5,274.5C 861.702,274.817 865.702,274.483 869.5,273.5C 870.167,273.5 870.833,273.5 871.5,273.5C 873.027,273.573 874.027,272.906 874.5,271.5C 874.833,271.5 875.167,271.5 875.5,271.5C 877.411,270.925 879.078,269.925 880.5,268.5 Z"/></g>
<g><path style="opacity:1" fill="#72bd93" d="M 929.5,273.5 C 931.404,273.738 932.738,274.738 933.5,276.5C 931.596,276.262 930.262,275.262 929.5,273.5 Z"/></g>
<g><path style="opacity:1" fill="#39ab6c" d="M 847.5,269.5 C 845.517,269.157 844.183,269.824 843.5,271.5C 842.076,273.515 841.41,275.848 841.5,278.5C 839.416,280.993 839.083,283.66 840.5,286.5C 840.842,287.338 841.508,287.672 842.5,287.5C 842.833,287.5 843.167,287.5 843.5,287.5C 843.973,288.906 844.973,289.573 846.5,289.5C 846.5,289.833 846.5,290.167 846.5,290.5C 843.348,291.041 840.848,290.041 839,287.5C 839.052,283.344 838.219,279.51 836.5,276C 837.685,274.647 839.019,273.48 840.5,272.5C 839.855,270.568 838.521,269.401 836.5,269C 839.581,266.976 842.914,266.309 846.5,267C 847.252,267.671 847.586,268.504 847.5,269.5 Z"/></g>
<g><path style="opacity:1" fill="#dbf3e4" d="M 921.5,272.5 C 923.216,272.629 924.883,272.962 926.5,273.5C 927.5,273.5 928.5,273.5 929.5,273.5C 930.262,275.262 931.596,276.262 933.5,276.5C 934.262,278.262 935.596,279.262 937.5,279.5C 938.167,280.833 939.167,281.833 940.5,282.5C 940.833,282.5 941.167,282.5 941.5,282.5C 941.5,283.167 941.5,283.833 941.5,284.5C 935.386,279.449 928.719,275.449 921.5,272.5 Z"/></g>
<g><path style="opacity:1" fill="#80caa1" d="M 933.5,276.5 C 934.167,276.5 934.833,276.5 935.5,276.5C 936.167,277.5 936.833,278.5 937.5,279.5C 935.596,279.262 934.262,278.262 933.5,276.5 Z"/></g>
<g><path style="opacity:1" fill="#88c9a7" d="M 843.5,271.5 C 843.5,272.833 843.5,274.167 843.5,275.5C 842.833,276.5 842.167,277.5 841.5,278.5C 841.41,275.848 842.076,273.515 843.5,271.5 Z"/></g>
<g><path style="opacity:1" fill="#73bd8f" d="M 937.5,279.5 C 939.5,279.5 940.5,280.5 940.5,282.5C 939.167,281.833 938.167,280.833 937.5,279.5 Z"/></g>
<g><path style="opacity:1" fill="#73be92" d="M 841.5,278.5 C 841.5,279.833 841.5,281.167 841.5,282.5C 840.566,283.568 840.232,284.901 840.5,286.5C 839.083,283.66 839.416,280.993 841.5,278.5 Z"/></g>
<g><path style="opacity:1" fill="#b9e3c8" d="M 841.5,282.5 C 841.366,284.292 841.699,285.958 842.5,287.5C 841.508,287.672 840.842,287.338 840.5,286.5C 840.232,284.901 840.566,283.568 841.5,282.5 Z"/></g>
<g><path style="opacity:1" fill="#e0f5e8" d="M 843.5,275.5 C 842.779,278.817 842.612,282.151 843,285.5C 845.664,286.698 848.164,288.031 850.5,289.5C 849.167,289.5 847.833,289.5 846.5,289.5C 846.027,288.094 845.027,287.427 843.5,287.5C 843.167,287.5 842.833,287.5 842.5,287.5C 841.699,285.958 841.366,284.292 841.5,282.5C 841.5,281.167 841.5,279.833 841.5,278.5C 842.167,277.5 842.833,276.5 843.5,275.5 Z"/></g>
<g><path style="opacity:1" fill="#b0d7c4" d="M 888.5,286.5 C 888.917,285.876 889.584,285.543 890.5,285.5C 891.713,285.747 892.38,286.414 892.5,287.5C 892.167,287.5 891.833,287.5 891.5,287.5C 890.791,286.596 889.791,286.263 888.5,286.5 Z"/></g>
<g><path style="opacity:1" fill="#6bb88f" d="M 887.5,286.5 C 887.833,286.5 888.167,286.5 888.5,286.5C 889.791,286.263 890.791,286.596 891.5,287.5C 889.784,287.629 888.117,287.962 886.5,288.5C 886.833,287.833 887.167,287.167 887.5,286.5 Z"/></g>
<g><path style="opacity:1" fill="#e2f5e9" d="M 884.5,287.5 C 884.5,287.833 884.5,288.167 884.5,288.5C 880.985,289.919 877.319,290.586 873.5,290.5C 876.759,288.379 880.426,287.379 884.5,287.5 Z"/></g>
<g><path style="opacity:1" fill="#aaddbe" d="M 887.5,286.5 C 887.167,287.167 886.833,287.833 886.5,288.5C 885.833,288.5 885.167,288.5 884.5,288.5C 884.5,288.167 884.5,287.833 884.5,287.5C 885.391,286.89 886.391,286.557 887.5,286.5 Z"/></g>
<g><path style="opacity:1" fill="#9ad1b3" d="M 843.5,287.5 C 845.027,287.427 846.027,288.094 846.5,289.5C 844.973,289.573 843.973,288.906 843.5,287.5 Z"/></g>
<g><path style="opacity:1" fill="#8dcfad" d="M 892.5,287.5 C 894.5,288.833 896.167,290.5 897.5,292.5C 895.589,291.925 893.922,290.925 892.5,289.5C 892.5,288.833 892.5,288.167 892.5,287.5 Z"/></g>
<g><path style="opacity:1" fill="#b2dfc5" d="M 846.5,290.5 C 846.5,290.167 846.5,289.833 846.5,289.5C 847.833,289.5 849.167,289.5 850.5,289.5C 858.154,290.07 865.821,290.404 873.5,290.5C 873.5,290.833 873.5,291.167 873.5,291.5C 871.022,292.164 868.355,292.497 865.5,292.5C 859.125,292.159 852.791,291.493 846.5,290.5 Z"/></g>
<g><path style="opacity:1" fill="#6cbb8d" d="M 884.5,288.5 C 884.047,289.458 883.381,290.292 882.5,291C 879.518,291.498 876.518,291.665 873.5,291.5C 873.5,291.167 873.5,290.833 873.5,290.5C 877.319,290.586 880.985,289.919 884.5,288.5 Z"/></g>
<g><path style="opacity:1" fill="#47ac76" d="M 892.5,289.5 C 893.922,290.925 895.589,291.925 897.5,292.5C 898.514,293.674 899.847,294.34 901.5,294.5C 901.833,295.167 902.167,295.833 902.5,296.5C 899.533,296.011 896.867,294.845 894.5,293C 893.177,292.184 892.511,291.017 892.5,289.5 Z"/></g>
<g><path style="opacity:1" fill="#b1e0c5" d="M 941.5,284.5 C 942.117,284.611 942.617,284.944 943,285.5C 943.801,288.367 943.634,291.034 942.5,293.5C 942.632,290.43 942.299,287.43 941.5,284.5 Z"/></g>
<g><path style="opacity:1" fill="#ceecd9" d="M 897.5,292.5 C 902.663,292.519 906.997,294.186 910.5,297.5C 908.901,297.768 907.568,297.434 906.5,296.5C 905.07,295.463 903.403,294.796 901.5,294.5C 899.847,294.34 898.514,293.674 897.5,292.5 Z"/></g>
<g><path style="opacity:1" fill="#80c69d" d="M 901.5,294.5 C 903.403,294.796 905.07,295.463 906.5,296.5C 905.167,296.5 903.833,296.5 902.5,296.5C 902.167,295.833 901.833,295.167 901.5,294.5 Z"/></g>
<g><path style="opacity:1" fill="#bbe5cb" d="M 941.5,294.5 C 940.599,296.727 938.933,297.727 936.5,297.5C 935.167,297.5 933.833,297.5 932.5,297.5C 935.547,296.817 938.547,295.817 941.5,294.5 Z"/></g>
<g><path style="opacity:1" fill="#4aad77" d="M 941.5,282.5 C 949.619,292.614 946.952,298.281 933.5,299.5C 934.5,298.833 935.5,298.167 936.5,297.5C 938.933,297.727 940.599,296.727 941.5,294.5C 942.167,294.5 942.5,294.167 942.5,293.5C 943.634,291.034 943.801,288.367 943,285.5C 942.617,284.944 942.117,284.611 941.5,284.5C 941.5,283.833 941.5,283.167 941.5,282.5 Z"/></g>
<g><path style="opacity:1" fill="#69bb8d" d="M 932.5,297.5 C 933.833,297.5 935.167,297.5 936.5,297.5C 935.5,298.167 934.5,298.833 933.5,299.5C 926.978,299.823 920.645,299.49 914.5,298.5C 920.69,298.823 926.69,298.49 932.5,297.5 Z"/></g>
</svg>
