<?xml version="1.0" encoding="UTF-8"?>
<!DOCTYPE svg PUBLIC "-//W3C//DTD SVG 1.1//EN" "http://www.w3.org/Graphics/SVG/1.1/DTD/svg11.dtd">
<svg xmlns="http://www.w3.org/2000/svg" version="1.1" width="1594px" height="443px" style="shape-rendering:geometricPrecision; text-rendering:geometricPrecision; image-rendering:optimizeQuality; fill-rule:evenodd; clip-rule:evenodd" xmlns:xlink="http://www.w3.org/1999/xlink">
<g><path style="opacity:1" fill="#fefefe" d="M -0.5,-0.5 C 530.833,-0.5 1062.17,-0.5 1593.5,-0.5C 1593.5,147.167 1593.5,294.833 1593.5,442.5C 1062.17,442.5 530.833,442.5 -0.5,442.5C -0.5,294.833 -0.5,147.167 -0.5,-0.5 Z"/></g>
<g><path style="opacity:1" fill="#1e4f94" d="M 1105.5,108.5 C 1120.74,107.368 1126.24,114.035 1122,128.5C 1109.93,165.716 1094.93,201.716 1077,236.5C 1074.59,240.916 1071.42,244.749 1067.5,248C 1059.19,251.276 1056.02,248.443 1058,239.5C 1065.77,200.849 1076.77,163.183 1091,126.5C 1093.51,118.5 1098.35,112.5 1105.5,108.5 Z"/></g>
<g><path style="opacity:1" fill="#006db0" d="M 1107.5,153.5 C 1101.12,153.249 1094.62,153.583 1088,154.5C 1088.02,152.893 1088.19,151.226 1088.5,149.5C 1091.61,138.269 1096.11,127.602 1102,117.5C 1107.33,113.5 1112.67,113.5 1118,117.5C 1118.67,119.5 1118.67,121.5 1118,123.5C 1114.39,133.502 1110.89,143.502 1107.5,153.5 Z"/></g>
<g><path style="opacity:1" fill="#0165a9" d="M 1088.5,149.5 C 1088.19,151.226 1088.02,152.893 1088,154.5C 1094.62,153.583 1101.12,153.249 1107.5,153.5C 1101.87,168.747 1095.71,183.747 1089,198.5C 1083.42,201.038 1077.92,203.705 1072.5,206.5C 1072.17,205.833 1071.83,205.167 1071.5,204.5C 1074.52,194.247 1077.35,183.914 1080,173.5C 1082.78,165.353 1085.61,157.353 1088.5,149.5 Z"/></g>
<g><path style="opacity:1" fill="#1b4e93" d="M 607.5,156.5 C 622.463,154.492 636.13,157.659 648.5,166C 650.377,168.251 651.877,170.751 653,173.5C 653.909,182.287 653.242,190.953 651,199.5C 644.061,220.318 636.728,240.985 629,261.5C 625.381,272.88 623.381,284.546 623,296.5C 621.829,297.893 620.329,298.727 618.5,299C 610.833,299.667 603.167,299.667 595.5,299C 592.37,296.872 589.537,294.372 587,291.5C 572.731,300.687 557.231,303.854 540.5,301C 529.402,296.333 524.235,287.833 525,275.5C 523.756,264.23 526.756,254.23 534,245.5C 543.436,234.54 554.936,226.707 568.5,222C 581.747,218.617 595.081,215.617 608.5,213C 617.336,208.166 620.17,200.999 617,191.5C 610.583,186.335 603.416,185.168 595.5,188C 590.38,191.547 585.714,195.547 581.5,200C 572.406,202.2 564.906,199.7 559,192.5C 558.299,189.072 558.632,185.738 560,182.5C 568.28,172.243 578.78,165.077 591.5,161C 596.906,159.295 602.239,157.795 607.5,156.5 Z"/></g>
<g><path style="opacity:1" fill="#1c4e93" d="M 686.5,107.5 C 715.524,107.097 744.524,107.597 773.5,109C 799.427,113.996 807.927,129.163 799,154.5C 796.221,163.395 791.888,171.395 786,178.5C 779.606,185.259 772.772,191.426 765.5,197C 767.653,199.822 769.819,202.656 772,205.5C 773.499,210.35 775.666,214.85 778.5,219C 781.475,219.713 783.975,218.879 786,216.5C 791.557,200.051 798.223,184.051 806,168.5C 809.251,164.578 813.084,161.412 817.5,159C 830.172,156.675 835.006,161.841 832,174.5C 828.535,192.561 822.869,209.894 815,226.5C 809.885,239.079 807.218,252.079 807,265.5C 811.647,274.552 818.814,277.052 828.5,273C 839.276,265.961 847.109,256.461 852,244.5C 858.795,224.987 865.129,205.32 871,185.5C 873.765,177.464 877.931,170.297 883.5,164C 887.4,160.044 892.067,158.377 897.5,159C 898.931,159.465 900.097,160.299 901,161.5C 902.52,165.375 902.854,169.375 902,173.5C 893.637,205.281 882.97,236.281 870,266.5C 864.751,278.403 857.251,288.569 847.5,297C 844.107,299.076 840.44,300.242 836.5,300.5C 837.161,297.512 837.828,294.512 838.5,291.5C 838.761,289.015 837.761,287.348 835.5,286.5C 825.658,291.587 815.658,296.42 805.5,301C 788.212,305.441 776.712,299.275 771,282.5C 770.007,278.558 769.34,274.558 769,270.5C 768.586,270.043 768.086,269.709 767.5,269.5C 763.187,272.909 759.187,276.743 755.5,281C 743.971,290.963 730.637,297.296 715.5,300C 693.85,301.411 672.183,301.744 650.5,301C 644.812,298.807 641.645,294.64 641,288.5C 640.333,283.5 640.333,278.5 641,273.5C 646.759,241.039 654.425,209.039 664,177.5C 671.505,154.137 679.005,130.803 686.5,107.5 Z"/></g>
<g><path style="opacity:1" fill="#1e5094" d="M 786.5,146.5 C 784.851,170.32 772.184,184.153 748.5,188C 716.87,195.544 705.87,184.044 715.5,153.5C 717.094,145.822 721.094,139.655 727.5,135C 743.869,134.112 760.202,134.445 776.5,136C 781.41,138.075 784.743,141.575 786.5,146.5 Z"/></g>
<g><path style="opacity:1" fill="#fbfcfd" d="M 728.5,140.5 C 743.17,140.333 757.837,140.5 772.5,141C 780.198,143.379 782.698,148.546 780,156.5C 774.581,171.914 763.748,180.748 747.5,183C 739.5,183.667 731.5,183.667 723.5,183C 720.943,182.315 719.109,180.815 718,178.5C 717.212,166.528 719.546,155.195 725,144.5C 726.376,143.295 727.542,141.962 728.5,140.5 Z"/></g>
<g><path style="opacity:1" fill="#006eb1" d="M 792.5,154.5 C 790.958,153.699 789.292,153.366 787.5,153.5C 787.802,150.941 787.468,148.607 786.5,146.5C 784.743,141.575 781.41,138.075 776.5,136C 760.202,134.445 743.869,134.112 727.5,135C 721.094,139.655 717.094,145.822 715.5,153.5C 702.978,153.227 690.811,153.56 679,154.5C 678.517,153.552 678.351,152.552 678.5,151.5C 682.781,138.6 686.781,125.6 690.5,112.5C 717.497,113.069 744.497,113.569 771.5,114C 795.765,118.36 802.765,131.86 792.5,154.5 Z"/></g>
<g><path style="opacity:1" fill="#0064a8" d="M 605.5,162.5 C 613.174,162.334 620.841,162.5 628.5,163C 635.074,164.371 640.907,167.204 646,171.5C 648.343,176.602 649.01,181.936 648,187.5C 646.911,195.532 644.744,203.198 641.5,210.5C 634.475,211.439 627.475,211.105 620.5,209.5C 628.552,192.943 623.386,183.276 605,180.5C 599.456,180.793 594.289,182.293 589.5,185C 586.167,188.333 582.833,191.667 579.5,195C 562.291,194.921 559.958,188.921 572.5,177C 582.626,169.931 593.626,165.098 605.5,162.5 Z"/></g>
<g><path style="opacity:1" fill="#1c4e93" d="M 1056.5,107.5 C 1070.95,106.785 1076.45,113.451 1073,127.5C 1062.53,183.579 1044.86,237.245 1020,288.5C 1016.07,293.801 1010.91,296.301 1004.5,296C 1003.67,295.167 1002.83,294.333 1002,293.5C 1001.31,288.109 1001.64,282.775 1003,277.5C 1010.77,251.032 1017.6,224.365 1023.5,197.5C 1021.8,197.34 1020.13,197.506 1018.5,198C 1016.55,200.074 1014.71,202.241 1013,204.5C 999.268,229.63 985.268,254.63 971,279.5C 966.185,286.313 960.685,292.48 954.5,298C 943.757,303.968 937.257,300.801 935,288.5C 934.333,279.833 934.333,271.167 935,262.5C 936.167,247.662 937.334,232.828 938.5,218C 938.4,201.871 934.9,201.371 928,216.5C 920.708,240.413 910.708,263.08 898,284.5C 892.824,292.686 885.657,298.186 876.5,301C 873.854,301.497 871.187,301.664 868.5,301.5C 884.107,245.518 904.94,191.518 931,139.5C 935,132.833 939,126.167 943,119.5C 947.371,114.294 952.871,110.961 959.5,109.5C 966.89,110.106 972.057,113.772 975,120.5C 976.052,124.413 976.552,128.413 976.5,132.5C 975.769,153.541 974.436,174.541 972.5,195.5C 975.131,206.476 980.298,207.476 988,198.5C 1004.33,172.167 1020.67,145.833 1037,119.5C 1042.66,113.977 1049.16,109.977 1056.5,107.5 Z"/></g>
<g><path style="opacity:1" fill="#0067aa" d="M 1062.5,151.5 C 1059.84,162.151 1057.17,172.817 1054.5,183.5C 1037.91,184.651 1021.24,184.818 1004.5,184C 1005.25,183.329 1005.59,182.496 1005.5,181.5C 1010.75,171.322 1016.75,161.655 1023.5,152.5C 1029.66,153.166 1035.99,153.5 1042.5,153.5C 1049.4,153.461 1056.07,152.794 1062.5,151.5 Z"/></g>
<g><path style="opacity:1" fill="#0066aa" d="M 931.5,151.5 C 931.461,152.756 931.961,153.756 933,154.5C 945.166,153.824 957.333,153.157 969.5,152.5C 969.082,164.874 968.415,177.208 967.5,189.5C 966.596,190.209 966.263,191.209 966.5,192.5C 949.163,192.667 931.83,192.5 914.5,192C 913.944,191.617 913.611,191.117 913.5,190.5C 918.361,176.892 924.361,163.892 931.5,151.5 Z"/></g>
<g><path style="opacity:1" fill="#006cb0" d="M 969.5,152.5 C 957.333,153.157 945.166,153.824 933,154.5C 931.961,153.756 931.461,152.756 931.5,151.5C 935.785,142.267 940.618,133.267 946,124.5C 949.595,119.71 954.261,116.71 960,115.5C 966.265,116.432 969.932,120.098 971,126.5C 971.254,135.203 970.754,143.87 969.5,152.5 Z"/></g>
<g><path style="opacity:1" fill="#006db0" d="M 1062.5,151.5 C 1056.07,152.794 1049.4,153.461 1042.5,153.5C 1035.99,153.5 1029.66,153.166 1023.5,152.5C 1028.72,143.057 1034.22,133.724 1040,124.5C 1046.91,116.087 1055.74,112.587 1066.5,114C 1068.03,115.648 1068.7,117.648 1068.5,120C 1067.05,130.618 1065.05,141.118 1062.5,151.5 Z"/></g>
<g><path style="opacity:1" fill="#1b4e93" d="M 554.5,106.5 C 567.997,104.815 572.163,110.148 567,122.5C 549,135.167 533.667,150.5 521,168.5C 513.175,181.968 509.009,196.468 508.5,212C 511.345,232.25 513.345,252.584 514.5,273C 515.432,281.033 513.932,288.533 510,295.5C 506.212,300.153 501.378,301.653 495.5,300C 488.851,296.686 484.351,291.519 482,284.5C 478.982,265.072 474.315,246.072 468,227.5C 462.912,219.151 456.746,218.318 449.5,225C 436.558,238.962 427.391,255.129 422,273.5C 417.687,286.149 409.187,294.316 396.5,298C 391.778,298.777 387.111,298.61 382.5,297.5C 394.646,248.236 411.146,200.236 432,153.5C 438.157,140.517 444.824,127.851 452,115.5C 454.606,111.711 458.106,109.378 462.5,108.5C 466.104,108.549 468.604,110.216 470,113.5C 470.667,117.167 470.667,120.833 470,124.5C 466.886,137.792 463.386,150.959 459.5,164C 459.472,167.471 461.138,169.638 464.5,170.5C 467.279,169.611 469.945,168.444 472.5,167C 496.64,142.339 523.973,122.173 554.5,106.5 Z"/></g>
<g><path style="opacity:1" fill="#0067ab" d="M 496.5,152.5 C 497.819,155.745 499.652,156.078 502,153.5C 509.29,153.568 516.79,153.568 524.5,153.5C 517.547,163.068 511.881,173.401 507.5,184.5C 479.995,184.831 452.662,184.498 425.5,183.5C 434.12,160.594 444.62,138.594 457,117.5C 459.104,115.262 461.438,114.262 464,114.5C 463.394,129.266 460.394,143.6 455,157.5C 452.446,173.286 458.612,178.453 473.5,173C 481.038,165.959 488.704,159.126 496.5,152.5 Z"/></g>
<g><path style="opacity:1" fill="#016db0" d="M 524.5,153.5 C 516.79,153.568 509.29,153.568 502,153.5C 499.652,156.078 497.819,155.745 496.5,152.5C 515.306,135.588 536.306,121.922 559.5,111.5C 560.772,111.57 561.938,111.903 563,112.5C 563.706,114.971 563.373,117.305 562,119.5C 548.681,129.989 536.181,141.322 524.5,153.5 Z"/></g>
<g><path style="opacity:1" fill="#0165a8" d="M 786.5,146.5 C 787.468,148.607 787.802,150.941 787.5,153.5C 789.292,153.366 790.958,153.699 792.5,154.5C 791.017,161.134 788.183,167.134 784,172.5C 777.156,180.525 769.322,187.192 760.5,192.5C 729.94,192.608 698.94,192.442 667.5,192C 666.944,191.617 666.611,191.117 666.5,190.5C 670.255,177.35 674.255,164.35 678.5,151.5C 678.351,152.552 678.517,153.552 679,154.5C 690.811,153.56 702.978,153.227 715.5,153.5C 705.87,184.044 716.87,195.544 748.5,188C 772.184,184.153 784.851,170.32 786.5,146.5 Z"/></g>
<g><path style="opacity:1" fill="#0160a4" d="M 891.5,164.5 C 893.167,164.5 894.833,164.5 896.5,164.5C 896.665,167.518 896.498,170.518 896,173.5C 891.384,193.573 885.384,213.24 878,232.5C 873.142,234.414 867.975,235.081 862.5,234.5C 866.731,216.916 871.897,199.582 878,182.5C 880.83,175.14 885.33,169.14 891.5,164.5 Z"/></g>
<g><path style="opacity:1" fill="#005fa4" d="M 1005.5,181.5 C 1005.59,182.496 1005.25,183.329 1004.5,184C 1021.24,184.818 1037.91,184.651 1054.5,183.5C 1050.75,194.402 1047.42,205.402 1044.5,216.5C 1037.83,218.167 1031.17,219.833 1024.5,221.5C 1024.71,216.274 1025.88,211.274 1028,206.5C 1028.67,202.833 1028.67,199.167 1028,195.5C 1024.89,191.477 1021.05,190.644 1016.5,193C 1006.97,203.21 999.306,214.71 993.5,227.5C 976.969,230.287 960.303,232.287 943.5,233.5C 943.95,225.161 944.116,216.828 944,208.5C 943.216,201.369 939.382,198.535 932.5,200C 927.877,204.738 924.377,210.238 922,216.5C 919.881,222.407 918.048,228.407 916.5,234.5C 909.833,234.5 903.167,234.5 896.5,234.5C 901.067,219.372 906.734,204.706 913.5,190.5C 913.611,191.117 913.944,191.617 914.5,192C 931.83,192.5 949.163,192.667 966.5,192.5C 966.263,191.209 966.596,190.209 967.5,189.5C 965.996,197.187 967.996,203.687 973.5,209C 980.549,210.886 986.382,209.053 991,203.5C 995.608,195.93 1000.44,188.597 1005.5,181.5 Z"/></g>
<g><path style="opacity:1" fill="#0061a5" d="M 425.5,183.5 C 452.662,184.498 479.995,184.831 507.5,184.5C 505.144,191.283 503.81,198.283 503.5,205.5C 485.617,205.944 467.95,208.11 450.5,212C 442.058,214.391 433.724,217.058 425.5,220C 420.002,222.915 414.668,226.081 409.5,229.5C 409.167,229.167 408.833,228.833 408.5,228.5C 409.667,224.833 410.833,221.167 412,217.5C 416.778,206.241 421.278,194.908 425.5,183.5 Z"/></g>
<g><path style="opacity:1" fill="#0060a4" d="M 666.5,190.5 C 666.611,191.117 666.944,191.617 667.5,192C 698.94,192.442 729.94,192.608 760.5,192.5C 759.086,194.054 757.419,195.388 755.5,196.5C 759.458,199.957 763.292,203.623 767,207.5C 768.698,212.287 770.698,216.954 773,221.5C 779.988,226.243 785.988,225.243 791,218.5C 795.195,211.722 797.861,204.388 799,196.5C 802.119,188.261 805.786,180.261 810,172.5C 813.574,166.56 818.741,163.726 825.5,164C 826.98,165.299 827.646,166.966 827.5,169C 826.462,175.19 825.295,181.357 824,187.5C 818.732,201.803 813.566,216.137 808.5,230.5C 793.84,229.167 779.174,227.834 764.5,226.5C 763.6,222.09 761.266,218.59 757.5,216C 753.038,213.77 748.372,212.103 743.5,211C 728.5,210.333 713.5,210.333 698.5,211C 697.667,212.5 696.5,213.667 695,214.5C 694.517,215.448 694.351,216.448 694.5,217.5C 683.129,216.86 671.796,215.86 660.5,214.5C 661.897,206.245 663.897,198.245 666.5,190.5 Z"/></g>
<g><path style="opacity:1" fill="#fcfdfd" d="M 700.5,216.5 C 715.504,216.333 730.504,216.5 745.5,217C 758.165,219.999 762.999,227.832 760,240.5C 754.782,253.706 745.282,262.206 731.5,266C 719.558,267.581 707.558,267.915 695.5,267C 693.274,265.773 691.774,263.939 691,261.5C 690.216,245.638 693.383,230.638 700.5,216.5 Z"/></g>
<g><path style="opacity:1" fill="#e2662c" d="M 1101.5,295.5 C 1100.66,295.158 1100.33,294.492 1100.5,293.5C 1102.36,288.284 1105.36,283.784 1109.5,280C 1116.51,275.492 1123.85,271.492 1131.5,268C 1133.33,266.167 1135.17,264.333 1137,262.5C 1137.67,261.5 1137.67,260.5 1137,259.5C 1131.33,254.5 1125.67,249.5 1120,244.5C 1115.98,235.835 1118.81,232.335 1128.5,234C 1142.27,238.788 1153.43,246.955 1162,258.5C 1162.8,260.259 1162.63,261.926 1161.5,263.5C 1142.94,276.782 1122.94,287.448 1101.5,295.5 Z"/></g>
<g><path style="opacity:1" fill="#e2652b" d="M 1173.5,233.5 C 1177.6,233.234 1181.6,233.734 1185.5,235C 1195.82,240.328 1205.32,246.828 1214,254.5C 1215.42,257.03 1215.75,259.697 1215,262.5C 1212.12,267.05 1208.28,270.55 1203.5,273C 1187.61,281.613 1171.28,289.113 1154.5,295.5C 1154.48,290.38 1156.48,286.213 1160.5,283C 1168.34,277.245 1176.67,272.245 1185.5,268C 1188.23,266.269 1190.23,263.936 1191.5,261C 1185.37,255.2 1179.54,249.034 1174,242.5C 1171.27,239.406 1171.11,236.406 1173.5,233.5 Z"/></g>
<g><path style="opacity:1" fill="#fafbfc" d="M 597.5,236.5 C 608.311,233.82 612.811,237.82 611,248.5C 605.256,261.912 595.423,270.745 581.5,275C 572.669,276.339 568.336,272.505 568.5,263.5C 568.295,260.205 569.128,257.205 571,254.5C 578.635,246.609 587.468,240.609 597.5,236.5 Z"/></g>
<g><path style="opacity:1" fill="#eb873c" d="M 1121.5,236.5 C 1136.32,239.502 1148.49,246.835 1158,258.5C 1158.67,259.5 1158.67,260.5 1158,261.5C 1156.33,262.167 1154.67,262.833 1153,263.5C 1149.42,263.366 1145.92,263.033 1142.5,262.5C 1141.57,260.887 1140.74,259.221 1140,257.5C 1134.71,252.03 1129.04,247.03 1123,242.5C 1121.87,240.655 1121.37,238.655 1121.5,236.5 Z"/></g>
<g><path style="opacity:1" fill="#eb853b" d="M 1175.5,236.5 C 1189.64,239.989 1201.81,246.989 1212,257.5C 1212.67,258.833 1212.67,260.167 1212,261.5C 1207.06,268.3 1200.56,270.3 1192.5,267.5C 1195.23,264.904 1195.9,261.904 1194.5,258.5C 1188.85,253.348 1183.35,248.015 1178,242.5C 1176.44,240.783 1175.61,238.783 1175.5,236.5 Z"/></g>
<g><path style="opacity:1" fill="#1c4e93" d="M 1051.5,260.5 C 1066.33,259.822 1071.5,266.489 1067,280.5C 1062.49,289.325 1055.33,294.825 1045.5,297C 1041.1,297.978 1036.93,297.478 1033,295.5C 1032.29,280.246 1038.46,268.58 1051.5,260.5 Z"/></g>
<g><path style="opacity:1" fill="#215094" d="M 1107.5,314.5 C 1107.81,320.576 1106.47,326.243 1103.5,331.5C 1098.56,339.099 1091.56,341.932 1082.5,340C 1081.3,339.097 1080.47,337.931 1080,336.5C 1078.81,337.563 1078.31,338.897 1078.5,340.5C 1075.1,340.82 1071.77,340.487 1068.5,339.5C 1072.83,324.844 1077.16,310.178 1081.5,295.5C 1085.17,294.167 1088.83,294.167 1092.5,295.5C 1091.17,299.839 1089.83,304.172 1088.5,308.5C 1088.83,309.167 1089.17,309.833 1089.5,310.5C 1093.52,307.95 1097.85,307.117 1102.5,308C 1104.79,309.777 1106.46,311.944 1107.5,314.5 Z"/></g>
<g><path style="opacity:1" fill="#e2a180" d="M 1100.5,293.5 C 1100.33,294.492 1100.66,295.158 1101.5,295.5C 1100.7,296.885 1100.03,296.718 1099.5,295C 1099.57,294.235 1099.9,293.735 1100.5,293.5 Z"/></g>
<g><path style="opacity:1" fill="#819bbd" d="M 1127.5,308.5 C 1129.36,307.207 1131.36,307.207 1133.5,308.5C 1133.38,309.107 1133.04,309.44 1132.5,309.5C 1131.08,308.549 1129.41,308.216 1127.5,308.5 Z"/></g>
<g><path style="opacity:1" fill="#215094" d="M 961.5,332.5 C 963.607,333.468 965.941,333.802 968.5,333.5C 968.5,334.5 968.5,335.5 968.5,336.5C 968.64,338.124 967.973,339.29 966.5,340C 961.833,340.667 957.167,340.667 952.5,340C 949.183,338.52 947.183,336.02 946.5,332.5C 946.5,330.5 946.5,328.5 946.5,326.5C 951.168,311.864 961.168,305.864 976.5,308.5C 976.414,310.677 975.747,312.677 974.5,314.5C 967.025,313.986 961.525,316.986 958,323.5C 956.664,327.562 957.831,330.562 961.5,332.5 Z"/></g>
<g><path style="opacity:1" fill="#215094" d="M 988.5,307.5 C 1004.55,307.243 1009.38,314.576 1003,329.5C 994.862,341.181 984.696,343.514 972.5,336.5C 969.171,322.141 974.505,312.474 988.5,307.5 Z"/></g>
<g><path style="opacity:1" fill="#215094" d="M 1026.5,307.5 C 1029.94,307.301 1033.27,307.801 1036.5,309C 1037.7,309.903 1038.53,311.069 1039,312.5C 1043.79,308.627 1049.29,307.46 1055.5,309C 1058.43,312.257 1059.26,316.091 1058,320.5C 1055.86,327.083 1054.03,333.75 1052.5,340.5C 1048.83,340.5 1045.17,340.5 1041.5,340.5C 1043.01,333.478 1044.67,326.478 1046.5,319.5C 1046.89,317.045 1045.89,315.712 1043.5,315.5C 1040.9,316.269 1039.06,317.936 1038,320.5C 1036.47,326.922 1034.64,333.256 1032.5,339.5C 1029.23,340.487 1025.9,340.82 1022.5,340.5C 1023.53,333.039 1025.2,325.705 1027.5,318.5C 1027.5,316.5 1026.5,315.5 1024.5,315.5C 1022.23,316.221 1020.39,317.554 1019,319.5C 1016.38,326.307 1014.55,333.307 1013.5,340.5C 1009.83,340.5 1006.17,340.5 1002.5,340.5C 1004.89,330.154 1007.39,319.821 1010,309.5C 1013.06,308.549 1016.22,308.216 1019.5,308.5C 1019.34,309.873 1019.51,311.207 1020,312.5C 1021.97,310.45 1024.13,308.783 1026.5,307.5 Z"/></g>
<g><path style="opacity:1" fill="#1f4f93" d="M 1127.5,308.5 C 1129.41,308.216 1131.08,308.549 1132.5,309.5C 1131.99,311.865 1131.32,314.199 1130.5,316.5C 1126.19,316.6 1122.69,318.266 1120,321.5C 1117.96,327.383 1116.29,333.383 1115,339.5C 1111.27,340.46 1107.44,340.793 1103.5,340.5C 1103.63,338.784 1103.96,337.117 1104.5,335.5C 1106.34,329.972 1108.01,324.305 1109.5,318.5C 1110.48,315.237 1111.15,311.903 1111.5,308.5C 1114.9,308.18 1118.23,308.513 1121.5,309.5C 1120.57,310.768 1120.41,312.101 1121,313.5C 1122.76,311.235 1124.92,309.568 1127.5,308.5 Z"/></g>
<g><path style="opacity:1" fill="#f3f5f9" d="M 987.5,315.5 C 989.527,315.338 991.527,315.505 993.5,316C 995.16,321.195 994.327,326.028 991,330.5C 988.759,333.227 986.093,333.894 983,332.5C 981.38,325.924 982.88,320.257 987.5,315.5 Z"/></g>
<g><path style="opacity:1" fill="#f4f6f9" d="M 1089.5,315.5 C 1091.47,315.261 1093.3,315.594 1095,316.5C 1096.59,322.606 1095.09,327.772 1090.5,332C 1088.5,332.667 1086.5,332.667 1084.5,332C 1082.99,325.565 1084.65,320.065 1089.5,315.5 Z"/></g>
<g><path style="opacity:1" fill="#bdcdde" d="M 1107.5,314.5 C 1108.17,315.833 1108.83,317.167 1109.5,318.5C 1108.01,324.305 1106.34,329.972 1104.5,335.5C 1104.77,333.901 1104.43,332.568 1103.5,331.5C 1106.47,326.243 1107.81,320.576 1107.5,314.5 Z"/></g>
<g><path style="opacity:1" fill="#225093" d="M 944.5,331.5 C 944.5,332.833 944.5,334.167 944.5,335.5C 941.778,340.355 937.778,341.688 932.5,339.5C 930.883,331.452 934.217,327.952 942.5,329C 943.381,329.708 944.047,330.542 944.5,331.5 Z"/></g>
<g><path style="opacity:1" fill="#235194" d="M 1061.5,328.5 C 1067.5,327.333 1070,329.666 1069,335.5C 1066.46,340.069 1062.63,341.569 1057.5,340C 1055.34,334.876 1056.67,331.042 1061.5,328.5 Z"/></g>
<g><path style="opacity:1" fill="#b0c1d6" d="M 946.5,326.5 C 946.5,328.5 946.5,330.5 946.5,332.5C 945.833,333.5 945.167,334.5 944.5,335.5C 944.5,334.167 944.5,332.833 944.5,331.5C 945.167,329.833 945.833,328.167 946.5,326.5 Z"/></g>
<g><path style="opacity:1" fill="#6987af" d="M 961.5,332.5 C 964.167,332.5 966.833,332.5 969.5,332.5C 969.768,334.099 969.434,335.432 968.5,336.5C 968.5,335.5 968.5,334.5 968.5,333.5C 965.941,333.802 963.607,333.468 961.5,332.5 Z"/></g>
</svg>
