<?xml version="1.0" encoding="UTF-8"?>
<!DOCTYPE svg PUBLIC "-//W3C//DTD SVG 1.1//EN" "http://www.w3.org/Graphics/SVG/1.1/DTD/svg11.dtd">
<svg xmlns="http://www.w3.org/2000/svg" version="1.1" width="1594px" height="443px" style="shape-rendering:geometricPrecision; text-rendering:geometricPrecision; image-rendering:optimizeQuality; fill-rule:evenodd; clip-rule:evenodd" xmlns:xlink="http://www.w3.org/1999/xlink">
<g><path style="opacity:1" fill="#1b1b1b" d="M -0.5,-0.5 C 530.833,-0.5 1062.17,-0.5 1593.5,-0.5C 1593.5,147.167 1593.5,294.833 1593.5,442.5C 1062.17,442.5 530.833,442.5 -0.5,442.5C -0.5,294.833 -0.5,147.167 -0.5,-0.5 Z"/></g>
<g><path style="opacity:1" fill="#fdfdfd" d="M 838.5,145.5 C 846.833,145.5 855.167,145.5 863.5,145.5C 863.5,153.5 863.5,161.5 863.5,169.5C 870.167,169.5 876.833,169.5 883.5,169.5C 883.5,177.5 883.5,185.5 883.5,193.5C 876.646,193.176 869.979,193.509 863.5,194.5C 862.502,217.994 862.169,241.661 862.5,265.5C 854.5,265.5 846.5,265.5 838.5,265.5C 838.5,225.5 838.5,185.5 838.5,145.5 Z"/></g>
<g><path style="opacity:1" fill="#fbfbfb" d="M 552.5,268.5 C 550.485,267.076 548.152,266.41 545.5,266.5C 543.046,265.773 540.713,264.773 538.5,263.5C 538.44,262.957 538.107,262.624 537.5,262.5C 536.501,273.814 536.168,285.147 536.5,296.5C 528.5,296.5 520.5,296.5 512.5,296.5C 512.5,267.5 512.5,238.5 512.5,209.5C 519.708,179.453 538.708,165.286 569.5,167C 602.718,176.597 616.218,198.43 610,232.5C 600.002,259.404 580.836,271.404 552.5,268.5 Z"/></g>
<g><path style="opacity:1" fill="#fafafa" d="M 665.5,166.5 C 696.064,165.69 715.231,180.023 723,209.5C 724.616,224.642 720.949,238.309 712,250.5C 696.473,267.425 677.64,272.592 655.5,266C 632.041,253.913 621.541,234.747 624,208.5C 629.387,185.947 643.221,171.947 665.5,166.5 Z"/></g>
<g><path style="opacity:1" fill="#fdfdfd" d="M 817.5,194.5 C 817.41,197.152 818.076,199.485 819.5,201.5C 819.5,202.167 819.5,202.833 819.5,203.5C 819.5,224.167 819.5,244.833 819.5,265.5C 811.5,265.5 803.5,265.5 795.5,265.5C 795.83,244.993 795.497,224.66 794.5,204.5C 790.714,193.601 783.048,189.435 771.5,192C 766.184,194.147 762.851,197.98 761.5,203.5C 760.503,223.993 760.169,244.66 760.5,265.5C 752.5,265.5 744.5,265.5 736.5,265.5C 736.254,242.484 736.588,219.484 737.5,196.5C 741.828,182.669 750.828,173.169 764.5,168C 783.595,163.558 799.428,168.725 812,183.5C 814.372,186.91 816.205,190.577 817.5,194.5 Z"/></g>
<g><path style="opacity:1" fill="#fafafa" d="M 890.5,208.5 C 891.924,206.485 892.59,204.152 892.5,201.5C 898.68,182.902 911.346,171.402 930.5,167C 961.832,164.33 981.665,178.163 990,208.5C 992.626,240.111 978.792,260.278 948.5,269C 917.26,271.104 897.76,256.938 890,226.5C 889.181,220.319 889.347,214.319 890.5,208.5 Z"/></g>
<g><path style="opacity:1" fill="#f8f8f8" d="M 1021.5,170.5 C 1031.23,168.115 1038.06,171.449 1042,180.5C 1042.96,194.543 1036.46,200.71 1022.5,199C 1014.04,194.576 1011.21,187.742 1014,178.5C 1016.03,175.308 1018.53,172.641 1021.5,170.5 Z"/></g>
<g><path style="opacity:1" fill="#1c1c1c" d="M 536.5,221.5 C 536.467,217.131 536.8,212.798 537.5,208.5C 545.623,191.789 558.29,187.289 575.5,195C 589.534,205.843 592.034,219.01 583,234.5C 572.187,245.51 560.021,247.343 546.5,240C 540.661,235.152 537.327,228.986 536.5,221.5 Z"/></g>
<g><path style="opacity:1" fill="#1d1d1d" d="M 666.5,191.5 C 688.833,190.667 699.666,201.334 699,223.5C 692.18,242.109 679.347,248.276 660.5,242C 647.237,232.214 643.737,219.714 650,204.5C 653.969,198.01 659.469,193.676 666.5,191.5 Z"/></g>
<g><path style="opacity:1" fill="#1c1c1c" d="M 933.5,191.5 C 949.678,189.665 960.511,196.332 966,211.5C 968.319,227.705 961.819,238.538 946.5,244C 923.039,245.203 912.539,234.036 915,210.5C 918.017,200.984 924.184,194.651 933.5,191.5 Z"/></g>
<g><path style="opacity:1" fill="#8b8b8b" d="M 883.5,169.5 C 884.493,177.65 884.826,185.983 884.5,194.5C 877.5,194.5 870.5,194.5 863.5,194.5C 869.979,193.509 876.646,193.176 883.5,193.5C 883.5,185.5 883.5,177.5 883.5,169.5 Z"/></g>
<g><path style="opacity:1" fill="#aaaaaa" d="M 838.5,145.5 C 838.5,185.5 838.5,225.5 838.5,265.5C 846.5,265.5 854.5,265.5 862.5,265.5C 862.169,241.661 862.502,217.994 863.5,194.5C 863.5,218.5 863.5,242.5 863.5,266.5C 854.833,266.5 846.167,266.5 837.5,266.5C 837.168,225.997 837.501,185.663 838.5,145.5 Z"/></g>
<g><path style="opacity:1" fill="#a2a2a2" d="M 817.5,194.5 C 818.924,196.515 819.59,198.848 819.5,201.5C 818.076,199.485 817.41,197.152 817.5,194.5 Z"/></g>
<g><path style="opacity:1" fill="#f98b02" d="M 1052.5,201.5 C 1061.81,206.487 1070.81,211.987 1079.5,218C 1070.81,224.013 1061.81,229.513 1052.5,234.5C 1051.17,223.5 1051.17,212.5 1052.5,201.5 Z"/></g>
<g><path style="opacity:1" fill="#b7b7b7" d="M 819.5,203.5 C 820.497,224.327 820.831,245.327 820.5,266.5C 811.833,266.5 803.167,266.5 794.5,266.5C 794.5,245.833 794.5,225.167 794.5,204.5C 795.497,224.66 795.83,244.993 795.5,265.5C 803.5,265.5 811.5,265.5 819.5,265.5C 819.5,244.833 819.5,224.167 819.5,203.5 Z"/></g>
<g><path style="opacity:1" fill="#a3a3a3" d="M 892.5,201.5 C 892.59,204.152 891.924,206.485 890.5,208.5C 890.41,205.848 891.076,203.515 892.5,201.5 Z"/></g>
<g><path style="opacity:1" fill="#b0b0b0" d="M 737.5,196.5 C 736.588,219.484 736.254,242.484 736.5,265.5C 744.5,265.5 752.5,265.5 760.5,265.5C 760.169,244.66 760.503,223.993 761.5,203.5C 761.5,224.5 761.5,245.5 761.5,266.5C 752.833,266.5 744.167,266.5 735.5,266.5C 735.333,244.831 735.5,223.164 736,201.5C 736.198,199.618 736.698,197.952 737.5,196.5 Z"/></g>
<g><path style="opacity:1" fill="#bf6d08" d="M 1052.5,201.5 C 1051.17,212.5 1051.17,223.5 1052.5,234.5C 1052.44,235.043 1052.11,235.376 1051.5,235.5C 1050.17,223.833 1050.17,212.167 1051.5,200.5C 1052.11,200.624 1052.44,200.957 1052.5,201.5 Z"/></g>
<g><path style="opacity:1" fill="#7c7c7c" d="M 537.5,208.5 C 536.8,212.798 536.467,217.131 536.5,221.5C 535.84,220.036 535.507,218.369 535.5,216.5C 535.382,213.514 536.048,210.848 537.5,208.5 Z"/></g>
<g><path style="opacity:1" fill="#989898" d="M 512.5,209.5 C 512.5,238.5 512.5,267.5 512.5,296.5C 520.5,296.5 528.5,296.5 536.5,296.5C 536.168,285.147 536.501,273.814 537.5,262.5C 538.107,262.624 538.44,262.957 538.5,263.5C 537.505,274.654 537.172,285.988 537.5,297.5C 528.833,297.5 520.167,297.5 511.5,297.5C 511.169,267.995 511.502,238.662 512.5,209.5 Z"/></g>
<g><path style="opacity:1" fill="#f9f9f9" d="M 1023.5,236.5 C 1039.76,236.578 1045.26,244.245 1040,259.5C 1032.05,268.818 1024.05,268.818 1016,259.5C 1010.74,249.122 1013.24,241.456 1023.5,236.5 Z"/></g>
<g><path style="opacity:1" fill="#a0a0a0" d="M 545.5,266.5 C 548.152,266.41 550.485,267.076 552.5,268.5C 549.848,268.59 547.515,267.924 545.5,266.5 Z"/></g>
</svg>
