<?xml version="1.0" encoding="UTF-8"?>
<!DOCTYPE svg PUBLIC "-//W3C//DTD SVG 1.1//EN" "http://www.w3.org/Graphics/SVG/1.1/DTD/svg11.dtd">
<svg xmlns="http://www.w3.org/2000/svg" version="1.1" width="1594px" height="443px" style="shape-rendering:geometricPrecision; text-rendering:geometricPrecision; image-rendering:optimizeQuality; fill-rule:evenodd; clip-rule:evenodd" xmlns:xlink="http://www.w3.org/1999/xlink">
<g><path style="opacity:1" fill="#fefefe" d="M -0.5,-0.5 C 530.833,-0.5 1062.17,-0.5 1593.5,-0.5C 1593.5,147.167 1593.5,294.833 1593.5,442.5C 1062.17,442.5 530.833,442.5 -0.5,442.5C -0.5,294.833 -0.5,147.167 -0.5,-0.5 Z"/></g>
<g><path style="opacity:1" fill="#f79821" d="M 349.5,43.5 C 351.144,43.2865 352.644,43.6198 354,44.5C 357.041,69.0413 370.875,82.7079 395.5,85.5C 395.5,86.5 395.5,87.5 395.5,88.5C 375.242,89.9166 361.742,100.25 355,119.5C 353.957,122.757 353.457,126.09 353.5,129.5C 352.167,129.5 350.833,129.5 349.5,129.5C 346.366,104.699 332.366,91.0325 307.5,88.5C 307.5,87.5 307.5,86.5 307.5,85.5C 332.495,82.505 346.495,68.505 349.5,43.5 Z"/></g>
<g><path style="opacity:1" fill="#f7971f" d="M 243.5,308.5 C 233.932,309.817 224.265,309.817 214.5,308.5C 208.41,290.313 201.743,272.313 194.5,254.5C 156.167,253.167 117.833,253.167 79.5,254.5C 72.2568,272.313 65.5902,290.313 59.5,308.5C 49.2487,309.475 38.9154,309.808 28.5,309.5C 58.8399,230.823 89.1733,152.156 119.5,73.5C 130.853,73.1678 142.186,73.5012 153.5,74.5C 183.703,152.445 213.703,230.445 243.5,308.5 Z"/></g>
<g><path style="opacity:1" fill="#f6971c" d="M 292.5,73.5 C 292.5,152.167 292.5,230.833 292.5,309.5C 282.833,309.5 273.167,309.5 263.5,309.5C 263.5,230.833 263.5,152.167 263.5,73.5C 273.167,73.5 282.833,73.5 292.5,73.5 Z"/></g>
<g><path style="opacity:1" fill="#e43225" d="M 440.5,175.5 C 473.329,176.498 506.329,176.832 539.5,176.5C 539.5,185.833 539.5,195.167 539.5,204.5C 506.329,204.168 473.329,204.502 440.5,205.5C 440.5,230.167 440.5,254.833 440.5,279.5C 479.833,279.5 519.167,279.5 558.5,279.5C 558.5,289.167 558.5,298.833 558.5,308.5C 509.5,308.5 460.5,308.5 411.5,308.5C 411.5,230.167 411.5,151.833 411.5,73.5C 458.167,73.5 504.833,73.5 551.5,73.5C 551.5,83.1667 551.5,92.8333 551.5,102.5C 514.5,102.5 477.5,102.5 440.5,102.5C 440.5,126.833 440.5,151.167 440.5,175.5 Z"/></g>
<g><path style="opacity:1" fill="#fffefd" d="M 134.5,108.5 C 135.75,108.577 136.583,109.244 137,110.5C 152.13,148.42 166.964,186.42 181.5,224.5C 151.826,224.833 122.159,224.5 92.5,223.5C 106.904,185.285 120.904,146.951 134.5,108.5 Z"/></g>
<g><path style="opacity:1" fill="#e33224" d="M 1532.5,120.5 C 1531.51,126.31 1531.18,132.31 1531.5,138.5C 1530.5,138.5 1529.5,138.5 1528.5,138.5C 1528.5,132.5 1528.5,126.5 1528.5,120.5C 1526.17,120.5 1523.83,120.5 1521.5,120.5C 1521.5,119.5 1521.5,118.5 1521.5,117.5C 1527.17,117.5 1532.83,117.5 1538.5,117.5C 1538.5,118.5 1538.5,119.5 1538.5,120.5C 1536.5,120.5 1534.5,120.5 1532.5,120.5 Z"/></g>
<g><path style="opacity:1" fill="#e5392b" d="M 1564.5,117.5 C 1564.5,124.5 1564.5,131.5 1564.5,138.5C 1563.17,138.5 1561.83,138.5 1560.5,138.5C 1560.67,133.156 1560.5,127.823 1560,122.5C 1559.28,123.044 1558.78,123.711 1558.5,124.5C 1557.06,129.495 1555.06,134.162 1552.5,138.5C 1550.05,133.321 1547.88,127.988 1546,122.5C 1545.5,127.823 1545.33,133.156 1545.5,138.5C 1544.5,138.5 1543.5,138.5 1542.5,138.5C 1542.5,131.5 1542.5,124.5 1542.5,117.5C 1544.5,117.5 1546.5,117.5 1548.5,117.5C 1549.57,122.042 1551.24,126.376 1553.5,130.5C 1555.16,126.51 1556.83,122.51 1558.5,118.5C 1560.4,117.534 1562.4,117.201 1564.5,117.5 Z"/></g>
<g><path style="opacity:1" fill="#f7c5c1" d="M 1564.5,117.5 C 1565.49,124.648 1565.82,131.981 1565.5,139.5C 1563.26,139.795 1561.26,139.461 1559.5,138.5C 1559.83,138.5 1560.17,138.5 1560.5,138.5C 1561.83,138.5 1563.17,138.5 1564.5,138.5C 1564.5,131.5 1564.5,124.5 1564.5,117.5 Z"/></g>
<g><path style="opacity:1" fill="#ec6d63" d="M 1532.5,120.5 C 1532.5,126.833 1532.5,133.167 1532.5,139.5C 1530.9,139.768 1529.57,139.434 1528.5,138.5C 1529.5,138.5 1530.5,138.5 1531.5,138.5C 1531.18,132.31 1531.51,126.31 1532.5,120.5 Z"/></g>
<g><path style="opacity:1" fill="#eb685d" d="M 1560.5,138.5 C 1560.17,138.5 1559.83,138.5 1559.5,138.5C 1559.82,133.637 1559.49,128.97 1558.5,124.5C 1558.78,123.711 1559.28,123.044 1560,122.5C 1560.5,127.823 1560.67,133.156 1560.5,138.5 Z"/></g>
<g><path style="opacity:1" fill="#e43426" d="M 1294.5,134.5 C 1325.17,130.314 1350.5,139.814 1370.5,163C 1363.64,168.691 1356.64,174.191 1349.5,179.5C 1333.93,162.776 1314.93,157.276 1292.5,163C 1280.3,166.844 1275.13,175.01 1277,187.5C 1280.29,194.121 1285.46,198.621 1292.5,201C 1309.91,205.687 1327.24,210.687 1344.5,216C 1367.77,226.695 1377.94,244.862 1375,270.5C 1370.2,293.964 1356.04,308.131 1332.5,313C 1308.13,318.881 1285.13,315.548 1263.5,303C 1255.71,297.707 1248.38,291.873 1241.5,285.5C 1248.31,279.263 1255.31,273.263 1262.5,267.5C 1268.39,273.56 1274.72,279.06 1281.5,284C 1296.87,290.539 1312.54,291.205 1328.5,286C 1343.62,278.623 1348.12,267.123 1342,251.5C 1336.77,245.138 1330.27,240.638 1322.5,238C 1310.5,234.667 1298.5,231.333 1286.5,228C 1249.28,215.736 1238.78,191.902 1255,156.5C 1265.55,144.312 1278.72,136.979 1294.5,134.5 Z"/></g>
<g><path style="opacity:1" fill="#e43426" d="M 1443.5,134.5 C 1474.17,130.314 1499.5,139.814 1519.5,163C 1512.64,168.691 1505.64,174.191 1498.5,179.5C 1482.93,162.776 1463.93,157.276 1441.5,163C 1429.3,166.844 1424.13,175.01 1426,187.5C 1429.29,194.121 1434.46,198.621 1441.5,201C 1453.63,205.115 1465.96,208.448 1478.5,211C 1513,218.529 1527.83,239.696 1523,274.5C 1517.24,295.922 1503.41,308.756 1481.5,313C 1457.13,318.881 1434.13,315.548 1412.5,303C 1404.71,297.707 1397.38,291.873 1390.5,285.5C 1397.31,279.263 1404.31,273.263 1411.5,267.5C 1417.39,273.56 1423.72,279.06 1430.5,284C 1445.85,290.604 1461.52,291.271 1477.5,286C 1492.62,278.623 1497.12,267.123 1491,251.5C 1485.77,245.138 1479.27,240.638 1471.5,238C 1459.5,234.667 1447.5,231.333 1435.5,228C 1398.26,215.695 1387.76,191.862 1404,156.5C 1414.55,144.312 1427.72,136.979 1443.5,134.5 Z"/></g>
<g><path style="opacity:1" fill="#e43326" d="M 833.5,134.5 C 860.804,132.347 885.471,139.181 907.5,155C 931.204,176.594 941.37,203.428 938,235.5C 932.294,274.117 911.127,299.95 874.5,313C 846.927,319.884 821.593,315.217 798.5,299C 793.525,295.03 789.691,290.197 787,284.5C 786.5,323.165 786.333,361.832 786.5,400.5C 776.833,400.5 767.167,400.5 757.5,400.5C 757.333,338.166 757.5,275.832 758,213.5C 766.113,170.56 791.28,144.226 833.5,134.5 Z"/></g>
<g><path style="opacity:1" fill="#e43426" d="M 1050.5,135.5 C 1050.5,145.5 1050.5,155.5 1050.5,165.5C 1046.96,165.187 1043.62,165.521 1040.5,166.5C 1024.37,168.65 1011.53,176.317 1002,189.5C 998.748,194.334 995.748,199.334 993,204.5C 992.5,239.832 992.333,275.165 992.5,310.5C 982.833,310.5 973.167,310.5 963.5,310.5C 963.5,253.5 963.5,196.5 963.5,139.5C 972.833,139.5 982.167,139.5 991.5,139.5C 991.171,145.206 991.505,150.872 992.5,156.5C 993.107,156.376 993.44,156.043 993.5,155.5C 1009.61,141.043 1028.61,134.377 1050.5,135.5 Z"/></g>
<g><path style="opacity:1" fill="#ea5e53" d="M 1050.5,135.5 C 1051.49,145.653 1051.83,155.986 1051.5,166.5C 1047.83,166.5 1044.17,166.5 1040.5,166.5C 1043.62,165.521 1046.96,165.187 1050.5,165.5C 1050.5,155.5 1050.5,145.5 1050.5,135.5 Z"/></g>
<g><path style="opacity:1" fill="#e43326" d="M 1134.5,134.5 C 1157.46,132.989 1178.46,138.489 1197.5,151C 1213.29,165.323 1222.46,183.157 1225,204.5C 1225.83,216.488 1226.33,228.488 1226.5,240.5C 1181.5,240.5 1136.5,240.5 1091.5,240.5C 1093.4,263.12 1105.07,278.286 1126.5,286C 1152.82,293.478 1175.99,287.978 1196,269.5C 1202.28,275.616 1208.45,281.949 1214.5,288.5C 1185.73,315.503 1152.39,323.003 1114.5,311C 1083.16,297.312 1064.99,273.479 1060,239.5C 1055.03,203.715 1066.2,174.215 1093.5,151C 1105.9,142.127 1119.56,136.627 1134.5,134.5 Z"/></g>
<g><path style="opacity:1" fill="#f19891" d="M 963.5,139.5 C 972.986,138.506 982.652,138.173 992.5,138.5C 992.178,144.358 992.511,150.025 993.5,155.5C 993.44,156.043 993.107,156.376 992.5,156.5C 991.505,150.872 991.171,145.206 991.5,139.5C 982.167,139.5 972.833,139.5 963.5,139.5 Z"/></g>
<g><path style="opacity:1" fill="#e43326" d="M 573.5,140.5 C 585.993,139.34 598.66,139.173 611.5,140C 626.878,161.255 642.378,182.422 658,203.5C 673.833,182.333 689.667,161.167 705.5,140C 717.833,139.333 730.167,139.333 742.5,140C 720.918,168.506 699.584,197.172 678.5,226C 698.819,253.656 719.152,281.323 739.5,309C 728.167,309.667 716.833,309.667 705.5,309C 689.788,288.41 673.954,267.91 658,247.5C 642.167,268 626.333,288.5 610.5,309C 599.167,309.667 587.833,309.667 576.5,309C 598.358,281.31 620.024,253.476 641.5,225.5C 618.779,197.123 596.113,168.79 573.5,140.5 Z"/></g>
<g><path style="opacity:1" fill="#f79820" d="M 337.5,142.5 C 347.5,142.5 357.5,142.5 367.5,142.5C 367.5,198.167 367.5,253.833 367.5,309.5C 357.5,309.5 347.5,309.5 337.5,309.5C 337.5,253.833 337.5,198.167 337.5,142.5 Z"/></g>
<g><path style="opacity:1" fill="#fefdfd" d="M 1195.5,208.5 C 1195.5,210.167 1195.5,211.833 1195.5,213.5C 1160.83,213.5 1126.17,213.5 1091.5,213.5C 1091.5,211.833 1091.5,210.167 1091.5,208.5C 1094.81,189.056 1105.48,175.223 1123.5,167C 1150.05,159.036 1171.88,165.869 1189,187.5C 1192.69,194.055 1194.85,201.055 1195.5,208.5 Z"/></g>
<g><path style="opacity:1" fill="#fefdfd" d="M 832.5,165.5 C 848.027,164.361 863.027,166.528 877.5,172C 898.834,183.054 908.834,200.721 907.5,225C 906.92,265.08 886.587,285.913 846.5,287.5C 810.049,284.217 790.715,264.383 788.5,228C 787.884,195.972 802.55,175.138 832.5,165.5 Z"/></g>
<g><path style="opacity:1" fill="#eb675d" d="M 440.5,175.5 C 473.833,175.5 507.167,175.5 540.5,175.5C 540.5,185.5 540.5,195.5 540.5,205.5C 507.167,205.5 473.833,205.5 440.5,205.5C 473.329,204.502 506.329,204.168 539.5,204.5C 539.5,195.167 539.5,185.833 539.5,176.5C 506.329,176.832 473.329,176.498 440.5,175.5 Z"/></g>
<g><path style="opacity:1" fill="#eb675d" d="M 1091.5,208.5 C 1091.5,210.167 1091.5,211.833 1091.5,213.5C 1126.17,213.5 1160.83,213.5 1195.5,213.5C 1195.5,211.833 1195.5,210.167 1195.5,208.5C 1196.46,210.265 1196.79,212.265 1196.5,214.5C 1161.17,214.5 1125.83,214.5 1090.5,214.5C 1090.21,212.265 1090.54,210.265 1091.5,208.5 Z"/></g>
<g><path style="opacity:1" fill="#f0928b" d="M 558.5,279.5 C 559.494,289.319 559.827,299.319 559.5,309.5C 509.997,309.832 460.664,309.499 411.5,308.5C 460.5,308.5 509.5,308.5 558.5,308.5C 558.5,298.833 558.5,289.167 558.5,279.5 Z"/></g>
<g><path style="opacity:1" fill="#fde5c7" d="M 59.5,308.5 C 54.7124,309.828 49.5457,310.495 44,310.5C 38.6555,310.499 33.4889,310.166 28.5,309.5C 38.9154,309.808 49.2487,309.475 59.5,308.5 Z"/></g>
<g><path style="opacity:1" fill="#fde5c6" d="M 214.5,308.5 C 224.265,309.817 233.932,309.817 243.5,308.5C 244.043,308.56 244.376,308.893 244.5,309.5C 239.5,309.833 234.5,310.167 229.5,310.5C 224.119,310.494 219.119,309.828 214.5,308.5 Z"/></g>
<g><path style="opacity:1" fill="#fdd7a8" d="M 292.5,73.5 C 293.499,152.332 293.833,231.332 293.5,310.5C 283.319,310.827 273.319,310.494 263.5,309.5C 273.167,309.5 282.833,309.5 292.5,309.5C 292.5,230.833 292.5,152.167 292.5,73.5 Z"/></g>
</svg>
