<?xml version="1.0" encoding="UTF-8"?>
<!DOCTYPE svg PUBLIC "-//W3C//DTD SVG 1.1//EN" "http://www.w3.org/Graphics/SVG/1.1/DTD/svg11.dtd">
<svg xmlns="http://www.w3.org/2000/svg" version="1.1" width="1594px" height="443px" style="shape-rendering:geometricPrecision; text-rendering:geometricPrecision; image-rendering:optimizeQuality; fill-rule:evenodd; clip-rule:evenodd" xmlns:xlink="http://www.w3.org/1999/xlink">
<g><path style="opacity:1" fill="#000000" d="M -0.5,-0.5 C 530.833,-0.5 1062.17,-0.5 1593.5,-0.5C 1593.5,147.167 1593.5,294.833 1593.5,442.5C 1062.17,442.5 530.833,442.5 -0.5,442.5C -0.5,294.833 -0.5,147.167 -0.5,-0.5 Z"/></g>
<g><path style="opacity:1" fill="#fafafa" d="M 543.5,138.5 C 557.987,136.678 570.487,140.678 581,150.5C 583.194,153.554 584.861,156.888 586,160.5C 587.264,181.797 587.931,203.13 588,224.5C 589.589,230.274 591.755,235.774 594.5,241C 590.807,247.334 586.141,253.001 580.5,258C 578.833,258.667 577.167,258.667 575.5,258C 571.946,253.953 568.613,249.787 565.5,245.5C 562.349,248.15 559.349,250.984 556.5,254C 547.112,259.494 537.112,260.828 526.5,258C 519.119,254.285 514.285,248.451 512,240.5C 510.546,232.214 510.213,223.881 511,215.5C 514.331,202.17 522.498,193.336 535.5,189C 544.016,186.536 552.683,185.036 561.5,184.5C 563.127,178.274 562.627,172.274 560,166.5C 555.011,161.423 549.178,160.256 542.5,163C 538.541,166.917 535.874,171.583 534.5,177C 527.419,177.761 520.586,176.927 514,174.5C 513.606,162.121 518.439,152.287 528.5,145C 533.367,142.226 538.367,140.059 543.5,138.5 Z"/></g>
<g><path style="opacity:1" fill="#fafafa" d="M 774.5,138.5 C 786.194,137.272 797.194,139.439 807.5,145C 814.061,150.288 817.895,157.122 819,165.5C 819.333,184.833 819.667,204.167 820,223.5C 821.548,229.76 824.048,235.593 827.5,241C 822.965,248.202 817.132,254.035 810,258.5C 807.849,258.357 806.182,257.357 805,255.5C 802.732,251.949 800.232,248.616 797.5,245.5C 793.27,249.9 788.603,253.734 783.5,257C 773.095,260.917 763.095,260.25 753.5,255C 747.23,249.628 743.73,242.795 743,234.5C 739.531,208.254 750.697,192.421 776.5,187C 782.484,185.969 788.484,185.135 794.5,184.5C 795.243,177.829 794.243,171.496 791.5,165.5C 785.847,160.835 779.847,160.335 773.5,164C 770.115,167.77 767.782,172.103 766.5,177C 760.482,177.332 754.482,176.999 748.5,176C 747.584,175.626 746.75,175.126 746,174.5C 745.617,162.1 750.45,152.266 760.5,145C 765.147,142.506 769.814,140.339 774.5,138.5 Z"/></g>
<g><path style="opacity:1" fill="#f9f9f9" d="M 630.5,144.5 C 630.334,148.846 630.501,153.179 631,157.5C 631.717,156.956 632.217,156.289 632.5,155.5C 639.572,140.057 650.905,135.891 666.5,143C 671.017,147.205 674.683,152.038 677.5,157.5C 687.657,138.052 701.657,134.552 719.5,147C 722.541,150.709 724.708,154.876 726,159.5C 726.833,192.172 726.667,224.838 725.5,257.5C 718.55,258.63 711.55,258.797 704.5,258C 704,257.5 703.5,257 703,256.5C 702.667,229.5 702.333,202.5 702,175.5C 701.029,169.861 697.696,167.195 692,167.5C 685.225,167.985 681.225,171.652 680,178.5C 679.667,204.5 679.333,230.5 679,256.5C 678.5,257 678,257.5 677.5,258C 670.833,258.667 664.167,258.667 657.5,258C 657,257.5 656.5,257 656,256.5C 655.667,231.167 655.333,205.833 655,180.5C 653.565,167.049 647.231,163.716 636,170.5C 634.438,172.957 633.438,175.624 633,178.5C 632.667,204.167 632.333,229.833 632,255.5C 631.5,256.667 630.667,257.5 629.5,258C 622.833,258.667 616.167,258.667 609.5,258C 608.874,257.25 608.374,256.416 608,255.5C 607.333,218.5 607.333,181.5 608,144.5C 608.374,143.584 608.874,142.75 609.5,142C 615.833,141.333 622.167,141.333 628.5,142C 629.381,142.708 630.047,143.542 630.5,144.5 Z"/></g>
<g><path style="opacity:1" fill="#fafafa" d="M 949.5,139.5 C 967.953,138.303 981.12,145.97 989,162.5C 998.928,187.132 998.928,211.798 989,236.5C 980.17,255.832 965.337,263.332 944.5,259C 934.164,253.537 926.664,245.371 922,234.5C 916.794,217.555 915.128,200.222 917,182.5C 919.178,169.313 924.678,157.813 933.5,148C 938.493,144.339 943.827,141.506 949.5,139.5 Z"/></g>
<g><path style="opacity:1" fill="#f9f9f9" d="M 1032.5,145.5 C 1032.33,150.511 1032.5,155.511 1033,160.5C 1033.51,159.473 1034.01,158.473 1034.5,157.5C 1042.97,138.401 1055.97,134.567 1073.5,146C 1076.9,149.968 1079.4,154.468 1081,159.5C 1082.6,191.809 1082.93,224.142 1082,256.5C 1081.5,257 1081,257.5 1080.5,258C 1077,258.167 1073.5,258.333 1070,258.5C 1066.07,258.456 1062.4,257.789 1059,256.5C 1058.67,231.167 1058.33,205.833 1058,180.5C 1057.06,167.825 1051.06,164.158 1040,169.5C 1037.52,172.789 1035.86,176.456 1035,180.5C 1034.67,205.5 1034.33,230.5 1034,255.5C 1033.63,256.416 1033.13,257.25 1032.5,258C 1025.5,258.667 1018.5,258.667 1011.5,258C 1010.87,257.25 1010.37,256.416 1010,255.5C 1009.33,218.167 1009.33,180.833 1010,143.5C 1010.5,143 1011,142.5 1011.5,142C 1017.83,141.333 1024.17,141.333 1030.5,142C 1031.82,142.816 1032.49,143.983 1032.5,145.5 Z"/></g>
<g><path style="opacity:1" fill="#fafafa" d="M 873.5,166.5 C 874.043,166.44 874.376,166.107 874.5,165.5C 863.854,164.501 853.187,164.168 842.5,164.5C 841.778,164.082 841.278,163.416 841,162.5C 840.333,156.167 840.333,149.833 841,143.5C 841.5,143 842,142.5 842.5,142C 863.406,141.174 884.24,141.34 905,142.5C 905.667,149.167 905.667,155.833 905,162.5C 893.833,181.5 882.667,200.5 871.5,219.5C 881.609,219.703 891.276,221.87 900.5,226C 906.959,229.562 909.292,235.062 907.5,242.5C 907.333,246.167 907.167,249.833 907,253.5C 906.311,254.357 905.478,255.023 904.5,255.5C 883.098,243.627 861.764,243.627 840.5,255.5C 839.522,255.023 838.689,254.357 838,253.5C 837.087,244.424 837.42,235.424 839,226.5C 850.328,206.354 861.828,186.354 873.5,166.5 Z"/></g>
<g><path style="opacity:1" fill="#5d5d5d" d="M 630.5,144.5 C 631.167,148.167 631.833,151.833 632.5,155.5C 632.217,156.289 631.717,156.956 631,157.5C 630.501,153.179 630.334,148.846 630.5,144.5 Z"/></g>
<g><path style="opacity:1" fill="#3c3c3c" d="M 1032.5,145.5 C 1033.17,149.5 1033.83,153.5 1034.5,157.5C 1034.01,158.473 1033.51,159.473 1033,160.5C 1032.5,155.511 1032.33,150.511 1032.5,145.5 Z"/></g>
<g><path style="opacity:1" fill="#050505" d="M 951.5,162.5 C 957.386,161.343 962.219,163.01 966,167.5C 968.08,172.97 969.413,178.637 970,184.5C 971.115,198.274 970.448,211.941 968,225.5C 965.938,234.595 960.438,238.429 951.5,237C 947.003,232.838 944.503,227.672 944,221.5C 942.085,205.822 942.085,190.155 944,174.5C 945.262,169.626 947.762,165.626 951.5,162.5 Z"/></g>
<g><path style="opacity:1" fill="#8f8f8f" d="M 842.5,164.5 C 853.187,164.168 863.854,164.501 874.5,165.5C 874.376,166.107 874.043,166.44 873.5,166.5C 863.167,165.833 852.833,165.167 842.5,164.5 Z"/></g>
<g><path style="opacity:1" fill="#626262" d="M 561.5,202.5 C 557.466,202.505 553.466,202.838 549.5,203.5C 551.679,202.074 554.179,201.408 557,201.5C 558.707,201.508 560.207,201.842 561.5,202.5 Z"/></g>
<g><path style="opacity:1" fill="#070707" d="M 561.5,202.5 C 563.168,211.25 562.335,219.916 559,228.5C 555.601,236.617 549.768,239.451 541.5,237C 539.951,235.786 538.785,234.286 538,232.5C 532.718,218.879 536.552,209.213 549.5,203.5C 553.466,202.838 557.466,202.505 561.5,202.5 Z"/></g>
<g><path style="opacity:1" fill="#080808" d="M 786.5,201.5 C 789.167,201.5 791.833,201.5 794.5,201.5C 795.066,210 794.233,218.333 792,226.5C 788.853,236.151 782.686,239.484 773.5,236.5C 768.743,230.672 767.243,224.006 769,216.5C 771.97,208.106 777.803,203.106 786.5,201.5 Z"/></g>
<g><path style="opacity:1" fill="#f39505" d="M 871.5,267.5 C 879.507,267.334 887.507,267.5 895.5,268C 900.825,268.662 905.658,270.495 910,273.5C 911.09,299.561 903.756,322.894 888,343.5C 885.161,346.409 882.994,346.075 881.5,342.5C 886.267,328.765 890.101,314.765 893,300.5C 893.867,296.044 893.534,291.711 892,287.5C 890.184,286.671 888.351,285.837 886.5,285C 873.426,284.008 860.426,284.508 847.5,286.5C 845.377,286.78 844.044,285.947 843.5,284C 846.205,279.629 849.872,276.295 854.5,274C 860.054,271.21 865.721,269.043 871.5,267.5 Z"/></g>
<g><path style="opacity:1" fill="#f69703" d="M 591.5,270.5 C 602.232,276.372 612.898,282.539 623.5,289C 686.642,321.719 752.308,327.719 820.5,307C 833.937,302.635 846.937,297.301 859.5,291C 868.406,291.575 869.739,295.241 863.5,302C 812.83,340.831 756.164,353.497 693.5,340C 653.184,328.6 619.017,307.433 591,276.5C 590.322,274.402 590.489,272.402 591.5,270.5 Z"/></g>
</svg>
