<?xml version="1.0" encoding="UTF-8"?>
<!DOCTYPE svg PUBLIC "-//W3C//DTD SVG 1.1//EN" "http://www.w3.org/Graphics/SVG/1.1/DTD/svg11.dtd">
<svg xmlns="http://www.w3.org/2000/svg" version="1.1" width="1594px" height="443px" style="shape-rendering:geometricPrecision; text-rendering:geometricPrecision; image-rendering:optimizeQuality; fill-rule:evenodd; clip-rule:evenodd" xmlns:xlink="http://www.w3.org/1999/xlink">
<g><path style="opacity:1" fill="#0183c9" d="M -0.5,-0.5 C 530.833,-0.5 1062.17,-0.5 1593.5,-0.5C 1593.5,147.167 1593.5,294.833 1593.5,442.5C 1062.17,442.5 530.833,442.5 -0.5,442.5C -0.5,294.833 -0.5,147.167 -0.5,-0.5 Z"/></g>
<g><path style="opacity:1" fill="#9bcbe3" d="M 789.5,192.5 C 789.817,188.298 789.483,184.298 788.5,180.5C 783.5,180.5 778.5,180.5 773.5,180.5C 772.517,184.298 772.183,188.298 772.5,192.5C 771.515,188.366 771.182,184.032 771.5,179.5C 777.833,179.5 784.167,179.5 790.5,179.5C 790.818,184.032 790.485,188.366 789.5,192.5 Z"/></g>
<g><path style="opacity:1" fill="#95c4de" d="M 996.5,180.5 C 1001.98,179.511 1007.64,179.178 1013.5,179.5C 1014.83,183.833 1014.83,188.167 1013.5,192.5C 1013.5,192.167 1013.5,191.833 1013.5,191.5C 1013.5,187.833 1013.5,184.167 1013.5,180.5C 1007.83,180.5 1002.17,180.5 996.5,180.5 Z"/></g>
<g><path style="opacity:1" fill="#4fa4d0" d="M 929.5,179.5 C 923.642,179.178 917.975,179.511 912.5,180.5C 911.503,201.66 911.169,222.993 911.5,244.5C 910.337,223.004 910.171,201.337 911,179.5C 917.266,178.174 923.432,178.174 929.5,179.5 Z"/></g>
<g><path style="opacity:1" fill="#b5d6e8" d="M 929.5,179.5 C 929.5,201.5 929.5,223.5 929.5,245.5C 923.409,245.789 917.409,245.455 911.5,244.5C 911.169,222.993 911.503,201.66 912.5,180.5C 917.975,179.511 923.642,179.178 929.5,179.5 Z"/></g>
<g><path style="opacity:1" fill="#fefffe" d="M 912.5,180.5 C 917.833,180.5 923.167,180.5 928.5,180.5C 928.5,201.5 928.5,222.5 928.5,243.5C 923.167,243.5 917.833,243.5 912.5,243.5C 912.5,222.5 912.5,201.5 912.5,180.5 Z"/></g>
<g><path style="opacity:1" fill="#4ba1cf" d="M 1013.5,179.5 C 1007.64,179.178 1001.98,179.511 996.5,180.5C 995.517,184.298 995.183,188.298 995.5,192.5C 994.177,188.1 994.177,183.6 995.5,179C 1001.68,178.181 1007.68,178.347 1013.5,179.5 Z"/></g>
<g><path style="opacity:1" fill="#fbfdfd" d="M 996.5,180.5 C 1002.17,180.5 1007.83,180.5 1013.5,180.5C 1013.5,184.167 1013.5,187.833 1013.5,191.5C 1007.83,191.5 1002.17,191.5 996.5,191.5C 996.5,187.833 996.5,184.167 996.5,180.5 Z"/></g>
<g><path style="opacity:1" fill="#dff0f4" d="M 773.5,180.5 C 773.5,183.833 773.5,187.167 773.5,190.5C 778.5,190.5 783.5,190.5 788.5,190.5C 788.5,187.167 788.5,183.833 788.5,180.5C 789.483,184.298 789.817,188.298 789.5,192.5C 783.833,192.5 778.167,192.5 772.5,192.5C 772.183,188.298 772.517,184.298 773.5,180.5 Z"/></g>
<g><path style="opacity:1" fill="#fefefe" d="M 773.5,180.5 C 778.5,180.5 783.5,180.5 788.5,180.5C 788.5,183.833 788.5,187.167 788.5,190.5C 783.5,190.5 778.5,190.5 773.5,190.5C 773.5,187.167 773.5,183.833 773.5,180.5 Z"/></g>
<g><path style="opacity:1" fill="#bcdde8" d="M 996.5,180.5 C 996.5,184.167 996.5,187.833 996.5,191.5C 1002.17,191.5 1007.83,191.5 1013.5,191.5C 1013.5,191.833 1013.5,192.167 1013.5,192.5C 1007.5,192.5 1001.5,192.5 995.5,192.5C 995.183,188.298 995.517,184.298 996.5,180.5 Z"/></g>
<g><path style="opacity:1" fill="#6fb1d7" d="M 538.5,196.5 C 535.098,196.342 531.764,196.676 528.5,197.5C 529.694,196.223 531.36,195.556 533.5,195.5C 535.369,195.507 537.036,195.84 538.5,196.5 Z"/></g>
<g><path style="opacity:1" fill="#72b5da" d="M 626.5,196.5 C 627.793,195.842 629.293,195.508 631,195.5C 632.986,195.569 634.486,196.235 635.5,197.5C 632.57,196.701 629.57,196.368 626.5,196.5 Z"/></g>
<g><path style="opacity:1" fill="#7dbadc" d="M 686.5,195.5 C 690.702,195.183 694.702,195.517 698.5,196.5C 693.463,196.413 688.463,196.746 683.5,197.5C 684.5,196.833 685.5,196.167 686.5,195.5 Z"/></g>
<g><path style="opacity:1" fill="#71b6da" d="M 835.5,196.5 C 831.766,196.323 828.099,196.656 824.5,197.5C 824.611,196.883 824.944,196.383 825.5,196C 829.027,195.192 832.36,195.359 835.5,196.5 Z"/></g>
<g><path style="opacity:1" fill="#77b7da" d="M 885.5,196.5 C 880.797,196.437 876.13,196.771 871.5,197.5C 873.807,195.953 876.473,195.287 879.5,195.5C 881.696,195.505 883.696,195.838 885.5,196.5 Z"/></g>
<g><path style="opacity:1" fill="#7bb9db" d="M 1104.5,197.5 C 1098.17,196.167 1091.83,196.167 1085.5,197.5C 1085.92,196.778 1086.58,196.278 1087.5,196C 1089.83,195.833 1092.17,195.667 1094.5,195.5C 1098.14,195.315 1101.47,195.981 1104.5,197.5 Z"/></g>
<g><path style="opacity:1" fill="#64aad4" d="M 520.5,201.5 C 520.083,202.124 519.416,202.457 518.5,202.5C 516.959,201.714 515.626,200.714 514.5,199.5C 514.389,198.883 514.056,198.383 513.5,198C 508.841,196.449 504.174,196.282 499.5,197.5C 499.611,196.883 499.944,196.383 500.5,196C 504.167,195.333 507.833,195.333 511.5,196C 514.646,197.657 517.646,199.491 520.5,201.5 Z"/></g>
<g><path style="opacity:1" fill="#54a4d2" d="M 591.5,196.5 C 583.358,196.115 575.358,196.782 567.5,198.5C 568.949,196.836 570.949,196.002 573.5,196C 579.681,195.181 585.681,195.347 591.5,196.5 Z"/></g>
<g><path style="opacity:1" fill="#439bcf" d="M 686.5,195.5 C 685.5,196.167 684.5,196.833 683.5,197.5C 681.097,197.448 678.764,197.781 676.5,198.5C 676.611,197.883 676.944,197.383 677.5,197C 680.478,196.304 683.478,195.804 686.5,195.5 Z"/></g>
<g><path style="opacity:1" fill="#a3d2e8" d="M 490.5,197.5 C 490.5,199.5 490.5,201.5 490.5,203.5C 489.549,202.081 489.216,200.415 489.5,198.5C 484.5,198.5 479.5,198.5 474.5,198.5C 473.504,213.658 473.17,228.991 473.5,244.5C 473.167,244.5 472.833,244.5 472.5,244.5C 472.5,228.833 472.5,213.167 472.5,197.5C 478.5,197.5 484.5,197.5 490.5,197.5 Z"/></g>
<g><path style="opacity:1" fill="#d9e9f3" d="M 514.5,199.5 C 507.404,197.983 500.404,198.317 493.5,200.5C 494.911,198.461 496.911,197.461 499.5,197.5C 504.174,196.282 508.841,196.449 513.5,198C 514.056,198.383 514.389,198.883 514.5,199.5 Z"/></g>
<g><path style="opacity:1" fill="#e4eff6" d="M 538.5,196.5 C 539.568,197.434 540.901,197.768 542.5,197.5C 542.5,197.833 542.5,198.167 542.5,198.5C 536.464,198.36 530.464,198.693 524.5,199.5C 524.5,199.167 524.5,198.833 524.5,198.5C 525.708,197.766 527.041,197.433 528.5,197.5C 531.764,196.676 535.098,196.342 538.5,196.5 Z"/></g>
<g><path style="opacity:1" fill="#dcecf4" d="M 835.5,196.5 C 836.93,197.537 838.597,198.204 840.5,198.5C 840.5,198.833 840.5,199.167 840.5,199.5C 833.507,198.213 826.507,198.213 819.5,199.5C 820.167,198.833 820.833,198.167 821.5,197.5C 822.5,197.5 823.5,197.5 824.5,197.5C 828.099,196.656 831.766,196.323 835.5,196.5 Z"/></g>
<g><path style="opacity:1" fill="#3198cf" d="M 937.5,197.5 C 937.206,209.883 937.54,222.217 938.5,234.5C 937.883,234.389 937.383,234.056 937,233.5C 936.174,221.326 936.34,209.326 937.5,197.5 Z"/></g>
<g><path style="opacity:1" fill="#c4e1f0" d="M 1021.5,197.5 C 1035.83,197.5 1050.17,197.5 1064.5,197.5C 1064.82,202.363 1064.49,207.03 1063.5,211.5C 1063.5,207.167 1063.5,202.833 1063.5,198.5C 1049.83,198.5 1036.17,198.5 1022.5,198.5C 1022.5,202.167 1022.5,205.833 1022.5,209.5C 1028.5,209.5 1034.5,209.5 1040.5,209.5C 1040.74,210.791 1040.4,211.791 1039.5,212.5C 1033.93,210.547 1027.93,209.88 1021.5,210.5C 1021.5,206.5 1021.5,202.5 1021.5,198.5C 1021.5,198.167 1021.5,197.833 1021.5,197.5 Z"/></g>
<g><path style="opacity:1" fill="#e1eef5" d="M 1104.5,197.5 C 1107.01,197.054 1109.01,197.72 1110.5,199.5C 1100.49,198.192 1090.49,198.192 1080.5,199.5C 1080.5,199.167 1080.5,198.833 1080.5,198.5C 1081.92,197.549 1083.59,197.216 1085.5,197.5C 1091.83,196.167 1098.17,196.167 1104.5,197.5 Z"/></g>
<g><path style="opacity:1" fill="#fdfefe" d="M 474.5,198.5 C 479.5,198.5 484.5,198.5 489.5,198.5C 489.216,200.415 489.549,202.081 490.5,203.5C 491.5,202.5 492.5,201.5 493.5,200.5C 500.404,198.317 507.404,197.983 514.5,199.5C 515.626,200.714 516.959,201.714 518.5,202.5C 519.416,202.457 520.083,202.124 520.5,201.5C 521.833,200.833 523.167,200.167 524.5,199.5C 530.464,198.693 536.464,198.36 542.5,198.5C 544.045,199.64 545.712,200.64 547.5,201.5C 547.461,202.756 547.961,203.756 549,204.5C 549.5,217.496 549.667,230.496 549.5,243.5C 544.5,243.5 539.5,243.5 534.5,243.5C 533.833,233.5 533.167,223.5 532.5,213.5C 532.167,212.5 531.5,211.833 530.5,211.5C 528.372,210.371 526.039,210.204 523.5,211C 522.748,211.671 522.414,212.504 522.5,213.5C 520.526,223.111 519.859,233.111 520.5,243.5C 515.167,243.5 509.833,243.5 504.5,243.5C 504.666,233.494 504.5,223.494 504,213.5C 503.329,212.748 502.496,212.414 501.5,212.5C 497.511,209.662 494.178,210.329 491.5,214.5C 489.527,223.775 488.86,233.442 489.5,243.5C 484.5,243.5 479.5,243.5 474.5,243.5C 474.5,228.5 474.5,213.5 474.5,198.5 Z"/></g>
<g><path style="opacity:1" fill="#aed2e6" d="M 542.5,197.5 C 545.063,197.731 546.73,199.065 547.5,201.5C 545.712,200.64 544.045,199.64 542.5,198.5C 542.5,198.167 542.5,197.833 542.5,197.5 Z"/></g>
<g><path style="opacity:1" fill="#fafcfd" d="M 591.5,196.5 C 592.919,197.451 594.585,197.784 596.5,197.5C 596.973,198.906 597.973,199.573 599.5,199.5C 600.9,200.1 601.9,201.1 602.5,202.5C 603.997,214.242 604.997,225.908 605.5,237.5C 605.5,238.5 605.5,239.5 605.5,240.5C 605.5,241.5 605.5,242.5 605.5,243.5C 599.537,244.045 593.87,243.379 588.5,241.5C 587.221,240.285 586.221,240.618 585.5,242.5C 584.5,242.833 583.833,243.5 583.5,244.5C 582.391,244.557 581.391,244.89 580.5,245.5C 575.105,245.733 569.772,245.4 564.5,244.5C 560.703,243.041 558.369,240.374 557.5,236.5C 557.103,231.482 558.103,226.815 560.5,222.5C 560.5,221.167 561.167,220.5 562.5,220.5C 563.391,219.89 564.391,219.557 565.5,219.5C 568.002,219.251 570.502,218.917 573,218.5C 574.681,218.392 575.848,217.725 576.5,216.5C 577.5,216.5 578.5,216.5 579.5,216.5C 582.01,216.946 584.01,216.28 585.5,214.5C 586.167,214.5 586.5,214.167 586.5,213.5C 587.843,211.317 587.51,209.317 585.5,207.5C 583.034,206.366 580.367,206.199 577.5,207C 576.177,207.816 575.511,208.983 575.5,210.5C 570.5,210.5 565.5,210.5 560.5,210.5C 560.5,208.833 560.5,207.167 560.5,205.5C 560.328,204.508 560.662,203.842 561.5,203.5C 563.5,202.167 565.167,200.5 566.5,198.5C 566.833,198.5 567.167,198.5 567.5,198.5C 575.358,196.782 583.358,196.115 591.5,196.5 Z"/></g>
<g><path style="opacity:1" fill="#77b6d9" d="M 596.5,197.5 C 598.027,197.427 599.027,198.094 599.5,199.5C 597.973,199.573 596.973,198.906 596.5,197.5 Z"/></g>
<g><path style="opacity:1" fill="#add2e7" d="M 623.5,197.5 C 622.341,199.25 620.674,200.25 618.5,200.5C 619.486,198.592 621.152,197.592 623.5,197.5 Z"/></g>
<g><path style="opacity:1" fill="#fafcfd" d="M 626.5,196.5 C 629.57,196.368 632.57,196.701 635.5,197.5C 636.791,197.263 637.791,197.596 638.5,198.5C 639.144,200.478 640.478,201.811 642.5,202.5C 643.298,202.043 643.631,201.376 643.5,200.5C 643.5,199.833 643.5,199.167 643.5,198.5C 649.167,198.5 654.833,198.5 660.5,198.5C 660.5,214.167 660.5,229.833 660.5,245.5C 660.5,246.5 660.5,247.5 660.5,248.5C 658.592,249.486 657.592,251.152 657.5,253.5C 656.167,254.167 655.167,255.167 654.5,256.5C 652.973,256.427 651.973,257.094 651.5,258.5C 648.99,258.927 646.657,259.593 644.5,260.5C 637.798,260.664 631.131,260.331 624.5,259.5C 624.167,259.5 623.833,259.5 623.5,259.5C 623.027,258.094 622.027,257.427 620.5,257.5C 618.246,256.585 616.246,255.252 614.5,253.5C 614.34,251.847 613.674,250.514 612.5,249.5C 612.5,248.5 612.5,247.5 612.5,246.5C 618.5,246.5 624.5,246.5 630.5,246.5C 630.833,247.5 631.5,248.167 632.5,248.5C 633.134,249.947 634.301,250.613 636,250.5C 637.07,250.472 637.903,250.139 638.5,249.5C 640.262,248.738 641.262,247.404 641.5,245.5C 643.453,242.76 643.786,239.76 642.5,236.5C 640.276,238.434 637.942,240.101 635.5,241.5C 634.833,241.5 634.167,241.5 633.5,241.5C 629.466,241.495 625.466,241.162 621.5,240.5C 621.027,239.094 620.027,238.427 618.5,238.5C 617.5,236.167 615.833,234.5 613.5,233.5C 612.962,231.883 612.629,230.216 612.5,228.5C 611.167,221.833 611.167,215.167 612.5,208.5C 612.557,207.391 612.89,206.391 613.5,205.5C 614.906,205.027 615.573,204.027 615.5,202.5C 617.027,202.573 618.027,201.906 618.5,200.5C 620.674,200.25 622.341,199.25 623.5,197.5C 624.609,197.443 625.609,197.11 626.5,196.5 Z"/></g>
<g><path style="opacity:1" fill="#fafcfd" d="M 698.5,196.5 C 702.828,197.477 707.161,198.811 711.5,200.5C 711.75,202.674 712.75,204.341 714.5,205.5C 714.5,218.167 714.5,230.833 714.5,243.5C 709.167,243.5 703.833,243.5 698.5,243.5C 698.53,242.503 698.03,241.836 697,241.5C 695.142,242.606 693.308,243.606 691.5,244.5C 684.67,245.998 678.004,245.665 671.5,243.5C 670.306,242.728 669.306,241.728 668.5,240.5C 667.167,235.167 667.167,229.833 668.5,224.5C 670.637,222.829 672.637,221.162 674.5,219.5C 674.5,219.167 674.5,218.833 674.5,218.5C 679.092,217.402 683.759,216.735 688.5,216.5C 691.082,216.975 693.082,216.308 694.5,214.5C 694.833,214.5 695.167,214.5 695.5,214.5C 696.947,213.866 697.613,212.699 697.5,211C 697.472,209.93 697.139,209.097 696.5,208.5C 695.508,208.672 694.842,208.338 694.5,207.5C 692.372,206.371 690.039,206.204 687.5,207C 686.244,207.417 685.577,208.25 685.5,209.5C 680.26,210.449 674.927,210.782 669.5,210.5C 669.517,208.435 669.85,206.435 670.5,204.5C 672.194,202.139 674.194,200.139 676.5,198.5C 678.764,197.781 681.097,197.448 683.5,197.5C 688.463,196.746 693.463,196.413 698.5,196.5 Z"/></g>
<g><path style="opacity:1" fill="#69acd5" d="M 698.5,196.5 C 703.568,195.912 707.901,197.245 711.5,200.5C 707.161,198.811 702.828,197.477 698.5,196.5 Z"/></g>
<g><path style="opacity:1" fill="#fcfdfe" d="M 815.5,202.5 C 817.23,201.974 818.564,200.974 819.5,199.5C 826.507,198.213 833.507,198.213 840.5,199.5C 841.391,200.11 842.391,200.443 843.5,200.5C 843.833,201.167 844.167,201.833 844.5,202.5C 844.231,204.429 844.731,206.095 846,207.5C 846.5,219.495 846.667,231.495 846.5,243.5C 841.167,243.5 835.833,243.5 830.5,243.5C 830.827,234.318 830.493,225.318 829.5,216.5C 829.771,214.62 829.104,213.287 827.5,212.5C 824.604,211.225 821.604,211.225 818.5,212.5C 816.787,213.635 816.12,215.302 816.5,217.5C 815.507,225.984 815.174,234.651 815.5,243.5C 810.167,243.5 804.833,243.5 799.5,243.5C 799.5,228.5 799.5,213.5 799.5,198.5C 804.5,198.5 809.5,198.5 814.5,198.5C 814.232,200.099 814.566,201.432 815.5,202.5 Z"/></g>
<g><path style="opacity:1" fill="#75b2d3" d="M 840.5,199.5 C 840.5,199.167 840.5,198.833 840.5,198.5C 842.027,198.427 843.027,199.094 843.5,200.5C 842.391,200.443 841.391,200.11 840.5,199.5 Z"/></g>
<g><path style="opacity:1" fill="#86badf" d="M 869.5,197.5 C 868.232,199.047 866.565,200.047 864.5,200.5C 865.486,198.592 867.152,197.592 869.5,197.5 Z"/></g>
<g><path style="opacity:1" fill="#f7fbfc" d="M 885.5,196.5 C 886.568,197.434 887.901,197.768 889.5,197.5C 891.033,199.245 893.033,200.245 895.5,200.5C 895.973,201.906 896.973,202.573 898.5,202.5C 899.026,204.23 900.026,205.564 901.5,206.5C 902.11,207.391 902.443,208.391 902.5,209.5C 903.007,213.083 904.007,216.417 905.5,219.5C 905.5,221.5 905.5,223.5 905.5,225.5C 894.167,225.5 882.833,225.5 871.5,225.5C 871.263,226.791 871.596,227.791 872.5,228.5C 872.733,230.062 873.4,231.395 874.5,232.5C 878.724,235.089 883.058,235.089 887.5,232.5C 892.944,231.892 897.944,232.558 902.5,234.5C 901.075,235.922 900.075,237.589 899.5,239.5C 897.973,239.427 896.973,240.094 896.5,241.5C 894.456,242.508 892.456,243.508 890.5,244.5C 881.934,246.251 873.601,245.584 865.5,242.5C 865.027,241.094 864.027,240.427 862.5,240.5C 860.806,239.473 859.473,238.139 858.5,236.5C 857.662,236.158 857.328,235.492 857.5,234.5C 857.573,232.973 856.906,231.973 855.5,231.5C 855.443,230.391 855.11,229.391 854.5,228.5C 853.231,223.486 853.231,218.486 854.5,213.5C 854.5,213.167 854.5,212.833 854.5,212.5C 857.347,208.167 860.681,204.167 864.5,200.5C 866.565,200.047 868.232,199.047 869.5,197.5C 870.167,197.5 870.833,197.5 871.5,197.5C 876.13,196.771 880.797,196.437 885.5,196.5 Z"/></g>
<g><path style="opacity:1" fill="#4194c8" d="M 987.5,197.5 C 988.831,204.97 989.498,212.804 989.5,221C 989.498,229.196 988.831,237.03 987.5,244.5C 987.5,228.833 987.5,213.167 987.5,197.5 Z"/></g>
<g><path style="opacity:1" fill="#85bcdc" d="M 1080.5,198.5 C 1080.5,198.833 1080.5,199.167 1080.5,199.5C 1079.04,199.433 1077.71,199.766 1076.5,200.5C 1077.18,198.824 1078.52,198.157 1080.5,198.5 Z"/></g>
<g><path style="opacity:1" fill="#fbfdfd" d="M 1110.5,199.5 C 1112.75,200.415 1114.75,201.748 1116.5,203.5C 1116.17,215.678 1116.5,227.678 1117.5,239.5C 1117.5,240.833 1117.5,242.167 1117.5,243.5C 1112.17,243.5 1106.83,243.5 1101.5,243.5C 1101.5,242.5 1101.5,241.5 1101.5,240.5C 1099.82,240.285 1098.82,240.952 1098.5,242.5C 1096.52,243.471 1094.52,244.471 1092.5,245.5C 1086.03,245.792 1079.69,245.125 1073.5,243.5C 1073.17,242.5 1072.5,241.833 1071.5,241.5C 1070.83,239.833 1070.17,238.167 1069.5,236.5C 1069.32,232.766 1069.66,229.099 1070.5,225.5C 1071.08,223.251 1072.41,221.585 1074.5,220.5C 1075.71,219.766 1077.04,219.433 1078.5,219.5C 1082.76,219.102 1086.76,218.102 1090.5,216.5C 1092.9,216.552 1095.24,216.219 1097.5,215.5C 1098.5,215.586 1099.33,215.252 1100,214.5C 1100.78,212.613 1100.61,210.946 1099.5,209.5C 1099.03,208.094 1098.03,207.427 1096.5,207.5C 1095.55,206.848 1094.38,206.514 1093,206.5C 1090.99,206.307 1089.49,206.974 1088.5,208.5C 1088.17,209.167 1087.83,209.833 1087.5,210.5C 1082.5,210.5 1077.5,210.5 1072.5,210.5C 1072.3,208.05 1072.63,205.717 1073.5,203.5C 1073.5,203.167 1073.5,202.833 1073.5,202.5C 1075.03,202.573 1076.03,201.906 1076.5,200.5C 1077.71,199.766 1079.04,199.433 1080.5,199.5C 1090.49,198.192 1100.49,198.192 1110.5,199.5 Z"/></g>
<g><path style="opacity:1" fill="#66add6" d="M 524.5,198.5 C 524.5,198.833 524.5,199.167 524.5,199.5C 523.167,200.167 521.833,200.833 520.5,201.5C 521.035,199.554 522.368,198.554 524.5,198.5 Z"/></g>
<g><path style="opacity:1" fill="#b7d7e5" d="M 643.5,198.5 C 649.31,197.51 655.31,197.177 661.5,197.5C 661.83,213.675 661.496,229.675 660.5,245.5C 660.5,229.833 660.5,214.167 660.5,198.5C 654.833,198.5 649.167,198.5 643.5,198.5 Z"/></g>
<g><path style="opacity:1" fill="#fcfdfe" d="M 763.5,211.5 C 760.468,214.197 757.802,217.197 755.5,220.5C 753.5,220.5 752.5,221.5 752.5,223.5C 749.911,224.419 747.911,226.086 746.5,228.5C 744.879,228.787 743.879,229.787 743.5,231.5C 750.803,232.497 758.137,232.831 765.5,232.5C 765.5,236.167 765.5,239.833 765.5,243.5C 750.5,243.5 735.5,243.5 720.5,243.5C 720.334,239.154 720.501,234.821 721,230.5C 723.04,228.63 724.873,226.63 726.5,224.5C 727.5,224.5 728.5,224.5 729.5,224.5C 729.831,222.678 730.498,221.011 731.5,219.5C 734.089,218.581 736.089,216.914 737.5,214.5C 737.5,213.833 737.833,213.5 738.5,213.5C 739.492,213.672 740.158,213.338 740.5,212.5C 741.404,211.791 741.737,210.791 741.5,209.5C 735.167,209.5 728.833,209.5 722.5,209.5C 722.5,205.833 722.5,202.167 722.5,198.5C 736.167,198.5 749.833,198.5 763.5,198.5C 763.5,202.833 763.5,207.167 763.5,211.5 Z"/></g>
<g><path style="opacity:1" fill="#aad9f0" d="M 789.5,197.5 C 789.5,197.833 789.5,198.167 789.5,198.5C 789.167,198.5 788.833,198.5 788.5,198.5C 783.305,198.179 778.305,198.513 773.5,199.5C 772.504,214.324 772.171,229.324 772.5,244.5C 772.167,244.5 771.833,244.5 771.5,244.5C 771.5,228.833 771.5,213.167 771.5,197.5C 777.5,197.5 783.5,197.5 789.5,197.5 Z"/></g>
<g><path style="opacity:1" fill="#fefefe" d="M 788.5,198.5 C 788.5,213.5 788.5,228.5 788.5,243.5C 783.5,243.5 778.5,243.5 773.5,243.5C 773.5,228.833 773.5,214.167 773.5,199.5C 778.305,198.513 783.305,198.179 788.5,198.5 Z"/></g>
<g><path style="opacity:1" fill="#d9edf5" d="M 788.5,198.5 C 788.833,198.5 789.167,198.5 789.5,198.5C 789.5,213.833 789.5,229.167 789.5,244.5C 783.833,244.5 778.167,244.5 772.5,244.5C 772.171,229.324 772.504,214.324 773.5,199.5C 773.5,214.167 773.5,228.833 773.5,243.5C 778.5,243.5 783.5,243.5 788.5,243.5C 788.5,228.5 788.5,213.5 788.5,198.5 Z"/></g>
<g><path style="opacity:1" fill="#85bfdc" d="M 789.5,197.5 C 790.496,213.325 790.83,229.325 790.5,245.5C 783.978,245.823 777.645,245.49 771.5,244.5C 771.833,244.5 772.167,244.5 772.5,244.5C 778.167,244.5 783.833,244.5 789.5,244.5C 789.5,229.167 789.5,213.833 789.5,198.5C 789.5,198.167 789.5,197.833 789.5,197.5 Z"/></g>
<g><path style="opacity:1" fill="#d2e9f5" d="M 798.5,197.5 C 804.167,197.5 809.833,197.5 815.5,197.5C 815.5,199.167 815.5,200.833 815.5,202.5C 814.566,201.432 814.232,200.099 814.5,198.5C 809.5,198.5 804.5,198.5 799.5,198.5C 799.5,213.5 799.5,228.5 799.5,243.5C 804.833,243.5 810.167,243.5 815.5,243.5C 815.174,234.651 815.507,225.984 816.5,217.5C 816.5,226.5 816.5,235.5 816.5,244.5C 810.5,244.5 804.5,244.5 798.5,244.5C 798.5,228.833 798.5,213.167 798.5,197.5 Z"/></g>
<g><path style="opacity:1" fill="#519ecd" d="M 815.5,197.5 C 816.75,197.577 817.583,198.244 818,199.5C 818.71,198.027 819.876,197.36 821.5,197.5C 820.833,198.167 820.167,198.833 819.5,199.5C 818.564,200.974 817.23,201.974 815.5,202.5C 815.5,200.833 815.5,199.167 815.5,197.5 Z"/></g>
<g><path style="opacity:1" fill="#82bad9" d="M 889.5,197.5 C 891.967,197.755 893.967,198.755 895.5,200.5C 893.033,200.245 891.033,199.245 889.5,197.5 Z"/></g>
<g><path style="opacity:1" fill="#b6d9eb" d="M 937.5,197.5 C 943.5,197.5 949.5,197.5 955.5,197.5C 955.5,197.833 955.5,198.167 955.5,198.5C 950.167,198.5 944.833,198.5 939.5,198.5C 939.204,211.549 939.537,224.549 940.5,237.5C 939.833,237.167 939.167,236.833 938.5,236.5C 938.5,235.833 938.5,235.167 938.5,234.5C 937.54,222.217 937.206,209.883 937.5,197.5 Z"/></g>
<g><path style="opacity:1" fill="#fcfdfe" d="M 955.5,198.5 C 954.857,209.552 955.524,220.219 957.5,230.5C 959.979,231.623 962.312,231.623 964.5,230.5C 966.38,230.771 967.713,230.104 968.5,228.5C 968.5,227.5 968.5,226.5 968.5,225.5C 970.471,216.895 971.138,207.895 970.5,198.5C 975.833,198.5 981.167,198.5 986.5,198.5C 986.5,213.5 986.5,228.5 986.5,243.5C 981.167,243.5 975.833,243.5 970.5,243.5C 970.368,238.561 969.035,238.228 966.5,242.5C 960.111,245.556 953.445,246.223 946.5,244.5C 946.027,243.094 945.027,242.427 943.5,242.5C 943.5,240.5 942.5,239.5 940.5,239.5C 940.5,238.833 940.5,238.167 940.5,237.5C 939.537,224.549 939.204,211.549 939.5,198.5C 944.833,198.5 950.167,198.5 955.5,198.5 Z"/></g>
<g><path style="opacity:1" fill="#accfe0" d="M 955.5,197.5 C 956.21,208.037 956.877,218.704 957.5,229.5C 957.5,229.833 957.5,230.167 957.5,230.5C 955.524,220.219 954.857,209.552 955.5,198.5C 955.5,198.167 955.5,197.833 955.5,197.5 Z"/></g>
<g><path style="opacity:1" fill="#b6d7e9" d="M 987.5,197.5 C 987.5,213.167 987.5,228.833 987.5,244.5C 981.833,244.5 976.167,244.5 970.5,244.5C 970.5,244.167 970.5,243.833 970.5,243.5C 975.833,243.5 981.167,243.5 986.5,243.5C 986.5,228.5 986.5,213.5 986.5,198.5C 981.167,198.5 975.833,198.5 970.5,198.5C 971.138,207.895 970.471,216.895 968.5,225.5C 968.5,216.167 968.5,206.833 968.5,197.5C 974.833,197.5 981.167,197.5 987.5,197.5 Z"/></g>
<g><path style="opacity:1" fill="#c9e2ee" d="M 995.5,197.5 C 1001.5,197.5 1007.5,197.5 1013.5,197.5C 1013.5,197.833 1013.5,198.167 1013.5,198.5C 1008.17,198.5 1002.83,198.5 997.5,198.5C 997.5,213.5 997.5,228.5 997.5,243.5C 1002.83,243.5 1008.17,243.5 1013.5,243.5C 1007.69,244.49 1001.69,244.823 995.5,244.5C 995.5,228.833 995.5,213.167 995.5,197.5 Z"/></g>
<g><path style="opacity:1" fill="#fefefe" d="M 1013.5,198.5 C 1013.5,213.5 1013.5,228.5 1013.5,243.5C 1008.17,243.5 1002.83,243.5 997.5,243.5C 997.5,228.5 997.5,213.5 997.5,198.5C 1002.83,198.5 1008.17,198.5 1013.5,198.5 Z"/></g>
<g><path style="opacity:1" fill="#fdfefe" d="M 1063.5,211.5 C 1058.22,216.113 1053.22,221.113 1048.5,226.5C 1047.17,226.5 1046.5,227.167 1046.5,228.5C 1044.09,228.694 1043.09,230.027 1043.5,232.5C 1050.83,232.5 1058.17,232.5 1065.5,232.5C 1065.5,236.167 1065.5,239.833 1065.5,243.5C 1050.5,243.5 1035.5,243.5 1020.5,243.5C 1020.5,239.5 1020.5,235.5 1020.5,231.5C 1024.22,227.454 1027.88,223.454 1031.5,219.5C 1033.5,219.5 1034.5,218.5 1034.5,216.5C 1036.03,216.573 1037.03,215.906 1037.5,214.5C 1037.5,213.833 1037.83,213.5 1038.5,213.5C 1039.17,213.5 1039.5,213.167 1039.5,212.5C 1040.4,211.791 1040.74,210.791 1040.5,209.5C 1034.5,209.5 1028.5,209.5 1022.5,209.5C 1022.5,205.833 1022.5,202.167 1022.5,198.5C 1036.17,198.5 1049.83,198.5 1063.5,198.5C 1063.5,202.833 1063.5,207.167 1063.5,211.5 Z"/></g>
<g><path style="opacity:1" fill="#6caacd" d="M 490.5,197.5 C 491.1,198.9 492.1,199.9 493.5,200.5C 492.5,201.5 491.5,202.5 490.5,203.5C 490.5,201.5 490.5,199.5 490.5,197.5 Z"/></g>
<g><path style="opacity:1" fill="#82b6d5" d="M 895.5,200.5 C 897.027,200.427 898.027,201.094 898.5,202.5C 896.973,202.573 895.973,201.906 895.5,200.5 Z"/></g>
<g><path style="opacity:1" fill="#258cc4" d="M 995.5,197.5 C 1001.98,196.509 1008.65,196.176 1015.5,196.5C 1015.83,212.675 1015.5,228.675 1014.5,244.5C 1014.83,228.658 1014.5,212.991 1013.5,197.5C 1007.5,197.5 1001.5,197.5 995.5,197.5 Z"/></g>
<g><path style="opacity:1" fill="#8fc2e1" d="M 566.5,198.5 C 565.167,200.5 563.5,202.167 561.5,203.5C 562.167,200.833 563.833,199.167 566.5,198.5 Z"/></g>
<g><path style="opacity:1" fill="#91c7e3" d="M 618.5,200.5 C 618.027,201.906 617.027,202.573 615.5,202.5C 615.973,201.094 616.973,200.427 618.5,200.5 Z"/></g>
<g><path style="opacity:1" fill="#accee2" d="M 638.5,198.5 C 640.011,199.502 641.678,200.169 643.5,200.5C 643.631,201.376 643.298,202.043 642.5,202.5C 640.478,201.811 639.144,200.478 638.5,198.5 Z"/></g>
<g><path style="opacity:1" fill="#8ec4e4" d="M 1076.5,200.5 C 1076.03,201.906 1075.03,202.573 1073.5,202.5C 1073.97,201.094 1074.97,200.427 1076.5,200.5 Z"/></g>
<g><path style="opacity:1" fill="#65b1da" d="M 676.5,198.5 C 674.194,200.139 672.194,202.139 670.5,204.5C 670.167,204.5 669.833,204.5 669.5,204.5C 670.578,201.092 672.911,199.092 676.5,198.5 Z"/></g>
<g><path style="opacity:1" fill="#82c0e2" d="M 615.5,202.5 C 615.573,204.027 614.906,205.027 613.5,205.5C 613.427,203.973 614.094,202.973 615.5,202.5 Z"/></g>
<g><path style="opacity:1" fill="#6baed3" d="M 711.5,200.5 C 713.759,201.344 714.759,203.011 714.5,205.5C 712.75,204.341 711.75,202.674 711.5,200.5 Z"/></g>
<g><path style="opacity:1" fill="#5fa6cf" d="M 898.5,202.5 C 900.446,203.035 901.446,204.368 901.5,206.5C 900.026,205.564 899.026,204.23 898.5,202.5 Z"/></g>
<g><path style="opacity:1" fill="#a3c8de" d="M 585.5,207.5 C 582.941,207.198 580.607,207.532 578.5,208.5C 577.5,209.167 576.5,209.833 575.5,210.5C 575.511,208.983 576.177,207.816 577.5,207C 580.367,206.199 583.034,206.366 585.5,207.5 Z"/></g>
<g><path style="opacity:1" fill="#8ebedb" d="M 694.5,207.5 C 692.097,207.448 689.764,207.781 687.5,208.5C 686.833,208.833 686.167,209.167 685.5,209.5C 685.577,208.25 686.244,207.417 687.5,207C 690.039,206.204 692.372,206.371 694.5,207.5 Z"/></g>
<g><path style="opacity:1" fill="#add5e5" d="M 885.5,209.5 C 881.8,208.242 878.134,208.242 874.5,209.5C 875.694,208.223 877.36,207.556 879.5,207.5C 881.167,207.667 882.833,207.833 884.5,208C 885.056,208.383 885.389,208.883 885.5,209.5 Z"/></g>
<g><path style="opacity:1" fill="#a6cfe2" d="M 1096.5,207.5 C 1093.76,207.401 1091.1,207.735 1088.5,208.5C 1089.49,206.974 1090.99,206.307 1093,206.5C 1094.38,206.514 1095.55,206.848 1096.5,207.5 Z"/></g>
<g><path style="opacity:1" fill="#3e95cd" d="M 578.5,208.5 C 580.607,207.532 582.941,207.198 585.5,207.5C 587.51,209.317 587.843,211.317 586.5,213.5C 586.5,212.167 586.5,210.833 586.5,209.5C 583.721,209.721 581.054,209.388 578.5,208.5 Z"/></g>
<g><path style="opacity:1" fill="#3b94cb" d="M 1096.5,207.5 C 1098.03,207.427 1099.03,208.094 1099.5,209.5C 1099.77,211.099 1099.43,212.432 1098.5,213.5C 1098.67,212.178 1098.34,211.011 1097.5,210C 1093.93,209.153 1090.59,209.653 1087.5,211.5C 1087.5,211.167 1087.5,210.833 1087.5,210.5C 1087.83,209.833 1088.17,209.167 1088.5,208.5C 1091.1,207.735 1093.76,207.401 1096.5,207.5 Z"/></g>
<g><path style="opacity:1" fill="#e4f0f5" d="M 547.5,201.5 C 548.5,202.167 549.5,202.833 550.5,203.5C 550.5,217.167 550.5,230.833 550.5,244.5C 544.974,244.821 539.64,244.488 534.5,243.5C 539.5,243.5 544.5,243.5 549.5,243.5C 549.667,230.496 549.5,217.496 549,204.5C 547.961,203.756 547.461,202.756 547.5,201.5 Z"/></g>
<g><path style="opacity:1" fill="#bddaeb" d="M 764.5,211.5 C 764.167,211.5 763.833,211.5 763.5,211.5C 763.5,207.167 763.5,202.833 763.5,198.5C 749.833,198.5 736.167,198.5 722.5,198.5C 722.5,202.167 722.5,205.833 722.5,209.5C 728.833,209.5 735.167,209.5 741.5,209.5C 741.737,210.791 741.404,211.791 740.5,212.5C 734.588,210.544 728.255,209.877 721.5,210.5C 720.515,206.366 720.182,202.032 720.5,197.5C 735.5,197.5 750.5,197.5 765.5,197.5C 765.819,202.363 765.486,207.03 764.5,211.5 Z"/></g>
<g><path style="opacity:1" fill="#4398ca" d="M 885.5,209.5 C 885.5,209.833 885.5,210.167 885.5,210.5C 881.513,209.295 877.513,209.295 873.5,210.5C 873.5,209.833 873.833,209.5 874.5,209.5C 878.134,208.242 881.8,208.242 885.5,209.5 Z"/></g>
<g><path style="opacity:1" fill="#9bc7e0" d="M 530.5,211.5 C 528.473,211.338 526.473,211.505 524.5,212C 523.944,212.383 523.611,212.883 523.5,213.5C 523.167,213.5 522.833,213.5 522.5,213.5C 522.414,212.504 522.748,211.671 523.5,211C 526.039,210.204 528.372,210.371 530.5,211.5 Z"/></g>
<g><path style="opacity:1" fill="#d6e6f3" d="M 559.5,205.5 C 559.833,205.5 560.167,205.5 560.5,205.5C 560.5,207.167 560.5,208.833 560.5,210.5C 565.5,210.5 570.5,210.5 575.5,210.5C 575.5,211.167 575.167,211.5 574.5,211.5C 569.5,211.5 564.5,211.5 559.5,211.5C 559.5,209.5 559.5,207.5 559.5,205.5 Z"/></g>
<g><path style="opacity:1" fill="#3b98d0" d="M 611.5,208.5 C 610.587,214.441 610.254,220.441 610.5,226.5C 608.133,221.056 607.966,215.39 610,209.5C 610.383,208.944 610.883,208.611 611.5,208.5 Z"/></g>
<g><path style="opacity:1" fill="#90c1db" d="M 641.5,211.5 C 637.833,210.167 634.167,210.167 630.5,211.5C 630.611,210.883 630.944,210.383 631.5,210C 634.5,209.333 637.5,209.333 640.5,210C 641.056,210.383 641.389,210.883 641.5,211.5 Z"/></g>
<g><path style="opacity:1" fill="#cce1f1" d="M 669.5,204.5 C 669.833,204.5 670.167,204.5 670.5,204.5C 669.85,206.435 669.517,208.435 669.5,210.5C 674.927,210.782 680.26,210.449 685.5,209.5C 680.265,211.45 674.598,212.117 668.5,211.5C 668.5,209.5 668.5,207.5 668.5,205.5C 669.167,205.5 669.5,205.167 669.5,204.5 Z"/></g>
<g><path style="opacity:1" fill="#86bedb" d="M 696.5,208.5 C 697.139,209.097 697.472,209.93 697.5,211C 697.613,212.699 696.947,213.866 695.5,214.5C 696.15,212.565 696.483,210.565 696.5,208.5 Z"/></g>
<g><path style="opacity:1" fill="#92bfdb" d="M 721.5,210.5 C 728.255,209.877 734.588,210.544 740.5,212.5C 740.158,213.338 739.492,213.672 738.5,213.5C 733.073,211.854 727.406,210.854 721.5,210.5 Z"/></g>
<g><path style="opacity:1" fill="#0783c9" d="M 885.5,210.5 C 885.539,211.583 885.873,212.583 886.5,213.5C 882.217,214.492 877.884,214.826 873.5,214.5C 873.5,213.167 873.5,211.833 873.5,210.5C 877.513,209.295 881.513,209.295 885.5,210.5 Z"/></g>
<g><path style="opacity:1" fill="#8abcdb" d="M 1021.5,198.5 C 1021.5,202.5 1021.5,206.5 1021.5,210.5C 1027.93,209.88 1033.93,210.547 1039.5,212.5C 1039.5,213.167 1039.17,213.5 1038.5,213.5C 1037.82,211.824 1036.48,211.157 1034.5,211.5C 1029.83,211.5 1025.17,211.5 1020.5,211.5C 1020.18,206.968 1020.52,202.634 1021.5,198.5 Z"/></g>
<g><path style="opacity:1" fill="#c6dff0" d="M 1073.5,203.5 C 1072.63,205.717 1072.3,208.05 1072.5,210.5C 1077.5,210.5 1082.5,210.5 1087.5,210.5C 1087.5,210.833 1087.5,211.167 1087.5,211.5C 1081.83,211.5 1076.17,211.5 1070.5,211.5C 1070.31,208.189 1071.31,205.522 1073.5,203.5 Z"/></g>
<g><path style="opacity:1" fill="#3390c8" d="M 551.5,207.5 C 553.481,220.124 554.148,233.124 553.5,246.5C 546.087,247.128 539.087,246.461 532.5,244.5C 538.744,245.458 545.077,245.791 551.5,245.5C 551.5,232.833 551.5,220.167 551.5,207.5 Z"/></g>
<g><path style="opacity:1" fill="#7eb6d6" d="M 559.5,205.5 C 559.5,207.5 559.5,209.5 559.5,211.5C 564.5,211.5 569.5,211.5 574.5,211.5C 569.36,212.488 564.026,212.821 558.5,212.5C 558.198,209.941 558.532,207.607 559.5,205.5 Z"/></g>
<g><path style="opacity:1" fill="#1685c9" d="M 641.5,211.5 C 642.704,216.856 642.704,222.189 641.5,227.5C 641.5,228.167 641.167,228.5 640.5,228.5C 637.5,229.833 634.5,229.833 631.5,228.5C 630.833,228.5 630.5,228.167 630.5,227.5C 630.34,225.847 629.674,224.514 628.5,223.5C 628.5,223.167 628.5,222.833 628.5,222.5C 628.034,218.838 628.701,215.505 630.5,212.5C 630.5,212.167 630.5,211.833 630.5,211.5C 634.167,210.167 637.833,210.167 641.5,211.5 Z"/></g>
<g><path style="opacity:1" fill="#7fbadc" d="M 864.5,200.5 C 860.681,204.167 857.347,208.167 854.5,212.5C 855.96,206.898 859.294,202.898 864.5,200.5 Z"/></g>
<g><path style="opacity:1" fill="#2c8dc9" d="M 1021.5,197.5 C 1021.5,197.833 1021.5,198.167 1021.5,198.5C 1020.52,202.634 1020.18,206.968 1020.5,211.5C 1025.17,211.5 1029.83,211.5 1034.5,211.5C 1029.69,212.487 1024.69,212.821 1019.5,212.5C 1018.89,207.056 1019.56,202.056 1021.5,197.5 Z"/></g>
<g><path style="opacity:1" fill="#489bce" d="M 668.5,205.5 C 668.5,207.5 668.5,209.5 668.5,211.5C 674.598,212.117 680.265,211.45 685.5,209.5C 686.167,209.167 686.833,208.833 687.5,208.5C 687.249,210.17 686.582,211.67 685.5,213C 679.175,213.5 672.842,213.666 666.5,213.5C 666.294,210.505 666.96,207.838 668.5,205.5 Z"/></g>
<g><path style="opacity:1" fill="#5ca3cd" d="M 763.5,211.5 C 763.833,211.5 764.167,211.5 764.5,211.5C 762.779,214.202 761.112,216.869 759.5,219.5C 758.041,219.433 756.708,219.766 755.5,220.5C 757.802,217.197 760.468,214.197 763.5,211.5 Z"/></g>
<g><path style="opacity:1" fill="#4ba1d3" d="M 1070.5,211.5 C 1076.17,211.5 1081.83,211.5 1087.5,211.5C 1085.08,212.814 1082.25,213.481 1079,213.5C 1075.75,213.481 1072.92,212.814 1070.5,211.5 Z"/></g>
<g><path style="opacity:1" fill="#76aed0" d="M 1116.5,203.5 C 1117.32,205.969 1117.82,208.635 1118,211.5C 1118.5,220.827 1118.67,230.161 1118.5,239.5C 1118.17,239.5 1117.83,239.5 1117.5,239.5C 1116.5,227.678 1116.17,215.678 1116.5,203.5 Z"/></g>
<g><path style="opacity:1" fill="#519dca" d="M 873.5,210.5 C 873.5,211.833 873.5,213.167 873.5,214.5C 877.884,214.826 882.217,214.492 886.5,213.5C 885.873,212.583 885.539,211.583 885.5,210.5C 886.5,210.833 887.167,211.5 887.5,212.5C 887.5,213.5 887.5,214.5 887.5,215.5C 882.167,215.5 876.833,215.5 871.5,215.5C 871.402,213.447 872.069,211.78 873.5,210.5 Z"/></g>
<g><path style="opacity:1" fill="#bbdeee" d="M 1099.5,209.5 C 1100.61,210.946 1100.78,212.613 1100,214.5C 1099.33,215.252 1098.5,215.586 1097.5,215.5C 1097.5,215.167 1097.5,214.833 1097.5,214.5C 1098.17,214.5 1098.5,214.167 1098.5,213.5C 1099.43,212.432 1099.77,211.099 1099.5,209.5 Z"/></g>
<g><path style="opacity:1" fill="#5cabd4" d="M 579.5,215.5 C 579.5,215.833 579.5,216.167 579.5,216.5C 578.5,216.5 577.5,216.5 576.5,216.5C 574.435,216.517 572.435,216.85 570.5,217.5C 570.611,216.883 570.944,216.383 571.5,216C 574.146,215.503 576.813,215.336 579.5,215.5 Z"/></g>
<g><path style="opacity:1" fill="#99c8e2" d="M 585.5,214.5 C 584.01,216.28 582.01,216.946 579.5,216.5C 579.5,216.167 579.5,215.833 579.5,215.5C 581.379,214.659 583.379,214.325 585.5,214.5 Z"/></g>
<g><path style="opacity:1" fill="#c4e1eb" d="M 602.5,202.5 C 603.5,202.833 604.167,203.5 604.5,204.5C 605.455,215.449 605.789,226.449 605.5,237.5C 604.997,225.908 603.997,214.242 602.5,202.5 Z"/></g>
<g><path style="opacity:1" fill="#9ac8e2" d="M 694.5,214.5 C 693.082,216.308 691.082,216.975 688.5,216.5C 688.5,216.167 688.5,215.833 688.5,215.5C 690.435,214.85 692.435,214.517 694.5,214.5 Z"/></g>
<g><path style="opacity:1" fill="#9fc7dc" d="M 887.5,212.5 C 888.434,213.568 888.768,214.901 888.5,216.5C 882.642,216.822 876.975,216.489 871.5,215.5C 876.833,215.5 882.167,215.5 887.5,215.5C 887.5,214.5 887.5,213.5 887.5,212.5 Z"/></g>
<g><path style="opacity:1" fill="#adcee0" d="M 902.5,209.5 C 904.104,210.287 904.771,211.62 904.5,213.5C 905.15,215.435 905.483,217.435 905.5,219.5C 904.007,216.417 903.007,213.083 902.5,209.5 Z"/></g>
<g><path style="opacity:1" fill="#97cbe4" d="M 1037.5,214.5 C 1037.03,215.906 1036.03,216.573 1034.5,216.5C 1034.97,215.094 1035.97,214.427 1037.5,214.5 Z"/></g>
<g><path style="opacity:1" fill="#8abddb" d="M 1097.5,214.5 C 1097.5,214.833 1097.5,215.167 1097.5,215.5C 1095.24,216.219 1092.9,216.552 1090.5,216.5C 1090.5,216.167 1090.5,215.833 1090.5,215.5C 1092.61,214.532 1094.94,214.198 1097.5,214.5 Z"/></g>
<g><path style="opacity:1" fill="#c7e2f1" d="M 611.5,208.5 C 611.833,208.5 612.167,208.5 612.5,208.5C 611.167,215.167 611.167,221.833 612.5,228.5C 611.833,227.833 611.167,227.167 610.5,226.5C 610.254,220.441 610.587,214.441 611.5,208.5 Z"/></g>
<g><path style="opacity:1" fill="#419ace" d="M 688.5,215.5 C 688.5,215.833 688.5,216.167 688.5,216.5C 683.759,216.735 679.092,217.402 674.5,218.5C 675.681,216.933 677.347,216.099 679.5,216C 682.482,215.502 685.482,215.335 688.5,215.5 Z"/></g>
<g><path style="opacity:1" fill="#489fd0" d="M 1090.5,215.5 C 1090.5,215.833 1090.5,216.167 1090.5,216.5C 1087.1,216.342 1083.76,216.676 1080.5,217.5C 1080.61,216.883 1080.94,216.383 1081.5,216C 1084.48,215.502 1087.48,215.335 1090.5,215.5 Z"/></g>
<g><path style="opacity:1" fill="#4d98ca" d="M 501.5,212.5 C 501.5,212.833 501.5,213.167 501.5,213.5C 498.556,212.412 495.556,212.412 492.5,213.5C 492.828,224.014 492.494,234.347 491.5,244.5C 491.5,234.5 491.5,224.5 491.5,214.5C 494.178,210.329 497.511,209.662 501.5,212.5 Z"/></g>
<g><path style="opacity:1" fill="#84c0df" d="M 502.5,214.5 C 503.167,224.167 503.833,233.833 504.5,243.5C 509.975,244.489 515.642,244.822 521.5,244.5C 521.5,244.833 521.5,245.167 521.5,245.5C 515.077,245.791 508.744,245.458 502.5,244.5C 502.5,234.5 502.5,224.5 502.5,214.5 Z"/></g>
<g><path style="opacity:1" fill="#d5e9f3" d="M 501.5,213.5 C 501.5,213.167 501.5,212.833 501.5,212.5C 502.496,212.414 503.329,212.748 504,213.5C 504.5,223.494 504.666,233.494 504.5,243.5C 503.833,233.833 503.167,224.167 502.5,214.5C 502.5,213.833 502.167,213.5 501.5,213.5 Z"/></g>
<g><path style="opacity:1" fill="#aed1e5" d="M 630.5,212.5 C 628.701,215.505 628.034,218.838 628.5,222.5C 627.362,219.696 627.195,216.696 628,213.5C 628.671,212.748 629.504,212.414 630.5,212.5 Z"/></g>
<g><path style="opacity:1" fill="#61add7" d="M 641.5,211.5 C 642.906,211.973 643.573,212.973 643.5,214.5C 643.666,218.514 643.499,222.514 643,226.5C 642.617,227.056 642.117,227.389 641.5,227.5C 642.704,222.189 642.704,216.856 641.5,211.5 Z"/></g>
<g><path style="opacity:1" fill="#92c6e3" d="M 737.5,214.5 C 736.089,216.914 734.089,218.581 731.5,219.5C 732.911,217.086 734.911,215.419 737.5,214.5 Z"/></g>
<g><path style="opacity:1" fill="#cbe3ef" d="M 1090.5,216.5 C 1086.76,218.102 1082.76,219.102 1078.5,219.5C 1078.5,219.167 1078.5,218.833 1078.5,218.5C 1078.84,217.662 1079.51,217.328 1080.5,217.5C 1083.76,216.676 1087.1,216.342 1090.5,216.5 Z"/></g>
<g><path style="opacity:1" fill="#d1e4ee" d="M 474.5,198.5 C 474.5,213.5 474.5,228.5 474.5,243.5C 479.5,243.5 484.5,243.5 489.5,243.5C 488.86,233.442 489.527,223.775 491.5,214.5C 491.5,224.5 491.5,234.5 491.5,244.5C 485.5,244.5 479.5,244.5 473.5,244.5C 473.17,228.991 473.504,213.658 474.5,198.5 Z"/></g>
<g><path style="opacity:1" fill="#badbe9" d="M 522.5,213.5 C 521.548,223.782 521.214,234.115 521.5,244.5C 515.642,244.822 509.975,244.489 504.5,243.5C 509.833,243.5 515.167,243.5 520.5,243.5C 519.859,233.111 520.526,223.111 522.5,213.5 Z"/></g>
<g><path style="opacity:1" fill="#60add4" d="M 568.5,217.5 C 567.5,218.167 566.5,218.833 565.5,219.5C 564.391,219.557 563.391,219.89 562.5,220.5C 563.607,218.031 565.607,217.031 568.5,217.5 Z"/></g>
<g><path style="opacity:1" fill="#d1e6ef" d="M 576.5,216.5 C 575.848,217.725 574.681,218.392 573,218.5C 570.502,218.917 568.002,219.251 565.5,219.5C 566.5,218.833 567.5,218.167 568.5,217.5C 569.167,217.5 569.833,217.5 570.5,217.5C 572.435,216.85 574.435,216.517 576.5,216.5 Z"/></g>
<g><path style="opacity:1" fill="#4f9ecd" d="M 904.5,213.5 C 905.794,215.048 906.461,217.048 906.5,219.5C 906.495,221.696 906.162,223.696 905.5,225.5C 905.5,223.5 905.5,221.5 905.5,219.5C 905.483,217.435 905.15,215.435 904.5,213.5 Z"/></g>
<g><path style="opacity:1" fill="#b2d5e8" d="M 1034.5,216.5 C 1034.5,218.5 1033.5,219.5 1031.5,219.5C 1032.17,218.167 1033.17,217.167 1034.5,216.5 Z"/></g>
<g><path style="opacity:1" fill="#7cb9db" d="M 1078.5,218.5 C 1078.5,218.833 1078.5,219.167 1078.5,219.5C 1077.04,219.433 1075.71,219.766 1074.5,220.5C 1075.18,218.824 1076.52,218.157 1078.5,218.5 Z"/></g>
<g><path style="opacity:1" fill="#51a4d0" d="M 604.5,204.5 C 605.117,204.611 605.617,204.944 606,205.5C 606.5,217.162 606.667,228.829 606.5,240.5C 606.167,240.5 605.833,240.5 605.5,240.5C 605.5,239.5 605.5,238.5 605.5,237.5C 605.789,226.449 605.455,215.449 604.5,204.5 Z"/></g>
<g><path style="opacity:1" fill="#54a4d4" d="M 854.5,213.5 C 853.231,218.486 853.231,223.486 854.5,228.5C 853.195,226.603 852.529,224.269 852.5,221.5C 852.667,219.167 852.833,216.833 853,214.5C 853.383,213.944 853.883,213.611 854.5,213.5 Z"/></g>
<g><path style="opacity:1" fill="#3193cc" d="M 530.5,211.5 C 531.5,211.833 532.167,212.5 532.5,213.5C 532.5,223.833 532.5,234.167 532.5,244.5C 531.67,234.341 531.17,224.008 531,213.5C 528.541,212.351 526.041,212.351 523.5,213.5C 523.611,212.883 523.944,212.383 524.5,212C 526.473,211.505 528.473,211.338 530.5,211.5 Z"/></g>
<g><path style="opacity:1" fill="#c1e0ef" d="M 674.5,219.5 C 672.637,221.162 670.637,222.829 668.5,224.5C 668.5,223.833 668.5,223.167 668.5,222.5C 670.216,220.975 672.216,219.975 674.5,219.5 Z"/></g>
<g><path style="opacity:1" fill="#77b1d5" d="M 755.5,220.5 C 754.833,221.833 753.833,222.833 752.5,223.5C 752.5,221.5 753.5,220.5 755.5,220.5 Z"/></g>
<g><path style="opacity:1" fill="#b4d6e9" d="M 587.5,229.5 C 587.785,227.712 587.452,226.045 586.5,224.5C 585.893,224.624 585.56,224.957 585.5,225.5C 583.585,225.216 581.919,225.549 580.5,226.5C 579.5,226.5 578.5,226.5 577.5,226.5C 578.152,225.275 579.319,224.608 581,224.5C 583.498,224.083 585.998,223.749 588.5,223.5C 588.795,225.735 588.461,227.735 587.5,229.5 Z"/></g>
<g><path style="opacity:1" fill="#c0dfef" d="M 731.5,219.5 C 730.498,221.011 729.831,222.678 729.5,224.5C 728.5,224.5 727.5,224.5 726.5,224.5C 727.5,222.167 729.167,220.5 731.5,219.5 Z"/></g>
<g><path style="opacity:1" fill="#61a7d2" d="M 818.5,212.5 C 817.546,223.115 817.213,233.782 817.5,244.5C 817.167,244.5 816.833,244.5 816.5,244.5C 816.5,235.5 816.5,226.5 816.5,217.5C 816.12,215.302 816.787,213.635 818.5,212.5 Z"/></g>
<g><path style="opacity:1" fill="#66aad3" d="M 1064.5,197.5 C 1065.49,202.64 1065.82,207.974 1065.5,213.5C 1064.32,213.281 1063.32,213.614 1062.5,214.5C 1058.11,218.891 1053.45,222.891 1048.5,226.5C 1053.22,221.113 1058.22,216.113 1063.5,211.5C 1064.49,207.03 1064.82,202.363 1064.5,197.5 Z"/></g>
<g><path style="opacity:1" fill="#d1e7f2" d="M 1100.5,229.5 C 1100.5,227.833 1100.5,226.167 1100.5,224.5C 1098.9,224.232 1097.57,224.566 1096.5,225.5C 1094.9,225.232 1093.57,225.566 1092.5,226.5C 1091.83,226.5 1091.17,226.5 1090.5,226.5C 1090.95,225.542 1091.62,224.708 1092.5,224C 1095.48,223.502 1098.48,223.335 1101.5,223.5C 1101.79,225.735 1101.46,227.735 1100.5,229.5 Z"/></g>
<g><path style="opacity:1" fill="#64b2db" d="M 668.5,222.5 C 668.5,223.167 668.5,223.833 668.5,224.5C 667.833,224.833 667.167,225.167 666.5,225.5C 666.427,223.973 667.094,222.973 668.5,222.5 Z"/></g>
<g><path style="opacity:1" fill="#5fa6d1" d="M 697.5,229.5 C 697.672,230.492 697.338,231.158 696.5,231.5C 696.5,229.833 696.5,228.167 696.5,226.5C 692.709,226.659 689.042,227.325 685.5,228.5C 686.1,227.1 687.1,226.1 688.5,225.5C 691.545,225.492 694.545,225.159 697.5,224.5C 697.5,226.167 697.5,227.833 697.5,229.5 Z"/></g>
<g><path style="opacity:1" fill="#cae3ef" d="M 697.5,229.5 C 697.5,227.833 697.5,226.167 697.5,224.5C 694.545,225.159 691.545,225.492 688.5,225.5C 688.611,224.883 688.944,224.383 689.5,224C 692.482,223.502 695.482,223.335 698.5,223.5C 698.795,225.735 698.461,227.735 697.5,229.5 Z"/></g>
<g><path style="opacity:1" fill="#3095c9" d="M 905.5,225.5 C 894.295,225.841 883.295,226.841 872.5,228.5C 871.596,227.791 871.263,226.791 871.5,225.5C 882.833,225.5 894.167,225.5 905.5,225.5 Z"/></g>
<g><path style="opacity:1" fill="#5ea9d7" d="M 585.5,225.5 C 585.56,224.957 585.893,224.624 586.5,224.5C 587.452,226.045 587.785,227.712 587.5,229.5C 587.771,231.38 587.104,232.713 585.5,233.5C 586.657,230.693 586.657,228.026 585.5,225.5 Z"/></g>
<g><path style="opacity:1" fill="#b2d4e7" d="M 628.5,223.5 C 629.674,224.514 630.34,225.847 630.5,227.5C 628.824,226.817 628.157,225.483 628.5,223.5 Z"/></g>
<g><path style="opacity:1" fill="#e0f0f6" d="M 643.5,214.5 C 644.787,215.871 645.453,217.705 645.5,220C 646.173,225.165 644.173,228.665 639.5,230.5C 639.833,229.833 640.167,229.167 640.5,228.5C 641.167,228.5 641.5,228.167 641.5,227.5C 642.117,227.389 642.617,227.056 643,226.5C 643.499,222.514 643.666,218.514 643.5,214.5 Z"/></g>
<g><path style="opacity:1" fill="#6cacd3" d="M 752.5,223.5 C 751.089,225.914 749.089,227.581 746.5,228.5C 747.911,226.086 749.911,224.419 752.5,223.5 Z"/></g>
<g><path style="opacity:1" fill="#87c4e2" d="M 1096.5,225.5 C 1097.57,224.566 1098.9,224.232 1100.5,224.5C 1100.5,226.167 1100.5,227.833 1100.5,229.5C 1100.5,230.167 1100.17,230.5 1099.5,230.5C 1099.5,228.833 1099.5,227.167 1099.5,225.5C 1098.5,225.5 1097.5,225.5 1096.5,225.5 Z"/></g>
<g><path style="opacity:1" fill="#1084c8" d="M 585.5,225.5 C 586.657,228.026 586.657,230.693 585.5,233.5C 584.833,233.833 584.167,234.167 583.5,234.5C 577.887,235.921 575.72,233.921 577,228.5C 578.302,227.915 579.469,227.249 580.5,226.5C 581.919,225.549 583.585,225.216 585.5,225.5 Z"/></g>
<g><path style="opacity:1" fill="#288aca" d="M 696.5,231.5 C 695.167,232.167 694.167,233.167 693.5,234.5C 690.248,236.147 687.414,235.48 685,232.5C 684.235,230.934 684.402,229.601 685.5,228.5C 689.042,227.325 692.709,226.659 696.5,226.5C 696.5,228.167 696.5,229.833 696.5,231.5 Z"/></g>
<g><path style="opacity:1" fill="#1285c7" d="M 1096.5,225.5 C 1097.5,225.5 1098.5,225.5 1099.5,225.5C 1099.5,227.167 1099.5,228.833 1099.5,230.5C 1097.74,231.262 1096.74,232.596 1096.5,234.5C 1096.17,234.5 1095.83,234.5 1095.5,234.5C 1092.55,234.713 1089.88,234.046 1087.5,232.5C 1087.75,229.256 1089.42,227.256 1092.5,226.5C 1093.57,225.566 1094.9,225.232 1096.5,225.5 Z"/></g>
<g><path style="opacity:1" fill="#a5cde6" d="M 560.5,222.5 C 558.103,226.815 557.103,231.482 557.5,236.5C 556.235,235.486 555.569,233.986 555.5,232C 555.242,227.677 556.908,224.51 560.5,222.5 Z"/></g>
<g><path style="opacity:1" fill="#62afda" d="M 610.5,226.5 C 611.167,227.167 611.833,227.833 612.5,228.5C 612.629,230.216 612.962,231.883 613.5,233.5C 611.166,231.824 610.166,229.491 610.5,226.5 Z"/></g>
<g><path style="opacity:1" fill="#6cb3da" d="M 631.5,228.5 C 634.5,229.833 637.5,229.833 640.5,228.5C 640.167,229.167 639.833,229.833 639.5,230.5C 637.143,230.663 634.81,230.497 632.5,230C 631.944,229.617 631.611,229.117 631.5,228.5 Z"/></g>
<g><path style="opacity:1" fill="#87c4e1" d="M 968.5,228.5 C 967.713,230.104 966.38,230.771 964.5,230.5C 965.514,229.326 966.847,228.66 968.5,228.5 Z"/></g>
<g><path style="opacity:1" fill="#8fbfda" d="M 1090.5,226.5 C 1091.17,226.5 1091.83,226.5 1092.5,226.5C 1089.42,227.256 1087.75,229.256 1087.5,232.5C 1085.81,229.336 1086.81,227.336 1090.5,226.5 Z"/></g>
<g><path style="opacity:1" fill="#badaed" d="M 668.5,224.5 C 667.167,229.833 667.167,235.167 668.5,240.5C 666.933,239.319 666.099,237.653 666,235.5C 665.341,232.112 665.508,228.779 666.5,225.5C 667.167,225.167 667.833,224.833 668.5,224.5 Z"/></g>
<g><path style="opacity:1" fill="#4d9bcd" d="M 746.5,229.5 C 753.167,230.167 759.833,230.833 766.5,231.5C 759.468,231.83 752.468,231.497 745.5,230.5C 745.624,229.893 745.957,229.56 746.5,229.5 Z"/></g>
<g><path style="opacity:1" fill="#92c4dc" d="M 887.5,231.5 C 892.975,230.511 898.642,230.178 904.5,230.5C 904.737,231.791 904.404,232.791 903.5,233.5C 898.604,231.554 893.271,230.887 887.5,231.5 Z"/></g>
<g><path style="opacity:1" fill="#5aa3ce" d="M 957.5,230.5 C 957.5,230.167 957.5,229.833 957.5,229.5C 959.861,229.674 962.194,230.007 964.5,230.5C 962.312,231.623 959.979,231.623 957.5,230.5 Z"/></g>
<g><path style="opacity:1" fill="#a3cfe6" d="M 1031.5,219.5 C 1027.88,223.454 1024.22,227.454 1020.5,231.5C 1019.52,235.634 1019.18,239.968 1019.5,244.5C 1019.17,244.5 1018.83,244.5 1018.5,244.5C 1018.33,239.821 1018.5,235.155 1019,230.5C 1022.74,226.253 1026.91,222.586 1031.5,219.5 Z"/></g>
<g><path style="opacity:1" fill="#4f9ccc" d="M 1048.5,226.5 C 1047.77,227.708 1047.43,229.041 1047.5,230.5C 1053.69,230.177 1059.69,230.51 1065.5,231.5C 1058.49,231.666 1051.49,231.5 1044.5,231C 1045.38,230.292 1046.05,229.458 1046.5,228.5C 1046.5,227.167 1047.17,226.5 1048.5,226.5 Z"/></g>
<g><path style="opacity:1" fill="#8fc1db" d="M 550.5,203.5 C 551.434,204.568 551.768,205.901 551.5,207.5C 551.5,220.167 551.5,232.833 551.5,245.5C 545.077,245.791 538.744,245.458 532.5,244.5C 532.5,234.167 532.5,223.833 532.5,213.5C 533.167,223.5 533.833,233.5 534.5,243.5C 539.64,244.488 544.974,244.821 550.5,244.5C 550.5,230.833 550.5,217.167 550.5,203.5 Z"/></g>
<g><path style="opacity:1" fill="#d5e9f1" d="M 887.5,232.5 C 887.5,232.167 887.5,231.833 887.5,231.5C 893.271,230.887 898.604,231.554 903.5,233.5C 903.5,233.833 903.5,234.167 903.5,234.5C 903.167,234.5 902.833,234.5 902.5,234.5C 897.944,232.558 892.944,231.892 887.5,232.5 Z"/></g>
<g><path style="opacity:1" fill="#b1d3e5" d="M 1046.5,228.5 C 1046.05,229.458 1045.38,230.292 1044.5,231C 1051.49,231.5 1058.49,231.666 1065.5,231.5C 1065.5,231.833 1065.5,232.167 1065.5,232.5C 1058.17,232.5 1050.83,232.5 1043.5,232.5C 1043.09,230.027 1044.09,228.694 1046.5,228.5 Z"/></g>
<g><path style="opacity:1" fill="#54a5d2" d="M 887.5,231.5 C 887.5,231.833 887.5,232.167 887.5,232.5C 883.058,235.089 878.724,235.089 874.5,232.5C 878.898,232.706 883.232,232.373 887.5,231.5 Z"/></g>
<g><path style="opacity:1" fill="#87bedc" d="M 1099.5,230.5 C 1099.26,232.404 1098.26,233.738 1096.5,234.5C 1096.74,232.596 1097.74,231.262 1099.5,230.5 Z"/></g>
<g><path style="opacity:1" fill="#a4cee5" d="M 696.5,231.5 C 696.5,233.5 695.5,234.5 693.5,234.5C 694.167,233.167 695.167,232.167 696.5,231.5 Z"/></g>
<g><path style="opacity:1" fill="#42a3d6" d="M 827.5,212.5 C 829.104,213.287 829.771,214.62 829.5,216.5C 829.5,225.833 829.5,235.167 829.5,244.5C 828.79,233.963 828.123,223.296 827.5,212.5 Z"/></g>
<g><path style="opacity:1" fill="#aad2e6" d="M 855.5,231.5 C 856.906,231.973 857.573,232.973 857.5,234.5C 856.094,234.027 855.427,233.027 855.5,231.5 Z"/></g>
<g><path style="opacity:1" fill="#82bad9" d="M 577.5,226.5 C 578.5,226.5 579.5,226.5 580.5,226.5C 579.469,227.249 578.302,227.915 577,228.5C 575.72,233.921 577.887,235.921 583.5,234.5C 581.105,235.814 578.605,235.814 576,234.5C 573.664,231.193 574.164,228.527 577.5,226.5 Z"/></g>
<g><path style="opacity:1" fill="#abd5e8" d="M 1070.5,225.5 C 1069.66,229.099 1069.32,232.766 1069.5,236.5C 1069.17,236.5 1068.83,236.5 1068.5,236.5C 1068.5,235.833 1068.5,235.167 1068.5,234.5C 1068.5,232.167 1068.5,229.833 1068.5,227.5C 1068.5,226.167 1069.17,225.5 1070.5,225.5 Z"/></g>
<g><path style="opacity:1" fill="#77b6d7" d="M 1087.5,232.5 C 1089.88,234.046 1092.55,234.713 1095.5,234.5C 1092.28,236.184 1089.62,235.517 1087.5,232.5 Z"/></g>
<g><path style="opacity:1" fill="#82c2e1" d="M 613.5,233.5 C 615.833,234.5 617.5,236.167 618.5,238.5C 617.069,237.918 615.736,237.085 614.5,236C 613.748,235.329 613.414,234.496 613.5,233.5 Z"/></g>
<g><path style="opacity:1" fill="#60a2cb" d="M 902.5,234.5 C 902.833,234.5 903.167,234.5 903.5,234.5C 903.269,237.063 901.935,238.73 899.5,239.5C 900.075,237.589 901.075,235.922 902.5,234.5 Z"/></g>
<g><path style="opacity:1" fill="#51a2d1" d="M 641.5,245.5 C 641.662,243.473 641.495,241.473 641,239.5C 639.887,240.305 638.721,240.972 637.5,241.5C 636.833,241.5 636.167,241.5 635.5,241.5C 637.942,240.101 640.276,238.434 642.5,236.5C 643.786,239.76 643.453,242.76 641.5,245.5 Z"/></g>
<g><path style="opacity:1" fill="#6dafda" d="M 938.5,236.5 C 939.167,236.833 939.833,237.167 940.5,237.5C 940.5,238.167 940.5,238.833 940.5,239.5C 939.094,239.027 938.427,238.027 938.5,236.5 Z"/></g>
<g><path style="opacity:1" fill="#5facd9" d="M 1068.5,236.5 C 1068.83,236.5 1069.17,236.5 1069.5,236.5C 1070.17,238.167 1070.83,239.833 1071.5,241.5C 1069.59,240.514 1068.59,238.848 1068.5,236.5 Z"/></g>
<g><path style="opacity:1" fill="#87c1e1" d="M 618.5,238.5 C 620.027,238.427 621.027,239.094 621.5,240.5C 619.973,240.573 618.973,239.906 618.5,238.5 Z"/></g>
<g><path style="opacity:1" fill="#489fd0" d="M 858.5,236.5 C 859.473,238.139 860.806,239.473 862.5,240.5C 862.5,240.833 862.5,241.167 862.5,241.5C 859.516,241.213 858.183,239.546 858.5,236.5 Z"/></g>
<g><path style="opacity:1" fill="#aed3e9" d="M 940.5,239.5 C 942.5,239.5 943.5,240.5 943.5,242.5C 942.167,241.833 941.167,240.833 940.5,239.5 Z"/></g>
<g><path style="opacity:1" fill="#82b9d5" d="M 899.5,239.5 C 899.027,240.906 898.027,241.573 896.5,241.5C 896.973,240.094 897.973,239.427 899.5,239.5 Z"/></g>
<g><path style="opacity:1" fill="#a8cce0" d="M 588.5,241.5 C 587.609,242.11 586.609,242.443 585.5,242.5C 586.221,240.618 587.221,240.285 588.5,241.5 Z"/></g>
<g><path style="opacity:1" fill="#98c5dd" d="M 621.5,241.5 C 621.5,241.167 621.5,240.833 621.5,240.5C 625.466,241.162 629.466,241.495 633.5,241.5C 629.648,242.644 625.648,242.644 621.5,241.5 Z"/></g>
<g><path style="opacity:1" fill="#0d84c8" d="M 641.5,245.5 C 641.262,247.404 640.262,248.738 638.5,249.5C 636.435,249.483 634.435,249.15 632.5,248.5C 632.567,245.234 630.901,243.734 627.5,244C 630.5,243.667 633.5,243.333 636.5,243C 637.056,242.617 637.389,242.117 637.5,241.5C 638.721,240.972 639.887,240.305 641,239.5C 641.495,241.473 641.662,243.473 641.5,245.5 Z"/></g>
<g><path style="opacity:1" fill="#79b4d4" d="M 698.5,243.5 C 697.883,243.389 697.383,243.056 697,242.5C 695.556,244.155 693.722,244.822 691.5,244.5C 693.308,243.606 695.142,242.606 697,241.5C 698.03,241.836 698.53,242.503 698.5,243.5 Z"/></g>
<g><path style="opacity:1" fill="#a9cfe7" d="M 862.5,241.5 C 862.5,241.167 862.5,240.833 862.5,240.5C 864.027,240.427 865.027,241.094 865.5,242.5C 864.391,242.443 863.391,242.11 862.5,241.5 Z"/></g>
<g><path style="opacity:1" fill="#57a4ce" d="M 588.5,241.5 C 588.5,242.167 588.5,242.833 588.5,243.5C 586.784,243.629 585.117,243.962 583.5,244.5C 583.833,243.5 584.5,242.833 585.5,242.5C 586.609,242.443 587.609,242.11 588.5,241.5 Z"/></g>
<g><path style="opacity:1" fill="#2f8fc9" d="M 621.5,241.5 C 625.648,242.644 629.648,242.644 633.5,241.5C 634.167,241.5 634.833,241.5 635.5,241.5C 636.167,241.5 636.833,241.5 637.5,241.5C 637.389,242.117 637.056,242.617 636.5,243C 633.5,243.333 630.5,243.667 627.5,244C 630.901,243.734 632.567,245.234 632.5,248.5C 631.5,248.167 630.833,247.5 630.5,246.5C 624.69,245.51 618.69,245.177 612.5,245.5C 615.701,243.74 619.367,242.906 623.5,243C 622.584,242.722 621.918,242.222 621.5,241.5 Z"/></g>
<g><path style="opacity:1" fill="#4fa0cf" d="M 719.5,230.5 C 719.5,235.167 719.5,239.833 719.5,244.5C 719.167,244.5 718.833,244.5 718.5,244.5C 717.711,244.783 717.044,245.283 716.5,246C 713.5,246.167 710.5,246.333 707.5,246.5C 704.087,246.483 701.087,245.816 698.5,244.5C 704.537,244.829 710.537,244.496 716.5,243.5C 715.754,242.264 715.421,240.93 715.5,239.5C 716.833,236.5 718.167,233.5 719.5,230.5 Z"/></g>
<g><path style="opacity:1" fill="#78b8d8" d="M 970.5,243.5 C 970.5,243.833 970.5,244.167 970.5,244.5C 970.167,244.5 969.833,244.5 969.5,244.5C 969.649,243.448 969.483,242.448 969,241.5C 968.329,242.252 967.496,242.586 966.5,242.5C 969.035,238.228 970.368,238.561 970.5,243.5 Z"/></g>
<g><path style="opacity:1" fill="#c3deec" d="M 605.5,240.5 C 605.833,240.5 606.167,240.5 606.5,240.5C 606.5,241.167 606.5,241.833 606.5,242.5C 600.926,244.453 594.926,245.12 588.5,244.5C 588.5,244.167 588.5,243.833 588.5,243.5C 588.5,242.833 588.5,242.167 588.5,241.5C 593.87,243.379 599.537,244.045 605.5,243.5C 605.5,242.5 605.5,241.5 605.5,240.5 Z"/></g>
<g><path style="opacity:1" fill="#add0e4" d="M 714.5,205.5 C 715.495,216.654 715.828,227.988 715.5,239.5C 715.421,240.93 715.754,242.264 716.5,243.5C 710.537,244.496 704.537,244.829 698.5,244.5C 698.5,244.167 698.5,243.833 698.5,243.5C 703.833,243.5 709.167,243.5 714.5,243.5C 714.5,230.833 714.5,218.167 714.5,205.5 Z"/></g>
<g><path style="opacity:1" fill="#c2deec" d="M 726.5,224.5 C 724.873,226.63 723.04,228.63 721,230.5C 720.501,234.821 720.334,239.154 720.5,243.5C 735.5,243.5 750.5,243.5 765.5,243.5C 765.5,239.833 765.5,236.167 765.5,232.5C 758.137,232.831 750.803,232.497 743.5,231.5C 743.879,229.787 744.879,228.787 746.5,228.5C 746.5,228.833 746.5,229.167 746.5,229.5C 745.957,229.56 745.624,229.893 745.5,230.5C 752.468,231.497 759.468,231.83 766.5,231.5C 766.5,235.833 766.5,240.167 766.5,244.5C 750.833,244.5 735.167,244.5 719.5,244.5C 719.5,239.833 719.5,235.167 719.5,230.5C 721.239,227.757 723.573,225.757 726.5,224.5 Z"/></g>
<g><path style="opacity:1" fill="#bddae9" d="M 844.5,202.5 C 845.79,203.058 846.623,204.058 847,205.5C 847.5,218.829 847.667,232.163 847.5,245.5C 841.31,245.823 835.31,245.49 829.5,244.5C 829.5,235.167 829.5,225.833 829.5,216.5C 830.493,225.318 830.827,234.318 830.5,243.5C 835.833,243.5 841.167,243.5 846.5,243.5C 846.667,231.495 846.5,219.495 846,207.5C 844.731,206.095 844.231,204.429 844.5,202.5 Z"/></g>
<g><path style="opacity:1" fill="#63a6ce" d="M 896.5,241.5 C 895.32,243.913 893.32,244.913 890.5,244.5C 892.456,243.508 894.456,242.508 896.5,241.5 Z"/></g>
<g><path style="opacity:1" fill="#92c2dd" d="M 943.5,242.5 C 945.027,242.427 946.027,243.094 946.5,244.5C 944.973,244.573 943.973,243.906 943.5,242.5 Z"/></g>
<g><path style="opacity:1" fill="#c7e1ee" d="M 1020.5,231.5 C 1020.5,235.5 1020.5,239.5 1020.5,243.5C 1035.5,243.5 1050.5,243.5 1065.5,243.5C 1065.5,239.833 1065.5,236.167 1065.5,232.5C 1066.48,236.298 1066.82,240.298 1066.5,244.5C 1050.83,244.5 1035.17,244.5 1019.5,244.5C 1019.18,239.968 1019.52,235.634 1020.5,231.5 Z"/></g>
<g><path style="opacity:1" fill="#bfddec" d="M 1117.5,239.5 C 1117.83,239.5 1118.17,239.5 1118.5,239.5C 1118.5,240.167 1118.5,240.833 1118.5,241.5C 1118.5,242.5 1118.5,243.5 1118.5,244.5C 1112.83,244.5 1107.17,244.5 1101.5,244.5C 1101.17,244.5 1100.83,244.5 1100.5,244.5C 1100.17,243.5 1099.5,242.833 1098.5,242.5C 1098.82,240.952 1099.82,240.285 1101.5,240.5C 1101.5,241.5 1101.5,242.5 1101.5,243.5C 1106.83,243.5 1112.17,243.5 1117.5,243.5C 1117.5,242.167 1117.5,240.833 1117.5,239.5 Z"/></g>
<g><path style="opacity:1" fill="#6eb0d4" d="M 606.5,242.5 C 607.404,243.209 607.737,244.209 607.5,245.5C 600.978,245.823 594.645,245.49 588.5,244.5C 594.926,245.12 600.926,244.453 606.5,242.5 Z"/></g>
<g><path style="opacity:1" fill="#68add3" d="M 1068.5,227.5 C 1068.5,229.833 1068.5,232.167 1068.5,234.5C 1067.52,237.962 1067.19,241.629 1067.5,245.5C 1050.99,245.83 1034.66,245.496 1018.5,244.5C 1018.83,244.5 1019.17,244.5 1019.5,244.5C 1035.17,244.5 1050.83,244.5 1066.5,244.5C 1066.82,240.298 1066.48,236.298 1065.5,232.5C 1065.5,232.167 1065.5,231.833 1065.5,231.5C 1066.98,230.552 1067.98,229.219 1068.5,227.5 Z"/></g>
<g><path style="opacity:1" fill="#6fb0d4" d="M 1118.5,241.5 C 1119.17,241.5 1119.5,241.833 1119.5,242.5C 1119.5,243.5 1119.5,244.5 1119.5,245.5C 1113.31,245.823 1107.31,245.49 1101.5,244.5C 1107.17,244.5 1112.83,244.5 1118.5,244.5C 1118.5,243.5 1118.5,242.5 1118.5,241.5 Z"/></g>
<g><path style="opacity:1" fill="#459ccf" d="M 472.5,244.5 C 472.833,244.5 473.167,244.5 473.5,244.5C 479.5,244.5 485.5,244.5 491.5,244.5C 488.742,245.818 485.576,246.485 482,246.5C 478.424,246.485 475.258,245.818 472.5,244.5 Z"/></g>
<g><path style="opacity:1" fill="#2994cb" d="M 502.5,244.5 C 508.744,245.458 515.077,245.791 521.5,245.5C 518.518,246.165 515.352,246.498 512,246.5C 508.424,246.485 505.258,245.818 502.5,244.5 Z"/></g>
<g><path style="opacity:1" fill="#71b3d7" d="M 564.5,244.5 C 569.772,245.4 575.105,245.733 580.5,245.5C 575.684,246.65 570.684,246.816 565.5,246C 564.944,245.617 564.611,245.117 564.5,244.5 Z"/></g>
<g><path style="opacity:1" fill="#76b6da" d="M 671.5,243.5 C 678.004,245.665 684.67,245.998 691.5,244.5C 691.389,245.117 691.056,245.617 690.5,246C 685.5,246.667 680.5,246.667 675.5,246C 674.142,245.066 672.808,244.232 671.5,243.5 Z"/></g>
<g><path style="opacity:1" fill="#479ece" d="M 718.5,244.5 C 718.833,244.5 719.167,244.5 719.5,244.5C 735.167,244.5 750.833,244.5 766.5,244.5C 759.03,245.831 751.196,246.498 743,246.5C 735.167,246.333 727.333,246.167 719.5,246C 718.944,245.617 718.611,245.117 718.5,244.5 Z"/></g>
<g><path style="opacity:1" fill="#4ca2d3" d="M 798.5,197.5 C 798.5,213.167 798.5,228.833 798.5,244.5C 804.5,244.5 810.5,244.5 816.5,244.5C 816.833,244.5 817.167,244.5 817.5,244.5C 811.25,246.459 804.584,247.126 797.5,246.5C 797.17,229.991 797.504,213.658 798.5,197.5 Z"/></g>
<g><path style="opacity:1" fill="#60abd5" d="M 865.5,242.5 C 873.601,245.584 881.934,246.251 890.5,244.5C 890.389,245.117 890.056,245.617 889.5,246C 882.808,246.831 876.142,246.664 869.5,245.5C 867.816,244.85 866.483,243.85 865.5,242.5 Z"/></g>
<g><path style="opacity:1" fill="#70b2d7" d="M 966.5,242.5 C 963.178,245.924 959.011,247.258 954,246.5C 951.071,246.475 948.571,245.809 946.5,244.5C 953.445,246.223 960.111,245.556 966.5,242.5 Z"/></g>
<g><path style="opacity:1" fill="#449dce" d="M 969.5,244.5 C 969.833,244.5 970.167,244.5 970.5,244.5C 976.167,244.5 981.833,244.5 987.5,244.5C 984.913,245.816 981.913,246.483 978.5,246.5C 975.087,246.483 972.087,245.816 969.5,244.5 Z"/></g>
<g><path style="opacity:1" fill="#57a3cf" d="M 1013.5,197.5 C 1014.5,212.991 1014.83,228.658 1014.5,244.5C 1011.74,245.818 1008.58,246.485 1005,246.5C 1001.42,246.485 998.258,245.818 995.5,244.5C 1001.69,244.823 1007.69,244.49 1013.5,243.5C 1013.5,228.5 1013.5,213.5 1013.5,198.5C 1013.5,198.167 1013.5,197.833 1013.5,197.5 Z"/></g>
<g><path style="opacity:1" fill="#71b4d9" d="M 1073.5,243.5 C 1079.69,245.125 1086.03,245.792 1092.5,245.5C 1087.32,246.815 1081.99,246.815 1076.5,245.5C 1075.4,244.824 1074.4,244.158 1073.5,243.5 Z"/></g>
<g><path style="opacity:1" fill="#2793cb" d="M 1119.5,242.5 C 1120.43,243.568 1120.77,244.901 1120.5,246.5C 1113.42,247.126 1106.75,246.459 1100.5,244.5C 1100.83,244.5 1101.17,244.5 1101.5,244.5C 1107.31,245.49 1113.31,245.823 1119.5,245.5C 1119.5,244.5 1119.5,243.5 1119.5,242.5 Z"/></g>
<g><path style="opacity:1" fill="#85c0de" d="M 612.5,245.5 C 618.69,245.177 624.69,245.51 630.5,246.5C 624.5,246.5 618.5,246.5 612.5,246.5C 612.5,247.5 612.5,248.5 612.5,249.5C 611.167,248.167 611.167,246.833 612.5,245.5 Z"/></g>
<g><path style="opacity:1" fill="#6aa8cb" d="M 632.5,248.5 C 634.435,249.15 636.435,249.483 638.5,249.5C 637.903,250.139 637.07,250.472 636,250.5C 634.301,250.613 633.134,249.947 632.5,248.5 Z"/></g>
<g><path style="opacity:1" fill="#83b9d7" d="M 660.5,248.5 C 660.25,250.674 659.25,252.341 657.5,253.5C 657.592,251.152 658.592,249.486 660.5,248.5 Z"/></g>
<g><path style="opacity:1" fill="#81bbda" d="M 654.5,256.5 C 654.027,257.906 653.027,258.573 651.5,258.5C 651.973,257.094 652.973,256.427 654.5,256.5 Z"/></g>
<g><path style="opacity:1" fill="#3794ce" d="M 614.5,253.5 C 616.246,255.252 618.246,256.585 620.5,257.5C 620.973,258.906 621.973,259.573 623.5,259.5C 623.833,259.5 624.167,259.5 624.5,259.5C 624.5,259.833 624.5,260.167 624.5,260.5C 619.308,260.707 615.974,258.373 614.5,253.5 Z"/></g>
<g><path style="opacity:1" fill="#a7d1e6" d="M 620.5,257.5 C 622.027,257.427 623.027,258.094 623.5,259.5C 621.973,259.573 620.973,258.906 620.5,257.5 Z"/></g>
<g><path style="opacity:1" fill="#9ccce4" d="M 624.5,260.5 C 624.5,260.167 624.5,259.833 624.5,259.5C 631.131,260.331 637.798,260.664 644.5,260.5C 640.03,261.486 635.363,261.819 630.5,261.5C 628.379,261.675 626.379,261.341 624.5,260.5 Z"/></g>
<g><path style="opacity:1" fill="#3a95ca" d="M 657.5,253.5 C 657.267,256.349 655.934,258.516 653.5,260C 648.439,261.38 643.273,262.213 638,262.5C 635.31,262.497 632.81,262.164 630.5,261.5C 635.363,261.819 640.03,261.486 644.5,260.5C 646.657,259.593 648.99,258.927 651.5,258.5C 653.027,258.573 654.027,257.906 654.5,256.5C 655.167,255.167 656.167,254.167 657.5,253.5 Z"/></g>
</svg>
