<?xml version="1.0" encoding="UTF-8"?>
<!DOCTYPE svg PUBLIC "-//W3C//DTD SVG 1.1//EN" "http://www.w3.org/Graphics/SVG/1.1/DTD/svg11.dtd">
<svg xmlns="http://www.w3.org/2000/svg" version="1.1" width="1594px" height="443px" style="shape-rendering:geometricPrecision; text-rendering:geometricPrecision; image-rendering:optimizeQuality; fill-rule:evenodd; clip-rule:evenodd" xmlns:xlink="http://www.w3.org/1999/xlink">
<g><path style="opacity:1" fill="#0c29d0" d="M -0.5,-0.5 C 530.833,-0.5 1062.17,-0.5 1593.5,-0.5C 1593.5,147.167 1593.5,294.833 1593.5,442.5C 1062.17,442.5 530.833,442.5 -0.5,442.5C -0.5,294.833 -0.5,147.167 -0.5,-0.5 Z"/></g>
<g><path style="opacity:1" fill="#0714ce" d="M 751.5,162.5 C 751.168,198.337 751.502,234.004 752.5,269.5C 758.833,269.5 765.167,269.5 771.5,269.5C 771.611,270.117 771.944,270.617 772.5,271C 765.5,271.667 758.5,271.667 751.5,271C 751,270.5 750.5,270 750,269.5C 749.833,251.667 749.667,233.833 749.5,216C 749.5,197.821 750.167,179.987 751.5,162.5 Z"/></g>
<g><path style="opacity:1" fill="#3a4cd6" d="M 752.5,161.5 C 759.568,160.173 766.735,160.173 774,161.5C 774.167,179.5 774.333,197.5 774.5,215.5C 774.5,233.846 773.833,251.846 772.5,269.5C 772.5,269.167 772.5,268.833 772.5,268.5C 773.664,233.336 773.831,198.002 773,162.5C 766.256,161.521 759.422,161.188 752.5,161.5 Z"/></g>
<g><path style="opacity:1" fill="#3242d6" d="M 807.5,161.5 C 800.978,161.177 794.645,161.51 788.5,162.5C 787.51,168.31 787.177,174.31 787.5,180.5C 786.174,174.099 786.174,167.599 787.5,161C 794.346,160.179 801.013,160.346 807.5,161.5 Z"/></g>
<g><path style="opacity:1" fill="#757ae0" d="M 752.5,161.5 C 759.422,161.188 766.256,161.521 773,162.5C 773.831,198.002 773.664,233.336 772.5,268.5C 772.832,233.329 772.498,198.329 771.5,163.5C 765.355,162.51 759.022,162.177 752.5,162.5C 752.5,197.833 752.5,233.167 752.5,268.5C 752.5,268.833 752.5,269.167 752.5,269.5C 751.502,234.004 751.168,198.337 751.5,162.5C 751.5,161.833 751.833,161.5 752.5,161.5 Z"/></g>
<g><path style="opacity:1" fill="#d3d6f6" d="M 771.5,163.5 C 765.5,163.5 759.5,163.5 753.5,163.5C 753.5,198.5 753.5,233.5 753.5,268.5C 753.167,268.5 752.833,268.5 752.5,268.5C 752.5,233.167 752.5,197.833 752.5,162.5C 759.022,162.177 765.355,162.51 771.5,163.5 Z"/></g>
<g><path style="opacity:1" fill="#fdfefe" d="M 771.5,163.5 C 771.5,198.5 771.5,233.5 771.5,268.5C 765.5,268.5 759.5,268.5 753.5,268.5C 753.5,233.5 753.5,198.5 753.5,163.5C 759.5,163.5 765.5,163.5 771.5,163.5 Z"/></g>
<g><path style="opacity:1" fill="#6f7ade" d="M 788.5,162.5 C 794.645,161.51 800.978,161.177 807.5,161.5C 808.806,167.599 808.806,173.599 807.5,179.5C 807.821,173.974 807.488,168.64 806.5,163.5C 800.69,162.51 794.69,162.177 788.5,162.5 Z"/></g>
<g><path style="opacity:1" fill="#b3b8ed" d="M 788.5,162.5 C 794.69,162.177 800.69,162.51 806.5,163.5C 807.488,168.64 807.821,173.974 807.5,179.5C 801.021,180.491 794.354,180.824 787.5,180.5C 787.177,174.31 787.51,168.31 788.5,162.5 Z"/></g>
<g><path style="opacity:1" fill="#fefefe" d="M 806.5,163.5 C 806.5,168.5 806.5,173.5 806.5,178.5C 800.5,178.5 794.5,178.5 788.5,178.5C 788.5,173.5 788.5,168.5 788.5,163.5C 794.5,163.5 800.5,163.5 806.5,163.5 Z"/></g>
<g><path style="opacity:1" fill="#fcfcfe" d="M 926.5,194.5 C 926.5,199.5 926.5,204.5 926.5,209.5C 919.91,209.189 913.41,209.522 907,210.5C 906.333,222.833 906.333,235.167 907,247.5C 907.236,249.119 908.069,250.119 909.5,250.5C 909.981,253.43 911.814,254.763 915,254.5C 918.024,254.519 920.858,253.853 923.5,252.5C 923.427,254.027 924.094,255.027 925.5,255.5C 925.5,256.167 925.5,256.833 925.5,257.5C 926.06,259.801 926.56,262.134 927,264.5C 927.383,265.056 927.883,265.389 928.5,265.5C 926.815,267.818 924.481,268.818 921.5,268.5C 914.11,268.764 906.777,268.43 899.5,267.5C 893.977,264.76 890.644,260.427 889.5,254.5C 888.866,240.038 888.199,225.705 887.5,211.5C 885.107,210.79 882.607,210.123 880,209.5C 879.222,204.416 879.389,199.416 880.5,194.5C 883.167,194.5 885.833,194.5 888.5,194.5C 888.5,193.5 888.5,192.5 888.5,191.5C 890.213,190.365 890.88,188.698 890.5,186.5C 890.5,184.167 890.5,181.833 890.5,179.5C 896.075,178.548 901.741,178.214 907.5,178.5C 907.5,183.833 907.5,189.167 907.5,194.5C 913.833,194.5 920.167,194.5 926.5,194.5 Z"/></g>
<g><path style="opacity:1" fill="#7f87e2" d="M 927.5,194.5 C 927.167,194.5 926.833,194.5 926.5,194.5C 920.167,194.5 913.833,194.5 907.5,194.5C 907.5,189.167 907.5,183.833 907.5,178.5C 901.741,178.214 896.075,178.548 890.5,179.5C 890.5,178.833 890.5,178.167 890.5,177.5C 895.985,176.348 901.651,176.182 907.5,177C 908,177.5 908.5,178 909,178.5C 909.499,183.489 909.666,188.489 909.5,193.5C 915.69,193.177 921.69,193.51 927.5,194.5 Z"/></g>
<g><path style="opacity:1" fill="#c0c4f0" d="M 890.5,186.5 C 890.88,188.698 890.213,190.365 888.5,191.5C 888.12,189.302 888.787,187.635 890.5,186.5 Z"/></g>
<g><path style="opacity:1" fill="#6b71e1" d="M 890.5,177.5 C 890.5,178.167 890.5,178.833 890.5,179.5C 890.5,181.833 890.5,184.167 890.5,186.5C 888.787,187.635 888.12,189.302 888.5,191.5C 888.5,192.5 888.5,193.5 888.5,194.5C 885.833,194.5 883.167,194.5 880.5,194.5C 879.833,194.5 879.167,194.5 878.5,194.5C 881.287,193.523 884.287,193.19 887.5,193.5C 888.502,188.129 889.502,182.796 890.5,177.5 Z"/></g>
<g><path style="opacity:1" fill="#afb1ee" d="M 859.5,194.5 C 851.808,193.289 844.142,193.289 836.5,194.5C 836.611,193.883 836.944,193.383 837.5,193C 844.5,192.333 851.5,192.333 858.5,193C 859.056,193.383 859.389,193.883 859.5,194.5 Z"/></g>
<g><path style="opacity:1" fill="#fafafd" d="M 859.5,194.5 C 860.167,194.5 860.833,194.5 861.5,194.5C 861.973,195.906 862.973,196.573 864.5,196.5C 864.833,196.5 865.167,196.5 865.5,196.5C 865.973,197.906 866.973,198.573 868.5,198.5C 868.833,198.5 869.167,198.5 869.5,198.5C 869.567,199.959 869.234,201.292 868.5,202.5C 867.833,204.167 867.167,205.833 866.5,207.5C 865.094,207.973 864.427,208.973 864.5,210.5C 863.766,211.929 862.599,212.929 861,213.5C 858.915,212.876 857.082,211.876 855.5,210.5C 854.167,209.833 852.833,209.167 851.5,208.5C 850.207,207.842 848.707,207.508 847,207.5C 845.014,207.569 843.514,208.235 842.5,209.5C 841.252,210.334 840.585,211.667 840.5,213.5C 840.511,215.045 840.844,216.378 841.5,217.5C 842.262,219.262 843.596,220.262 845.5,220.5C 846.183,222.176 847.517,222.843 849.5,222.5C 851.611,223.949 853.944,224.949 856.5,225.5C 857.671,226.345 859.005,227.011 860.5,227.5C 863.242,229.05 865.909,230.883 868.5,233C 869.823,233.816 870.489,234.983 870.5,236.5C 873.474,244.368 873.141,252.035 869.5,259.5C 869.5,259.833 869.5,260.167 869.5,260.5C 867.548,261.785 865.882,263.451 864.5,265.5C 863.833,265.833 863.167,266.167 862.5,266.5C 859.076,266.57 856.076,267.736 853.5,270C 849.179,270.499 844.846,270.666 840.5,270.5C 837.797,269.037 834.797,268.204 831.5,268C 828.519,265.518 825.186,263.684 821.5,262.5C 820.833,262.167 820.167,261.833 819.5,261.5C 819.253,259.142 819.919,257.142 821.5,255.5C 821.392,253.486 822.058,251.82 823.5,250.5C 824.756,250.096 825.923,249.429 827,248.5C 827.902,248.743 828.735,249.077 829.5,249.5C 831.434,250.11 833.101,251.11 834.5,252.5C 836.607,254.652 839.274,255.652 842.5,255.5C 844.883,255.639 846.883,254.972 848.5,253.5C 849.167,253.5 849.833,253.5 850.5,253.5C 851.15,253.196 851.817,252.863 852.5,252.5C 853.652,249.894 853.818,247.227 853,244.5C 851.871,242.859 850.371,241.859 848.5,241.5C 848.167,241.5 847.833,241.5 847.5,241.5C 847.027,240.094 846.027,239.427 844.5,239.5C 842.5,238.833 840.5,238.167 838.5,237.5C 837.393,235.031 835.393,234.031 832.5,234.5C 831.738,232.738 830.404,231.738 828.5,231.5C 824.676,229.177 822.343,225.844 821.5,221.5C 821.5,217.833 821.5,214.167 821.5,210.5C 821.366,208.708 821.699,207.042 822.5,205.5C 823.263,203.632 824.263,201.965 825.5,200.5C 829.049,199.277 832.049,197.277 834.5,194.5C 835.167,194.5 835.833,194.5 836.5,194.5C 844.142,193.289 851.808,193.289 859.5,194.5 Z"/></g>
<g><path style="opacity:1" fill="#b5b8ef" d="M 714.5,196.5 C 706.167,195.167 697.833,195.167 689.5,196.5C 689.611,195.883 689.944,195.383 690.5,195C 697.833,194.333 705.167,194.333 712.5,195C 713.416,195.278 714.082,195.778 714.5,196.5 Z"/></g>
<g><path style="opacity:1" fill="#fbfbfe" d="M 714.5,196.5 C 716.685,196.704 718.685,197.37 720.5,198.5C 720.973,199.906 721.973,200.573 723.5,200.5C 727.194,203.527 730.527,206.86 733.5,210.5C 734.552,215.188 736.219,219.521 738.5,223.5C 739.732,230.024 739.732,236.691 738.5,243.5C 738.5,243.833 738.5,244.167 738.5,244.5C 737.326,245.514 736.66,246.847 736.5,248.5C 733.95,251.457 731.95,254.79 730.5,258.5C 728.878,259.122 727.545,260.122 726.5,261.5C 723.817,262.877 721.483,264.543 719.5,266.5C 718.29,266.932 717.29,267.599 716.5,268.5C 708.321,269.442 700.154,269.442 692,268.5C 687.367,266.676 682.867,264.676 678.5,262.5C 676.149,260.808 673.815,259.142 671.5,257.5C 670.699,254.565 669.366,251.899 667.5,249.5C 664.49,239.991 663.823,230.325 665.5,220.5C 665.5,219.833 665.5,219.167 665.5,218.5C 667.738,217.147 669.071,215.147 669.5,212.5C 671.822,211.198 673.155,209.198 673.5,206.5C 676.142,206.512 677.475,205.179 677.5,202.5C 680.063,201.8 682.563,200.8 685,199.5C 686.31,198.87 687.144,197.87 687.5,196.5C 688.167,196.5 688.833,196.5 689.5,196.5C 697.833,195.167 706.167,195.167 714.5,196.5 Z"/></g>
<g><path style="opacity:1" fill="#a9aeef" d="M 788.5,194.5 C 788.5,194.833 788.5,195.167 788.5,195.5C 788.5,219.833 788.5,244.167 788.5,268.5C 794.5,268.5 800.5,268.5 806.5,268.5C 806.833,268.5 807.167,268.5 807.5,268.5C 807.5,268.833 807.5,269.167 807.5,269.5C 800.833,269.5 794.167,269.5 787.5,269.5C 787.169,244.328 787.502,219.328 788.5,194.5 Z"/></g>
<g><path style="opacity:1" fill="#fefefe" d="M 788.5,195.5 C 794.5,195.5 800.5,195.5 806.5,195.5C 806.5,219.833 806.5,244.167 806.5,268.5C 800.5,268.5 794.5,268.5 788.5,268.5C 788.5,244.167 788.5,219.833 788.5,195.5 Z"/></g>
<g><path style="opacity:1" fill="#c5caf2" d="M 788.5,195.5 C 788.5,195.167 788.5,194.833 788.5,194.5C 794.833,194.5 801.167,194.5 807.5,194.5C 807.5,219.167 807.5,243.833 807.5,268.5C 807.167,268.5 806.833,268.5 806.5,268.5C 806.5,244.167 806.5,219.833 806.5,195.5C 800.5,195.5 794.5,195.5 788.5,195.5 Z"/></g>
<g><path style="opacity:1" fill="#4957d9" d="M 807.5,194.5 C 808.832,206.648 809.499,219.148 809.5,232C 809.499,244.852 808.832,257.352 807.5,269.5C 807.5,269.167 807.5,268.833 807.5,268.5C 807.5,243.833 807.5,219.167 807.5,194.5 Z"/></g>
<g><path style="opacity:1" fill="#8d91e5" d="M 861.5,194.5 C 863.027,194.427 864.027,195.094 864.5,196.5C 862.973,196.573 861.973,195.906 861.5,194.5 Z"/></g>
<g><path style="opacity:1" fill="#848be4" d="M 865.5,196.5 C 867.027,196.427 868.027,197.094 868.5,198.5C 866.973,198.573 865.973,197.906 865.5,196.5 Z"/></g>
<g><path style="opacity:1" fill="#a1a4ea" d="M 834.5,194.5 C 832.049,197.277 829.049,199.277 825.5,200.5C 827.951,197.723 830.951,195.723 834.5,194.5 Z"/></g>
<g><path style="opacity:1" fill="#9aa0e7" d="M 878.5,194.5 C 879.167,194.5 879.833,194.5 880.5,194.5C 879.389,199.416 879.222,204.416 880,209.5C 882.607,210.123 885.107,210.79 887.5,211.5C 884.5,211.5 881.5,211.5 878.5,211.5C 878.5,205.833 878.5,200.167 878.5,194.5 Z"/></g>
<g><path style="opacity:1" fill="#b8bbf0" d="M 687.5,196.5 C 687.144,197.87 686.31,198.87 685,199.5C 682.563,200.8 680.063,201.8 677.5,202.5C 680.494,200 683.827,198 687.5,196.5 Z"/></g>
<g><path style="opacity:1" fill="#6b71df" d="M 720.5,198.5 C 722.027,198.427 723.027,199.094 723.5,200.5C 721.973,200.573 720.973,199.906 720.5,198.5 Z"/></g>
<g><path style="opacity:1" fill="#676ede" d="M 869.5,198.5 C 870.124,198.917 870.457,199.584 870.5,200.5C 870.253,201.713 869.586,202.38 868.5,202.5C 869.234,201.292 869.567,199.959 869.5,198.5 Z"/></g>
<g><path style="opacity:1" fill="#babdef" d="M 677.5,202.5 C 677.475,205.179 676.142,206.512 673.5,206.5C 674.5,204.833 675.833,203.5 677.5,202.5 Z"/></g>
<g><path style="opacity:1" fill="#636bdf" d="M 822.5,205.5 C 821.699,207.042 821.366,208.708 821.5,210.5C 821.167,210.5 820.833,210.5 820.5,210.5C 820.077,208.219 820.744,206.552 822.5,205.5 Z"/></g>
<g><path style="opacity:1" fill="#b9beef" d="M 851.5,208.5 C 848.391,208.264 845.391,208.597 842.5,209.5C 843.514,208.235 845.014,207.569 847,207.5C 848.707,207.508 850.207,207.842 851.5,208.5 Z"/></g>
<g><path style="opacity:1" fill="#666dde" d="M 866.5,207.5 C 866.573,209.027 865.906,210.027 864.5,210.5C 864.427,208.973 865.094,207.973 866.5,207.5 Z"/></g>
<g><path style="opacity:1" fill="#b3b9ef" d="M 673.5,206.5 C 673.155,209.198 671.822,211.198 669.5,212.5C 670.34,210.147 671.674,208.147 673.5,206.5 Z"/></g>
<g><path style="opacity:1" fill="#5f68dd" d="M 851.5,208.5 C 852.833,209.167 854.167,209.833 855.5,210.5C 850.778,209.806 846.112,209.806 841.5,210.5C 841.5,212.833 841.5,215.167 841.5,217.5C 840.844,216.378 840.511,215.045 840.5,213.5C 840.585,211.667 841.252,210.334 842.5,209.5C 845.391,208.597 848.391,208.264 851.5,208.5 Z"/></g>
<g><path style="opacity:1" fill="#e2e4f8" d="M 926.5,209.5 C 920.433,210.185 914.266,210.851 908,211.5C 907.174,223.341 907.341,235.007 908.5,246.5C 909.434,247.568 909.768,248.901 909.5,250.5C 908.069,250.119 907.236,249.119 907,247.5C 906.333,235.167 906.333,222.833 907,210.5C 913.41,209.522 919.91,209.189 926.5,209.5 Z"/></g>
<g><path style="opacity:1" fill="#9ca2e8" d="M 820.5,210.5 C 820.833,210.5 821.167,210.5 821.5,210.5C 821.5,214.167 821.5,217.833 821.5,221.5C 819.215,218.134 818.881,214.468 820.5,210.5 Z"/></g>
<g><path style="opacity:1" fill="#7374e3" d="M 878.5,211.5 C 881.5,211.5 884.5,211.5 887.5,211.5C 888.199,225.705 888.866,240.038 889.5,254.5C 888.833,254.167 888.167,253.833 887.5,253.5C 888.149,239.459 887.482,225.792 885.5,212.5C 882.941,212.802 880.607,212.468 878.5,211.5 Z"/></g>
<g><path style="opacity:1" fill="#9ea5e8" d="M 926.5,194.5 C 926.833,194.5 927.167,194.5 927.5,194.5C 927.5,200.167 927.5,205.833 927.5,211.5C 921.242,211.19 915.076,211.524 909,212.5C 908.5,223.828 908.333,235.162 908.5,246.5C 907.341,235.007 907.174,223.341 908,211.5C 914.266,210.851 920.433,210.185 926.5,209.5C 926.5,204.5 926.5,199.5 926.5,194.5 Z"/></g>
<g><path style="opacity:1" fill="#404ed6" d="M 927.5,211.5 C 922.025,212.489 916.358,212.822 910.5,212.5C 910.5,225.167 910.5,237.833 910.5,250.5C 910.167,250.5 909.833,250.5 909.5,250.5C 909.768,248.901 909.434,247.568 908.5,246.5C 908.333,235.162 908.5,223.828 909,212.5C 915.076,211.524 921.242,211.19 927.5,211.5 Z"/></g>
<g><path style="opacity:1" fill="#9da0ea" d="M 714.5,218.5 C 712.148,217.434 709.814,216.267 707.5,215C 704.183,214.502 700.85,214.335 697.5,214.5C 696.391,214.557 695.391,214.89 694.5,215.5C 696.571,214.191 699.071,213.525 702,213.5C 707.159,213.047 711.326,214.714 714.5,218.5 Z"/></g>
<g><path style="opacity:1" fill="#0410ce" d="M 885.5,212.5 C 887.482,225.792 888.149,239.459 887.5,253.5C 886.778,253.082 886.278,252.416 886,251.5C 885.5,238.504 885.333,225.504 885.5,212.5 Z"/></g>
<g><path style="opacity:1" fill="#0f28d0" d="M 697.5,214.5 C 700.85,214.335 704.183,214.502 707.5,215C 709.814,216.267 712.148,217.434 714.5,218.5C 716.222,221.336 717.556,224.336 718.5,227.5C 719.62,231.472 719.62,235.472 718.5,239.5C 718.5,240.167 718.5,240.833 718.5,241.5C 716.215,243.118 714.215,245.118 712.5,247.5C 711.167,248.167 709.833,248.833 708.5,249.5C 705.518,249.963 702.518,250.296 699.5,250.5C 687.629,247.958 682.295,240.624 683.5,228.5C 685.867,225.448 687.867,222.115 689.5,218.5C 692.501,217.666 695.168,216.333 697.5,214.5 Z"/></g>
<g><path style="opacity:1" fill="#8b90e5" d="M 669.5,212.5 C 669.071,215.147 667.738,217.147 665.5,218.5C 666.298,216.034 667.631,214.034 669.5,212.5 Z"/></g>
<g><path style="opacity:1" fill="#5c65dd" d="M 697.5,214.5 C 695.168,216.333 692.501,217.666 689.5,218.5C 690.67,216.721 692.336,215.721 694.5,215.5C 695.391,214.89 696.391,214.557 697.5,214.5 Z"/></g>
<g><path style="opacity:1" fill="#8990e6" d="M 845.5,220.5 C 846.995,220.989 848.329,221.655 849.5,222.5C 847.517,222.843 846.183,222.176 845.5,220.5 Z"/></g>
<g><path style="opacity:1" fill="#6a70df" d="M 689.5,218.5 C 687.867,222.115 685.867,225.448 683.5,228.5C 683.557,227.391 683.89,226.391 684.5,225.5C 685.273,222.484 686.939,220.15 689.5,218.5 Z"/></g>
<g><path style="opacity:1" fill="#8085e4" d="M 714.5,218.5 C 717.061,220.15 718.727,222.484 719.5,225.5C 720.11,226.391 720.443,227.391 720.5,228.5C 719.833,228.167 719.167,227.833 718.5,227.5C 717.556,224.336 716.222,221.336 714.5,218.5 Z"/></g>
<g><path style="opacity:1" fill="#b9bcef" d="M 733.5,210.5 C 736.125,213.698 737.791,217.365 738.5,221.5C 738.5,222.167 738.5,222.833 738.5,223.5C 736.219,219.521 734.552,215.188 733.5,210.5 Z"/></g>
<g><path style="opacity:1" fill="#5f65dd" d="M 856.5,225.5 C 858.483,225.157 859.817,225.824 860.5,227.5C 859.005,227.011 857.671,226.345 856.5,225.5 Z"/></g>
<g><path style="opacity:1" fill="#9a9de9" d="M 665.5,220.5 C 663.823,230.325 664.49,239.991 667.5,249.5C 667.167,249.5 666.833,249.5 666.5,249.5C 663.565,240.448 662.732,231.115 664,221.5C 664.383,220.944 664.883,220.611 665.5,220.5 Z"/></g>
<g><path style="opacity:1" fill="#9396e8" d="M 738.5,221.5 C 739.117,221.611 739.617,221.944 740,222.5C 740.667,228.833 740.667,235.167 740,241.5C 739.722,242.416 739.222,243.082 738.5,243.5C 739.732,236.691 739.732,230.024 738.5,223.5C 738.5,222.833 738.5,222.167 738.5,221.5 Z"/></g>
<g><path style="opacity:1" fill="#4f5cda" d="M 718.5,227.5 C 719.167,227.833 719.833,228.167 720.5,228.5C 720.677,232.234 720.344,235.901 719.5,239.5C 719.167,239.5 718.833,239.5 718.5,239.5C 719.62,235.472 719.62,231.472 718.5,227.5 Z"/></g>
<g><path style="opacity:1" fill="#a7aaeb" d="M 828.5,231.5 C 830.404,231.738 831.738,232.738 832.5,234.5C 830.596,234.262 829.262,233.262 828.5,231.5 Z"/></g>
<g><path style="opacity:1" fill="#bcc2f0" d="M 719.5,225.5 C 720.8,227.223 721.467,229.39 721.5,232C 721.333,234.167 721.167,236.333 721,238.5C 720.617,239.056 720.117,239.389 719.5,239.5C 720.344,235.901 720.677,232.234 720.5,228.5C 720.443,227.391 720.11,226.391 719.5,225.5 Z"/></g>
<g><path style="opacity:1" fill="#b9bbef" d="M 832.5,234.5 C 835.393,234.031 837.393,235.031 838.5,237.5C 836.181,237.008 834.181,236.008 832.5,234.5 Z"/></g>
<g><path style="opacity:1" fill="#a0a5e9" d="M 844.5,239.5 C 846.027,239.427 847.027,240.094 847.5,241.5C 845.973,241.573 844.973,240.906 844.5,239.5 Z"/></g>
<g><path style="opacity:1" fill="#aeb0ed" d="M 848.5,241.5 C 850.371,241.859 851.871,242.859 853,244.5C 853.818,247.227 853.652,249.894 852.5,252.5C 851.817,252.863 851.15,253.196 850.5,253.5C 852.137,251.077 852.637,248.41 852,245.5C 850.624,244.295 849.458,242.962 848.5,241.5 Z"/></g>
<g><path style="opacity:1" fill="#acafed" d="M 684.5,225.5 C 683.89,226.391 683.557,227.391 683.5,228.5C 682.295,240.624 687.629,247.958 699.5,250.5C 699.5,250.833 699.5,251.167 699.5,251.5C 688.057,249.725 682.391,243.058 682.5,231.5C 682.539,229.048 683.206,227.048 684.5,225.5 Z"/></g>
<g><path style="opacity:1" fill="#5e6add" d="M 825.5,246.5 C 826.779,245.285 827.779,245.618 828.5,247.5C 827.391,247.443 826.391,247.11 825.5,246.5 Z"/></g>
<g><path style="opacity:1" fill="#babeef" d="M 870.5,236.5 C 872.104,237.287 872.771,238.62 872.5,240.5C 873.373,244.768 873.706,249.102 873.5,253.5C 872.677,255.805 871.344,257.805 869.5,259.5C 873.141,252.035 873.474,244.368 870.5,236.5 Z"/></g>
<g><path style="opacity:1" fill="#6e77df" d="M 872.5,240.5 C 873.117,240.611 873.617,240.944 874,241.5C 874.812,245.689 874.645,249.689 873.5,253.5C 873.706,249.102 873.373,244.768 872.5,240.5 Z"/></g>
<g><path style="opacity:1" fill="#8387e3" d="M 718.5,241.5 C 717.478,244.522 715.478,246.522 712.5,247.5C 714.215,245.118 716.215,243.118 718.5,241.5 Z"/></g>
<g><path style="opacity:1" fill="#868ee5" d="M 738.5,244.5 C 738.771,246.38 738.104,247.713 736.5,248.5C 736.66,246.847 737.326,245.514 738.5,244.5 Z"/></g>
<g><path style="opacity:1" fill="#b3b7ee" d="M 825.5,246.5 C 826.391,247.11 827.391,247.443 828.5,247.5C 829.338,247.842 829.672,248.508 829.5,249.5C 828.735,249.077 827.902,248.743 827,248.5C 825.923,249.429 824.756,250.096 823.5,250.5C 823.989,249.005 824.655,247.671 825.5,246.5 Z"/></g>
<g><path style="opacity:1" fill="#717be0" d="M 708.5,249.5 C 705.877,251.265 702.877,251.932 699.5,251.5C 699.5,251.167 699.5,250.833 699.5,250.5C 702.518,250.296 705.518,249.963 708.5,249.5 Z"/></g>
<g><path style="opacity:1" fill="#484ad8" d="M 666.5,249.5 C 666.833,249.5 667.167,249.5 667.5,249.5C 669.366,251.899 670.699,254.565 671.5,257.5C 668.6,255.601 666.934,252.934 666.5,249.5 Z"/></g>
<g><path style="opacity:1" fill="#bec0f1" d="M 909.5,250.5 C 909.833,250.5 910.167,250.5 910.5,250.5C 911.078,252.38 912.412,253.38 914.5,253.5C 916.754,253.069 918.921,252.403 921,251.5C 922.07,251.528 922.903,251.861 923.5,252.5C 920.858,253.853 918.024,254.519 915,254.5C 911.814,254.763 909.981,253.43 909.5,250.5 Z"/></g>
<g><path style="opacity:1" fill="#999de7" d="M 834.5,252.5 C 839.103,253.383 843.77,253.717 848.5,253.5C 846.883,254.972 844.883,255.639 842.5,255.5C 839.274,255.652 836.607,254.652 834.5,252.5 Z"/></g>
<g><path style="opacity:1" fill="#848ce3" d="M 923.5,252.5 C 924.906,252.973 925.573,253.973 925.5,255.5C 924.094,255.027 923.427,254.027 923.5,252.5 Z"/></g>
<g><path style="opacity:1" fill="#a3a5eb" d="M 736.5,248.5 C 735.421,252.428 733.421,255.761 730.5,258.5C 731.95,254.79 733.95,251.457 736.5,248.5 Z"/></g>
<g><path style="opacity:1" fill="#7880e2" d="M 821.5,255.5 C 819.919,257.142 819.253,259.142 819.5,261.5C 818.624,261.631 817.957,261.298 817.5,260.5C 818.098,259.205 818.598,257.872 819,256.5C 819.671,255.748 820.504,255.414 821.5,255.5 Z"/></g>
<g><path style="opacity:1" fill="#6c68e0" d="M 730.5,258.5 C 729.952,260.532 728.619,261.532 726.5,261.5C 727.545,260.122 728.878,259.122 730.5,258.5 Z"/></g>
<g><path style="opacity:1" fill="#b9bcef" d="M 821.5,262.5 C 825.186,263.684 828.519,265.518 831.5,268C 834.797,268.204 837.797,269.037 840.5,270.5C 838.435,270.483 836.435,270.15 834.5,269.5C 829.211,268.855 824.877,266.522 821.5,262.5 Z"/></g>
<g><path style="opacity:1" fill="#bec0f0" d="M 925.5,257.5 C 927.104,258.287 927.771,259.62 927.5,261.5C 927.833,262.833 928.167,264.167 928.5,265.5C 927.883,265.389 927.383,265.056 927,264.5C 926.56,262.134 926.06,259.801 925.5,257.5 Z"/></g>
<g><path style="opacity:1" fill="#a8adec" d="M 726.5,261.5 C 725.049,264.268 722.716,265.935 719.5,266.5C 721.483,264.543 723.817,262.877 726.5,261.5 Z"/></g>
<g><path style="opacity:1" fill="#5f59dc" d="M 869.5,260.5 C 868.922,263.37 867.255,265.037 864.5,265.5C 865.882,263.451 867.548,261.785 869.5,260.5 Z"/></g>
<g><path style="opacity:1" fill="#a8aaec" d="M 771.5,163.5 C 772.498,198.329 772.832,233.329 772.5,268.5C 772.5,268.833 772.5,269.167 772.5,269.5C 772.167,269.5 771.833,269.5 771.5,269.5C 765.167,269.5 758.833,269.5 752.5,269.5C 752.5,269.167 752.5,268.833 752.5,268.5C 752.833,268.5 753.167,268.5 753.5,268.5C 759.5,268.5 765.5,268.5 771.5,268.5C 771.5,233.5 771.5,198.5 771.5,163.5 Z"/></g>
<g><path style="opacity:1" fill="#dbddf6" d="M 899.5,267.5 C 906.777,268.43 914.11,268.764 921.5,268.5C 921.389,269.117 921.056,269.617 920.5,270C 914.782,270.74 909.115,270.573 903.5,269.5C 901.62,269.771 900.287,269.104 899.5,267.5 Z"/></g>
<g><path style="opacity:1" fill="#c5c7f2" d="M 678.5,262.5 C 682.867,264.676 687.367,266.676 692,268.5C 700.154,269.442 708.321,269.442 716.5,268.5C 713.997,269.371 711.33,270.037 708.5,270.5C 702.773,270.74 697.106,270.407 691.5,269.5C 690.127,269.657 688.793,269.49 687.5,269C 684.334,266.916 681.334,264.75 678.5,262.5 Z"/></g>
<g><path style="opacity:1" fill="#7c80e3" d="M 691.5,269.5 C 697.106,270.407 702.773,270.74 708.5,270.5C 703.35,271.651 698.016,271.817 692.5,271C 691.944,270.617 691.611,270.117 691.5,269.5 Z"/></g>
<g><path style="opacity:1" fill="#8185e4" d="M 862.5,266.5 C 860,268.136 857.334,269.636 854.5,271C 848.167,271.667 841.833,271.667 835.5,271C 834.944,270.617 834.611,270.117 834.5,269.5C 836.435,270.15 838.435,270.483 840.5,270.5C 844.846,270.666 849.179,270.499 853.5,270C 856.076,267.736 859.076,266.57 862.5,266.5 Z"/></g>
<g><path style="opacity:1" fill="#797fe3" d="M 927.5,261.5 C 929.616,263.088 929.949,265.088 928.5,267.5C 921.055,271.373 913.055,272.539 904.5,271C 903.944,270.617 903.611,270.117 903.5,269.5C 909.115,270.573 914.782,270.74 920.5,270C 921.056,269.617 921.389,269.117 921.5,268.5C 924.481,268.818 926.815,267.818 928.5,265.5C 928.167,264.167 927.833,262.833 927.5,261.5 Z"/></g>
</svg>
