<?xml version="1.0" encoding="UTF-8"?>
<!DOCTYPE svg PUBLIC "-//W3C//DTD SVG 1.1//EN" "http://www.w3.org/Graphics/SVG/1.1/DTD/svg11.dtd">
<svg xmlns="http://www.w3.org/2000/svg" version="1.1" width="1594px" height="443px" style="shape-rendering:geometricPrecision; text-rendering:geometricPrecision; image-rendering:optimizeQuality; fill-rule:evenodd; clip-rule:evenodd" xmlns:xlink="http://www.w3.org/1999/xlink">
<g><path style="opacity:1" fill="#ec4d2d" d="M -0.5,-0.5 C 530.833,-0.5 1062.17,-0.5 1593.5,-0.5C 1593.5,147.167 1593.5,294.833 1593.5,442.5C 1062.17,442.5 530.833,442.5 -0.5,442.5C -0.5,294.833 -0.5,147.167 -0.5,-0.5 Z"/></g>
<g><path style="opacity:1" fill="#e96950" d="M 549.5,106.5 C 548.5,107.167 547.5,107.833 546.5,108.5C 545.127,108.343 543.793,108.51 542.5,109C 540.595,110.421 538.595,111.588 536.5,112.5C 538.385,110.947 539.385,108.947 539.5,106.5C 542.833,106.5 546.167,106.5 549.5,106.5 Z"/></g>
<g><path style="opacity:1" fill="#e55d3f" d="M 586.5,118.5 C 583.527,116.853 580.86,114.853 578.5,112.5C 576.879,110.058 574.546,108.725 571.5,108.5C 564.267,106.969 556.933,106.302 549.5,106.5C 549.611,105.883 549.944,105.383 550.5,105C 558.302,103.85 565.802,104.683 573,107.5C 575.235,106.55 577.402,106.55 579.5,107.5C 578.674,108.451 578.508,109.451 579,110.5C 581.248,111.664 583.414,112.997 585.5,114.5C 586.246,115.736 586.579,117.07 586.5,118.5 Z"/></g>
<g><path style="opacity:1" fill="#fee8dd" d="M 549.5,106.5 C 556.933,106.302 564.267,106.969 571.5,108.5C 572.59,109.857 573.924,110.857 575.5,111.5C 568.025,110.09 560.525,108.757 553,107.5C 550.863,108.077 548.696,108.41 546.5,108.5C 547.5,107.833 548.5,107.167 549.5,106.5 Z"/></g>
<g><path style="opacity:1" fill="#ee8774" d="M 571.5,108.5 C 574.546,108.725 576.879,110.058 578.5,112.5C 577.391,112.443 576.391,112.11 575.5,111.5C 573.924,110.857 572.59,109.857 571.5,108.5 Z"/></g>
<g><path style="opacity:1" fill="#fcc8b4" d="M 536.5,112.5 C 535.415,114.587 533.749,115.92 531.5,116.5C 532.585,114.413 534.251,113.08 536.5,112.5 Z"/></g>
<g><path style="opacity:1" fill="#f3a893" d="M 531.5,116.5 C 530.167,118.5 528.5,120.167 526.5,121.5C 527.167,118.833 528.833,117.167 531.5,116.5 Z"/></g>
<g><path style="opacity:1" fill="#fefdfc" d="M 575.5,111.5 C 576.391,112.11 577.391,112.443 578.5,112.5C 580.86,114.853 583.527,116.853 586.5,118.5C 587.167,119.5 587.833,120.5 588.5,121.5C 588.738,123.404 589.738,124.738 591.5,125.5C 591.427,127.027 592.094,128.027 593.5,128.5C 593.557,129.609 593.89,130.609 594.5,131.5C 595.88,138.152 597.38,144.819 599,151.5C 599.383,152.056 599.883,152.389 600.5,152.5C 600.5,152.833 600.5,153.167 600.5,153.5C 614.327,154.331 628.327,154.831 642.5,155C 643.451,158.057 643.784,161.223 643.5,164.5C 643.5,169.167 643.5,173.833 643.5,178.5C 643.821,183.695 643.487,188.695 642.5,193.5C 641.184,196.087 640.517,199.087 640.5,202.5C 639.694,215.822 639.361,229.155 639.5,242.5C 639.5,247.167 639.5,251.833 639.5,256.5C 638.791,267.371 638.124,278.371 637.5,289.5C 635.773,292.602 633.773,295.602 631.5,298.5C 629.181,298.992 627.181,299.992 625.5,301.5C 624.833,301.5 624.167,301.5 623.5,301.5C 577.81,301.813 532.143,301.48 486.5,300.5C 483.478,299.478 481.478,297.478 480.5,294.5C 481.535,292.431 480.868,290.765 478.5,289.5C 477.5,275.511 476.667,261.511 476,247.5C 475.79,245.942 475.29,244.609 474.5,243.5C 474.014,235.842 473.68,228.175 473.5,220.5C 473.247,202.97 472.247,185.636 470.5,168.5C 470.334,163.821 470.501,159.155 471,154.5C 471.383,153.944 471.883,153.611 472.5,153.5C 486.677,153.829 500.677,153.496 514.5,152.5C 515.139,148.184 516.139,143.851 517.5,139.5C 518.362,136.102 520.362,134.602 523.5,135C 522.139,133.416 521.472,131.582 521.5,129.5C 522.5,129.5 523.5,129.5 524.5,129.5C 524.287,126.549 524.954,123.882 526.5,121.5C 528.5,120.167 530.167,118.5 531.5,116.5C 533.749,115.92 535.415,114.587 536.5,112.5C 538.595,111.588 540.595,110.421 542.5,109C 543.793,108.51 545.127,108.343 546.5,108.5C 548.696,108.41 550.863,108.077 553,107.5C 560.525,108.757 568.025,110.09 575.5,111.5 Z"/></g>
<g><path style="opacity:1" fill="#e5705d" d="M 563.5,119.5 C 556.573,118.964 549.906,119.964 543.5,122.5C 544.768,120.953 546.435,119.953 548.5,119.5C 553.631,118.249 558.631,118.249 563.5,119.5 Z"/></g>
<g><path style="opacity:1" fill="#fbd7cb" d="M 574.5,124.5 C 571.252,122.045 567.585,120.378 563.5,119.5C 558.631,118.249 553.631,118.249 548.5,119.5C 549.152,118.275 550.319,117.608 552,117.5C 557.988,116.021 563.822,116.521 569.5,119C 571.715,120.379 573.381,122.213 574.5,124.5 Z"/></g>
<g><path style="opacity:1" fill="#f7b3a2" d="M 588.5,121.5 C 590.262,122.262 591.262,123.596 591.5,125.5C 589.738,124.738 588.738,123.404 588.5,121.5 Z"/></g>
<g><path style="opacity:1" fill="#f3aa9b" d="M 574.5,124.5 C 577.167,125.167 578.833,126.833 579.5,129.5C 577.5,128.167 575.833,126.5 574.5,124.5 Z"/></g>
<g><path style="opacity:1" fill="#f3a997" d="M 591.5,125.5 C 592.906,125.973 593.573,126.973 593.5,128.5C 592.094,128.027 591.427,127.027 591.5,125.5 Z"/></g>
<g><path style="opacity:1" fill="#e4593c" d="M 543.5,122.5 C 543.574,124.411 544.574,125.578 546.5,126C 542.702,126.94 539.035,128.107 535.5,129.5C 537.569,126.427 540.236,124.094 543.5,122.5 Z"/></g>
<g><path style="opacity:1" fill="#ed4c2d" d="M 563.5,119.5 C 567.585,120.378 571.252,122.045 574.5,124.5C 575.833,126.5 577.5,128.167 579.5,129.5C 581.95,131.629 583.617,134.296 584.5,137.5C 584.5,138.167 584.5,138.833 584.5,139.5C 584.848,143.557 585.514,147.557 586.5,151.5C 567.167,151.5 547.833,151.5 528.5,151.5C 528.5,149.833 528.5,148.167 528.5,146.5C 529.546,142.076 530.879,137.743 532.5,133.5C 533.906,133.027 534.573,132.027 534.5,130.5C 534.5,129.833 534.833,129.5 535.5,129.5C 539.035,128.107 542.702,126.94 546.5,126C 544.574,125.578 543.574,124.411 543.5,122.5C 549.906,119.964 556.573,118.964 563.5,119.5 Z"/></g>
<g><path style="opacity:1" fill="#e29584" d="M 593.5,128.5 C 594.906,128.973 595.573,129.973 595.5,131.5C 595.167,131.5 594.833,131.5 594.5,131.5C 593.89,130.609 593.557,129.609 593.5,128.5 Z"/></g>
<g><path style="opacity:1" fill="#e98e7c" d="M 534.5,130.5 C 534.573,132.027 533.906,133.027 532.5,133.5C 532.427,131.973 533.094,130.973 534.5,130.5 Z"/></g>
<g><path style="opacity:1" fill="#fee2d9" d="M 526.5,121.5 C 524.954,123.882 524.287,126.549 524.5,129.5C 523.5,129.5 522.5,129.5 521.5,129.5C 521.472,131.582 522.139,133.416 523.5,135C 520.362,134.602 518.362,136.102 517.5,139.5C 517.5,138.833 517.5,138.167 517.5,137.5C 518.748,131.115 521.748,125.782 526.5,121.5 Z"/></g>
<g><path style="opacity:1" fill="#fde0d2" d="M 594.5,131.5 C 594.833,131.5 595.167,131.5 595.5,131.5C 595.5,131.833 595.5,132.167 595.5,132.5C 598.685,138.747 600.351,145.414 600.5,152.5C 599.883,152.389 599.383,152.056 599,151.5C 597.38,144.819 595.88,138.152 594.5,131.5 Z"/></g>
<g><path style="opacity:1" fill="#f6ad9b" d="M 584.5,137.5 C 586.655,139.617 587.655,142.284 587.5,145.5C 586.5,143.5 585.5,141.5 584.5,139.5C 584.5,138.833 584.5,138.167 584.5,137.5 Z"/></g>
<g><path style="opacity:1" fill="#f5ae9b" d="M 517.5,137.5 C 517.5,138.167 517.5,138.833 517.5,139.5C 516.139,143.851 515.139,148.184 514.5,152.5C 514.5,150.833 514.5,149.167 514.5,147.5C 514.32,143.714 515.32,140.381 517.5,137.5 Z"/></g>
<g><path style="opacity:1" fill="#e65940" d="M 513.5,151.5 C 499.833,152.167 486.167,152.833 472.5,153.5C 471.883,153.611 471.383,153.944 471,154.5C 470.501,159.155 470.334,163.821 470.5,168.5C 468.526,163.724 468.192,158.724 469.5,153.5C 470.308,153.192 470.975,152.692 471.5,152C 485.496,151.5 499.496,151.333 513.5,151.5 Z"/></g>
<g><path style="opacity:1" fill="#e5553b" d="M 584.5,139.5 C 585.5,141.5 586.5,143.5 587.5,145.5C 587.5,145.833 587.5,146.167 587.5,146.5C 587.5,148.5 587.5,150.5 587.5,152.5C 567.5,152.5 547.5,152.5 527.5,152.5C 527.205,150.265 527.539,148.265 528.5,146.5C 528.5,148.167 528.5,149.833 528.5,151.5C 547.833,151.5 567.167,151.5 586.5,151.5C 585.514,147.557 584.848,143.557 584.5,139.5 Z"/></g>
<g><path style="opacity:1" fill="#e8634b" d="M 595.5,132.5 C 601.038,137.519 603.038,143.852 601.5,151.5C 615.171,151.333 628.837,151.5 642.5,152C 643.056,152.383 643.389,152.883 643.5,153.5C 629.167,153.5 614.833,153.5 600.5,153.5C 600.5,153.167 600.5,152.833 600.5,152.5C 600.351,145.414 598.685,138.747 595.5,132.5 Z"/></g>
<g><path style="opacity:1" fill="#ea816f" d="M 514.5,147.5 C 514.5,149.167 514.5,150.833 514.5,152.5C 500.677,153.496 486.677,153.829 472.5,153.5C 486.167,152.833 499.833,152.167 513.5,151.5C 513.232,149.901 513.566,148.568 514.5,147.5 Z"/></g>
<g><path style="opacity:1" fill="#ec8674" d="M 532.5,133.5 C 530.879,137.743 529.546,142.076 528.5,146.5C 527.539,148.265 527.205,150.265 527.5,152.5C 547.5,152.5 567.5,152.5 587.5,152.5C 587.5,150.5 587.5,148.5 587.5,146.5C 588.468,148.607 588.802,150.941 588.5,153.5C 567.833,153.5 547.167,153.5 526.5,153.5C 526.335,150.482 526.502,147.482 527,144.5C 528.188,140.387 530.021,136.72 532.5,133.5 Z"/></g>
<g><path style="opacity:1" fill="#fcd3c8" d="M 600.5,153.5 C 614.833,153.5 629.167,153.5 643.5,153.5C 643.833,154.167 644.167,154.833 644.5,155.5C 644.81,158.713 644.477,161.713 643.5,164.5C 643.784,161.223 643.451,158.057 642.5,155C 628.327,154.831 614.327,154.331 600.5,153.5 Z"/></g>
<g><path style="opacity:1" fill="#e9735c" d="M 731.5,176.5 C 729.901,176.768 728.568,176.434 727.5,175.5C 720.217,173.551 712.884,173.217 705.5,174.5C 705.167,174.5 704.833,174.5 704.5,174.5C 704.167,174.5 703.833,174.5 703.5,174.5C 703.611,173.883 703.944,173.383 704.5,173C 713.109,172.022 721.609,172.522 730,174.5C 731.03,174.836 731.53,175.503 731.5,176.5 Z"/></g>
<g><path style="opacity:1" fill="#ee836f" d="M 644.5,155.5 C 645.346,162.998 645.346,170.665 644.5,178.5C 644.167,178.5 643.833,178.5 643.5,178.5C 643.5,173.833 643.5,169.167 643.5,164.5C 644.477,161.713 644.81,158.713 644.5,155.5 Z"/></g>
<g><path style="opacity:1" fill="#fee1d4" d="M 705.5,174.5 C 712.884,173.217 720.217,173.551 727.5,175.5C 720.146,175.521 712.813,175.187 705.5,174.5 Z"/></g>
<g><path style="opacity:1" fill="#f4bda5" d="M 703.5,174.5 C 703.833,174.5 704.167,174.5 704.5,174.5C 702.898,176.074 700.898,176.741 698.5,176.5C 699.78,175.069 701.447,174.402 703.5,174.5 Z"/></g>
<g><path style="opacity:1" fill="#ef9788" d="M 562.5,178.5 C 558.298,178.183 554.298,178.517 550.5,179.5C 549.167,179.5 547.833,179.5 546.5,179.5C 549.356,177.994 552.523,177.328 556,177.5C 558.361,177.504 560.527,177.837 562.5,178.5 Z"/></g>
<g><path style="opacity:1" fill="#eb6f5a" d="M 550.5,179.5 C 554.298,178.517 558.298,178.183 562.5,178.5C 566.078,178.549 569.411,179.215 572.5,180.5C 565.183,179.882 557.849,179.549 550.5,179.5 Z"/></g>
<g><path style="opacity:1" fill="#e87763" d="M 737.5,178.5 C 740.313,178.025 742.313,179.025 743.5,181.5C 741.033,181.245 739.033,180.245 737.5,178.5 Z"/></g>
<g><path style="opacity:1" fill="#e1755c" d="M 546.5,179.5 C 544.572,181.294 542.238,182.294 539.5,182.5C 541.185,180.182 543.519,179.182 546.5,179.5 Z"/></g>
<g><path style="opacity:1" fill="#e7583b" d="M 760.5,173.5 C 764.9,172.177 769.4,172.177 774,173.5C 774.5,187.163 774.667,200.829 774.5,214.5C 775.833,214.5 777.167,214.5 778.5,214.5C 778.158,215.338 777.492,215.672 776.5,215.5C 775.5,215.5 774.5,215.5 773.5,215.5C 773.829,201.656 773.496,187.99 772.5,174.5C 768.702,173.517 764.702,173.183 760.5,173.5 Z"/></g>
<g><path style="opacity:1" fill="#dc6d57" d="M 760.5,173.5 C 759.507,208.094 759.174,242.76 759.5,277.5C 758.833,260.337 758.5,243.003 758.5,225.5C 758.5,207.82 759.167,190.487 760.5,173.5 Z"/></g>
<g><path style="opacity:1" fill="#e77865" d="M 772.5,174.5 C 773.496,187.99 773.829,201.656 773.5,215.5C 774.5,215.5 775.5,215.5 776.5,215.5C 775.713,217.104 774.38,217.771 772.5,217.5C 772.5,203.167 772.5,188.833 772.5,174.5 Z"/></g>
<g><path style="opacity:1" fill="#f39b8a" d="M 470.5,168.5 C 472.247,185.636 473.247,202.97 473.5,220.5C 473.167,220.5 472.833,220.5 472.5,220.5C 471.174,203.349 470.507,186.016 470.5,168.5 Z"/></g>
<g><path style="opacity:1" fill="#eb745e" d="M 572.5,180.5 C 576.04,181.387 579.373,182.721 582.5,184.5C 582.5,184.833 582.5,185.167 582.5,185.5C 580.712,185.785 579.045,185.452 577.5,184.5C 575.799,183.165 574.132,181.832 572.5,180.5 Z"/></g>
<g><path style="opacity:1" fill="#f18a79" d="M 744.5,186.5 C 744.262,188.404 743.262,189.738 741.5,190.5C 741.738,188.596 742.738,187.262 744.5,186.5 Z"/></g>
<g><path style="opacity:1" fill="#e9846c" d="M 533.5,187.5 C 533.262,189.404 532.262,190.738 530.5,191.5C 530.738,189.596 531.738,188.262 533.5,187.5 Z"/></g>
<g><path style="opacity:1" fill="#eb4e2f" d="M 546.5,179.5 C 547.833,179.5 549.167,179.5 550.5,179.5C 557.849,179.549 565.183,179.882 572.5,180.5C 574.132,181.832 575.799,183.165 577.5,184.5C 579.045,185.452 580.712,185.785 582.5,185.5C 583.695,185.866 584.361,186.699 584.5,188C 583.685,189.643 582.685,191.143 581.5,192.5C 580.167,192.167 578.833,191.833 577.5,191.5C 576.167,191.167 574.833,190.833 573.5,190.5C 572.087,189.065 570.42,188.065 568.5,187.5C 563.245,185.476 557.911,185.143 552.5,186.5C 551.5,186.5 550.5,186.5 549.5,186.5C 546.833,186.5 544.167,186.5 541.5,186.5C 541.5,187.833 541.5,189.167 541.5,190.5C 540.178,190.67 539.011,190.337 538,189.5C 538.019,191.107 538.185,192.774 538.5,194.5C 536.023,199.262 535.856,204.262 538,209.5C 538.383,210.056 538.883,210.389 539.5,210.5C 542.601,213.285 545.935,215.618 549.5,217.5C 550.429,218.315 551.429,219.148 552.5,220C 556.84,221.282 561.173,222.449 565.5,223.5C 568.457,224.823 571.457,226.157 574.5,227.5C 577.598,229.416 580.598,231.583 583.5,234C 585.141,235.129 586.141,236.629 586.5,238.5C 587.307,244.464 587.64,250.464 587.5,256.5C 587.5,257.167 587.5,257.833 587.5,258.5C 587.5,258.833 587.5,259.167 587.5,259.5C 586.094,259.973 585.427,260.973 585.5,262.5C 583.167,265.5 580.5,268.167 577.5,270.5C 575.456,271.508 573.456,272.508 571.5,273.5C 564.52,274.165 557.52,274.498 550.5,274.5C 547.497,272.738 544.163,271.572 540.5,271C 542.137,270.399 543.803,269.899 545.5,269.5C 547.59,271.106 549.924,271.606 552.5,271C 550.5,270 548.5,269 546.5,268C 547.793,267.51 549.127,267.343 550.5,267.5C 556.667,267.899 562.667,267.232 568.5,265.5C 570.989,265.759 572.656,264.759 573.5,262.5C 575.404,262.262 576.738,261.262 577.5,259.5C 579.614,258.64 580.78,256.973 581,254.5C 581.667,251.167 581.667,247.833 581,244.5C 580.617,243.944 580.117,243.611 579.5,243.5C 578.833,242.833 578.167,242.167 577.5,241.5C 576.833,238.833 575.167,237.167 572.5,236.5C 569.446,232.803 565.446,230.803 560.5,230.5C 560.167,230.5 559.833,230.5 559.5,230.5C 556.691,228.103 553.358,226.77 549.5,226.5C 549.167,226.5 548.833,226.5 548.5,226.5C 546.967,224.755 544.967,223.755 542.5,223.5C 541.508,223.672 540.842,223.338 540.5,222.5C 539.089,220.086 537.089,218.419 534.5,217.5C 533.5,215.833 532.167,214.5 530.5,213.5C 530.5,212.833 530.167,212.5 529.5,212.5C 527.255,206.624 526.922,200.624 528.5,194.5C 529.906,194.027 530.573,193.027 530.5,191.5C 532.262,190.738 533.262,189.404 533.5,187.5C 534.911,185.086 536.911,183.419 539.5,182.5C 542.238,182.294 544.572,181.294 546.5,179.5 Z"/></g>
<g><path style="opacity:1" fill="#fccfc2" d="M 549.5,186.5 C 550.5,186.5 551.5,186.5 552.5,186.5C 557.854,186.569 563.187,186.902 568.5,187.5C 570.42,188.065 572.087,189.065 573.5,190.5C 563.884,187.199 554.217,186.865 544.5,189.5C 546.072,188.313 547.739,187.313 549.5,186.5 Z"/></g>
<g><path style="opacity:1" fill="#ed7964" d="M 552.5,186.5 C 557.911,185.143 563.245,185.476 568.5,187.5C 563.187,186.902 557.854,186.569 552.5,186.5 Z"/></g>
<g><path style="opacity:1" fill="#e85d41" d="M 549.5,186.5 C 547.739,187.313 546.072,188.313 544.5,189.5C 542.208,190.79 540.208,192.457 538.5,194.5C 538.185,192.774 538.019,191.107 538,189.5C 539.011,190.337 540.178,190.67 541.5,190.5C 541.5,189.167 541.5,187.833 541.5,186.5C 544.167,186.5 546.833,186.5 549.5,186.5 Z"/></g>
<g><path style="opacity:1" fill="#f5a494" d="M 694.5,178.5 C 690.805,182.526 687.138,186.526 683.5,190.5C 685.777,185.223 689.444,181.223 694.5,178.5 Z"/></g>
<g><path style="opacity:1" fill="#fcd3ca" d="M 582.5,185.5 C 582.5,185.167 582.5,184.833 582.5,184.5C 584.89,184.685 585.89,186.018 585.5,188.5C 585.166,190.992 583.833,192.659 581.5,193.5C 581.5,193.167 581.5,192.833 581.5,192.5C 582.685,191.143 583.685,189.643 584.5,188C 584.361,186.699 583.695,185.866 582.5,185.5 Z"/></g>
<g><path style="opacity:1" fill="#e58471" d="M 577.5,191.5 C 578.833,191.833 580.167,192.167 581.5,192.5C 581.5,192.833 581.5,193.167 581.5,193.5C 579.62,193.771 578.287,193.104 577.5,191.5 Z"/></g>
<g><path style="opacity:1" fill="#e35a41" d="M 643.5,178.5 C 643.833,178.5 644.167,178.5 644.5,178.5C 644.666,186.174 644.5,193.841 644,201.5C 643.809,203.708 643.309,205.708 642.5,207.5C 642.5,202.833 642.5,198.167 642.5,193.5C 643.487,188.695 643.821,183.695 643.5,178.5 Z"/></g>
<g><path style="opacity:1" fill="#f17e65" d="M 741.5,190.5 C 741.5,191.5 741.5,192.5 741.5,193.5C 739.265,193.795 737.265,193.461 735.5,192.5C 737.858,192.747 739.858,192.081 741.5,190.5 Z"/></g>
<g><path style="opacity:1" fill="#ebb0a3" d="M 530.5,191.5 C 530.573,193.027 529.906,194.027 528.5,194.5C 528.427,192.973 529.094,191.973 530.5,191.5 Z"/></g>
<g><path style="opacity:1" fill="#f49d8c" d="M 683.5,191.5 C 682.725,196.797 682.392,202.13 682.5,207.5C 681.837,205.527 681.504,203.361 681.5,201C 681.328,197.523 681.994,194.356 683.5,191.5 Z"/></g>
<g><path style="opacity:1" fill="#f19280" d="M 538.5,194.5 C 536.948,199.961 537.281,205.295 539.5,210.5C 538.883,210.389 538.383,210.056 538,209.5C 535.856,204.262 536.023,199.262 538.5,194.5 Z"/></g>
<g><path style="opacity:1" fill="#e0634f" d="M 699.5,191.5 C 697.583,193.775 696.583,196.442 696.5,199.5C 696.706,202.336 697.373,205.002 698.5,207.5C 697.833,207.167 697.167,206.833 696.5,206.5C 695.676,203.236 695.342,199.902 695.5,196.5C 696.08,194.251 697.413,192.585 699.5,191.5 Z"/></g>
<g><path style="opacity:1" fill="#fac4b7" d="M 695.5,196.5 C 695.342,199.902 695.676,203.236 696.5,206.5C 695.883,206.389 695.383,206.056 695,205.5C 694.195,202.304 694.362,199.304 695.5,196.5 Z"/></g>
<g><path style="opacity:1" fill="#fdeae1" d="M 528.5,194.5 C 526.922,200.624 527.255,206.624 529.5,212.5C 528.5,212.5 527.5,212.5 526.5,212.5C 524.58,206.065 525.246,200.065 528.5,194.5 Z"/></g>
<g><path style="opacity:1" fill="#e25d43" d="M 796.5,212.5 C 791.489,212.334 786.489,212.501 781.5,213C 780.944,213.383 780.611,213.883 780.5,214.5C 779.833,214.5 779.167,214.5 778.5,214.5C 778.577,213.25 779.244,212.417 780.5,212C 786.016,211.183 791.35,211.349 796.5,212.5 Z"/></g>
<g><path style="opacity:1" fill="#e36048" d="M 1098.5,213.5 C 1097.17,213.5 1095.83,213.5 1094.5,213.5C 1089.3,212.243 1083.96,212.243 1078.5,213.5C 1078.61,212.883 1078.94,212.383 1079.5,212C 1085.17,211.333 1090.83,211.333 1096.5,212C 1097.42,212.278 1098.08,212.778 1098.5,213.5 Z"/></g>
<g><path style="opacity:1" fill="#fac4b1" d="M 796.5,212.5 C 796.833,212.5 797.167,212.5 797.5,212.5C 797.5,212.833 797.5,213.167 797.5,213.5C 791.773,213.26 786.106,213.593 780.5,214.5C 780.611,213.883 780.944,213.383 781.5,213C 786.489,212.501 791.489,212.334 796.5,212.5 Z"/></g>
<g><path style="opacity:1" fill="#e66348" d="M 797.5,213.5 C 797.5,213.167 797.5,212.833 797.5,212.5C 801.212,213.418 804.878,213.418 808.5,212.5C 808.5,213.833 808.5,215.167 808.5,216.5C 804.763,215.8 801.096,214.8 797.5,213.5 Z"/></g>
<g><path style="opacity:1" fill="#fbc3b8" d="M 953.5,215.5 C 944.814,212.836 936.147,212.836 927.5,215.5C 928.842,214.207 930.509,213.374 932.5,213C 937.833,212.333 943.167,212.333 948.5,213C 950.653,213.099 952.319,213.933 953.5,215.5 Z"/></g>
<g><path style="opacity:1" fill="#e3553d" d="M 1021.5,212.5 C 1016.82,212.334 1012.15,212.501 1007.5,213C 1004.72,213.522 1002.39,214.689 1000.5,216.5C 1000.17,216.5 999.833,216.5 999.5,216.5C 999.5,215.167 999.5,213.833 999.5,212.5C 1006.99,211.456 1014.33,211.456 1021.5,212.5 Z"/></g>
<g><path style="opacity:1" fill="#f7b6a6" d="M 1021.5,212.5 C 1024.27,212.759 1026.61,213.759 1028.5,215.5C 1019.03,212.562 1009.7,212.895 1000.5,216.5C 1002.39,214.689 1004.72,213.522 1007.5,213C 1012.15,212.501 1016.82,212.334 1021.5,212.5 Z"/></g>
<g><path style="opacity:1" fill="#f18d7e" d="M 870.5,212.5 C 874.358,212.77 877.691,214.103 880.5,216.5C 876.851,215.733 873.518,214.4 870.5,212.5 Z"/></g>
<g><path style="opacity:1" fill="#e0775d" d="M 920.5,212.5 C 921.434,213.568 921.768,214.901 921.5,216.5C 922.5,216.5 923.5,216.5 924.5,216.5C 924.167,217.5 923.5,218.167 922.5,218.5C 920.692,217.082 920.025,215.082 920.5,212.5 Z"/></g>
<g><path style="opacity:1" fill="#f7b59d" d="M 1094.5,213.5 C 1088.8,213.375 1083.13,213.708 1077.5,214.5C 1077.5,213.833 1077.83,213.5 1078.5,213.5C 1083.96,212.243 1089.3,212.243 1094.5,213.5 Z"/></g>
<g><path style="opacity:1" fill="#f1afa0" d="M 530.5,213.5 C 532.167,214.5 533.5,215.833 534.5,217.5C 534.5,217.833 534.5,218.167 534.5,218.5C 532.413,217.415 531.08,215.749 530.5,213.5 Z"/></g>
<g><path style="opacity:1" fill="#e85f45" d="M 706.5,213.5 C 712.082,215.407 717.749,215.74 723.5,214.5C 724.167,214.833 724.833,215.167 725.5,215.5C 724.189,216.258 723.689,217.258 724,218.5C 726.521,219 728.354,220.333 729.5,222.5C 721.496,220.031 713.829,217.031 706.5,213.5 Z"/></g>
<g><path style="opacity:1" fill="#e8543b" d="M 870.5,212.5 C 864.57,212.128 858.903,212.795 853.5,214.5C 851.302,214.12 849.635,214.787 848.5,216.5C 846.973,216.427 845.973,217.094 845.5,218.5C 843.246,219.415 841.246,220.748 839.5,222.5C 837.869,218.124 839.536,216.457 844.5,217.5C 844.5,215.833 844.5,214.167 844.5,212.5C 853.14,211.523 861.807,211.523 870.5,212.5 Z"/></g>
<g><path style="opacity:1" fill="#fdf9f6" d="M 870.5,212.5 C 873.518,214.4 876.851,215.733 880.5,216.5C 882.566,218.199 884.9,219.532 887.5,220.5C 891.51,224.52 894.51,229.187 896.5,234.5C 896.751,239.507 897.084,244.507 897.5,249.5C 897.5,250.833 897.5,252.167 897.5,253.5C 897.5,253.833 897.5,254.167 897.5,254.5C 895.935,256.509 894.935,258.843 894.5,261.5C 893.094,261.973 892.427,262.973 892.5,264.5C 890.413,265.585 889.08,267.251 888.5,269.5C 886.596,269.738 885.262,270.738 884.5,272.5C 880.424,274.186 876.424,275.853 872.5,277.5C 871.833,277.5 871.167,277.5 870.5,277.5C 864.5,277.167 858.5,276.833 852.5,276.5C 850.192,275.207 847.858,273.874 845.5,272.5C 845.167,272.5 844.833,272.5 844.5,272.5C 842.833,270.167 840.833,268.167 838.5,266.5C 837.833,265.833 837.167,265.167 836.5,264.5C 836.204,262.597 835.537,260.93 834.5,259.5C 834.167,258.167 833.833,256.833 833.5,255.5C 832.693,249.536 832.36,243.536 832.5,237.5C 834.074,235.898 834.741,233.898 834.5,231.5C 834.5,231.167 834.5,230.833 834.5,230.5C 836.262,229.738 837.262,228.404 837.5,226.5C 840.5,224.167 843.167,221.5 845.5,218.5C 847.027,218.573 848.027,217.906 848.5,216.5C 850.403,216.204 852.07,215.537 853.5,214.5C 858.903,212.795 864.57,212.128 870.5,212.5 Z"/></g>
<g><path style="opacity:1" fill="#fdfaf8" d="M 922.5,218.5 C 923.5,218.167 924.167,217.5 924.5,216.5C 925.391,215.89 926.391,215.557 927.5,215.5C 936.147,212.836 944.814,212.836 953.5,215.5C 954.167,215.5 954.833,215.5 955.5,215.5C 955.973,216.906 956.973,217.573 958.5,217.5C 959.899,218.89 961.566,219.89 963.5,220.5C 965.58,222.573 967.246,224.907 968.5,227.5C 968.427,229.027 969.094,230.027 970.5,230.5C 971.488,233.081 972.488,235.748 973.5,238.5C 973.733,243.895 973.4,249.228 972.5,254.5C 971.883,257.355 970.883,260.022 969.5,262.5C 966.529,265.808 963.529,269.141 960.5,272.5C 959.167,272.833 957.833,273.167 956.5,273.5C 948.731,276.01 940.731,277.01 932.5,276.5C 930.565,275.85 928.565,275.517 926.5,275.5C 926.027,274.094 925.027,273.427 923.5,273.5C 923.5,272.833 923.167,272.5 922.5,272.5C 921.791,271.596 920.791,271.263 919.5,271.5C 919.5,284.5 919.5,297.5 919.5,310.5C 915.833,310.5 912.167,310.5 908.5,310.5C 908.5,278.167 908.5,245.833 908.5,213.5C 912.167,213.5 915.833,213.5 919.5,213.5C 919.5,215.5 919.5,217.5 919.5,219.5C 920.791,219.737 921.791,219.404 922.5,218.5 Z"/></g>
<g><path style="opacity:1" fill="#fbb19f" d="M 920.5,212.5 C 920.025,215.082 920.692,217.082 922.5,218.5C 921.791,219.404 920.791,219.737 919.5,219.5C 919.5,217.5 919.5,215.5 919.5,213.5C 915.833,213.5 912.167,213.5 908.5,213.5C 908.5,245.833 908.5,278.167 908.5,310.5C 907.502,278.004 907.168,245.338 907.5,212.5C 911.833,212.5 916.167,212.5 920.5,212.5 Z"/></g>
<g><path style="opacity:1" fill="#fdf9f6" d="M 1028.5,215.5 C 1037.63,219.3 1043.63,225.966 1046.5,235.5C 1047.02,239.481 1047.35,243.481 1047.5,247.5C 1047.03,248.906 1046.03,249.573 1044.5,249.5C 1028.83,249.5 1013.17,249.5 997.5,249.5C 997.232,251.099 997.566,252.432 998.5,253.5C 998.588,257.589 1000.59,260.256 1004.5,261.5C 1006.09,263.234 1008.09,264.4 1010.5,265C 1015.82,265.499 1021.16,265.666 1026.5,265.5C 1029.85,265.47 1032.52,264.137 1034.5,261.5C 1038.4,259.645 1041.74,260.311 1044.5,263.5C 1044.66,265.527 1044.5,267.527 1044,269.5C 1042.58,270.078 1041.75,271.078 1041.5,272.5C 1039.52,273.471 1037.52,274.471 1035.5,275.5C 1032.83,275.833 1030.17,276.167 1027.5,276.5C 1021.17,276.5 1014.83,276.5 1008.5,276.5C 1006.17,275.833 1003.83,275.167 1001.5,274.5C 1000.51,274.672 999.842,274.338 999.5,273.5C 999.027,272.094 998.027,271.427 996.5,271.5C 994.5,268.833 992.167,266.5 989.5,264.5C 989.573,262.973 988.906,261.973 987.5,261.5C 986.035,257.976 985.035,254.309 984.5,250.5C 984.472,245.138 984.806,239.805 985.5,234.5C 986.13,232.25 987.13,230.25 988.5,228.5C 991.471,225.192 994.471,221.859 997.5,218.5C 997.833,217.5 998.5,216.833 999.5,216.5C 999.833,216.5 1000.17,216.5 1000.5,216.5C 1009.7,212.895 1019.03,212.562 1028.5,215.5 Z"/></g>
<g><path style="opacity:1" fill="#f19c89" d="M 853.5,214.5 C 852.07,215.537 850.403,216.204 848.5,216.5C 849.635,214.787 851.302,214.12 853.5,214.5 Z"/></g>
<g><path style="opacity:1" fill="#e56852" d="M 1099.5,213.5 C 1104.83,214.159 1108.83,216.826 1111.5,221.5C 1110.39,221.443 1109.39,221.11 1108.5,220.5C 1107.69,219.272 1106.69,218.272 1105.5,217.5C 1105.03,216.094 1104.03,215.427 1102.5,215.5C 1101.29,215.068 1100.29,214.401 1099.5,213.5 Z"/></g>
<g><path style="opacity:1" fill="#fee6dd" d="M 642.5,193.5 C 642.5,198.167 642.5,202.833 642.5,207.5C 641.514,211.97 641.181,216.637 641.5,221.5C 640.833,228.5 640.167,235.5 639.5,242.5C 639.361,229.155 639.694,215.822 640.5,202.5C 640.517,199.087 641.184,196.087 642.5,193.5 Z"/></g>
<g><path style="opacity:1" fill="#f7a091" d="M 955.5,215.5 C 957.027,215.427 958.027,216.094 958.5,217.5C 956.973,217.573 955.973,216.906 955.5,215.5 Z"/></g>
<g><path style="opacity:1" fill="#fcfcfa" d="M 1108.5,220.5 C 1109.39,221.11 1110.39,221.443 1111.5,221.5C 1112.92,222.922 1113.92,224.589 1114.5,226.5C 1116.79,233.286 1118.46,240.286 1119.5,247.5C 1119.5,248.167 1119.17,248.5 1118.5,248.5C 1102.17,248.5 1085.83,248.5 1069.5,248.5C 1068.66,252.657 1069.99,255.657 1073.5,257.5C 1073.83,259.833 1075.17,261.167 1077.5,261.5C 1079.21,263.85 1081.55,264.85 1084.5,264.5C 1085.21,265.404 1086.21,265.737 1087.5,265.5C 1091.65,266.647 1095.98,266.814 1100.5,266C 1101.06,265.617 1101.39,265.117 1101.5,264.5C 1101.83,264.5 1102.17,264.5 1102.5,264.5C 1106.8,263.343 1110.8,261.677 1114.5,259.5C 1115.4,260.29 1116.07,261.29 1116.5,262.5C 1118.26,266.376 1117.59,269.71 1114.5,272.5C 1111.28,274.021 1107.94,275.355 1104.5,276.5C 1096.49,277.615 1088.49,277.615 1080.5,276.5C 1078.58,275.637 1076.58,274.971 1074.5,274.5C 1074.03,273.094 1073.03,272.427 1071.5,272.5C 1070.83,272.167 1070.17,271.833 1069.5,271.5C 1066.03,268.372 1063.36,264.705 1061.5,260.5C 1057.21,251.575 1057.55,242.908 1062.5,234.5C 1061.57,233.232 1061.41,231.899 1062,230.5C 1063.41,227.418 1065.24,224.585 1067.5,222C 1071.27,221.249 1074.27,219.249 1076.5,216C 1084.95,213.745 1093.28,214.079 1101.5,217C 1103.58,218.705 1105.91,219.872 1108.5,220.5 Z"/></g>
<g><path style="opacity:1" fill="#f7a491" d="M 1102.5,215.5 C 1104.03,215.427 1105.03,216.094 1105.5,217.5C 1103.97,217.573 1102.97,216.906 1102.5,215.5 Z"/></g>
<g><path style="opacity:1" fill="#e5755f" d="M 682.5,207.5 C 684.25,212.023 686.916,216.023 690.5,219.5C 685.477,217.136 682.81,213.136 682.5,207.5 Z"/></g>
<g><path style="opacity:1" fill="#fbac9d" d="M 848.5,216.5 C 848.027,217.906 847.027,218.573 845.5,218.5C 845.973,217.094 846.973,216.427 848.5,216.5 Z"/></g>
<g><path style="opacity:1" fill="#e98773" d="M 880.5,216.5 C 883.546,216.725 885.879,218.058 887.5,220.5C 884.9,219.532 882.566,218.199 880.5,216.5 Z"/></g>
<g><path style="opacity:1" fill="#f39785" d="M 1075.5,214.5 C 1074.42,216.587 1072.75,217.92 1070.5,218.5C 1071.58,216.413 1073.25,215.08 1075.5,214.5 Z"/></g>
<g><path style="opacity:1" fill="#fdf8f5" d="M 760.5,173.5 C 764.702,173.183 768.702,173.517 772.5,174.5C 772.5,188.833 772.5,203.167 772.5,217.5C 774.38,217.771 775.713,217.104 776.5,215.5C 777.492,215.672 778.158,215.338 778.5,214.5C 779.167,214.5 779.833,214.5 780.5,214.5C 786.106,213.593 791.773,213.26 797.5,213.5C 801.096,214.8 804.763,215.8 808.5,216.5C 808.5,216.833 808.5,217.167 808.5,217.5C 811.473,219.806 814.14,222.473 816.5,225.5C 816.427,227.027 817.094,228.027 818.5,228.5C 818.796,230.403 819.463,232.07 820.5,233.5C 820.833,233.5 821.167,233.5 821.5,233.5C 821.5,248.167 821.5,262.833 821.5,277.5C 817.5,277.5 813.5,277.5 809.5,277.5C 809.829,264.323 809.495,251.323 808.5,238.5C 808.25,236.326 807.25,234.659 805.5,233.5C 805.5,233.167 805.5,232.833 805.5,232.5C 803.378,227.929 799.711,225.595 794.5,225.5C 793.036,224.84 791.369,224.507 789.5,224.5C 787.36,224.556 785.694,225.223 784.5,226.5C 781.357,226.969 779.023,228.636 777.5,231.5C 774.956,232.708 773.622,234.708 773.5,237.5C 772.883,237.611 772.383,237.944 772,238.5C 771.5,251.496 771.333,264.496 771.5,277.5C 767.601,278.791 763.601,278.791 759.5,277.5C 759.174,242.76 759.507,208.094 760.5,173.5 Z"/></g>
<g><path style="opacity:1" fill="#e47e6b" d="M 958.5,217.5 C 960.989,217.241 962.656,218.241 963.5,220.5C 961.566,219.89 959.899,218.89 958.5,217.5 Z"/></g>
<g><path style="opacity:1" fill="#e77f69" d="M 549.5,217.5 C 555.112,218.924 560.445,220.924 565.5,223.5C 561.173,222.449 556.84,221.282 552.5,220C 551.429,219.148 550.429,218.315 549.5,217.5 Z"/></g>
<g><path style="opacity:1" fill="#e5816a" d="M 534.5,218.5 C 534.5,218.167 534.5,217.833 534.5,217.5C 537.089,218.419 539.089,220.086 540.5,222.5C 538.246,221.585 536.246,220.252 534.5,218.5 Z"/></g>
<g><path style="opacity:1" fill="#fcdbd2" d="M 692.5,220.5 C 696.826,220.396 700.159,222.063 702.5,225.5C 701.833,225.5 701.167,225.5 700.5,225.5C 697.296,224.617 694.629,222.95 692.5,220.5 Z"/></g>
<g><path style="opacity:1" fill="#e55b40" d="M 808.5,217.5 C 809.978,217.238 811.311,217.571 812.5,218.5C 814.138,222.498 816.471,223.165 819.5,220.5C 819.782,222.987 819.782,225.653 819.5,228.5C 819.167,228.5 818.833,228.5 818.5,228.5C 818.573,226.973 817.906,225.973 816.5,225.5C 814.14,222.473 811.473,219.806 808.5,217.5 Z"/></g>
<g><path style="opacity:1" fill="#f8b5a2" d="M 845.5,218.5 C 843.167,221.5 840.5,224.167 837.5,226.5C 837.733,224.938 838.4,223.605 839.5,222.5C 841.246,220.748 843.246,219.415 845.5,218.5 Z"/></g>
<g><path style="opacity:1" fill="#f6ada1" d="M 997.5,218.5 C 994.471,221.859 991.471,225.192 988.5,228.5C 990.105,223.896 993.105,220.562 997.5,218.5 Z"/></g>
<g><path style="opacity:1" fill="#f0937f" d="M 729.5,222.5 C 731.117,223.038 732.784,223.371 734.5,223.5C 734.833,224.167 735.167,224.833 735.5,225.5C 733.033,225.245 731.033,224.245 729.5,222.5 Z"/></g>
<g><path style="opacity:1" fill="#fabfb7" d="M 794.5,225.5 C 791.098,225.342 787.764,225.676 784.5,226.5C 785.694,225.223 787.36,224.556 789.5,224.5C 791.369,224.507 793.036,224.84 794.5,225.5 Z"/></g>
<g><path style="opacity:1" fill="#f8baa6" d="M 870.5,225.5 C 866.102,225.294 861.768,225.627 857.5,226.5C 857.611,225.883 857.944,225.383 858.5,225C 862.689,224.188 866.689,224.355 870.5,225.5 Z"/></g>
<g><path style="opacity:1" fill="#f5b0a2" d="M 945.5,225.5 C 941.818,225.335 938.152,225.501 934.5,226C 933.058,226.377 932.058,227.21 931.5,228.5C 931.167,228.5 930.833,228.5 930.5,228.5C 930.167,228.5 929.833,228.5 929.5,228.5C 930.343,226.827 931.676,225.66 933.5,225C 937.689,224.188 941.689,224.355 945.5,225.5 Z"/></g>
<g><path style="opacity:1" fill="#f09683" d="M 542.5,223.5 C 544.967,223.755 546.967,224.755 548.5,226.5C 546.033,226.245 544.033,225.245 542.5,223.5 Z"/></g>
<g><path style="opacity:1" fill="#f6b6aa" d="M 565.5,223.5 C 569.288,223.309 572.288,224.642 574.5,227.5C 571.457,226.157 568.457,224.823 565.5,223.5 Z"/></g>
<g><path style="opacity:1" fill="#e26245" d="M 734.5,223.5 C 739.879,224.899 743.545,228.233 745.5,233.5C 742.431,230.423 739.097,227.756 735.5,225.5C 735.167,224.833 734.833,224.167 734.5,223.5 Z"/></g>
<g><path style="opacity:1" fill="#e67c62" d="M 549.5,226.5 C 553.358,226.77 556.691,228.103 559.5,230.5C 557.883,229.962 556.216,229.629 554.5,229.5C 552.739,228.687 551.072,227.687 549.5,226.5 Z"/></g>
<g><path style="opacity:1" fill="#f2947c" d="M 700.5,225.5 C 701.167,225.5 701.833,225.5 702.5,225.5C 705.5,226.833 708.5,228.167 711.5,229.5C 707.292,229.323 703.626,227.99 700.5,225.5 Z"/></g>
<g><path style="opacity:1" fill="#f8c1b1" d="M 794.5,226.5 C 794.5,226.167 794.5,225.833 794.5,225.5C 799.711,225.595 803.378,227.929 805.5,232.5C 802.492,229.379 798.825,227.379 794.5,226.5 Z"/></g>
<g><path style="opacity:1" fill="#f4a395" d="M 816.5,225.5 C 817.906,225.973 818.573,226.973 818.5,228.5C 817.094,228.027 816.427,227.027 816.5,225.5 Z"/></g>
<g><path style="opacity:1" fill="#e8967b" d="M 872.5,226.5 C 874.027,226.427 875.027,227.094 875.5,228.5C 873.973,228.573 872.973,227.906 872.5,226.5 Z"/></g>
<g><path style="opacity:1" fill="#e35d48" d="M 945.5,225.5 C 947.403,225.796 949.07,226.463 950.5,227.5C 944.037,225.849 937.704,226.182 931.5,228.5C 932.058,227.21 933.058,226.377 934.5,226C 938.152,225.501 941.818,225.335 945.5,225.5 Z"/></g>
<g><path style="opacity:1" fill="#eda691" d="M 1007.5,226.5 C 1007.03,227.906 1006.03,228.573 1004.5,228.5C 1004.97,227.094 1005.97,226.427 1007.5,226.5 Z"/></g>
<g><path style="opacity:1" fill="#f3a292" d="M 1023.5,226.5 C 1025.03,226.427 1026.03,227.094 1026.5,228.5C 1024.97,228.573 1023.97,227.906 1023.5,226.5 Z"/></g>
<g><path style="opacity:1" fill="#eb7a69" d="M 1097.5,227.5 C 1088.21,224.826 1080.21,226.826 1073.5,233.5C 1075.22,229.45 1078.22,226.783 1082.5,225.5C 1086.12,224.341 1089.79,224.175 1093.5,225C 1095.07,225.608 1096.4,226.442 1097.5,227.5 Z"/></g>
<g><path style="opacity:1" fill="#f4ad94" d="M 837.5,226.5 C 837.262,228.404 836.262,229.738 834.5,230.5C 834.738,228.596 835.738,227.262 837.5,226.5 Z"/></g>
<g><path style="opacity:1" fill="#e56957" d="M 794.5,225.5 C 794.5,225.833 794.5,226.167 794.5,226.5C 790.44,226.485 786.44,226.985 782.5,228C 781.211,229.802 779.544,230.969 777.5,231.5C 779.023,228.636 781.357,226.969 784.5,226.5C 787.764,225.676 791.098,225.342 794.5,225.5 Z"/></g>
<g><path style="opacity:1" fill="#ec4d2e" d="M 870.5,225.5 C 870.842,226.338 871.508,226.672 872.5,226.5C 872.973,227.906 873.973,228.573 875.5,228.5C 877.23,229.026 878.564,230.026 879.5,231.5C 880.08,233.749 881.413,235.415 883.5,236.5C 884.673,241.191 884.673,245.858 883.5,250.5C 883.371,252.216 883.038,253.883 882.5,255.5C 881.527,258.135 879.86,260.135 877.5,261.5C 873.625,263.192 869.625,264.526 865.5,265.5C 862.483,265.232 859.483,264.898 856.5,264.5C 853.55,262.885 850.884,260.885 848.5,258.5C 846.909,255.648 845.576,252.648 844.5,249.5C 844.552,245.802 844.886,242.135 845.5,238.5C 845.66,236.847 846.326,235.514 847.5,234.5C 849.833,232.833 851.833,230.833 853.5,228.5C 854.287,226.896 855.62,226.229 857.5,226.5C 861.768,225.627 866.102,225.294 870.5,225.5 Z"/></g>
<g><path style="opacity:1" fill="#f8b09f" d="M 968.5,227.5 C 969.906,227.973 970.573,228.973 970.5,230.5C 969.094,230.027 968.427,229.027 968.5,227.5 Z"/></g>
<g><path style="opacity:1" fill="#eb4c2c" d="M 1097.5,227.5 C 1100.06,228.385 1102.06,230.051 1103.5,232.5C 1103.54,233.583 1103.87,234.583 1104.5,235.5C 1099.33,235.833 1094.17,236.167 1089,236.5C 1083.45,236.495 1078.29,235.828 1073.5,234.5C 1073.5,234.167 1073.5,233.833 1073.5,233.5C 1080.21,226.826 1088.21,224.826 1097.5,227.5 Z"/></g>
<g><path style="opacity:1" fill="#fde5d9" d="M 1097.5,227.5 C 1103.91,227.473 1107.57,230.64 1108.5,237C 1108.16,238.03 1107.5,238.53 1106.5,238.5C 1106.5,238.167 1106.5,237.833 1106.5,237.5C 1106.73,235.067 1105.73,233.401 1103.5,232.5C 1102.06,230.051 1100.06,228.385 1097.5,227.5 Z"/></g>
<g><path style="opacity:1" fill="#e97b61" d="M 560.5,230.5 C 565.446,230.803 569.446,232.803 572.5,236.5C 568.579,234.306 564.579,232.306 560.5,230.5 Z"/></g>
<g><path style="opacity:1" fill="#ef8675" d="M 711.5,229.5 C 713.403,229.796 715.07,230.463 716.5,231.5C 714.302,231.88 712.635,231.213 711.5,229.5 Z"/></g>
<g><path style="opacity:1" fill="#ef8678" d="M 818.5,228.5 C 818.833,228.5 819.167,228.5 819.5,228.5C 820.301,230.042 820.634,231.708 820.5,233.5C 819.463,232.07 818.796,230.403 818.5,228.5 Z"/></g>
<g><path style="opacity:1" fill="#ec4d2d" d="M 950.5,227.5 C 953.764,229.094 956.431,231.427 958.5,234.5C 959.457,238.094 960.124,241.76 960.5,245.5C 960.232,248.517 959.898,251.517 959.5,254.5C 957.107,255.353 955.774,257.019 955.5,259.5C 949.952,264.691 943.619,266.358 936.5,264.5C 933,263.219 929.667,261.552 926.5,259.5C 925.075,258.078 924.075,256.411 923.5,254.5C 922.668,249.519 922.502,244.519 923,239.5C 924.989,235.534 927.489,231.868 930.5,228.5C 930.833,228.5 931.167,228.5 931.5,228.5C 937.704,226.182 944.037,225.849 950.5,227.5 Z"/></g>
<g><path style="opacity:1" fill="#df6952" d="M 1027.5,229.5 C 1029.5,230.833 1031.17,232.5 1032.5,234.5C 1032.5,234.833 1032.5,235.167 1032.5,235.5C 1030.09,234.089 1028.42,232.089 1027.5,229.5 Z"/></g>
<g><path style="opacity:1" fill="#e68675" d="M 1004.5,228.5 C 1003.56,231.109 1001.89,233.109 999.5,234.5C 1000.47,231.865 1002.14,229.865 1004.5,228.5 Z"/></g>
<g><path style="opacity:1" fill="#fde8e0" d="M 554.5,229.5 C 556.216,229.629 557.883,229.962 559.5,230.5C 559.833,230.5 560.167,230.5 560.5,230.5C 564.579,232.306 568.579,234.306 572.5,236.5C 572.833,237.167 573.167,237.833 573.5,238.5C 571.565,237.85 569.565,237.517 567.5,237.5C 567.5,236.5 567.5,235.5 567.5,234.5C 562.676,233.787 558.343,232.12 554.5,229.5 Z"/></g>
<g><path style="opacity:1" fill="#e98872" d="M 853.5,228.5 C 851.833,230.833 849.833,232.833 847.5,234.5C 848.5,231.5 850.5,229.5 853.5,228.5 Z"/></g>
<g><path style="opacity:1" fill="#e9866e" d="M 879.5,231.5 C 881.587,232.585 882.92,234.251 883.5,236.5C 881.413,235.415 880.08,233.749 879.5,231.5 Z"/></g>
<g><path style="opacity:1" fill="#fdf9f7" d="M 704.5,174.5 C 704.833,174.5 705.167,174.5 705.5,174.5C 712.813,175.187 720.146,175.521 727.5,175.5C 728.568,176.434 729.901,176.768 731.5,176.5C 733.5,177.167 735.5,177.833 737.5,178.5C 739.033,180.245 741.033,181.245 743.5,181.5C 744.301,183.042 744.634,184.708 744.5,186.5C 742.738,187.262 741.738,188.596 741.5,190.5C 739.858,192.081 737.858,192.747 735.5,192.5C 734.395,191.4 733.062,190.733 731.5,190.5C 731.5,190.167 731.5,189.833 731.5,189.5C 731.611,188.883 731.944,188.383 732.5,188C 729.246,187.75 726.246,186.75 723.5,185C 718.98,184.186 714.646,184.353 710.5,185.5C 706.712,185.309 703.712,186.642 701.5,189.5C 700.167,189.5 699.5,190.167 699.5,191.5C 697.413,192.585 696.08,194.251 695.5,196.5C 694.362,199.304 694.195,202.304 695,205.5C 695.383,206.056 695.883,206.389 696.5,206.5C 697.167,206.833 697.833,207.167 698.5,207.5C 700.313,210.647 702.98,212.647 706.5,213.5C 713.829,217.031 721.496,220.031 729.5,222.5C 731.033,224.245 733.033,225.245 735.5,225.5C 739.097,227.756 742.431,230.423 745.5,233.5C 745.5,234.167 745.5,234.833 745.5,235.5C 748.325,243.586 748.992,251.919 747.5,260.5C 746.559,262.05 745.893,263.716 745.5,265.5C 742.833,267.5 740.5,269.833 738.5,272.5C 736.435,272.953 734.768,273.953 733.5,275.5C 730.084,275.528 727.084,276.528 724.5,278.5C 718.409,278.789 712.409,278.455 706.5,277.5C 703.093,275.926 699.427,274.926 695.5,274.5C 695.167,274.5 694.833,274.5 694.5,274.5C 692.967,272.755 690.967,271.755 688.5,271.5C 687.508,271.672 686.842,271.338 686.5,270.5C 685.207,268.704 683.707,267.037 682,265.5C 681.51,264.207 681.343,262.873 681.5,261.5C 681.5,260.833 681.5,260.167 681.5,259.5C 682.167,259.5 682.5,259.167 682.5,258.5C 684.142,256.919 686.142,256.253 688.5,256.5C 690.85,257.861 693.184,259.194 695.5,260.5C 698.626,262.99 702.292,264.323 706.5,264.5C 706.5,264.833 706.5,265.167 706.5,265.5C 711.985,266.652 717.651,266.818 723.5,266C 724.056,265.617 724.389,265.117 724.5,264.5C 724.833,264.5 725.167,264.5 725.5,264.5C 727.967,264.245 729.967,263.245 731.5,261.5C 733.604,259.628 734.937,257.295 735.5,254.5C 735.833,254.5 736.167,254.5 736.5,254.5C 737.641,251.36 737.808,248.027 737,244.5C 736.617,243.944 736.117,243.611 735.5,243.5C 735.068,242.29 734.401,241.29 733.5,240.5C 732.5,240.167 731.833,239.5 731.5,238.5C 730.971,236.417 729.971,234.583 728.5,233C 725.173,232.39 721.839,231.89 718.5,231.5C 717.833,231.5 717.167,231.5 716.5,231.5C 715.07,230.463 713.403,229.796 711.5,229.5C 708.5,228.167 705.5,226.833 702.5,225.5C 700.159,222.063 696.826,220.396 692.5,220.5C 691.508,220.672 690.842,220.338 690.5,219.5C 686.916,216.023 684.25,212.023 682.5,207.5C 682.392,202.13 682.725,196.797 683.5,191.5C 683.5,191.167 683.5,190.833 683.5,190.5C 687.138,186.526 690.805,182.526 694.5,178.5C 695.514,177.326 696.847,176.66 698.5,176.5C 700.898,176.741 702.898,176.074 704.5,174.5 Z"/></g>
<g><path style="opacity:1" fill="#e2593b" d="M 720.5,186.5 C 724.223,187.297 727.89,188.297 731.5,189.5C 731.5,189.833 731.5,190.167 731.5,190.5C 725.875,189.781 720.375,188.781 715,187.5C 711.014,187.433 707.181,188.099 703.5,189.5C 704.347,188.034 705.68,187.2 707.5,187C 711.821,186.501 716.154,186.334 720.5,186.5 Z"/></g>
<g><path style="opacity:1" fill="#ee9a8a" d="M 710.5,185.5 C 714.042,185.187 717.375,185.521 720.5,186.5C 716.154,186.334 711.821,186.501 707.5,187C 705.68,187.2 704.347,188.034 703.5,189.5C 702.833,189.5 702.167,189.5 701.5,189.5C 703.712,186.642 706.712,185.309 710.5,185.5 Z"/></g>
<g><path style="opacity:1" fill="#fee6dd" d="M 710.5,185.5 C 714.646,184.353 718.98,184.186 723.5,185C 726.246,186.75 729.246,187.75 732.5,188C 731.944,188.383 731.611,188.883 731.5,189.5C 727.89,188.297 724.223,187.297 720.5,186.5C 717.375,185.521 714.042,185.187 710.5,185.5 Z"/></g>
<g><path style="opacity:1" fill="#fde4d7" d="M 1094.5,213.5 C 1095.83,213.5 1097.17,213.5 1098.5,213.5C 1098.83,213.5 1099.17,213.5 1099.5,213.5C 1100.29,214.401 1101.29,215.068 1102.5,215.5C 1102.97,216.906 1103.97,217.573 1105.5,217.5C 1106.69,218.272 1107.69,219.272 1108.5,220.5C 1105.91,219.872 1103.58,218.705 1101.5,217C 1093.28,214.079 1084.95,213.745 1076.5,216C 1074.27,219.249 1071.27,221.249 1067.5,222C 1065.24,224.585 1063.41,227.418 1062,230.5C 1061.41,231.899 1061.57,233.232 1062.5,234.5C 1057.55,242.908 1057.21,251.575 1061.5,260.5C 1061.17,260.5 1060.83,260.5 1060.5,260.5C 1059.1,257.301 1058.1,253.968 1057.5,250.5C 1057.76,244.828 1058.09,239.161 1058.5,233.5C 1061.09,229.621 1063.59,225.621 1066,221.5C 1067.61,220.614 1069.11,219.614 1070.5,218.5C 1072.75,217.92 1074.42,216.587 1075.5,214.5C 1076.17,214.5 1076.83,214.5 1077.5,214.5C 1083.13,213.708 1088.8,213.375 1094.5,213.5 Z"/></g>
<g><path style="opacity:1" fill="#ec4d2c" d="M 1023.5,226.5 C 1023.97,227.906 1024.97,228.573 1026.5,228.5C 1026.5,229.167 1026.83,229.5 1027.5,229.5C 1028.42,232.089 1030.09,234.089 1032.5,235.5C 1032.5,235.833 1032.5,236.167 1032.5,236.5C 1021.12,237.144 1010.12,236.477 999.5,234.5C 1001.89,233.109 1003.56,231.109 1004.5,228.5C 1006.03,228.573 1007.03,227.906 1007.5,226.5C 1012.83,225.167 1018.17,225.167 1023.5,226.5 Z"/></g>
<g><path style="opacity:1" fill="#fcddcf" d="M 718.5,231.5 C 721.839,231.89 725.173,232.39 728.5,233C 729.971,234.583 730.971,236.417 731.5,238.5C 727.367,235.678 723.034,233.345 718.5,231.5 Z"/></g>
<g><path style="opacity:1" fill="#e79071" d="M 745.5,233.5 C 746.906,233.973 747.573,234.973 747.5,236.5C 746.833,236.167 746.167,235.833 745.5,235.5C 745.5,234.833 745.5,234.167 745.5,233.5 Z"/></g>
<g><path style="opacity:1" fill="#e58972" d="M 805.5,233.5 C 807.25,234.659 808.25,236.326 808.5,238.5C 806.592,237.514 805.592,235.848 805.5,233.5 Z"/></g>
<g><path style="opacity:1" fill="#ef8a74" d="M 572.5,236.5 C 575.167,237.167 576.833,238.833 577.5,241.5C 576.167,240.5 574.833,239.5 573.5,238.5C 573.167,237.833 572.833,237.167 572.5,236.5 Z"/></g>
<g><path style="opacity:1" fill="#f7cbb6" d="M 834.5,231.5 C 834.741,233.898 834.074,235.898 832.5,237.5C 832.259,235.102 832.926,233.102 834.5,231.5 Z"/></g>
<g><path style="opacity:1" fill="#d95a42" d="M 1103.5,232.5 C 1105.73,233.401 1106.73,235.067 1106.5,237.5C 1095.17,237.5 1083.83,237.5 1072.5,237.5C 1072.26,236.209 1072.6,235.209 1073.5,234.5C 1078.29,235.828 1083.45,236.495 1089,236.5C 1094.17,236.167 1099.33,235.833 1104.5,235.5C 1103.87,234.583 1103.54,233.583 1103.5,232.5 Z"/></g>
<g><path style="opacity:1" fill="#e78073" d="M 777.5,231.5 C 776.126,233.858 774.793,236.192 773.5,238.5C 773.5,238.167 773.5,237.833 773.5,237.5C 773.622,234.708 774.956,232.708 777.5,231.5 Z"/></g>
<g><path style="opacity:1" fill="#eea18a" d="M 923.5,235.5 C 923.573,237.027 922.906,238.027 921.5,238.5C 921.427,236.973 922.094,235.973 923.5,235.5 Z"/></g>
<g><path style="opacity:1" fill="#e4664d" d="M 929.5,228.5 C 929.833,228.5 930.167,228.5 930.5,228.5C 927.489,231.868 924.989,235.534 923,239.5C 922.502,244.519 922.668,249.519 923.5,254.5C 921.933,253.319 921.099,251.653 921,249.5C 920.19,245.642 920.357,241.976 921.5,238.5C 922.906,238.027 923.573,237.027 923.5,235.5C 924.483,232.331 926.483,229.998 929.5,228.5 Z"/></g>
<g><path style="opacity:1" fill="#e88471" d="M 958.5,234.5 C 960.942,237.465 961.942,240.965 961.5,245C 961.672,248.477 961.006,251.644 959.5,254.5C 959.898,251.517 960.232,248.517 960.5,245.5C 960.124,241.76 959.457,238.094 958.5,234.5 Z"/></g>
<g><path style="opacity:1" fill="#f9bcac" d="M 998.5,234.5 C 998.5,235.5 998.5,236.5 998.5,237.5C 1010.01,237.828 1021.35,237.495 1032.5,236.5C 1032.5,236.167 1032.5,235.833 1032.5,235.5C 1032.5,235.167 1032.5,234.833 1032.5,234.5C 1034.1,235.287 1034.77,236.62 1034.5,238.5C 1022.17,238.5 1009.83,238.5 997.5,238.5C 997.232,236.901 997.566,235.568 998.5,234.5 Z"/></g>
<g><path style="opacity:1" fill="#d6593d" d="M 998.5,234.5 C 998.833,234.5 999.167,234.5 999.5,234.5C 1010.12,236.477 1021.12,237.144 1032.5,236.5C 1021.35,237.495 1010.01,237.828 998.5,237.5C 998.5,236.5 998.5,235.5 998.5,234.5 Z"/></g>
<g><path style="opacity:1" fill="#f9bdae" d="M 1073.5,233.5 C 1073.5,233.833 1073.5,234.167 1073.5,234.5C 1072.6,235.209 1072.26,236.209 1072.5,237.5C 1083.83,237.5 1095.17,237.5 1106.5,237.5C 1106.5,237.833 1106.5,238.167 1106.5,238.5C 1094.5,238.5 1082.5,238.5 1070.5,238.5C 1070.26,235.966 1071.26,234.3 1073.5,233.5 Z"/></g>
<g><path style="opacity:1" fill="#fee3d9" d="M 1114.5,226.5 C 1116.82,227.802 1118.16,229.802 1118.5,232.5C 1120.04,237.365 1120.71,242.365 1120.5,247.5C 1120.17,247.5 1119.83,247.5 1119.5,247.5C 1118.46,240.286 1116.79,233.286 1114.5,226.5 Z"/></g>
<g><path style="opacity:1" fill="#f2a08d" d="M 985.5,234.5 C 984.806,239.805 984.472,245.138 984.5,250.5C 983.838,248.696 983.505,246.696 983.5,244.5C 983.398,240.883 984.065,237.55 985.5,234.5 Z"/></g>
<g><path style="opacity:1" fill="#ea806b" d="M 1046.5,235.5 C 1047.93,237.679 1048.59,240.179 1048.5,243C 1048.49,244.707 1048.16,246.207 1047.5,247.5C 1047.35,243.481 1047.02,239.481 1046.5,235.5 Z"/></g>
<g><path style="opacity:1" fill="#fdddd1" d="M 745.5,235.5 C 746.167,235.833 746.833,236.167 747.5,236.5C 750.627,243.568 751.294,250.902 749.5,258.5C 748.833,259.167 748.167,259.833 747.5,260.5C 748.992,251.919 748.325,243.586 745.5,235.5 Z"/></g>
<g><path style="opacity:1" fill="#de6046" d="M 897.5,236.5 C 898.117,236.611 898.617,236.944 899,237.5C 899.667,242.167 899.667,246.833 899,251.5C 898.722,252.416 898.222,253.082 897.5,253.5C 897.5,252.167 897.5,250.833 897.5,249.5C 898.736,245.299 898.736,240.965 897.5,236.5 Z"/></g>
<g><path style="opacity:1" fill="#f39480" d="M 973.5,238.5 C 974.65,243.316 974.816,248.316 974,253.5C 973.617,254.056 973.117,254.389 972.5,254.5C 973.4,249.228 973.733,243.895 973.5,238.5 Z"/></g>
<g><path style="opacity:1" fill="#f09283" d="M 845.5,238.5 C 844.886,242.135 844.552,245.802 844.5,249.5C 844.167,249.5 843.833,249.5 843.5,249.5C 843.335,246.482 843.502,243.482 844,240.5C 844.278,239.584 844.778,238.918 845.5,238.5 Z"/></g>
<g><path style="opacity:1" fill="#f7c0ae" d="M 896.5,234.5 C 897.338,234.842 897.672,235.508 897.5,236.5C 898.736,240.965 898.736,245.299 897.5,249.5C 897.084,244.507 896.751,239.507 896.5,234.5 Z"/></g>
<g><path style="opacity:1" fill="#e05f47" d="M 586.5,238.5 C 587.674,239.514 588.34,240.847 588.5,242.5C 588.819,247.363 588.486,252.03 587.5,256.5C 587.64,250.464 587.307,244.464 586.5,238.5 Z"/></g>
<g><path style="opacity:1" fill="#fdd5ca" d="M 831.5,237.5 C 831.833,237.5 832.167,237.5 832.5,237.5C 832.36,243.536 832.693,249.536 833.5,255.5C 832.732,254.737 832.232,253.737 832,252.5C 831.501,247.511 831.334,242.511 831.5,237.5 Z"/></g>
<g><path style="opacity:1" fill="#f29c86" d="M 1058.5,233.5 C 1058.09,239.161 1057.76,244.828 1057.5,250.5C 1056.12,244.756 1056.45,239.09 1058.5,233.5 Z"/></g>
<g><path style="opacity:1" fill="#db563e" d="M 733.5,240.5 C 734.401,241.29 735.068,242.29 735.5,243.5C 736.344,247.099 736.677,250.766 736.5,254.5C 736.167,254.5 735.833,254.5 735.5,254.5C 735.648,249.681 734.982,245.015 733.5,240.5 Z"/></g>
<g><path style="opacity:1" fill="#fccabe" d="M 773.5,237.5 C 773.5,237.833 773.5,238.167 773.5,238.5C 772.52,251.421 772.186,264.421 772.5,277.5C 772.167,277.5 771.833,277.5 771.5,277.5C 771.333,264.496 771.5,251.496 772,238.5C 772.383,237.944 772.883,237.611 773.5,237.5 Z"/></g>
<g><path style="opacity:1" fill="#ee8975" d="M 821.5,233.5 C 822.661,248.328 822.828,263.328 822,278.5C 817.599,279.467 813.099,279.8 808.5,279.5C 808.5,265.833 808.5,252.167 808.5,238.5C 809.495,251.323 809.829,264.323 809.5,277.5C 813.5,277.5 817.5,277.5 821.5,277.5C 821.5,262.833 821.5,248.167 821.5,233.5 Z"/></g>
<g><path style="opacity:1" fill="#e25940" d="M 963.5,220.5 C 965.84,221.086 968.007,222.086 970,223.5C 971.366,228.313 973.033,232.979 975,237.5C 975.667,243.167 975.667,248.833 975,254.5C 973.896,257.721 972.063,260.388 969.5,262.5C 970.883,260.022 971.883,257.355 972.5,254.5C 973.117,254.389 973.617,254.056 974,253.5C 974.816,248.316 974.65,243.316 973.5,238.5C 972.488,235.748 971.488,233.081 970.5,230.5C 970.573,228.973 969.906,227.973 968.5,227.5C 967.246,224.907 965.58,222.573 963.5,220.5 Z"/></g>
<g><path style="opacity:1" fill="#f1a093" d="M 588.5,242.5 C 589.65,247.316 589.816,252.316 589,257.5C 588.617,258.056 588.117,258.389 587.5,258.5C 587.5,257.833 587.5,257.167 587.5,256.5C 588.486,252.03 588.819,247.363 588.5,242.5 Z"/></g>
<g><path style="opacity:1" fill="#ef917f" d="M 735.5,243.5 C 736.117,243.611 736.617,243.944 737,244.5C 737.808,248.027 737.641,251.36 736.5,254.5C 736.677,250.766 736.344,247.099 735.5,243.5 Z"/></g>
<g><path style="opacity:1" fill="#feece3" d="M 1118.5,248.5 C 1102.68,249.496 1086.68,249.83 1070.5,249.5C 1070.23,251.099 1070.57,252.432 1071.5,253.5C 1071.83,253.5 1072.17,253.5 1072.5,253.5C 1072.83,254.833 1073.17,256.167 1073.5,257.5C 1069.99,255.657 1068.66,252.657 1069.5,248.5C 1085.83,248.5 1102.17,248.5 1118.5,248.5 Z"/></g>
<g><path style="opacity:1" fill="#e6725d" d="M 883.5,236.5 C 884.268,237.263 884.768,238.263 885,239.5C 885.498,242.817 885.665,246.15 885.5,249.5C 884.833,249.833 884.167,250.167 883.5,250.5C 884.673,245.858 884.673,241.191 883.5,236.5 Z"/></g>
<g><path style="opacity:1" fill="#f9b2a1" d="M 1044.5,249.5 C 1029.34,250.496 1014.01,250.83 998.5,250.5C 998.5,251.5 998.5,252.5 998.5,253.5C 997.566,252.432 997.232,251.099 997.5,249.5C 1013.17,249.5 1028.83,249.5 1044.5,249.5 Z"/></g>
<g><path style="opacity:1" fill="#f9b09f" d="M 1119.5,247.5 C 1119.83,247.5 1120.17,247.5 1120.5,247.5C 1120.59,248.496 1120.25,249.329 1119.5,250C 1103.5,250.5 1087.5,250.667 1071.5,250.5C 1071.5,251.5 1071.5,252.5 1071.5,253.5C 1070.57,252.432 1070.23,251.099 1070.5,249.5C 1086.68,249.83 1102.68,249.496 1118.5,248.5C 1119.17,248.5 1119.5,248.167 1119.5,247.5 Z"/></g>
<g><path style="opacity:1" fill="#e26047" d="M 1118.5,232.5 C 1119.88,233.574 1121.05,234.907 1122,236.5C 1123.01,241.558 1122.51,246.391 1120.5,251C 1104.14,250.845 1088.14,251.679 1072.5,253.5C 1072.17,253.5 1071.83,253.5 1071.5,253.5C 1071.5,252.5 1071.5,251.5 1071.5,250.5C 1087.5,250.667 1103.5,250.5 1119.5,250C 1120.25,249.329 1120.59,248.496 1120.5,247.5C 1120.71,242.365 1120.04,237.365 1118.5,232.5 Z"/></g>
<g><path style="opacity:1" fill="#e55c45" d="M 579.5,243.5 C 580.117,243.611 580.617,243.944 581,244.5C 581.667,247.833 581.667,251.167 581,254.5C 580.78,256.973 579.614,258.64 577.5,259.5C 580.464,254.456 581.13,249.123 579.5,243.5 Z"/></g>
<g><path style="opacity:1" fill="#f08f7c" d="M 641.5,221.5 C 641.791,233.217 641.458,244.884 640.5,256.5C 640.167,256.5 639.833,256.5 639.5,256.5C 639.5,251.833 639.5,247.167 639.5,242.5C 640.167,235.5 640.833,228.5 641.5,221.5 Z"/></g>
<g><path style="opacity:1" fill="#fbd2c3" d="M 843.5,249.5 C 843.833,249.5 844.167,249.5 844.5,249.5C 845.576,252.648 846.909,255.648 848.5,258.5C 844.727,256.715 843.061,253.715 843.5,249.5 Z"/></g>
<g><path style="opacity:1" fill="#ea7766" d="M 472.5,220.5 C 472.833,220.5 473.167,220.5 473.5,220.5C 473.68,228.175 474.014,235.842 474.5,243.5C 474.5,248.833 474.5,254.167 474.5,259.5C 474.167,259.5 473.833,259.5 473.5,259.5C 472.964,246.506 472.631,233.506 472.5,220.5 Z"/></g>
<g><path style="opacity:1" fill="#f1aa98" d="M 885.5,249.5 C 885.379,252.105 884.379,254.105 882.5,255.5C 883.038,253.883 883.371,252.216 883.5,250.5C 884.167,250.167 884.833,249.833 885.5,249.5 Z"/></g>
<g><path style="opacity:1" fill="#fab8a6" d="M 688.5,256.5 C 686.142,256.253 684.142,256.919 682.5,258.5C 683.6,254.353 685.6,253.687 688.5,256.5 Z"/></g>
<g><path style="opacity:1" fill="#ea806a" d="M 831.5,237.5 C 831.334,242.511 831.501,247.511 832,252.5C 832.232,253.737 832.732,254.737 833.5,255.5C 833.833,256.833 834.167,258.167 834.5,259.5C 832.716,258.426 831.549,256.76 831,254.5C 830.182,248.651 830.348,242.985 831.5,237.5 Z"/></g>
<g><path style="opacity:1" fill="#f7bdae" d="M 530.5,256.5 C 532.404,256.738 533.738,257.738 534.5,259.5C 533.391,259.443 532.391,259.11 531.5,258.5C 531.167,257.833 530.833,257.167 530.5,256.5 Z"/></g>
<g><path style="opacity:1" fill="#e17f6a" d="M 959.5,254.5 C 958.759,256.354 957.759,258.021 956.5,259.5C 956.167,259.5 955.833,259.5 955.5,259.5C 955.774,257.019 957.107,255.353 959.5,254.5 Z"/></g>
<g><path style="opacity:1" fill="#e16c52" d="M 530.5,256.5 C 530.833,257.167 531.167,257.833 531.5,258.5C 529.784,258.629 528.117,258.962 526.5,259.5C 527.035,257.554 528.368,256.554 530.5,256.5 Z"/></g>
<g><path style="opacity:1" fill="#f7b4a4" d="M 998.5,253.5 C 999.385,256.06 1001.05,258.06 1003.5,259.5C 1003.83,260.167 1004.17,260.833 1004.5,261.5C 1000.59,260.256 998.588,257.589 998.5,253.5 Z"/></g>
<g><path style="opacity:1" fill="#f9bda8" d="M 1073.5,257.5 C 1074.83,258.5 1076.17,259.5 1077.5,260.5C 1077.5,260.833 1077.5,261.167 1077.5,261.5C 1075.17,261.167 1073.83,259.833 1073.5,257.5 Z"/></g>
<g><path style="opacity:1" fill="#e7765d" d="M 897.5,254.5 C 897.834,257.491 896.834,259.824 894.5,261.5C 894.935,258.843 895.935,256.509 897.5,254.5 Z"/></g>
<g><path style="opacity:1" fill="#e58771" d="M 926.5,259.5 C 929.667,261.552 933,263.219 936.5,264.5C 935.833,264.5 935.167,264.5 934.5,264.5C 930.87,264.299 928.203,262.632 926.5,259.5 Z"/></g>
<g><path style="opacity:1" fill="#f9cabb" d="M 1044.5,263.5 C 1041.74,260.311 1038.4,259.645 1034.5,261.5C 1038.82,257.079 1042.15,257.746 1044.5,263.5 Z"/></g>
<g><path style="opacity:1" fill="#ec8c76" d="M 577.5,259.5 C 576.738,261.262 575.404,262.262 573.5,262.5C 574.262,260.738 575.596,259.738 577.5,259.5 Z"/></g>
<g><path style="opacity:1" fill="#fabfad" d="M 1114.5,259.5 C 1110.8,261.677 1106.8,263.343 1102.5,264.5C 1105.04,262.581 1107.71,260.748 1110.5,259C 1112.07,258.235 1113.4,258.402 1114.5,259.5 Z"/></g>
<g><path style="opacity:1" fill="#f49a8a" d="M 587.5,259.5 C 587.573,261.027 586.906,262.027 585.5,262.5C 585.427,260.973 586.094,259.973 587.5,259.5 Z"/></g>
<g><path style="opacity:1" fill="#e47356" d="M 749.5,258.5 C 749.401,261.639 748.068,263.973 745.5,265.5C 745.893,263.716 746.559,262.05 747.5,260.5C 748.167,259.833 748.833,259.167 749.5,258.5 Z"/></g>
<g><path style="opacity:1" fill="#e76c61" d="M 526.5,259.5 C 526.5,261.167 526.5,262.833 526.5,264.5C 523.952,262.962 523.952,261.296 526.5,259.5 Z"/></g>
<g><path style="opacity:1" fill="#e77a62" d="M 695.5,260.5 C 699.332,261.443 702.999,262.777 706.5,264.5C 702.292,264.323 698.626,262.99 695.5,260.5 Z"/></g>
<g><path style="opacity:1" fill="#e57c69" d="M 834.5,259.5 C 835.537,260.93 836.204,262.597 836.5,264.5C 834.787,263.365 834.12,261.698 834.5,259.5 Z"/></g>
<g><path style="opacity:1" fill="#f9b0a1" d="M 731.5,261.5 C 729.967,263.245 727.967,264.245 725.5,264.5C 725.5,264.167 725.5,263.833 725.5,263.5C 727.421,262.637 729.421,261.971 731.5,261.5 Z"/></g>
<g><path style="opacity:1" fill="#e08a72" d="M 894.5,261.5 C 894.573,263.027 893.906,264.027 892.5,264.5C 892.427,262.973 893.094,261.973 894.5,261.5 Z"/></g>
<g><path style="opacity:1" fill="#e18467" d="M 987.5,261.5 C 988.906,261.973 989.573,262.973 989.5,264.5C 988.094,264.027 987.427,263.027 987.5,261.5 Z"/></g>
<g><path style="opacity:1" fill="#e67766" d="M 1077.5,261.5 C 1077.5,261.167 1077.5,260.833 1077.5,260.5C 1079.86,261.874 1082.19,263.207 1084.5,264.5C 1081.55,264.85 1079.21,263.85 1077.5,261.5 Z"/></g>
<g><path style="opacity:1" fill="#e37453" d="M 573.5,262.5 C 572.656,264.759 570.989,265.759 568.5,265.5C 569.167,264.833 569.833,264.167 570.5,263.5C 571.391,262.89 572.391,262.557 573.5,262.5 Z"/></g>
<g><path style="opacity:1" fill="#ea7666" d="M 681.5,259.5 C 681.5,260.167 681.5,260.833 681.5,261.5C 679.896,262.287 679.229,263.62 679.5,265.5C 677.984,262.92 678.651,260.92 681.5,259.5 Z"/></g>
<g><path style="opacity:1" fill="#e05c41" d="M 725.5,263.5 C 725.5,263.833 725.5,264.167 725.5,264.5C 725.167,264.5 724.833,264.5 724.5,264.5C 718.536,265.307 712.536,265.64 706.5,265.5C 706.5,265.167 706.5,264.833 706.5,264.5C 712.857,264.524 719.19,264.19 725.5,263.5 Z"/></g>
<g><path style="opacity:1" fill="#fac5b7" d="M 955.5,259.5 C 955.833,259.5 956.167,259.5 956.5,259.5C 955.972,260.721 955.305,261.887 954.5,263C 948.56,266.149 942.226,267.149 935.5,266C 934.944,265.617 934.611,265.117 934.5,264.5C 935.167,264.5 935.833,264.5 936.5,264.5C 943.619,266.358 949.952,264.691 955.5,259.5 Z"/></g>
<g><path style="opacity:1" fill="#e05b42" d="M 1003.5,259.5 C 1010.54,263.407 1018.2,265.074 1026.5,264.5C 1026.5,264.833 1026.5,265.167 1026.5,265.5C 1021.16,265.666 1015.82,265.499 1010.5,265C 1008.09,264.4 1006.09,263.234 1004.5,261.5C 1004.17,260.833 1003.83,260.167 1003.5,259.5 Z"/></g>
<g><path style="opacity:1" fill="#f8beb0" d="M 1034.5,261.5 C 1032.52,264.137 1029.85,265.47 1026.5,265.5C 1026.5,265.167 1026.5,264.833 1026.5,264.5C 1029.14,263.552 1031.81,262.552 1034.5,261.5 Z"/></g>
<g><path style="opacity:1" fill="#e87e69" d="M 1060.5,260.5 C 1060.83,260.5 1061.17,260.5 1061.5,260.5C 1063.36,264.705 1066.03,268.372 1069.5,271.5C 1064.67,269.338 1061.67,265.671 1060.5,260.5 Z"/></g>
<g><path style="opacity:1" fill="#fbcec0" d="M 540.5,262.5 C 545.566,264.687 550.9,265.687 556.5,265.5C 561.297,265.577 565.964,264.91 570.5,263.5C 569.833,264.167 569.167,264.833 568.5,265.5C 562.667,267.232 556.667,267.899 550.5,267.5C 546.929,266.381 543.596,264.715 540.5,262.5 Z"/></g>
<g><path style="opacity:1" fill="#facac1" d="M 681.5,261.5 C 681.343,262.873 681.51,264.207 682,265.5C 683.707,267.037 685.207,268.704 686.5,270.5C 683.907,269.246 681.573,267.58 679.5,265.5C 679.229,263.62 679.896,262.287 681.5,261.5 Z"/></g>
<g><path style="opacity:1" fill="#fabfab" d="M 724.5,264.5 C 724.389,265.117 724.056,265.617 723.5,266C 717.651,266.818 711.985,266.652 706.5,265.5C 712.536,265.64 718.536,265.307 724.5,264.5 Z"/></g>
<g><path style="opacity:1" fill="#f5afa3" d="M 877.5,261.5 C 875.747,263.223 873.747,264.723 871.5,266C 867.167,266.667 862.833,266.667 858.5,266C 857.584,265.722 856.918,265.222 856.5,264.5C 859.483,264.898 862.483,265.232 865.5,265.5C 869.625,264.526 873.625,263.192 877.5,261.5 Z"/></g>
<g><path style="opacity:1" fill="#ed826f" d="M 989.5,264.5 C 992.167,266.5 994.5,268.833 996.5,271.5C 993.167,270.167 990.833,267.833 989.5,264.5 Z"/></g>
<g><path style="opacity:1" fill="#f7b29e" d="M 1101.5,264.5 C 1101.39,265.117 1101.06,265.617 1100.5,266C 1095.98,266.814 1091.65,266.647 1087.5,265.5C 1092.2,265.563 1096.87,265.229 1101.5,264.5 Z"/></g>
<g><path style="opacity:1" fill="#fde6dd" d="M 474.5,243.5 C 475.29,244.609 475.79,245.942 476,247.5C 476.667,261.511 477.5,275.511 478.5,289.5C 480.868,290.765 481.535,292.431 480.5,294.5C 477.625,292.751 476.292,290.085 476.5,286.5C 476.439,277.306 475.772,268.306 474.5,259.5C 474.5,254.167 474.5,248.833 474.5,243.5 Z"/></g>
<g><path style="opacity:1" fill="#f1a28f" d="M 585.5,262.5 C 584.5,266.833 581.833,269.5 577.5,270.5C 580.5,268.167 583.167,265.5 585.5,262.5 Z"/></g>
<g><path style="opacity:1" fill="#f9b4a0" d="M 1116.5,262.5 C 1119.84,264.527 1120.34,267.193 1118,270.5C 1117.18,271.823 1116.02,272.489 1114.5,272.5C 1117.59,269.71 1118.26,266.376 1116.5,262.5 Z"/></g>
<g><path style="opacity:1" fill="#e27662" d="M 838.5,266.5 C 840.833,268.167 842.833,270.167 844.5,272.5C 841.5,271.5 839.5,269.5 838.5,266.5 Z"/></g>
<g><path style="opacity:1" fill="#ed8a74" d="M 892.5,264.5 C 891.92,266.749 890.587,268.415 888.5,269.5C 889.08,267.251 890.413,265.585 892.5,264.5 Z"/></g>
<g><path style="opacity:1" fill="#eb7f6d" d="M 969.5,262.5 C 967.895,267.104 964.895,270.438 960.5,272.5C 963.529,269.141 966.529,265.808 969.5,262.5 Z"/></g>
<g><path style="opacity:1" fill="#e56e54" d="M 473.5,259.5 C 473.833,259.5 474.167,259.5 474.5,259.5C 475.772,268.306 476.439,277.306 476.5,286.5C 475.883,286.389 475.383,286.056 475,285.5C 473.855,276.87 473.355,268.203 473.5,259.5 Z"/></g>
<g><path style="opacity:1" fill="#ea5234" d="M 531.5,258.5 C 532.391,259.11 533.391,259.443 534.5,259.5C 536.25,260.87 538.25,261.87 540.5,262.5C 543.596,264.715 546.929,266.381 550.5,267.5C 549.127,267.343 547.793,267.51 546.5,268C 548.5,269 550.5,270 552.5,271C 549.924,271.606 547.59,271.106 545.5,269.5C 543.803,269.899 542.137,270.399 540.5,271C 544.163,271.572 547.497,272.738 550.5,274.5C 549.167,274.5 547.833,274.5 546.5,274.5C 543.451,273.694 540.451,272.694 537.5,271.5C 537.027,270.094 536.027,269.427 534.5,269.5C 533.833,269.5 533.167,269.5 532.5,269.5C 530.131,268.31 528.131,266.643 526.5,264.5C 526.5,262.833 526.5,261.167 526.5,259.5C 528.117,258.962 529.784,258.629 531.5,258.5 Z"/></g>
<g><path style="opacity:1" fill="#ef8775" d="M 745.5,265.5 C 744.167,268.833 741.833,271.167 738.5,272.5C 740.5,269.833 742.833,267.5 745.5,265.5 Z"/></g>
<g><path style="opacity:1" fill="#ea8272" d="M 534.5,269.5 C 536.027,269.427 537.027,270.094 537.5,271.5C 535.973,271.573 534.973,270.906 534.5,269.5 Z"/></g>
<g><path style="opacity:1" fill="#e57c68" d="M 888.5,269.5 C 887.738,271.262 886.404,272.262 884.5,272.5C 885.262,270.738 886.596,269.738 888.5,269.5 Z"/></g>
<g><path style="opacity:1" fill="#f5a890" d="M 1044.5,263.5 C 1047.35,267.512 1046.35,270.512 1041.5,272.5C 1041.75,271.078 1042.58,270.078 1044,269.5C 1044.5,267.527 1044.66,265.527 1044.5,263.5 Z"/></g>
<g><path style="opacity:1" fill="#f9b2a7" d="M 577.5,270.5 C 576.198,272.822 574.198,274.155 571.5,274.5C 571.5,274.167 571.5,273.833 571.5,273.5C 573.456,272.508 575.456,271.508 577.5,270.5 Z"/></g>
<g><path style="opacity:1" fill="#ec998e" d="M 996.5,271.5 C 998.027,271.427 999.027,272.094 999.5,273.5C 997.973,273.573 996.973,272.906 996.5,271.5 Z"/></g>
<g><path style="opacity:1" fill="#fee8e1" d="M 532.5,269.5 C 533.167,269.5 533.833,269.5 534.5,269.5C 534.973,270.906 535.973,271.573 537.5,271.5C 540.451,272.694 543.451,273.694 546.5,274.5C 547.5,275.167 548.5,275.833 549.5,276.5C 542.684,276.509 537.017,274.176 532.5,269.5 Z"/></g>
<g><path style="opacity:1" fill="#f5ab99" d="M 688.5,271.5 C 690.967,271.755 692.967,272.755 694.5,274.5C 692.033,274.245 690.033,273.245 688.5,271.5 Z"/></g>
<g><path style="opacity:1" fill="#f3a798" d="M 1071.5,272.5 C 1073.03,272.427 1074.03,273.094 1074.5,274.5C 1072.97,274.573 1071.97,273.906 1071.5,272.5 Z"/></g>
<g><path style="opacity:1" fill="#e7634f" d="M 571.5,273.5 C 571.5,273.833 571.5,274.167 571.5,274.5C 568.167,274.833 564.833,275.167 561.5,275.5C 557.629,275.815 553.962,275.482 550.5,274.5C 557.52,274.498 564.52,274.165 571.5,273.5 Z"/></g>
<g><path style="opacity:1" fill="#ea7f6b" d="M 845.5,272.5 C 847.858,273.874 850.192,275.207 852.5,276.5C 849.069,276.955 846.736,275.621 845.5,272.5 Z"/></g>
<g><path style="opacity:1" fill="#e48775" d="M 923.5,273.5 C 925.027,273.427 926.027,274.094 926.5,275.5C 924.973,275.573 923.973,274.906 923.5,273.5 Z"/></g>
<g><path style="opacity:1" fill="#fab8af" d="M 546.5,274.5 C 547.833,274.5 549.167,274.5 550.5,274.5C 553.962,275.482 557.629,275.815 561.5,275.5C 557.702,276.483 553.702,276.817 549.5,276.5C 548.5,275.833 547.5,275.167 546.5,274.5 Z"/></g>
<g><path style="opacity:1" fill="#ed9583" d="M 926.5,275.5 C 928.565,275.517 930.565,275.85 932.5,276.5C 932.5,276.833 932.5,277.167 932.5,277.5C 932.167,277.5 931.833,277.5 931.5,277.5C 929.447,277.598 927.78,276.931 926.5,275.5 Z"/></g>
<g><path style="opacity:1" fill="#f08d80" d="M 1001.5,274.5 C 1003.83,275.167 1006.17,275.833 1008.5,276.5C 1008.5,276.833 1008.5,277.167 1008.5,277.5C 1005.51,277.834 1003.18,276.834 1001.5,274.5 Z"/></g>
<g><path style="opacity:1" fill="#ed8b7e" d="M 1074.5,274.5 C 1076.58,274.971 1078.58,275.637 1080.5,276.5C 1080.5,276.833 1080.5,277.167 1080.5,277.5C 1078.03,277.245 1076.03,276.245 1074.5,274.5 Z"/></g>
<g><path style="opacity:1" fill="#ea6d59" d="M 1114.5,272.5 C 1112.13,275.865 1108.8,277.532 1104.5,277.5C 1104.5,277.167 1104.5,276.833 1104.5,276.5C 1107.94,275.355 1111.28,274.021 1114.5,272.5 Z"/></g>
<g><path style="opacity:1" fill="#f8b9a9" d="M 695.5,274.5 C 699.427,274.926 703.093,275.926 706.5,277.5C 705.5,277.5 704.5,277.5 703.5,277.5C 700.374,277.515 697.707,276.515 695.5,274.5 Z"/></g>
<g><path style="opacity:1" fill="#ee8172" d="M 733.5,275.5 C 730.855,277.31 727.855,278.31 724.5,278.5C 727.084,276.528 730.084,275.528 733.5,275.5 Z"/></g>
<g><path style="opacity:1" fill="#ea856d" d="M 884.5,272.5 C 884.175,274.132 883.175,275.132 881.5,275.5C 878.673,276.932 875.673,277.599 872.5,277.5C 876.424,275.853 880.424,274.186 884.5,272.5 Z"/></g>
<g><path style="opacity:1" fill="#fedccf" d="M 956.5,273.5 C 955.341,275.25 953.674,276.25 951.5,276.5C 945.281,278.621 938.948,278.954 932.5,277.5C 932.5,277.167 932.5,276.833 932.5,276.5C 940.731,277.01 948.731,276.01 956.5,273.5 Z"/></g>
<g><path style="opacity:1" fill="#fedacc" d="M 1008.5,277.5 C 1008.5,277.167 1008.5,276.833 1008.5,276.5C 1014.83,276.5 1021.17,276.5 1027.5,276.5C 1027.5,276.833 1027.5,277.167 1027.5,277.5C 1021.27,278.807 1014.93,278.807 1008.5,277.5 Z"/></g>
<g><path style="opacity:1" fill="#f69e93" d="M 1035.5,275.5 C 1033.16,277.04 1030.5,277.706 1027.5,277.5C 1027.5,277.167 1027.5,276.833 1027.5,276.5C 1030.17,276.167 1032.83,275.833 1035.5,275.5 Z"/></g>
<g><path style="opacity:1" fill="#ea6d56" d="M 639.5,256.5 C 639.833,256.5 640.167,256.5 640.5,256.5C 640.659,266.184 640.325,275.85 639.5,285.5C 639.461,287.952 638.794,289.952 637.5,291.5C 637.5,290.833 637.5,290.167 637.5,289.5C 638.124,278.371 638.791,267.371 639.5,256.5 Z"/></g>
<g><path style="opacity:1" fill="#fbcab6" d="M 852.5,276.5 C 858.5,276.833 864.5,277.167 870.5,277.5C 868.359,278.163 866.025,278.497 863.5,278.5C 859.553,278.637 855.886,277.97 852.5,276.5 Z"/></g>
<g><path style="opacity:1" fill="#fcd8c6" d="M 1080.5,277.5 C 1080.5,277.167 1080.5,276.833 1080.5,276.5C 1088.49,277.615 1096.49,277.615 1104.5,276.5C 1104.5,276.833 1104.5,277.167 1104.5,277.5C 1104.17,277.5 1103.83,277.5 1103.5,277.5C 1096.16,278.783 1088.83,278.783 1081.5,277.5C 1081.17,277.5 1080.83,277.5 1080.5,277.5 Z"/></g>
<g><path style="opacity:1" fill="#e16d55" d="M 703.5,277.5 C 704.5,277.5 705.5,277.5 706.5,277.5C 712.409,278.455 718.409,278.789 724.5,278.5C 718.013,279.654 711.346,279.821 704.5,279C 703.944,278.617 703.611,278.117 703.5,277.5 Z"/></g>
<g><path style="opacity:1" fill="#e5634d" d="M 759.5,277.5 C 763.601,278.791 767.601,278.791 771.5,277.5C 771.833,277.5 772.167,277.5 772.5,277.5C 770.777,278.8 768.61,279.467 766,279.5C 763.39,279.467 761.223,278.8 759.5,277.5 Z"/></g>
<g><path style="opacity:1" fill="#e66c55" d="M 951.5,276.5 C 948.149,278.893 944.316,279.893 940,279.5C 937.833,279.333 935.667,279.167 933.5,279C 932.584,278.722 931.918,278.222 931.5,277.5C 931.833,277.5 932.167,277.5 932.5,277.5C 938.948,278.954 945.281,278.621 951.5,276.5 Z"/></g>
<g><path style="opacity:1" fill="#e46a52" d="M 1081.5,277.5 C 1088.83,278.783 1096.16,278.783 1103.5,277.5C 1103.08,278.222 1102.42,278.722 1101.5,279C 1095.5,279.667 1089.5,279.667 1083.5,279C 1082.58,278.722 1081.92,278.222 1081.5,277.5 Z"/></g>
<g><path style="opacity:1" fill="#fdc6be" d="M 922.5,272.5 C 920.519,285.124 919.852,298.124 920.5,311.5C 916.298,311.817 912.298,311.483 908.5,310.5C 912.167,310.5 915.833,310.5 919.5,310.5C 919.5,297.5 919.5,284.5 919.5,271.5C 920.791,271.263 921.791,271.596 922.5,272.5 Z"/></g>
<g><path style="opacity:1" fill="#e3735f" d="M 922.5,272.5 C 923.167,272.5 923.5,272.833 923.5,273.5C 921.84,285.967 920.84,298.634 920.5,311.5C 919.852,298.124 920.519,285.124 922.5,272.5 Z"/></g>
<g><path style="opacity:1" fill="#e68872" d="M 637.5,289.5 C 637.5,290.167 637.5,290.833 637.5,291.5C 636.59,293.019 635.757,294.685 635,296.5C 634.184,297.823 633.017,298.489 631.5,298.5C 633.773,295.602 635.773,292.602 637.5,289.5 Z"/></g>
<g><path style="opacity:1" fill="#e6795e" d="M 631.5,298.5 C 630.313,300.975 628.313,301.975 625.5,301.5C 627.181,299.992 629.181,298.992 631.5,298.5 Z"/></g>
<g><path style="opacity:1" fill="#ee8d79" d="M 486.5,300.5 C 532.143,301.48 577.81,301.813 623.5,301.5C 578.669,302.665 533.669,302.831 488.5,302C 487.584,301.722 486.918,301.222 486.5,300.5 Z"/></g>
</svg>
