<?xml version="1.0" encoding="UTF-8"?>
<!DOCTYPE svg PUBLIC "-//W3C//DTD SVG 1.1//EN" "http://www.w3.org/Graphics/SVG/1.1/DTD/svg11.dtd">
<svg xmlns="http://www.w3.org/2000/svg" version="1.1" width="1594px" height="443px" style="shape-rendering:geometricPrecision; text-rendering:geometricPrecision; image-rendering:optimizeQuality; fill-rule:evenodd; clip-rule:evenodd" xmlns:xlink="http://www.w3.org/1999/xlink">
<g><path style="opacity:1" fill="#0433fe" d="M -0.5,-0.5 C 530.833,-0.5 1062.17,-0.5 1593.5,-0.5C 1593.5,147.167 1593.5,294.833 1593.5,442.5C 1062.17,442.5 530.833,442.5 -0.5,442.5C -0.5,294.833 -0.5,147.167 -0.5,-0.5 Z"/></g>
<g><path style="opacity:1" fill="#3150d8" d="M 553.5,104.5 C 544.749,104.197 536.082,104.53 527.5,105.5C 531.445,104.175 535.778,103.508 540.5,103.5C 545.013,103.501 549.347,103.834 553.5,104.5 Z"/></g>
<g><path style="opacity:1" fill="#fdfefe" d="M 553.5,104.5 C 555.662,105.128 557.328,106.461 558.5,108.5C 559.265,111.096 559.599,113.763 559.5,116.5C 558.4,117.605 557.733,118.938 557.5,120.5C 553.009,122.053 548.343,122.886 543.5,123C 542.944,123.383 542.611,123.883 542.5,124.5C 542.5,125.167 542.5,125.833 542.5,126.5C 541.508,133.648 541.175,140.981 541.5,148.5C 549.167,148.5 556.833,148.5 564.5,148.5C 566.216,148.629 567.883,148.962 569.5,149.5C 571.183,151.514 573.183,153.18 575.5,154.5C 576.833,157.167 578.167,159.833 579.5,162.5C 579.5,168.167 579.5,173.833 579.5,179.5C 595.167,179.5 610.833,179.5 626.5,179.5C 632.735,180.357 638.735,182.023 644.5,184.5C 647.806,187.14 650.806,190.14 653.5,193.5C 661.937,204.848 663.604,217.181 658.5,230.5C 658.5,230.833 658.5,231.167 658.5,231.5C 656.75,232.659 655.75,234.326 655.5,236.5C 653.844,238.46 652.177,240.46 650.5,242.5C 648.46,244.177 646.46,245.844 644.5,247.5C 642.716,247.893 641.05,248.559 639.5,249.5C 635.75,250.614 632.083,251.614 628.5,252.5C 562.832,252.667 497.166,252.5 431.5,252C 429.192,251.009 426.859,250.176 424.5,249.5C 418.217,246.217 413.217,241.55 409.5,235.5C 408.987,233.146 407.821,231.146 406,229.5C 405.51,228.207 405.343,226.873 405.5,225.5C 403.5,225.5 401.5,225.5 399.5,225.5C 398.578,229.995 397.911,234.662 397.5,239.5C 394.761,243.009 391.094,244.343 386.5,243.5C 384.086,242.089 382.419,240.089 381.5,237.5C 380.975,222.072 381.642,206.739 383.5,191.5C 386.721,188.285 390.388,187.785 394.5,190C 396.635,190.876 397.969,192.376 398.5,194.5C 398.5,198.833 398.5,203.167 398.5,207.5C 401.167,207.5 403.833,207.5 406.5,207.5C 406.993,205.194 407.326,202.861 407.5,200.5C 408.398,197.604 410.065,195.271 412.5,193.5C 414.833,191.833 416.833,189.833 418.5,187.5C 419.833,186.833 420.833,185.833 421.5,184.5C 421.833,184.5 422.167,184.5 422.5,184.5C 426.18,183.44 429.846,182.274 433.5,181C 450.672,180.832 467.672,180.332 484.5,179.5C 485.488,174.36 485.821,169.026 485.5,163.5C 485.767,161.035 486.434,158.701 487.5,156.5C 489.219,153.781 491.553,151.781 494.5,150.5C 504.215,148.976 513.881,147.976 523.5,147.5C 523.5,135.5 523.5,123.5 523.5,111.5C 523.845,108.802 525.178,106.802 527.5,105.5C 536.082,104.53 544.749,104.197 553.5,104.5 Z"/></g>
<g><path style="opacity:1" fill="#748ee5" d="M 558.5,108.5 C 560.026,109.492 560.693,110.992 560.5,113C 560.486,114.385 560.152,115.551 559.5,116.5C 559.599,113.763 559.265,111.096 558.5,108.5 Z"/></g>
<g><path style="opacity:1" fill="#5d76e3" d="M 557.5,120.5 C 557.119,121.931 556.119,122.764 554.5,123C 550.748,123.24 547.081,123.74 543.5,124.5C 543.167,124.5 542.833,124.5 542.5,124.5C 542.611,123.883 542.944,123.383 543.5,123C 548.343,122.886 553.009,122.053 557.5,120.5 Z"/></g>
<g><path style="opacity:1" fill="#2d4aed" d="M 523.5,111.5 C 523.5,123.5 523.5,135.5 523.5,147.5C 514.114,147.22 504.78,147.553 495.5,148.5C 503.769,146.53 512.435,145.864 521.5,146.5C 520.855,134.452 521.522,122.785 523.5,111.5 Z"/></g>
<g><path style="opacity:1" fill="#173ce7" d="M 542.5,124.5 C 542.833,124.5 543.167,124.5 543.5,124.5C 543.5,131.833 543.5,139.167 543.5,146.5C 551.86,146.169 560.193,146.502 568.5,147.5C 568.863,148.183 569.196,148.85 569.5,149.5C 567.883,148.962 566.216,148.629 564.5,148.5C 557.352,147.508 550.019,147.175 542.5,147.5C 542.5,140.5 542.5,133.5 542.5,126.5C 542.5,125.833 542.5,125.167 542.5,124.5 Z"/></g>
<g><path style="opacity:1" fill="#8097eb" d="M 523.5,147.5 C 513.881,147.976 504.215,148.976 494.5,150.5C 494.833,149.833 495.167,149.167 495.5,148.5C 504.78,147.553 514.114,147.22 523.5,147.5 Z"/></g>
<g><path style="opacity:1" fill="#7991ef" d="M 542.5,126.5 C 542.5,133.5 542.5,140.5 542.5,147.5C 550.019,147.175 557.352,147.508 564.5,148.5C 556.833,148.5 549.167,148.5 541.5,148.5C 541.175,140.981 541.508,133.648 542.5,126.5 Z"/></g>
<g><path style="opacity:1" fill="#fafcfe" d="M 820.5,175.5 C 820.168,185.19 820.502,194.856 821.5,204.5C 822.107,204.376 822.44,204.043 822.5,203.5C 822.833,202.5 823.5,201.833 824.5,201.5C 832.206,198.376 840.206,197.709 848.5,199.5C 852.746,200.745 855.746,203.412 857.5,207.5C 860.762,215.148 862.095,223.148 861.5,231.5C 861.5,233.167 861.5,234.833 861.5,236.5C 859.11,239.566 857.11,242.9 855.5,246.5C 852.271,249.609 848.605,251.942 844.5,253.5C 839.13,253.608 833.797,253.275 828.5,252.5C 825.891,251.557 823.891,249.89 822.5,247.5C 822.44,246.957 822.107,246.624 821.5,246.5C 820.526,248.743 820.192,251.076 820.5,253.5C 815.5,253.5 810.5,253.5 805.5,253.5C 805.5,227.5 805.5,201.5 805.5,175.5C 810.5,175.5 815.5,175.5 820.5,175.5 Z"/></g>
<g><path style="opacity:1" fill="#2648ea" d="M 804.5,174.5 C 810.31,173.51 816.31,173.177 822.5,173.5C 821.862,182.895 822.529,191.895 824.5,200.5C 824.5,200.833 824.5,201.167 824.5,201.5C 823.5,201.833 822.833,202.5 822.5,203.5C 821.833,193.833 821.167,184.167 820.5,174.5C 815.167,174.5 809.833,174.5 804.5,174.5 Z"/></g>
<g><path style="opacity:1" fill="#6d89ec" d="M 820.5,174.5 C 821.167,184.167 821.833,193.833 822.5,203.5C 822.44,204.043 822.107,204.376 821.5,204.5C 820.502,194.856 820.168,185.19 820.5,175.5C 820.5,175.167 820.5,174.833 820.5,174.5 Z"/></g>
<g><path style="opacity:1" fill="#edf1fd" d="M 1083.5,178.5 C 1084.57,181.408 1084.74,184.408 1084,187.5C 1082.61,189.702 1081.11,191.702 1079.5,193.5C 1076.06,193.747 1072.73,193.414 1069.5,192.5C 1063.91,186.283 1064.25,180.449 1070.5,175C 1075.51,173.908 1079.85,175.074 1083.5,178.5 Z"/></g>
<g><path style="opacity:1" fill="#0d36e6" d="M 487.5,156.5 C 486.434,158.701 485.767,161.035 485.5,163.5C 484.513,168.305 484.179,173.305 484.5,178.5C 467.658,178.17 450.992,178.503 434.5,179.5C 433.833,179.5 433.167,179.5 432.5,179.5C 449.134,177.514 466.134,176.848 483.5,177.5C 483.171,171.463 483.504,165.463 484.5,159.5C 485.141,158.007 486.141,157.007 487.5,156.5 Z"/></g>
<g><path style="opacity:1" fill="#1839e7" d="M 575.5,154.5 C 578.204,156.049 580.037,158.383 581,161.5C 581.499,166.823 581.666,172.156 581.5,177.5C 598.503,177.333 615.503,177.5 632.5,178C 635.999,179.665 639.666,180.998 643.5,182C 644.252,182.671 644.586,183.504 644.5,184.5C 638.735,182.023 632.735,180.357 626.5,179.5C 611.342,178.504 596.009,178.17 580.5,178.5C 580.821,172.974 580.488,167.64 579.5,162.5C 578.167,159.833 576.833,157.167 575.5,154.5 Z"/></g>
<g><path style="opacity:1" fill="#2d47e2" d="M 700.5,177.5 C 709.307,176.014 717.974,176.848 726.5,180C 727.825,185.932 727.825,191.766 726.5,197.5C 726.821,191.974 726.488,186.64 725.5,181.5C 717.58,178.387 709.247,177.054 700.5,177.5 Z"/></g>
<g><path style="opacity:1" fill="#a7bffb" d="M 804.5,174.5 C 809.833,174.5 815.167,174.5 820.5,174.5C 820.5,174.833 820.5,175.167 820.5,175.5C 815.5,175.5 810.5,175.5 805.5,175.5C 805.5,201.5 805.5,227.5 805.5,253.5C 810.5,253.5 815.5,253.5 820.5,253.5C 815.36,254.488 810.026,254.821 804.5,254.5C 804.5,227.833 804.5,201.167 804.5,174.5 Z"/></g>
<g><path style="opacity:1" fill="#4458d6" d="M 485.5,163.5 C 485.821,169.026 485.488,174.36 484.5,179.5C 467.833,179.5 451.167,179.5 434.5,179.5C 450.992,178.503 467.658,178.17 484.5,178.5C 484.179,173.305 484.513,168.305 485.5,163.5 Z"/></g>
<g><path style="opacity:1" fill="#2848cc" d="M 579.5,162.5 C 580.488,167.64 580.821,172.974 580.5,178.5C 596.009,178.17 611.342,178.504 626.5,179.5C 610.833,179.5 595.167,179.5 579.5,179.5C 579.5,173.833 579.5,168.167 579.5,162.5 Z"/></g>
<g><path style="opacity:1" fill="#b1c6f1" d="M 432.5,179.5 C 433.167,179.5 433.833,179.5 434.5,179.5C 451.167,179.5 467.833,179.5 484.5,179.5C 467.672,180.332 450.672,180.832 433.5,181C 429.846,182.274 426.18,183.44 422.5,184.5C 425.623,182.456 428.956,180.789 432.5,179.5 Z"/></g>
<g><path style="opacity:1" fill="#f8fafe" d="M 700.5,177.5 C 709.247,177.054 717.58,178.387 725.5,181.5C 725.821,186.695 725.487,191.695 724.5,196.5C 724.167,196.5 723.833,196.5 723.5,196.5C 720.374,194.01 716.708,192.677 712.5,192.5C 709.15,192.335 705.817,192.502 702.5,193C 696.764,198.158 697.431,202.324 704.5,205.5C 704.973,206.906 705.973,207.573 707.5,207.5C 711.771,209.636 716.105,211.802 720.5,214C 723.447,216.436 725.78,219.269 727.5,222.5C 728.254,227.463 728.587,232.463 728.5,237.5C 727.552,240.14 726.552,242.807 725.5,245.5C 723.475,247.196 721.475,248.863 719.5,250.5C 711.262,254.129 702.595,255.462 693.5,254.5C 691.901,254.768 690.568,254.434 689.5,253.5C 687.898,251.926 685.898,251.259 683.5,251.5C 683.158,250.662 682.492,250.328 681.5,250.5C 680.887,244.729 681.554,239.396 683.5,234.5C 686.567,236.413 689.901,237.747 693.5,238.5C 693.611,239.117 693.944,239.617 694.5,240C 698.689,240.812 702.689,240.645 706.5,239.5C 706.833,238.5 707.5,237.833 708.5,237.5C 712.367,234.202 712.367,230.702 708.5,227C 706.047,226.041 703.714,224.874 701.5,223.5C 701.167,223.5 700.833,223.5 700.5,223.5C 695.734,221.613 691.401,218.946 687.5,215.5C 686.167,213.5 684.5,211.833 682.5,210.5C 681.061,208.412 680.394,206.079 680.5,203.5C 680.522,198.728 681.189,194.061 682.5,189.5C 686.586,182.767 692.586,178.767 700.5,177.5 Z"/></g>
<g><path style="opacity:1" fill="#183de2" d="M 804.5,174.5 C 804.5,201.167 804.5,227.833 804.5,254.5C 810.026,254.821 815.36,254.488 820.5,253.5C 820.833,253.5 821.167,253.5 821.5,253.5C 818.913,254.816 815.913,255.483 812.5,255.5C 809.248,255.479 806.081,255.146 803,254.5C 802.833,241.167 802.667,227.833 802.5,214.5C 802.501,200.816 803.167,187.483 804.5,174.5 Z"/></g>
<g><path style="opacity:1" fill="#9fb2f8" d="M 725.5,181.5 C 726.488,186.64 726.821,191.974 726.5,197.5C 725.508,197.672 724.842,197.338 724.5,196.5C 725.487,191.695 725.821,186.695 725.5,181.5 Z"/></g>
<g><path style="opacity:1" fill="#6279e5" d="M 421.5,184.5 C 420.833,185.833 419.833,186.833 418.5,187.5C 418.5,185.5 419.5,184.5 421.5,184.5 Z"/></g>
<g><path style="opacity:1" fill="#2a44ec" d="M 1083.5,178.5 C 1084.5,178.414 1085.33,178.748 1086,179.5C 1088.26,186.468 1086.09,191.134 1079.5,193.5C 1081.11,191.702 1082.61,189.702 1084,187.5C 1084.74,184.408 1084.57,181.408 1083.5,178.5 Z"/></g>
<g><path style="opacity:1" fill="#adbdf9" d="M 418.5,187.5 C 416.833,189.833 414.833,191.833 412.5,193.5C 413.5,190.5 415.5,188.5 418.5,187.5 Z"/></g>
<g><path style="opacity:1" fill="#93a7f1" d="M 712.5,193.5 C 712.5,193.167 712.5,192.833 712.5,192.5C 716.708,192.677 720.374,194.01 723.5,196.5C 719.89,195.297 716.223,194.297 712.5,193.5 Z"/></g>
<g><path style="opacity:1" fill="#2d46e9" d="M 848.5,198.5 C 842.28,196.299 835.946,195.965 829.5,197.5C 829.414,196.504 829.748,195.671 830.5,195C 835.5,194.333 840.5,194.333 845.5,195C 846.71,196.039 847.71,197.206 848.5,198.5 Z"/></g>
<g><path style="opacity:1" fill="#223eea" d="M 1006.5,200.5 C 1002.6,198.782 998.602,197.449 994.5,196.5C 988.681,195.347 982.681,195.181 976.5,196C 975.058,196.377 974.058,197.21 973.5,198.5C 972.167,198.833 970.833,199.167 969.5,199.5C 969.5,198.5 969.5,197.5 969.5,196.5C 979.304,194.473 989.304,193.973 999.5,195C 1001.38,196.185 1003.38,197.185 1005.5,198C 1006.25,198.671 1006.59,199.504 1006.5,200.5 Z"/></g>
<g><path style="opacity:1" fill="#475edf" d="M 712.5,192.5 C 712.5,192.833 712.5,193.167 712.5,193.5C 708.606,193.11 704.94,193.777 701.5,195.5C 700.48,197.432 700.313,199.432 701,201.5C 702.72,202.384 703.886,203.717 704.5,205.5C 697.431,202.324 696.764,198.158 702.5,193C 705.817,192.502 709.15,192.335 712.5,192.5 Z"/></g>
<g><path style="opacity:1" fill="#3952e5" d="M 932.5,196.5 C 936.683,195.189 941.016,195.189 945.5,196.5C 946.993,197.141 947.993,198.141 948.5,199.5C 943.583,196.832 938.25,195.832 932.5,196.5 Z"/></g>
<g><path style="opacity:1" fill="#647de4" d="M 994.5,196.5 C 987.351,196.05 980.351,196.716 973.5,198.5C 974.058,197.21 975.058,196.377 976.5,196C 982.681,195.181 988.681,195.347 994.5,196.5 Z"/></g>
<g><path style="opacity:1" fill="#3455e3" d="M 1058.5,196.5 C 1055.43,196.368 1052.43,196.701 1049.5,197.5C 1049.61,196.883 1049.94,196.383 1050.5,196C 1053.37,195.199 1056.03,195.366 1058.5,196.5 Z"/></g>
<g><path style="opacity:1" fill="#2344e0" d="M 1069.5,192.5 C 1072.73,193.414 1076.06,193.747 1079.5,193.5C 1079.39,194.117 1079.06,194.617 1078.5,195C 1080.06,195.21 1081.39,195.71 1082.5,196.5C 1077.5,196.5 1072.5,196.5 1067.5,196.5C 1068.81,195.533 1069.47,194.199 1069.5,192.5 Z"/></g>
<g><path style="opacity:1" fill="#627ae6" d="M 1192.5,196.5 C 1187.13,196.392 1181.8,196.725 1176.5,197.5C 1179.36,195.994 1182.52,195.328 1186,195.5C 1188.36,195.504 1190.53,195.837 1192.5,196.5 Z"/></g>
<g><path style="opacity:1" fill="#2d4ae8" d="M 908.5,196.5 C 903.035,195.773 898.035,196.773 893.5,199.5C 893.5,198.5 893.5,197.5 893.5,196.5C 898.645,195.309 903.645,195.309 908.5,196.5 Z"/></g>
<g><path style="opacity:1" fill="#9daff3" d="M 1124.5,196.5 C 1128.7,196.183 1132.7,196.517 1136.5,197.5C 1131.44,197.274 1126.44,197.608 1121.5,198.5C 1121.97,197.094 1122.97,196.427 1124.5,196.5 Z"/></g>
<g><path style="opacity:1" fill="#a0b1f3" d="M 398.5,194.5 C 399.483,198.298 399.817,202.298 399.5,206.5C 401.5,206.5 403.5,206.5 405.5,206.5C 405.595,204.214 406.262,202.214 407.5,200.5C 407.326,202.861 406.993,205.194 406.5,207.5C 403.833,207.5 401.167,207.5 398.5,207.5C 398.5,203.167 398.5,198.833 398.5,194.5 Z"/></g>
<g><path style="opacity:1" fill="#d5dffc" d="M 848.5,198.5 C 848.5,198.833 848.5,199.167 848.5,199.5C 840.206,197.709 832.206,198.376 824.5,201.5C 824.5,201.167 824.5,200.833 824.5,200.5C 825.922,199.075 827.589,198.075 829.5,197.5C 835.946,195.965 842.28,196.299 848.5,198.5 Z"/></g>
<g><path style="opacity:1" fill="#f7fafe" d="M 994.5,196.5 C 998.602,197.449 1002.6,198.782 1006.5,200.5C 1008.6,202.372 1009.94,204.705 1010.5,207.5C 1011.04,209.117 1011.37,210.784 1011.5,212.5C 1011.5,226.167 1011.5,239.833 1011.5,253.5C 1006.5,253.5 1001.5,253.5 996.5,253.5C 996.662,251.473 996.495,249.473 996,247.5C 991.167,254.017 985,256.017 977.5,253.5C 976.07,252.463 974.403,251.796 972.5,251.5C 971.833,251.167 971.167,250.833 970.5,250.5C 969.5,249.167 968.5,247.833 967.5,246.5C 966.42,240.124 966.753,233.791 968.5,227.5C 971.892,223.553 976.225,221.22 981.5,220.5C 986.167,220.5 990.833,220.5 995.5,220.5C 995.664,217.813 995.497,215.146 995,212.5C 994.617,211.944 994.117,211.611 993.5,211.5C 993.167,211.5 992.833,211.5 992.5,211.5C 990.366,209.967 987.866,209.3 985,209.5C 980.775,209.415 976.941,210.415 973.5,212.5C 972.417,212.539 971.417,212.873 970.5,213.5C 969.507,208.88 969.173,204.214 969.5,199.5C 970.833,199.167 972.167,198.833 973.5,198.5C 980.351,196.716 987.351,196.05 994.5,196.5 Z"/></g>
<g><path style="opacity:1" fill="#586ff2" d="M 1082.5,196.5 C 1084.49,215.471 1085.15,234.804 1084.5,254.5C 1078.64,254.822 1072.98,254.489 1067.5,253.5C 1072.5,253.5 1077.5,253.5 1082.5,253.5C 1082.5,234.833 1082.5,216.167 1082.5,197.5C 1082.5,197.167 1082.5,196.833 1082.5,196.5 Z"/></g>
<g><path style="opacity:1" fill="#f7fafe" d="M 1192.5,196.5 C 1195.68,198.009 1199.01,199.342 1202.5,200.5C 1207.36,204.382 1210.69,209.382 1212.5,215.5C 1213.27,220.797 1213.61,226.13 1213.5,231.5C 1212.08,236.351 1210.08,241.017 1207.5,245.5C 1205.5,246.833 1203.83,248.5 1202.5,250.5C 1199.42,251.517 1196.42,252.684 1193.5,254C 1189.18,254.499 1184.85,254.666 1180.5,254.5C 1177.93,254.279 1175.6,253.612 1173.5,252.5C 1173.03,251.094 1172.03,250.427 1170.5,250.5C 1168.25,249.585 1166.25,248.252 1164.5,246.5C 1159.12,237.321 1157.12,227.321 1158.5,216.5C 1161.58,207.307 1167.58,200.974 1176.5,197.5C 1181.8,196.725 1187.13,196.392 1192.5,196.5 Z"/></g>
<g><path style="opacity:1" fill="#465ae6" d="M 1192.5,196.5 C 1195.52,196.804 1198.52,197.304 1201.5,198C 1202.25,198.671 1202.59,199.504 1202.5,200.5C 1199.01,199.342 1195.68,198.009 1192.5,196.5 Z"/></g>
<g><path style="opacity:1" fill="#a5c0ed" d="M 383.5,191.5 C 381.642,206.739 380.975,222.072 381.5,237.5C 380.339,223.339 380.173,209.006 381,194.5C 381.377,193.058 382.21,192.058 383.5,191.5 Z"/></g>
<g><path style="opacity:1" fill="#7a94ee" d="M 682.5,189.5 C 681.189,194.061 680.522,198.728 680.5,203.5C 679.359,200.36 679.192,197.027 680,193.5C 680.2,191.68 681.034,190.347 682.5,189.5 Z"/></g>
<g><path style="opacity:1" fill="#95abf1" d="M 739.5,196.5 C 745.026,196.179 750.36,196.512 755.5,197.5C 750.5,197.5 745.5,197.5 740.5,197.5C 740.5,211.833 740.5,226.167 740.5,240.5C 740.167,240.5 739.833,240.5 739.5,240.5C 739.5,225.833 739.5,211.167 739.5,196.5 Z"/></g>
<g><path style="opacity:1" fill="#f7fafe" d="M 755.5,197.5 C 756.331,210.327 756.831,223.327 757,236.5C 757.465,237.931 758.299,239.097 759.5,240C 762.833,240.667 766.167,240.667 769.5,240C 770.416,239.722 771.082,239.222 771.5,238.5C 773.129,236.142 774.295,233.476 775,230.5C 775.5,219.505 775.667,208.505 775.5,197.5C 780.5,197.5 785.5,197.5 790.5,197.5C 790.5,215.833 790.5,234.167 790.5,252.5C 785.833,252.5 781.167,252.5 776.5,252.5C 776.5,250.167 776.5,247.833 776.5,245.5C 775.209,245.263 774.209,245.596 773.5,246.5C 773.167,247.167 772.833,247.833 772.5,248.5C 770.563,249.954 768.897,251.621 767.5,253.5C 761.174,254.779 754.841,254.779 748.5,253.5C 746.923,251.416 745.09,249.416 743,247.5C 741.882,245.235 741.049,242.901 740.5,240.5C 740.5,226.167 740.5,211.833 740.5,197.5C 745.5,197.5 750.5,197.5 755.5,197.5 Z"/></g>
<g><path style="opacity:1" fill="#1437e5" d="M 792.5,197.5 C 793.828,216.671 793.828,236.004 792.5,255.5C 786.886,256.621 781.22,256.788 775.5,256C 774.228,254.693 773.228,253.193 772.5,251.5C 770.925,252.456 769.258,253.123 767.5,253.5C 768.897,251.621 770.563,249.954 772.5,248.5C 774.028,249.802 775.028,251.469 775.5,253.5C 780.833,254.833 786.167,254.833 791.5,253.5C 792.497,235.007 792.83,216.341 792.5,197.5 Z"/></g>
<g><path style="opacity:1" fill="#2745e7" d="M 888.5,196.5 C 883.167,196.5 877.833,196.5 872.5,196.5C 872.5,215.833 872.5,235.167 872.5,254.5C 878.026,254.821 883.36,254.488 888.5,253.5C 888.833,253.5 889.167,253.5 889.5,253.5C 889.586,254.496 889.252,255.329 888.5,256C 883.167,256.667 877.833,256.667 872.5,256C 872,255.5 871.5,255 871,254.5C 870.333,235.167 870.333,215.833 871,196.5C 876.932,195.175 882.766,195.175 888.5,196.5 Z"/></g>
<g><path style="opacity:1" fill="#f9fcfe" d="M 908.5,196.5 C 908.833,196.5 909.167,196.5 909.5,196.5C 913.668,198.423 917.335,201.09 920.5,204.5C 921.855,203.812 922.855,202.812 923.5,201.5C 926.262,199.404 929.262,197.738 932.5,196.5C 938.25,195.832 943.583,196.832 948.5,199.5C 950.58,201.573 952.246,203.907 953.5,206.5C 954.437,222.138 954.771,237.805 954.5,253.5C 949.5,253.5 944.5,253.5 939.5,253.5C 939.667,240.829 939.5,228.162 939,215.5C 935.732,209.249 931.232,208.082 925.5,212C 924.748,212.671 924.414,213.504 924.5,214.5C 923.833,215.167 923.167,215.833 922.5,216.5C 921.505,228.655 921.171,240.989 921.5,253.5C 916.5,253.5 911.5,253.5 906.5,253.5C 906.829,240.656 906.495,227.989 905.5,215.5C 905.068,214.29 904.401,213.29 903.5,212.5C 899.833,208.5 896.167,208.5 892.5,212.5C 890.172,213.736 889.006,215.736 889,218.5C 888.5,230.162 888.333,241.829 888.5,253.5C 883.5,253.5 878.5,253.5 873.5,253.5C 873.5,234.833 873.5,216.167 873.5,197.5C 878.5,197.5 883.5,197.5 888.5,197.5C 887.452,206.041 889.118,206.708 893.5,199.5C 898.035,196.773 903.035,195.773 908.5,196.5 Z"/></g>
<g><path style="opacity:1" fill="#3048e9" d="M 909.5,196.5 C 912.167,196.833 914.833,197.167 917.5,197.5C 918.031,200.779 920.031,202.113 923.5,201.5C 922.855,202.812 921.855,203.812 920.5,204.5C 917.335,201.09 913.668,198.423 909.5,196.5 Z"/></g>
<g><path style="opacity:1" fill="#f9fbfe" d="M 1058.5,196.5 C 1058.5,196.833 1058.5,197.167 1058.5,197.5C 1058.82,202.363 1058.49,207.03 1057.5,211.5C 1054.29,211.19 1051.29,211.523 1048.5,212.5C 1045.83,213.167 1044.17,214.833 1043.5,217.5C 1042.78,217.918 1042.28,218.584 1042,219.5C 1041.5,230.828 1041.33,242.162 1041.5,253.5C 1036.5,253.5 1031.5,253.5 1026.5,253.5C 1026.5,234.833 1026.5,216.167 1026.5,197.5C 1031.5,197.5 1036.5,197.5 1041.5,197.5C 1041.19,199.924 1041.53,202.257 1042.5,204.5C 1044.19,202.481 1045.86,200.481 1047.5,198.5C 1048.17,198.167 1048.83,197.833 1049.5,197.5C 1052.43,196.701 1055.43,196.368 1058.5,196.5 Z"/></g>
<g><path style="opacity:1" fill="#2f4ae6" d="M 1041.5,196.5 C 1043.14,198.081 1045.14,198.747 1047.5,198.5C 1045.86,200.481 1044.19,202.481 1042.5,204.5C 1041.53,202.257 1041.19,199.924 1041.5,197.5C 1041.5,197.167 1041.5,196.833 1041.5,196.5 Z"/></g>
<g><path style="opacity:1" fill="#97b3fe" d="M 1058.5,197.5 C 1059.49,202.305 1059.82,207.305 1059.5,212.5C 1058.51,212.672 1057.84,212.338 1057.5,211.5C 1058.49,207.03 1058.82,202.363 1058.5,197.5 Z"/></g>
<g><path style="opacity:1" fill="#fcfefe" d="M 1082.5,197.5 C 1082.5,216.167 1082.5,234.833 1082.5,253.5C 1077.5,253.5 1072.5,253.5 1067.5,253.5C 1067.5,234.833 1067.5,216.167 1067.5,197.5C 1072.5,197.5 1077.5,197.5 1082.5,197.5 Z"/></g>
<g><path style="opacity:1" fill="#1e3de6" d="M 1116.5,200.5 C 1116.07,201.71 1115.4,202.71 1114.5,203.5C 1113.83,201.5 1113.17,199.5 1112.5,197.5C 1107.36,196.512 1102.03,196.179 1096.5,196.5C 1096.5,215.833 1096.5,235.167 1096.5,254.5C 1102.03,254.821 1107.36,254.488 1112.5,253.5C 1112.83,253.5 1113.17,253.5 1113.5,253.5C 1113.5,254.5 1113.5,255.5 1113.5,256.5C 1107.82,256.666 1102.16,256.499 1096.5,256C 1096,255.5 1095.5,255 1095,254.5C 1094.33,235.167 1094.33,215.833 1095,196.5C 1095.5,196 1096,195.5 1096.5,195C 1102.17,194.333 1107.83,194.333 1113.5,195C 1113.88,197.326 1114.88,199.159 1116.5,200.5 Z"/></g>
<g><path style="opacity:1" fill="#f8fafe" d="M 1112.5,197.5 C 1112.19,199.924 1112.53,202.257 1113.5,204.5C 1114.11,204.376 1114.44,204.043 1114.5,203.5C 1115.4,202.71 1116.07,201.71 1116.5,200.5C 1118.17,199.833 1119.83,199.167 1121.5,198.5C 1126.44,197.608 1131.44,197.274 1136.5,197.5C 1140.41,198.75 1143.41,201.083 1145.5,204.5C 1145.37,206.655 1145.87,208.655 1147,210.5C 1147.5,224.829 1147.67,239.163 1147.5,253.5C 1142.5,253.5 1137.5,253.5 1132.5,253.5C 1132.67,240.496 1132.5,227.496 1132,214.5C 1131.62,213.944 1131.12,213.611 1130.5,213.5C 1126.39,208.818 1121.73,208.318 1116.5,212C 1115.42,213.33 1114.75,214.83 1114.5,216.5C 1113.5,228.655 1113.17,240.989 1113.5,253.5C 1113.17,253.5 1112.83,253.5 1112.5,253.5C 1107.5,253.5 1102.5,253.5 1097.5,253.5C 1097.5,234.833 1097.5,216.167 1097.5,197.5C 1102.5,197.5 1107.5,197.5 1112.5,197.5 Z"/></g>
<g><path style="opacity:1" fill="#7990ec" d="M 1112.5,197.5 C 1113.17,199.5 1113.83,201.5 1114.5,203.5C 1114.44,204.043 1114.11,204.376 1113.5,204.5C 1112.53,202.257 1112.19,199.924 1112.5,197.5 Z"/></g>
<g><path style="opacity:1" fill="#1439e6" d="M 739.5,196.5 C 745.371,195.191 751.371,195.191 757.5,196.5C 758.333,210.154 758.833,223.821 759,237.5C 763.066,238.464 767.233,238.797 771.5,238.5C 771.082,239.222 770.416,239.722 769.5,240C 766.167,240.667 762.833,240.667 759.5,240C 758.299,239.097 757.465,237.931 757,236.5C 756.831,223.327 756.331,210.327 755.5,197.5C 750.36,196.512 745.026,196.179 739.5,196.5 Z"/></g>
<g><path style="opacity:1" fill="#bfd0f4" d="M 790.5,197.5 C 791.497,215.993 791.83,234.659 791.5,253.5C 786.167,254.833 780.833,254.833 775.5,253.5C 776.01,250.612 775.344,248.279 773.5,246.5C 774.209,245.596 775.209,245.263 776.5,245.5C 776.5,247.833 776.5,250.167 776.5,252.5C 781.167,252.5 785.833,252.5 790.5,252.5C 790.5,234.167 790.5,215.833 790.5,197.5 Z"/></g>
<g><path style="opacity:1" fill="#5069dd" d="M 775.5,197.5 C 781.167,196.167 786.833,196.167 792.5,197.5C 792.83,216.341 792.497,235.007 791.5,253.5C 791.83,234.659 791.497,215.993 790.5,197.5C 785.5,197.5 780.5,197.5 775.5,197.5 Z"/></g>
<g><path style="opacity:1" fill="#9eb6f6" d="M 888.5,196.5 C 888.5,196.833 888.5,197.167 888.5,197.5C 883.5,197.5 878.5,197.5 873.5,197.5C 873.5,216.167 873.5,234.833 873.5,253.5C 878.5,253.5 883.5,253.5 888.5,253.5C 883.36,254.488 878.026,254.821 872.5,254.5C 872.5,235.167 872.5,215.833 872.5,196.5C 877.833,196.5 883.167,196.5 888.5,196.5 Z"/></g>
<g><path style="opacity:1" fill="#a0b4f4" d="M 1041.5,196.5 C 1041.5,196.833 1041.5,197.167 1041.5,197.5C 1036.5,197.5 1031.5,197.5 1026.5,197.5C 1026.5,216.167 1026.5,234.833 1026.5,253.5C 1031.5,253.5 1036.5,253.5 1041.5,253.5C 1041.5,254.167 1041.17,254.5 1040.5,254.5C 1035.24,254.805 1030.07,254.471 1025,253.5C 1024.33,234.833 1024.33,216.167 1025,197.5C 1030.41,196.527 1035.91,196.193 1041.5,196.5 Z"/></g>
<g><path style="opacity:1" fill="#3057ea" d="M 1058.5,197.5 C 1058.5,197.167 1058.5,196.833 1058.5,196.5C 1059.81,198.743 1060.48,201.41 1060.5,204.5C 1060.5,207.355 1060.16,210.022 1059.5,212.5C 1059.82,207.305 1059.49,202.305 1058.5,197.5 Z"/></g>
<g><path style="opacity:1" fill="#4c65e7" d="M 888.5,197.5 C 889.779,198.968 891.446,199.635 893.5,199.5C 889.118,206.708 887.452,206.041 888.5,197.5 Z"/></g>
<g><path style="opacity:1" fill="#98aeea" d="M 1112.5,197.5 C 1107.5,197.5 1102.5,197.5 1097.5,197.5C 1097.5,216.167 1097.5,234.833 1097.5,253.5C 1102.5,253.5 1107.5,253.5 1112.5,253.5C 1107.36,254.488 1102.03,254.821 1096.5,254.5C 1096.5,235.167 1096.5,215.833 1096.5,196.5C 1102.03,196.179 1107.36,196.512 1112.5,197.5 Z"/></g>
<g><path style="opacity:1" fill="#6f86eb" d="M 704.5,205.5 C 706.027,205.427 707.027,206.094 707.5,207.5C 705.973,207.573 704.973,206.906 704.5,205.5 Z"/></g>
<g><path style="opacity:1" fill="#4356de" d="M 903.5,212.5 C 899.833,211.167 896.167,211.167 892.5,212.5C 896.167,208.5 899.833,208.5 903.5,212.5 Z"/></g>
<g><path style="opacity:1" fill="#3852de" d="M 992.5,211.5 C 986.083,210.139 979.75,210.472 973.5,212.5C 976.941,210.415 980.775,209.415 985,209.5C 987.866,209.3 990.366,209.967 992.5,211.5 Z"/></g>
<g><path style="opacity:1" fill="#0a34fa" d="M 1193.5,212.5 C 1195.73,220.383 1196.06,228.383 1194.5,236.5C 1193.17,238.5 1191.5,240.167 1189.5,241.5C 1185.33,242.056 1181.67,241.056 1178.5,238.5C 1178.44,237.391 1178.11,236.391 1177.5,235.5C 1176.61,229.855 1176.45,224.188 1177,218.5C 1179.16,216.183 1180.66,213.516 1181.5,210.5C 1185.79,208.873 1189.79,209.539 1193.5,212.5 Z"/></g>
<g><path style="opacity:1" fill="#6377ea" d="M 682.5,210.5 C 684.5,211.833 686.167,213.5 687.5,215.5C 684.833,214.833 683.167,213.167 682.5,210.5 Z"/></g>
<g><path style="opacity:1" fill="#3047e1" d="M 653.5,193.5 C 655.09,193.628 656.423,194.295 657.5,195.5C 662.614,206.009 663.781,217.009 661,228.5C 660.292,229.381 659.458,230.047 658.5,230.5C 663.604,217.181 661.937,204.848 653.5,193.5 Z"/></g>
<g><path style="opacity:1" fill="#0934fc" d="M 842.5,215.5 C 844.145,222.624 843.811,229.624 841.5,236.5C 840.809,238.022 839.642,239.022 838,239.5C 835.23,240.348 832.397,240.681 829.5,240.5C 828.71,239.599 827.71,238.932 826.5,238.5C 826.167,237.833 825.833,237.167 825.5,236.5C 824.302,232.902 823.302,229.236 822.5,225.5C 822.413,214.422 827.746,210.255 838.5,213C 839.736,214.085 841.069,214.918 842.5,215.5 Z"/></g>
<g><path style="opacity:1" fill="#3b55e8" d="M 969.5,199.5 C 969.173,204.214 969.507,208.88 970.5,213.5C 971.417,212.873 972.417,212.539 973.5,212.5C 972.7,214.741 971.034,215.741 968.5,215.5C 968.179,209.974 968.512,204.64 969.5,199.5 Z"/></g>
<g><path style="opacity:1" fill="#576be0" d="M 1048.5,212.5 C 1047.17,214.5 1045.5,216.167 1043.5,217.5C 1044.17,214.833 1045.83,213.167 1048.5,212.5 Z"/></g>
<g><path style="opacity:1" fill="#86a3fb" d="M 1067.5,196.5 C 1072.5,196.5 1077.5,196.5 1082.5,196.5C 1082.5,196.833 1082.5,197.167 1082.5,197.5C 1077.5,197.5 1072.5,197.5 1067.5,197.5C 1067.5,216.167 1067.5,234.833 1067.5,253.5C 1066.17,234.5 1066.17,215.5 1067.5,196.5 Z"/></g>
<g><path style="opacity:1" fill="#adc0f3" d="M 1145.5,204.5 C 1146.79,205.842 1147.63,207.509 1148,209.5C 1148.5,223.829 1148.67,238.163 1148.5,252.5C 1148.5,253.167 1148.5,253.833 1148.5,254.5C 1142.97,254.821 1137.64,254.488 1132.5,253.5C 1137.5,253.5 1142.5,253.5 1147.5,253.5C 1147.67,239.163 1147.5,224.829 1147,210.5C 1145.87,208.655 1145.37,206.655 1145.5,204.5 Z"/></g>
<g><path style="opacity:1" fill="#4865e6" d="M 1010.5,207.5 C 1011.79,208.058 1012.62,209.058 1013,210.5C 1013.5,224.829 1013.67,239.163 1013.5,253.5C 1013.17,253.5 1012.83,253.5 1012.5,253.5C 1012.83,239.656 1012.5,225.99 1011.5,212.5C 1011.37,210.784 1011.04,209.117 1010.5,207.5 Z"/></g>
<g><path style="opacity:1" fill="#2f4fe7" d="M 1124.5,196.5 C 1130.07,195.13 1135.74,195.297 1141.5,197C 1144.44,199.869 1146.94,203.035 1149,206.5C 1149.83,222.006 1149.66,237.339 1148.5,252.5C 1148.67,238.163 1148.5,223.829 1148,209.5C 1147.63,207.509 1146.79,205.842 1145.5,204.5C 1143.41,201.083 1140.41,198.75 1136.5,197.5C 1132.7,196.517 1128.7,196.183 1124.5,196.5 Z"/></g>
<g><path style="opacity:1" fill="#4350e5" d="M 939.5,253.5 C 937.682,240.872 936.848,227.872 937,214.5C 932.834,211.87 928.668,211.87 924.5,214.5C 924.414,213.504 924.748,212.671 925.5,212C 931.232,208.082 935.732,209.249 939,215.5C 939.5,228.162 939.667,240.829 939.5,253.5 Z"/></g>
<g><path style="opacity:1" fill="#1337e0" d="M 1130.5,213.5 C 1131.13,226.962 1131.8,240.295 1132.5,253.5C 1137.64,254.488 1142.97,254.821 1148.5,254.5C 1143.02,255.652 1137.35,255.818 1131.5,255C 1131,254.5 1130.5,254 1130,253.5C 1129.83,240.154 1129.33,226.821 1128.5,213.5C 1124.89,212.407 1121.23,212.24 1117.5,213C 1117.03,214.729 1116.03,215.895 1114.5,216.5C 1114.75,214.83 1115.42,213.33 1116.5,212C 1121.73,208.318 1126.39,208.818 1130.5,213.5 Z"/></g>
<g><path style="opacity:1" fill="#4661e0" d="M 993.5,211.5 C 994.117,211.611 994.617,211.944 995,212.5C 995.497,215.146 995.664,217.813 995.5,220.5C 990.833,220.5 986.167,220.5 981.5,220.5C 985.634,219.515 989.968,219.182 994.5,219.5C 994.599,216.763 994.265,214.096 993.5,211.5 Z"/></g>
<g><path style="opacity:1" fill="#2141e4" d="M 903.5,212.5 C 904.401,213.29 905.068,214.29 905.5,215.5C 905.5,228.5 905.5,241.5 905.5,254.5C 904.764,240.648 904.097,226.648 903.5,212.5 Z"/></g>
<g><path style="opacity:1" fill="#7692ed" d="M 1130.5,213.5 C 1131.12,213.611 1131.62,213.944 1132,214.5C 1132.5,227.496 1132.67,240.496 1132.5,253.5C 1131.8,240.295 1131.13,226.962 1130.5,213.5 Z"/></g>
<g><path style="opacity:1" fill="#3048e4" d="M 687.5,215.5 C 691.401,218.946 695.734,221.613 700.5,223.5C 697.353,223.263 694.353,222.43 691.5,221C 689.181,219.853 687.848,218.019 687.5,215.5 Z"/></g>
<g><path style="opacity:1" fill="#839af3" d="M 822.5,216.5 C 821.8,220.798 821.467,225.131 821.5,229.5C 820.84,228.036 820.507,226.369 820.5,224.5C 820.382,221.514 821.048,218.848 822.5,216.5 Z"/></g>
<g><path style="opacity:1" fill="#2a46e4" d="M 842.5,215.5 C 841.069,214.918 839.736,214.085 838.5,213C 827.746,210.255 822.413,214.422 822.5,225.5C 823.302,229.236 824.302,232.902 825.5,236.5C 823.794,234.388 822.461,232.055 821.5,229.5C 821.467,225.131 821.8,220.798 822.5,216.5C 827.161,210.353 833.161,208.853 840.5,212C 841.823,212.816 842.489,213.983 842.5,215.5 Z"/></g>
<g><path style="opacity:1" fill="#9caef3" d="M 857.5,207.5 C 859.837,209.965 861.337,212.965 862,216.5C 862.816,221.684 862.65,226.684 861.5,231.5C 862.095,223.148 860.762,215.148 857.5,207.5 Z"/></g>
<g><path style="opacity:1" fill="#1035e3" d="M 924.5,214.5 C 924.667,227.504 924.5,240.504 924,253.5C 923.626,254.416 923.126,255.25 922.5,256C 919.667,256.167 916.833,256.333 914,256.5C 910.748,256.481 907.915,255.814 905.5,254.5C 911.167,254.5 916.833,254.5 922.5,254.5C 922.5,241.833 922.5,229.167 922.5,216.5C 923.167,215.833 923.833,215.167 924.5,214.5 Z"/></g>
<g><path style="opacity:1" fill="#354dd8" d="M 1181.5,210.5 C 1180.66,213.516 1179.16,216.183 1177,218.5C 1176.45,224.188 1176.61,229.855 1177.5,235.5C 1176.73,234.737 1176.23,233.737 1176,232.5C 1174.9,225.615 1175.57,218.949 1178,212.5C 1178.82,211.177 1179.98,210.511 1181.5,210.5 Z"/></g>
<g><path style="opacity:1" fill="#4b64e2" d="M 1193.5,212.5 C 1194.56,213.6 1195.39,214.934 1196,216.5C 1196.17,219.333 1196.33,222.167 1196.5,225C 1196.71,229.133 1196.05,232.966 1194.5,236.5C 1196.06,228.383 1195.73,220.383 1193.5,212.5 Z"/></g>
<g><path style="opacity:1" fill="#425ee1" d="M 1212.5,215.5 C 1213.22,215.918 1213.72,216.584 1214,217.5C 1214.82,222.352 1214.65,227.019 1213.5,231.5C 1213.61,226.13 1213.27,220.797 1212.5,215.5 Z"/></g>
<g><path style="opacity:1" fill="#2d45e7" d="M 701.5,223.5 C 703.714,224.874 706.047,226.041 708.5,227C 712.367,230.702 712.367,234.202 708.5,237.5C 709.865,231.891 707.865,228.225 702.5,226.5C 701.614,225.675 701.281,224.675 701.5,223.5 Z"/></g>
<g><path style="opacity:1" fill="#5470f4" d="M 892.5,212.5 C 891.109,214.921 890.275,217.588 890,220.5C 889.5,231.495 889.333,242.495 889.5,253.5C 889.167,253.5 888.833,253.5 888.5,253.5C 888.333,241.829 888.5,230.162 889,218.5C 889.006,215.736 890.172,213.736 892.5,212.5 Z"/></g>
<g><path style="opacity:1" fill="#98b1ef" d="M 905.5,215.5 C 906.495,227.989 906.829,240.656 906.5,253.5C 911.5,253.5 916.5,253.5 921.5,253.5C 921.171,240.989 921.505,228.655 922.5,216.5C 922.5,229.167 922.5,241.833 922.5,254.5C 916.833,254.5 911.167,254.5 905.5,254.5C 905.5,241.5 905.5,228.5 905.5,215.5 Z"/></g>
<g><path style="opacity:1" fill="#9fb4ef" d="M 953.5,206.5 C 954.222,206.918 954.722,207.584 955,208.5C 955.5,223.83 955.667,239.163 955.5,254.5C 949.974,254.821 944.64,254.488 939.5,253.5C 944.5,253.5 949.5,253.5 954.5,253.5C 954.771,237.805 954.437,222.138 953.5,206.5 Z"/></g>
<g><path style="opacity:1" fill="#1037dc" d="M 1041.5,196.5 C 1035.91,196.193 1030.41,196.527 1025,197.5C 1024.33,216.167 1024.33,234.833 1025,253.5C 1030.07,254.471 1035.24,254.805 1040.5,254.5C 1035.1,255.825 1029.6,255.825 1024,254.5C 1023.33,235.167 1023.33,215.833 1024,196.5C 1029.93,195.175 1035.77,195.175 1041.5,196.5 Z"/></g>
<g><path style="opacity:1" fill="#2c45ed" d="M 1158.5,216.5 C 1157.12,227.321 1159.12,237.321 1164.5,246.5C 1163.28,245.972 1162.11,245.305 1161,244.5C 1156.18,236.486 1154.68,227.819 1156.5,218.5C 1157.18,217.757 1157.85,217.091 1158.5,216.5 Z"/></g>
<g><path style="opacity:1" fill="#364bdf" d="M 399.5,225.5 C 401.5,225.5 403.5,225.5 405.5,225.5C 405.343,226.873 405.51,228.207 406,229.5C 407.821,231.146 408.987,233.146 409.5,235.5C 405.523,233.888 403.857,230.888 404.5,226.5C 403.167,226.5 401.833,226.5 400.5,226.5C 400.809,231.267 400.309,235.934 399,240.5C 396.842,241.826 395.008,243.493 393.5,245.5C 391.018,244.933 388.684,244.266 386.5,243.5C 391.094,244.343 394.761,243.009 397.5,239.5C 398.268,238.737 398.768,237.737 399,236.5C 399.499,232.848 399.665,229.182 399.5,225.5 Z"/></g>
<g><path style="opacity:1" fill="#2b46ed" d="M 729.5,227.5 C 730.765,228.514 731.431,230.014 731.5,232C 731.163,235.523 730.663,239.023 730,242.5C 728.871,244.141 727.371,245.141 725.5,245.5C 726.552,242.807 727.552,240.14 728.5,237.5C 729.479,234.375 729.813,231.042 729.5,227.5 Z"/></g>
<g><path style="opacity:1" fill="#b2c3f7" d="M 399.5,225.5 C 399.665,229.182 399.499,232.848 399,236.5C 398.768,237.737 398.268,238.737 397.5,239.5C 397.911,234.662 398.578,229.995 399.5,225.5 Z"/></g>
<g><path style="opacity:1" fill="#647ce8" d="M 995.5,231.5 C 991.766,231.323 988.099,231.656 984.5,232.5C 984.611,231.883 984.944,231.383 985.5,231C 989.027,230.192 992.36,230.359 995.5,231.5 Z"/></g>
<g><path style="opacity:1" fill="#1d3af2" d="M 995.5,231.5 C 996.005,239.993 992.005,243.659 983.5,242.5C 983.173,240.512 982.84,238.512 982.5,236.5C 982.34,234.645 983.007,233.312 984.5,232.5C 988.099,231.656 991.766,231.323 995.5,231.5 Z"/></g>
<g><path style="opacity:1" fill="#2f46e2" d="M 842.5,215.5 C 844.895,218.12 845.895,221.287 845.5,225C 845.519,228.652 844.852,232.152 843.5,235.5C 842.833,235.833 842.167,236.167 841.5,236.5C 843.811,229.624 844.145,222.624 842.5,215.5 Z"/></g>
<g><path style="opacity:1" fill="#b2bff7" d="M 968.5,227.5 C 966.753,233.791 966.42,240.124 967.5,246.5C 966.883,246.389 966.383,246.056 966,245.5C 964.637,241.239 964.304,236.905 965,232.5C 965.697,230.416 966.864,228.749 968.5,227.5 Z"/></g>
<g><path style="opacity:1" fill="#9fb3f6" d="M 727.5,222.5 C 728.931,223.78 729.598,225.447 729.5,227.5C 729.813,231.042 729.479,234.375 728.5,237.5C 728.587,232.463 728.254,227.463 727.5,222.5 Z"/></g>
<g><path style="opacity:1" fill="#5161e4" d="M 658.5,231.5 C 658.408,233.848 657.408,235.514 655.5,236.5C 655.75,234.326 656.75,232.659 658.5,231.5 Z"/></g>
<g><path style="opacity:1" fill="#2b45de" d="M 680.5,233.5 C 681.601,232.402 682.934,232.235 684.5,233C 687.745,235.099 691.079,236.932 694.5,238.5C 694.167,238.5 693.833,238.5 693.5,238.5C 689.901,237.747 686.567,236.413 683.5,234.5C 682.791,233.596 681.791,233.263 680.5,233.5 Z"/></g>
<g><path style="opacity:1" fill="#a3b4f1" d="M 821.5,229.5 C 822.461,232.055 823.794,234.388 825.5,236.5C 825.833,237.167 826.167,237.833 826.5,238.5C 824.983,238.489 823.816,237.823 823,236.5C 822.023,234.26 821.523,231.927 821.5,229.5 Z"/></g>
<g><path style="opacity:1" fill="#9cb2f8" d="M 680.5,233.5 C 681.791,233.263 682.791,233.596 683.5,234.5C 681.554,239.396 680.887,244.729 681.5,250.5C 680.511,245.025 680.178,239.358 680.5,233.5 Z"/></g>
<g><path style="opacity:1" fill="#aabcf4" d="M 693.5,238.5 C 693.833,238.5 694.167,238.5 694.5,238.5C 698.4,239.43 702.4,239.763 706.5,239.5C 702.689,240.645 698.689,240.812 694.5,240C 693.944,239.617 693.611,239.117 693.5,238.5 Z"/></g>
<g><path style="opacity:1" fill="#c2d1f6" d="M 843.5,235.5 C 842.746,238.091 841.079,239.924 838.5,241C 835.304,241.805 832.304,241.638 829.5,240.5C 832.397,240.681 835.23,240.348 838,239.5C 839.642,239.022 840.809,238.022 841.5,236.5C 842.167,236.167 842.833,235.833 843.5,235.5 Z"/></g>
<g><path style="opacity:1" fill="#b6c5f6" d="M 1178.5,238.5 C 1181.67,241.056 1185.33,242.056 1189.5,241.5C 1186.31,242.806 1182.98,242.806 1179.5,241.5C 1178.87,240.583 1178.54,239.583 1178.5,238.5 Z"/></g>
<g><path style="opacity:1" fill="#3e51e5" d="M 1213.5,231.5 C 1213.01,236.299 1212.01,240.965 1210.5,245.5C 1209.5,245.5 1208.5,245.5 1207.5,245.5C 1210.08,241.017 1212.08,236.351 1213.5,231.5 Z"/></g>
<g><path style="opacity:1" fill="#374be7" d="M 861.5,236.5 C 861.514,241.152 859.514,244.485 855.5,246.5C 857.11,242.9 859.11,239.566 861.5,236.5 Z"/></g>
<g><path style="opacity:1" fill="#3e54e0" d="M 650.5,242.5 C 649.732,245.562 647.732,247.228 644.5,247.5C 646.46,245.844 648.46,244.177 650.5,242.5 Z"/></g>
<g><path style="opacity:1" fill="#465ae2" d="M 739.5,240.5 C 739.833,240.5 740.167,240.5 740.5,240.5C 741.049,242.901 741.882,245.235 743,247.5C 745.09,249.416 746.923,251.416 748.5,253.5C 742.808,251.125 739.808,246.792 739.5,240.5 Z"/></g>
<g><path style="opacity:1" fill="#6981e6" d="M 773.5,246.5 C 775.344,248.279 776.01,250.612 775.5,253.5C 775.028,251.469 774.028,249.802 772.5,248.5C 772.833,247.833 773.167,247.167 773.5,246.5 Z"/></g>
<g><path style="opacity:1" fill="#6d88ec" d="M 822.5,247.5 C 821.539,249.265 821.205,251.265 821.5,253.5C 821.167,253.5 820.833,253.5 820.5,253.5C 820.192,251.076 820.526,248.743 821.5,246.5C 822.107,246.624 822.44,246.957 822.5,247.5 Z"/></g>
<g><path style="opacity:1" fill="#8b9feb" d="M 1170.5,250.5 C 1172.03,250.427 1173.03,251.094 1173.5,252.5C 1171.97,252.573 1170.97,251.906 1170.5,250.5 Z"/></g>
<g><path style="opacity:1" fill="#889cf0" d="M 683.5,251.5 C 685.898,251.259 687.898,251.926 689.5,253.5C 687.102,253.741 685.102,253.074 683.5,251.5 Z"/></g>
<g><path style="opacity:1" fill="#4250e7" d="M 644.5,247.5 C 644.489,249.017 643.823,250.184 642.5,251C 639.56,252.152 636.56,253.152 633.5,254C 565.833,254.667 498.167,254.667 430.5,254C 428.655,252.872 426.655,252.372 424.5,252.5C 424.5,251.5 424.5,250.5 424.5,249.5C 426.859,250.176 429.192,251.009 431.5,252C 497.166,252.5 562.832,252.667 628.5,252.5C 630.857,252.663 633.19,252.497 635.5,252C 637.32,251.8 638.653,250.966 639.5,249.5C 641.05,248.559 642.716,247.893 644.5,247.5 Z"/></g>
<g><path style="opacity:1" fill="#7386e9" d="M 639.5,249.5 C 638.653,250.966 637.32,251.8 635.5,252C 633.19,252.497 630.857,252.663 628.5,252.5C 632.083,251.614 635.75,250.614 639.5,249.5 Z"/></g>
<g><path style="opacity:1" fill="#a3b7f2" d="M 828.5,252.5 C 833.797,253.275 839.13,253.608 844.5,253.5C 840.366,254.485 836.032,254.818 831.5,254.5C 830.29,254.068 829.29,253.401 828.5,252.5 Z"/></g>
<g><path style="opacity:1" fill="#94aaee" d="M 1011.5,212.5 C 1012.5,225.99 1012.83,239.656 1012.5,253.5C 1007.17,254.833 1001.83,254.833 996.5,253.5C 1001.5,253.5 1006.5,253.5 1011.5,253.5C 1011.5,239.833 1011.5,226.167 1011.5,212.5 Z"/></g>
<g><path style="opacity:1" fill="#485ce5" d="M 719.5,250.5 C 717.572,252.474 715.239,253.974 712.5,255C 705.986,255.82 699.653,255.653 693.5,254.5C 702.595,255.462 711.262,254.129 719.5,250.5 Z"/></g>
<g><path style="opacity:1" fill="#4257e6" d="M 855.5,246.5 C 854.962,248.117 854.629,249.784 854.5,251.5C 851.148,251.784 848.148,252.95 845.5,255C 840.648,255.815 835.981,255.648 831.5,254.5C 836.032,254.818 840.366,254.485 844.5,253.5C 848.605,251.942 852.271,249.609 855.5,246.5 Z"/></g>
<g><path style="opacity:1" fill="#3f54e8" d="M 1202.5,250.5 C 1201.09,252.611 1199.09,254.111 1196.5,255C 1190.98,255.817 1185.65,255.651 1180.5,254.5C 1184.85,254.666 1189.18,254.499 1193.5,254C 1196.42,252.684 1199.42,251.517 1202.5,250.5 Z"/></g>
<g><path style="opacity:1" fill="#1f3de7" d="M 996.5,253.5 C 1001.83,254.833 1007.17,254.833 1012.5,253.5C 1012.83,253.5 1013.17,253.5 1013.5,253.5C 1013.59,254.496 1013.25,255.329 1012.5,256C 1007.17,256.667 1001.83,256.667 996.5,256C 993.926,252.84 991.259,252.84 988.5,256C 982.45,257.195 976.783,256.362 971.5,253.5C 970.873,252.583 970.539,251.583 970.5,250.5C 971.167,250.833 971.833,251.167 972.5,251.5C 973.635,253.213 975.302,253.88 977.5,253.5C 985,256.017 991.167,254.017 996,247.5C 996.495,249.473 996.662,251.473 996.5,253.5 Z"/></g>
<g><path style="opacity:1" fill="#8a9ff0" d="M 972.5,251.5 C 974.403,251.796 976.07,252.463 977.5,253.5C 975.302,253.88 973.635,253.213 972.5,251.5 Z"/></g>
</svg>
